<svg width="464" height="290" viewBox="0 0 464 290" fill="none" xmlns="http://www.w3.org/2000/svg">
<g filter="url(#filter0_d_1761_2657)">
<rect x="45" y="6" width="374" height="274" rx="8" fill="white" stroke="#D8DDE0" stroke-width="4"/>
<path d="M43 12C43 7.58172 46.5817 4 51 4H413C417.418 4 421 7.58172 421 12V27H43V12Z" fill="#D8DDE0"/>
<circle cx="57.5" cy="15.5" r="4.5" fill="white"/>
<circle cx="73.5" cy="15.5" r="4.5" fill="white"/>
<circle cx="88.5" cy="15.5" r="4.5" fill="white"/>
</g>
<rect width="370" height="29" transform="translate(47 27)" fill="#005EB8"/>
<g clip-path="url(#clip0_1761_2657)">
<path d="M67 32.0476H114.261V50.9522H67V32.0476Z" fill="white"/>
<path d="M71.6081 33.82H76.8069L79.8788 44.4538H79.997L82.1238 33.82H86.0228L82.7145 49.18H77.6339L74.4438 38.5462H74.3256L72.1989 49.18H68.2998L71.6081 33.82ZM87.4407 33.82H91.6942L90.5126 39.6095H95.2388L96.5385 33.82H100.674L97.4837 49.18H93.3483L94.648 42.5634H89.8037L88.3859 49.18H84.3687L87.4407 33.82ZM111.544 37.2465C110.717 36.892 109.653 36.5376 108.118 36.5376C106.463 36.5376 105.164 36.7739 105.164 38.0735C105.164 40.2003 111.189 39.4914 111.189 44.0994C111.189 48.3529 107.29 49.4163 103.628 49.4163C102.092 49.4163 100.201 49.0618 98.9015 48.5892L99.8468 45.3991C100.674 45.8717 102.328 46.2261 103.628 46.2261C104.927 46.2261 106.936 45.9898 106.936 44.4538C106.936 41.9726 100.91 42.9178 100.91 38.5462C100.91 34.5289 104.337 33.3474 107.763 33.3474C109.653 33.3474 111.426 33.5837 112.489 34.0563" fill="#005EB8"/>
<path d="M151.945 47.6612L152.021 46.683C152.211 46.7465 152.402 46.7847 152.58 46.7847C153.355 46.7847 153.837 45.9843 154.003 45.1967C154.003 45.0697 153.876 44.7775 153.825 44.6378L151.576 38.4512H152.885L154.625 43.812H154.65L156.429 38.4512H157.636L155.07 45.5651C154.676 46.6449 154.142 47.7501 152.758 47.7501C152.389 47.7501 152.161 47.6993 151.945 47.6612Z" fill="white"/>
<path d="M149.536 44.9301H148.342V39.4167H146.817V38.4513H148.342V37.8161C148.342 36.1138 148.888 35.25 150.514 35.25C150.768 35.25 151.01 35.2754 151.314 35.3262L151.264 36.2917C151.124 36.2409 150.882 36.2155 150.692 36.2155C149.828 36.2155 149.536 36.6601 149.536 37.651V38.4513H151.251V39.4167H149.536V44.9301Z" fill="white"/>
<path d="M145.454 37.0031H144.107V35.6565H145.454V37.0031ZM145.378 44.93H144.184V38.4513H145.378V44.93Z" fill="white"/>
<path d="M142.638 43.8885V44.9048C142.321 44.9937 141.99 45.0826 141.609 45.0826C140.275 45.0826 139.627 44.3839 139.627 43.2152V39.4169H138.167V38.4514H139.627V36.9524L140.822 36.5713V38.4514H142.537V39.4169H140.822V42.9865C140.822 43.5836 141.177 44.1172 141.825 44.1172C142.219 44.1172 142.473 43.9901 142.638 43.8885Z" fill="white"/>
<path d="M134.185 45.0822C132.28 45.0822 130.895 43.5705 130.895 41.6904C130.895 39.7087 132.216 38.2986 134.198 38.2986C136.091 38.2986 137.488 39.6452 137.488 41.6904C137.488 43.507 136.18 45.0822 134.185 45.0822ZM134.198 44.1168C135.532 44.1168 136.218 42.9481 136.218 41.6904C136.218 40.4074 135.443 39.264 134.185 39.264C132.94 39.264 132.165 40.4455 132.165 41.6904C132.165 42.9354 132.851 44.1168 134.198 44.1168Z" fill="white"/>
<path d="M129.197 44.9303H127.571L123.557 37.6385H123.532V44.9303H122.261V36.0632H123.989L127.902 43.2026H127.927V36.0632H129.197V44.9303Z" fill="white"/>
</g>
<path d="M74.745 84.095L74.835 85.85C74.055 86.03 73.245 86.18 72.45 86.18C68.865 86.18 66.705 84.32 66.705 80.945C66.705 77.405 68.85 75.35 72.45 75.35C73.17 75.35 74.1 75.5 74.82 75.785L74.67 77.555C73.905 77.12 73.185 77 72.405 77C70.29 77 68.895 78.605 68.895 80.795C68.895 83 70.275 84.53 72.45 84.53C73.185 84.53 74.19 84.38 74.745 84.095ZM78.2599 86H76.2499V78.275H78.0349V80.03H78.0649C78.1849 79.22 79.0249 78.095 80.1949 78.095C80.6149 78.095 80.7349 78.14 80.7949 78.155V80.18C80.6149 80.075 80.2549 80.015 79.8949 80.015C79.1449 80.015 78.2599 80.42 78.2599 82.82V86ZM87.9663 83.93V85.565C87.2313 85.97 86.3913 86.18 85.3263 86.18C82.7613 86.18 81.2763 84.71 81.2763 82.175C81.2763 80.015 82.4013 78.095 84.8613 78.095C87.4863 78.095 88.5363 79.715 88.5363 82.76H83.1963C83.2863 83.975 84.1113 84.71 85.4163 84.71C86.3763 84.71 87.2163 84.35 87.9663 83.93ZM83.1963 81.38H86.6163C86.5413 80.27 86.0163 79.565 84.9663 79.565C83.9613 79.565 83.3013 80.225 83.1963 81.38ZM96.5863 86H94.8163C94.7563 85.715 94.7413 85.19 94.7263 84.845H94.6963C94.2463 85.67 93.2713 86.18 92.3113 86.18C90.9163 86.18 89.6113 85.34 89.6113 83.87C89.6113 82.535 90.3763 81.23 93.3913 81.23H94.6363V81.2C94.6363 79.91 93.9763 79.565 92.8963 79.565C92.0413 79.565 91.1863 79.895 90.5113 80.405L90.4513 78.68C91.1713 78.35 92.2063 78.095 93.1363 78.095C95.4463 78.095 96.4663 79.025 96.4663 81.35V82.94C96.4663 83.345 96.4963 84.965 96.5863 86ZM94.6363 82.52V82.43H93.7513C92.3263 82.43 91.5313 82.85 91.5313 83.765C91.5313 84.365 91.9963 84.71 92.8063 84.71C93.7063 84.71 94.6363 84.095 94.6363 82.52ZM102.971 84.41L103.031 86C102.611 86.12 102.146 86.18 101.561 86.18C99.9263 86.18 99.1013 85.16 99.1013 83.675V79.745H97.6163V78.275H99.1013V76.73L101.111 76.085V78.275H102.896V79.745H101.111V83.33C101.111 84.14 101.366 84.62 102.071 84.62C102.416 84.62 102.761 84.545 102.971 84.41ZM110.466 83.93V85.565C109.731 85.97 108.891 86.18 107.826 86.18C105.261 86.18 103.776 84.71 103.776 82.175C103.776 80.015 104.901 78.095 107.361 78.095C109.986 78.095 111.036 79.715 111.036 82.76H105.696C105.786 83.975 106.611 84.71 107.916 84.71C108.876 84.71 109.716 84.35 110.466 83.93ZM105.696 81.38H109.116C109.041 80.27 108.516 79.565 107.466 79.565C106.461 79.565 105.801 80.225 105.696 81.38ZM121.311 84.41L121.371 86C120.951 86.12 120.486 86.18 119.901 86.18C118.266 86.18 117.441 85.16 117.441 83.675V79.745H115.956V78.275H117.441V76.73L119.451 76.085V78.275H121.236V79.745H119.451V83.33C119.451 84.14 119.706 84.62 120.411 84.62C120.756 84.62 121.101 84.545 121.311 84.41ZM128.806 83.93V85.565C128.071 85.97 127.231 86.18 126.166 86.18C123.601 86.18 122.116 84.71 122.116 82.175C122.116 80.015 123.241 78.095 125.701 78.095C128.326 78.095 129.376 79.715 129.376 82.76H124.036C124.126 83.975 124.951 84.71 126.256 84.71C127.216 84.71 128.056 84.35 128.806 83.93ZM124.036 81.38H127.456C127.381 80.27 126.856 79.565 125.806 79.565C124.801 79.565 124.141 80.225 124.036 81.38ZM138.116 86H135.716L133.991 83.12L132.251 86H130.046L132.701 81.95L130.316 78.275H132.686L134.201 80.795L135.686 78.275H137.816L135.506 81.95L138.116 86ZM143.811 84.41L143.871 86C143.451 86.12 142.986 86.18 142.401 86.18C140.766 86.18 139.941 85.16 139.941 83.675V79.745H138.456V78.275H139.941V76.73L141.951 76.085V78.275H143.736V79.745H141.951V83.33C141.951 84.14 142.206 84.62 142.911 84.62C143.256 84.62 143.601 84.545 143.811 84.41ZM160.596 86H158.586V81.185C158.586 80.03 158.151 79.655 157.431 79.655C156.411 79.655 155.931 80.6 155.931 82.22V86H153.921V81.185C153.921 80.06 153.516 79.655 152.766 79.655C151.716 79.655 151.266 80.645 151.266 82.205V86H149.256V78.275H151.131V79.355H151.161C151.686 78.575 152.496 78.095 153.471 78.095C154.536 78.095 155.301 78.5 155.736 79.46C156.156 78.605 157.101 78.095 158.166 78.095C159.801 78.095 160.596 79.085 160.596 81.095V86ZM168.811 83.93V85.565C168.076 85.97 167.236 86.18 166.171 86.18C163.606 86.18 162.121 84.71 162.121 82.175C162.121 80.015 163.246 78.095 165.706 78.095C168.331 78.095 169.381 79.715 169.381 82.76H164.041C164.131 83.975 164.956 84.71 166.261 84.71C167.221 84.71 168.061 84.35 168.811 83.93ZM164.041 81.38H167.461C167.386 80.27 166.861 79.565 165.811 79.565C164.806 79.565 164.146 80.225 164.041 81.38ZM170.531 85.85L170.651 84.2C171.281 84.515 171.941 84.71 172.631 84.71C173.171 84.71 173.951 84.5 173.951 83.765C173.951 83.12 173.321 82.925 172.511 82.7C171.161 82.34 170.456 81.785 170.456 80.495C170.456 78.935 171.761 78.095 173.501 78.095C174.116 78.095 174.716 78.155 175.676 78.38L175.541 79.895C174.851 79.655 174.386 79.565 173.756 79.565C173.051 79.565 172.556 79.85 172.556 80.42C172.556 80.855 172.976 81.065 173.891 81.32C175.331 81.725 176.051 82.37 176.051 83.66C176.051 85.355 174.596 86.18 172.796 86.18C172.061 86.18 171.266 86.045 170.531 85.85ZM177.196 85.85L177.316 84.2C177.946 84.515 178.606 84.71 179.296 84.71C179.836 84.71 180.616 84.5 180.616 83.765C180.616 83.12 179.986 82.925 179.176 82.7C177.826 82.34 177.121 81.785 177.121 80.495C177.121 78.935 178.426 78.095 180.166 78.095C180.781 78.095 181.381 78.155 182.341 78.38L182.206 79.895C181.516 79.655 181.051 79.565 180.421 79.565C179.716 79.565 179.221 79.85 179.221 80.42C179.221 80.855 179.641 81.065 180.556 81.32C181.996 81.725 182.716 82.37 182.716 83.66C182.716 85.355 181.261 86.18 179.461 86.18C178.726 86.18 177.931 86.045 177.196 85.85ZM190.761 86H188.991C188.931 85.715 188.916 85.19 188.901 84.845H188.871C188.421 85.67 187.446 86.18 186.486 86.18C185.091 86.18 183.786 85.34 183.786 83.87C183.786 82.535 184.551 81.23 187.566 81.23H188.811V81.2C188.811 79.91 188.151 79.565 187.071 79.565C186.216 79.565 185.361 79.895 184.686 80.405L184.626 78.68C185.346 78.35 186.381 78.095 187.311 78.095C189.621 78.095 190.641 79.025 190.641 81.35V82.94C190.641 83.345 190.671 84.965 190.761 86ZM188.811 82.52V82.43H187.926C186.501 82.43 185.706 82.85 185.706 83.765C185.706 84.365 186.171 84.71 186.981 84.71C187.881 84.71 188.811 84.095 188.811 82.52ZM197.701 84.95V84.77H197.671C197.236 85.52 196.291 86 195.271 86C193.141 86 192.121 84.38 192.121 82.1C192.121 80.24 193.081 78.095 195.391 78.095C196.411 78.095 197.206 78.44 197.761 79.325H197.791V78.275H199.711V85.28C199.711 87.89 198.361 89.33 195.661 89.33C194.881 89.33 193.951 89.225 192.961 88.805L193.126 87.095C193.831 87.47 194.791 87.77 195.391 87.77C197.281 87.77 197.701 86.555 197.701 84.95ZM195.931 84.44C197.221 84.44 197.701 83.3 197.701 82.055C197.701 80.87 197.281 79.655 196.006 79.655C194.806 79.655 194.221 80.69 194.221 82.1C194.221 83.15 194.776 84.44 195.931 84.44ZM207.981 83.93V85.565C207.246 85.97 206.406 86.18 205.341 86.18C202.776 86.18 201.291 84.71 201.291 82.175C201.291 80.015 202.416 78.095 204.876 78.095C207.501 78.095 208.551 79.715 208.551 82.76H203.211C203.301 83.975 204.126 84.71 205.431 84.71C206.391 84.71 207.231 84.35 207.981 83.93ZM203.211 81.38H206.631C206.556 80.27 206.031 79.565 204.981 79.565C203.976 79.565 203.316 80.225 203.211 81.38ZM218.826 84.41L218.886 86C218.466 86.12 218.001 86.18 217.416 86.18C215.781 86.18 214.956 85.16 214.956 83.675V79.745H213.471V78.275H214.956V76.73L216.966 76.085V78.275H218.751V79.745H216.966V83.33C216.966 84.14 217.221 84.62 217.926 84.62C218.271 84.62 218.616 84.545 218.826 84.41ZM226.321 83.93V85.565C225.586 85.97 224.746 86.18 223.681 86.18C221.116 86.18 219.631 84.71 219.631 82.175C219.631 80.015 220.756 78.095 223.216 78.095C225.841 78.095 226.891 79.715 226.891 82.76H221.551C221.641 83.975 222.466 84.71 223.771 84.71C224.731 84.71 225.571 84.35 226.321 83.93ZM221.551 81.38H224.971C224.896 80.27 224.371 79.565 223.321 79.565C222.316 79.565 221.656 80.225 221.551 81.38ZM239.771 86H237.761V81.185C237.761 80.03 237.326 79.655 236.606 79.655C235.586 79.655 235.106 80.6 235.106 82.22V86H233.096V81.185C233.096 80.06 232.691 79.655 231.941 79.655C230.891 79.655 230.441 80.645 230.441 82.205V86H228.431V78.275H230.306V79.355H230.336C230.861 78.575 231.671 78.095 232.646 78.095C233.711 78.095 234.476 78.5 234.911 79.46C235.331 78.605 236.276 78.095 237.341 78.095C238.976 78.095 239.771 79.085 239.771 81.095V86ZM243.801 89.15H241.791V78.275H243.711V79.37H243.741C244.251 78.53 245.061 78.095 246.141 78.095C248.391 78.095 249.381 79.82 249.381 82.115C249.381 84.38 248.406 86.18 246.096 86.18C245.061 86.18 244.446 85.85 243.831 85.115H243.801V89.15ZM245.586 84.62C246.891 84.62 247.281 83.21 247.281 82.115C247.281 81.05 246.906 79.655 245.616 79.655C244.311 79.655 243.816 81.05 243.816 82.115C243.816 83.255 244.281 84.62 245.586 84.62ZM253.016 86H251.006V74.75H253.016V86ZM261.616 86H259.846C259.786 85.715 259.771 85.19 259.756 84.845H259.726C259.276 85.67 258.301 86.18 257.341 86.18C255.946 86.18 254.641 85.34 254.641 83.87C254.641 82.535 255.406 81.23 258.421 81.23H259.666V81.2C259.666 79.91 259.006 79.565 257.926 79.565C257.071 79.565 256.216 79.895 255.541 80.405L255.481 78.68C256.201 78.35 257.236 78.095 258.166 78.095C260.476 78.095 261.496 79.025 261.496 81.35V82.94C261.496 83.345 261.526 84.965 261.616 86ZM259.666 82.52V82.43H258.781C257.356 82.43 256.561 82.85 256.561 83.765C256.561 84.365 257.026 84.71 257.836 84.71C258.736 84.71 259.666 84.095 259.666 82.52ZM268.001 84.41L268.061 86C267.641 86.12 267.176 86.18 266.591 86.18C264.956 86.18 264.131 85.16 264.131 83.675V79.745H262.646V78.275H264.131V76.73L266.141 76.085V78.275H267.926V79.745H266.141V83.33C266.141 84.14 266.396 84.62 267.101 84.62C267.446 84.62 267.791 84.545 268.001 84.41ZM275.496 83.93V85.565C274.761 85.97 273.921 86.18 272.856 86.18C270.291 86.18 268.806 84.71 268.806 82.175C268.806 80.015 269.931 78.095 272.391 78.095C275.016 78.095 276.066 79.715 276.066 82.76H270.726C270.816 83.975 271.641 84.71 272.946 84.71C273.906 84.71 274.746 84.35 275.496 83.93ZM270.726 81.38H274.146C274.071 80.27 273.546 79.565 272.496 79.565C271.491 79.565 270.831 80.225 270.726 81.38Z" fill="black"/>
<path d="M76.248 113H75.048V105.752H75.024L72.252 113H71.076L68.304 105.752H68.28V113H67.08V104.624H69.06L71.688 111.584L74.268 104.624H76.248V113ZM82.984 111.62V112.748C82.096 113.108 81.568 113.144 81.064 113.144C78.988 113.144 77.884 111.944 77.884 109.832C77.884 107.984 79.048 106.736 80.752 106.736C82.528 106.736 83.452 107.864 83.452 110.192H79.084C79.096 111.416 80.032 112.232 81.1 112.232C81.748 112.232 82.6 111.92 82.984 111.62ZM79.084 109.352H82.252C82.24 108.368 81.676 107.648 80.716 107.648C79.816 107.648 79.204 108.296 79.084 109.352ZM84.444 112.808L84.504 111.8C84.888 112.052 85.524 112.232 85.908 112.232C86.508 112.232 87.06 111.968 87.06 111.356C87.06 111.02 86.844 110.72 85.956 110.324C84.696 109.76 84.408 109.232 84.408 108.608C84.408 107.336 85.38 106.736 86.568 106.736C87.096 106.736 87.528 106.844 87.972 106.976L87.876 107.96C87.648 107.816 86.976 107.648 86.688 107.648C86.076 107.648 85.608 107.912 85.608 108.392C85.608 108.896 86.028 109.148 86.796 109.484C87.84 109.94 88.26 110.42 88.26 111.236C88.26 112.4 87.396 113.144 86.112 113.144C85.464 113.144 84.912 113.06 84.444 112.808ZM89.1081 112.808L89.1681 111.8C89.5521 112.052 90.1881 112.232 90.5721 112.232C91.1721 112.232 91.7241 111.968 91.7241 111.356C91.7241 111.02 91.5081 110.72 90.6201 110.324C89.3601 109.76 89.0721 109.232 89.0721 108.608C89.0721 107.336 90.0441 106.736 91.2321 106.736C91.7601 106.736 92.1921 106.844 92.6361 106.976L92.5401 107.96C92.3121 107.816 91.6401 107.648 91.3521 107.648C90.7401 107.648 90.2721 107.912 90.2721 108.392C90.2721 108.896 90.6921 109.148 91.4601 109.484C92.5041 109.94 92.9241 110.42 92.9241 111.236C92.9241 112.4 92.0601 113.144 90.7761 113.144C90.1281 113.144 89.5761 113.06 89.1081 112.808ZM99.1001 113H98.0441V112.208H98.0201C97.5881 112.808 96.9161 113.144 96.1121 113.144C94.6961 113.144 93.8801 112.472 93.8801 111.236C93.8801 109.94 95.1161 109.22 96.8081 109.22C97.2881 109.22 97.6721 109.232 97.9241 109.244C97.9241 108.128 97.4801 107.648 96.4121 107.648C95.8001 107.648 95.1281 107.864 94.6361 108.272L94.5761 107.312C95.1401 106.976 95.8121 106.736 96.5921 106.736C98.2841 106.736 99.0521 107.54 99.0521 109.256V111.944C99.0521 112.316 99.0641 112.712 99.1001 113ZM97.9241 110.624V110.084C97.9241 110.084 97.4201 110.06 97.1921 110.06C95.9201 110.06 95.0801 110.444 95.0801 111.236C95.0801 111.824 95.6201 112.232 96.2321 112.232C97.2881 112.232 97.9241 111.572 97.9241 110.624ZM105.24 112.652V112.052H105.216C104.736 112.676 103.968 113 103.164 113C101.412 113 100.548 111.572 100.548 109.988C100.548 108.32 101.508 106.736 103.284 106.736C104.244 106.736 104.928 107.048 105.3 107.792H105.324V106.88H106.368V112.748C106.368 114.62 105.372 115.664 103.212 115.664C102.432 115.664 101.88 115.532 101.016 115.244L101.136 114.2C102.06 114.632 102.588 114.752 103.332 114.752C104.532 114.752 105.24 113.948 105.24 112.652ZM103.452 112.088C104.448 112.088 105.24 111.224 105.24 110C105.24 108.728 104.64 107.648 103.452 107.648C102.348 107.648 101.748 108.812 101.748 109.928C101.748 111.128 102.432 112.088 103.452 112.088ZM112.984 111.62V112.748C112.096 113.108 111.568 113.144 111.064 113.144C108.988 113.144 107.884 111.944 107.884 109.832C107.884 107.984 109.048 106.736 110.752 106.736C112.528 106.736 113.452 107.864 113.452 110.192H109.084C109.096 111.416 110.032 112.232 111.1 112.232C111.748 112.232 112.6 111.92 112.984 111.62ZM109.084 109.352H112.252C112.24 108.368 111.676 107.648 110.716 107.648C109.816 107.648 109.204 108.296 109.084 109.352Z" fill="#212B32"/>
<rect width="64" height="23" transform="translate(66 240)" fill="#007F3B"/>
<path d="M79.2122 253.68L79.2842 254.844C78.8162 255.036 78.1922 255.144 77.3762 255.144C74.7002 255.144 72.9602 253.416 72.9602 250.776C72.9602 248.232 74.8082 246.48 77.3882 246.48C78.0482 246.48 78.6722 246.576 79.2722 246.84L79.1762 248.004C78.6482 247.692 78.0602 247.536 77.4482 247.536C75.5402 247.536 74.2322 248.916 74.2322 250.812C74.2322 252.732 75.6002 254.088 77.3882 254.088C78.0362 254.088 78.8042 253.92 79.2122 253.68ZM83.3202 255.144C81.5202 255.144 80.2122 253.716 80.2122 251.94C80.2122 250.068 81.4602 248.736 83.3322 248.736C85.1202 248.736 86.4402 250.008 86.4402 251.94C86.4402 253.656 85.2042 255.144 83.3202 255.144ZM83.3322 254.232C84.5922 254.232 85.2402 253.128 85.2402 251.94C85.2402 250.728 84.5082 249.648 83.3202 249.648C82.1442 249.648 81.4122 250.764 81.4122 251.94C81.4122 253.116 82.0602 254.232 83.3322 254.232ZM93.3681 255H92.2401V251.688C92.2401 250.08 91.6521 249.648 90.8961 249.648C89.7201 249.648 89.0841 250.62 89.0841 252.156V255H87.9561V248.88H89.0481V249.852H89.0721C89.4441 249.132 90.2241 248.736 91.0761 248.736C92.6121 248.736 93.3681 249.672 93.3681 251.34V255ZM98.64 254.016V254.976C98.34 255.06 98.028 255.144 97.668 255.144C96.408 255.144 95.796 254.484 95.796 253.38V249.792H94.416V248.88H95.796V247.464L96.924 247.104V248.88H98.544V249.792H96.924V253.164C96.924 253.728 97.26 254.232 97.872 254.232C98.244 254.232 98.484 254.112 98.64 254.016ZM101.3 247.512H100.028V246.24H101.3V247.512ZM101.228 255H100.1V248.88H101.228V255ZM108.708 255H107.58V251.688C107.58 250.08 106.992 249.648 106.236 249.648C105.06 249.648 104.424 250.62 104.424 252.156V255H103.296V248.88H104.388V249.852H104.412C104.784 249.132 105.564 248.736 106.416 248.736C107.952 248.736 108.708 249.672 108.708 251.34V255ZM116.044 255H114.952V254.028H114.928C114.628 254.664 113.848 255.144 112.924 255.144C111.388 255.144 110.632 254.208 110.632 252.528V248.88H111.76V252.18C111.76 254.064 112.588 254.232 113.104 254.232C114.232 254.232 114.916 253.32 114.916 251.724V248.88H116.044V255ZM122.66 253.62V254.748C121.772 255.108 121.244 255.144 120.74 255.144C118.664 255.144 117.56 253.944 117.56 251.832C117.56 249.984 118.724 248.736 120.428 248.736C122.204 248.736 123.128 249.864 123.128 252.192H118.76C118.772 253.416 119.708 254.232 120.776 254.232C121.424 254.232 122.276 253.92 122.66 253.62ZM118.76 251.352H121.928C121.916 250.368 121.352 249.648 120.392 249.648C119.492 249.648 118.88 250.296 118.76 251.352Z" fill="white"/>
<rect x="67" y="122" width="233" height="102" fill="white" stroke="#212B32" stroke-width="2"/>
<rect x="65" y="120" width="237" height="106" stroke="#FFEB3B" stroke-width="2"/>
<rect x="93" y="134" width="48" height="16" fill="#FFEB3B"/>
<rect x="213" y="154" width="42" height="16" fill="#FFEB3B"/>
<path d="M85.536 146H84.336V142.184H80.328V146H79.128V137.624H80.328V141.128H84.336V137.624H85.536V146ZM88.9642 138.512H87.6922V137.24H88.9642V138.512ZM88.8922 146H87.7642V139.88H88.8922V146ZM97.1678 147.68H96.0878C94.7078 145.64 94.1198 143.972 94.1198 142.304C94.1198 140.744 94.5998 139.184 96.0878 136.928H97.1678C95.7998 139.316 95.3198 140.864 95.3198 142.304C95.3198 143.888 95.8838 145.52 97.1678 147.68ZM101.164 147.68H100.084C98.7039 145.64 98.1159 143.972 98.1159 142.304C98.1159 140.744 98.5959 139.184 100.084 136.928H101.164C99.7959 139.316 99.3159 140.864 99.3159 142.304C99.3159 143.888 99.8799 145.52 101.164 147.68ZM107.704 146H106.576V142.688C106.576 141.08 105.988 140.648 105.232 140.648C104.056 140.648 103.42 141.62 103.42 143.156V146H102.292V139.88H103.384V140.852H103.408C103.78 140.132 104.56 139.736 105.412 139.736C106.948 139.736 107.704 140.672 107.704 142.34V146ZM114.44 146H113.384V145.208H113.36C112.928 145.808 112.256 146.144 111.452 146.144C110.036 146.144 109.22 145.472 109.22 144.236C109.22 142.94 110.456 142.22 112.148 142.22C112.628 142.22 113.012 142.232 113.264 142.244C113.264 141.128 112.82 140.648 111.752 140.648C111.14 140.648 110.468 140.864 109.976 141.272L109.916 140.312C110.48 139.976 111.152 139.736 111.932 139.736C113.624 139.736 114.392 140.54 114.392 142.256V144.944C114.392 145.316 114.404 145.712 114.44 146ZM113.264 143.624V143.084C113.264 143.084 112.76 143.06 112.532 143.06C111.26 143.06 110.42 143.444 110.42 144.236C110.42 144.824 110.96 145.232 111.572 145.232C112.628 145.232 113.264 144.572 113.264 143.624ZM125.068 146H123.94V142.328C123.94 141.296 123.592 140.648 122.848 140.648C121.768 140.648 121.24 141.656 121.24 142.928V146H120.112V142.328C120.112 141.332 119.788 140.648 119.02 140.648C117.952 140.648 117.412 141.644 117.412 142.916V146H116.284V139.88H117.34V140.768H117.364C117.808 140.048 118.408 139.736 119.308 139.736C120.076 139.736 120.748 140.156 121.048 140.924C121.396 140.192 122.212 139.736 122.956 139.736C124.336 139.736 125.068 140.564 125.068 142.076V146ZM131.652 144.62V145.748C130.764 146.108 130.236 146.144 129.732 146.144C127.656 146.144 126.552 144.944 126.552 142.832C126.552 140.984 127.716 139.736 129.42 139.736C131.196 139.736 132.12 140.864 132.12 143.192H127.752C127.764 144.416 128.7 145.232 129.768 145.232C130.416 145.232 131.268 144.92 131.652 144.62ZM127.752 142.352H130.92C130.908 141.368 130.344 140.648 129.384 140.648C128.484 140.648 127.872 141.296 127.752 142.352ZM133.916 147.68H132.836C134.192 145.292 134.684 143.78 134.684 142.304C134.684 140.768 134.156 139.16 132.836 136.928H133.916C135.296 138.98 135.884 140.624 135.884 142.304C135.884 143.888 135.392 145.436 133.916 147.68ZM137.912 147.68H136.832C138.188 145.292 138.68 143.78 138.68 142.304C138.68 140.768 138.152 139.16 136.832 136.928H137.912C139.292 138.98 139.88 140.624 139.88 142.304C139.88 143.888 139.388 145.436 137.912 147.68ZM82.608 166H81.408V162.496L78.132 157.624H79.536L82.032 161.38L84.468 157.624H85.872L82.608 162.496V166ZM88.492 166.144C86.692 166.144 85.384 164.716 85.384 162.94C85.384 161.068 86.632 159.736 88.504 159.736C90.292 159.736 91.612 161.008 91.612 162.94C91.612 164.656 90.376 166.144 88.492 166.144ZM88.504 165.232C89.764 165.232 90.412 164.128 90.412 162.94C90.412 161.728 89.68 160.648 88.492 160.648C87.316 160.648 86.584 161.764 86.584 162.94C86.584 164.116 87.232 165.232 88.504 165.232ZM98.54 166H97.448V165.028H97.424C97.124 165.664 96.344 166.144 95.42 166.144C93.884 166.144 93.128 165.208 93.128 163.528V159.88H94.256V163.18C94.256 165.064 95.084 165.232 95.6 165.232C96.728 165.232 97.412 164.32 97.412 162.724V159.88H98.54V166ZM101.592 166H100.464V159.88H101.52V160.828H101.544C101.856 160.168 102.504 159.736 103.152 159.736C103.392 159.736 103.608 159.76 103.884 159.82V160.828C103.68 160.744 103.452 160.72 103.26 160.72C102.228 160.72 101.592 161.716 101.592 163.216V166ZM113.28 166H112.224V165.208H112.2C111.768 165.808 111.096 166.144 110.292 166.144C108.876 166.144 108.06 165.472 108.06 164.236C108.06 162.94 109.296 162.22 110.988 162.22C111.468 162.22 111.852 162.232 112.104 162.244C112.104 161.128 111.66 160.648 110.592 160.648C109.98 160.648 109.308 160.864 108.816 161.272L108.756 160.312C109.32 159.976 109.992 159.736 110.772 159.736C112.464 159.736 113.232 160.54 113.232 162.256V164.944C113.232 165.316 113.244 165.712 113.28 166ZM112.104 163.624V163.084C112.104 163.084 111.6 163.06 111.372 163.06C110.1 163.06 109.26 163.444 109.26 164.236C109.26 164.824 109.8 165.232 110.412 165.232C111.468 165.232 112.104 164.572 112.104 163.624ZM116.264 168.52H115.136V159.88H116.216V160.744H116.24C116.672 160.12 117.44 159.736 118.316 159.736C120.032 159.736 120.956 161.116 120.956 162.832C120.956 164.56 120.14 166.144 118.328 166.144C117.392 166.144 116.708 165.832 116.288 165.16H116.264V168.52ZM118.064 165.232C119.144 165.232 119.756 164.128 119.756 162.904C119.756 161.332 118.976 160.636 118.064 160.648C116.876 160.66 116.264 161.788 116.264 162.952C116.264 164.032 116.828 165.232 118.064 165.232ZM123.6 168.52H122.472V159.88H123.552V160.744H123.576C124.008 160.12 124.776 159.736 125.652 159.736C127.368 159.736 128.292 161.116 128.292 162.832C128.292 164.56 127.476 166.144 125.664 166.144C124.728 166.144 124.044 165.832 123.624 165.16H123.6V168.52ZM125.4 165.232C126.48 165.232 127.092 164.128 127.092 162.904C127.092 161.332 126.312 160.636 125.4 160.648C124.212 160.66 123.6 161.788 123.6 162.952C123.6 164.032 124.164 165.232 125.4 165.232ZM132.508 166.144C130.708 166.144 129.4 164.716 129.4 162.94C129.4 161.068 130.648 159.736 132.52 159.736C134.308 159.736 135.628 161.008 135.628 162.94C135.628 164.656 134.392 166.144 132.508 166.144ZM132.52 165.232C133.78 165.232 134.428 164.128 134.428 162.94C134.428 161.728 133.696 160.648 132.508 160.648C131.332 160.648 130.6 161.764 130.6 162.94C130.6 164.116 131.248 165.232 132.52 165.232ZM138.488 158.512H137.216V157.24H138.488V158.512ZM138.416 166H137.288V159.88H138.416V166ZM145.895 166H144.767V162.688C144.767 161.08 144.179 160.648 143.423 160.648C142.247 160.648 141.611 161.62 141.611 163.156V166H140.483V159.88H141.575V160.852H141.599C141.971 160.132 142.751 159.736 143.603 159.736C145.139 159.736 145.895 160.672 145.895 162.34V166ZM151.167 165.016V165.976C150.867 166.06 150.555 166.144 150.195 166.144C148.935 166.144 148.323 165.484 148.323 164.38V160.792H146.943V159.88H148.323V158.464L149.451 158.104V159.88H151.071V160.792H149.451V164.164C149.451 164.728 149.787 165.232 150.399 165.232C150.771 165.232 151.011 165.112 151.167 165.016ZM161.255 166H160.127V162.328C160.127 161.296 159.779 160.648 159.035 160.648C157.955 160.648 157.427 161.656 157.427 162.928V166H156.299V162.328C156.299 161.332 155.975 160.648 155.207 160.648C154.139 160.648 153.599 161.644 153.599 162.916V166H152.471V159.88H153.527V160.768H153.551C153.995 160.048 154.595 159.736 155.495 159.736C156.263 159.736 156.935 160.156 157.235 160.924C157.583 160.192 158.399 159.736 159.143 159.736C160.523 159.736 161.255 160.564 161.255 162.076V166ZM167.84 164.62V165.748C166.952 166.108 166.424 166.144 165.92 166.144C163.844 166.144 162.74 164.944 162.74 162.832C162.74 160.984 163.904 159.736 165.608 159.736C167.384 159.736 168.308 160.864 168.308 163.192H163.94C163.951 164.416 164.888 165.232 165.956 165.232C166.604 165.232 167.456 164.92 167.84 164.62ZM163.94 162.352H167.108C167.096 161.368 166.532 160.648 165.572 160.648C164.672 160.648 164.06 161.296 163.94 162.352ZM175.227 166H174.099V162.688C174.099 161.08 173.511 160.648 172.755 160.648C171.579 160.648 170.943 161.62 170.943 163.156V166H169.815V159.88H170.907V160.852H170.931C171.303 160.132 172.083 159.736 172.935 159.736C174.471 159.736 175.227 160.672 175.227 162.34V166ZM180.499 165.016V165.976C180.199 166.06 179.887 166.144 179.527 166.144C178.267 166.144 177.655 165.484 177.655 164.38V160.792H176.275V159.88H177.655V158.464L178.783 158.104V159.88H180.403V160.792H178.783V164.164C178.783 164.728 179.119 165.232 179.731 165.232C180.103 165.232 180.343 165.112 180.499 165.016ZM186.499 158.512H185.227V157.24H186.499V158.512ZM186.427 166H185.299V159.88H186.427V166ZM187.979 165.808L188.039 164.8C188.423 165.052 189.059 165.232 189.443 165.232C190.043 165.232 190.595 164.968 190.595 164.356C190.595 164.02 190.379 163.72 189.491 163.324C188.231 162.76 187.943 162.232 187.943 161.608C187.943 160.336 188.915 159.736 190.103 159.736C190.631 159.736 191.063 159.844 191.507 159.976L191.411 160.96C191.183 160.816 190.511 160.648 190.223 160.648C189.611 160.648 189.143 160.912 189.143 161.392C189.143 161.896 189.563 162.148 190.331 162.484C191.375 162.94 191.795 163.42 191.795 164.236C191.795 165.4 190.931 166.144 189.647 166.144C188.999 166.144 188.447 166.06 187.979 165.808ZM199.199 166.144C197.399 166.144 196.091 164.716 196.091 162.94C196.091 161.068 197.339 159.736 199.211 159.736C200.999 159.736 202.319 161.008 202.319 162.94C202.319 164.656 201.083 166.144 199.199 166.144ZM199.211 165.232C200.471 165.232 201.119 164.128 201.119 162.94C201.119 161.728 200.387 160.648 199.199 160.648C198.023 160.648 197.291 161.764 197.291 162.94C197.291 164.116 197.939 165.232 199.211 165.232ZM209.247 166H208.119V162.688C208.119 161.08 207.531 160.648 206.775 160.648C205.599 160.648 204.963 161.62 204.963 163.156V166H203.835V159.88H204.927V160.852H204.951C205.323 160.132 206.103 159.736 206.955 159.736C208.491 159.736 209.247 160.672 209.247 162.34V166ZM217.379 167.68H216.299C214.919 165.64 214.331 163.972 214.331 162.304C214.331 160.744 214.811 159.184 216.299 156.928H217.379C216.011 159.316 215.531 160.864 215.531 162.304C215.531 163.888 216.095 165.52 217.379 167.68ZM221.375 167.68H220.295C218.915 165.64 218.327 163.972 218.327 162.304C218.327 160.744 218.807 159.184 220.295 156.928H221.375C220.007 159.316 219.527 160.864 219.527 162.304C219.527 163.888 220.091 165.52 221.375 167.68ZM227.915 166H226.835V165.136H226.811C226.391 165.76 225.623 166.144 224.723 166.144C222.911 166.144 222.095 164.56 222.095 162.832C222.095 161.188 222.959 159.736 224.735 159.736C225.647 159.736 226.355 160.048 226.763 160.72H226.787V157H227.915V166ZM224.987 165.232C226.235 165.232 226.787 164.008 226.787 162.952C226.787 161.872 226.247 160.648 224.963 160.648C223.835 160.648 223.295 161.656 223.295 162.856C223.295 164.2 223.943 165.232 224.987 165.232ZM234.651 166H233.595V165.208H233.571C233.139 165.808 232.467 166.144 231.663 166.144C230.247 166.144 229.431 165.472 229.431 164.236C229.431 162.94 230.667 162.22 232.359 162.22C232.839 162.22 233.223 162.232 233.475 162.244C233.475 161.128 233.031 160.648 231.963 160.648C231.351 160.648 230.679 160.864 230.187 161.272L230.127 160.312C230.691 159.976 231.363 159.736 232.143 159.736C233.835 159.736 234.603 160.54 234.603 162.256V164.944C234.603 165.316 234.615 165.712 234.651 166ZM233.475 163.624V163.084C233.475 163.084 232.971 163.06 232.743 163.06C231.471 163.06 230.631 163.444 230.631 164.236C230.631 164.824 231.171 165.232 231.783 165.232C232.839 165.232 233.475 164.572 233.475 163.624ZM239.855 165.016V165.976C239.555 166.06 239.243 166.144 238.883 166.144C237.623 166.144 237.011 165.484 237.011 164.38V160.792H235.631V159.88H237.011V158.464L238.139 158.104V159.88H239.759V160.792H238.139V164.164C238.139 164.728 238.475 165.232 239.087 165.232C239.459 165.232 239.699 165.112 239.855 165.016ZM245.863 164.62V165.748C244.975 166.108 244.447 166.144 243.943 166.144C241.867 166.144 240.763 164.944 240.763 162.832C240.763 160.984 241.927 159.736 243.631 159.736C245.407 159.736 246.331 160.864 246.331 163.192H241.963C241.975 164.416 242.911 165.232 243.979 165.232C244.627 165.232 245.479 164.92 245.863 164.62ZM241.963 162.352H245.131C245.119 161.368 244.555 160.648 243.595 160.648C242.695 160.648 242.083 161.296 241.963 162.352ZM248.127 167.68H247.047C248.403 165.292 248.895 163.78 248.895 162.304C248.895 160.768 248.367 159.16 247.047 156.928H248.127C249.507 158.98 250.095 160.624 250.095 162.304C250.095 163.888 249.603 165.436 248.127 167.68ZM252.123 167.68H251.043C252.399 165.292 252.891 163.78 252.891 162.304C252.891 160.768 252.363 159.16 251.043 156.928H252.123C253.503 158.98 254.091 160.624 254.091 162.304C254.091 163.888 253.599 165.436 252.123 167.68ZM257.211 166H255.867V164.656H257.211V166ZM81.936 186H80.736V178.68H78.132V177.624H84.54V178.68H81.936V186ZM89.4293 184.62V185.748C88.5413 186.108 88.0133 186.144 87.5093 186.144C85.4333 186.144 84.3293 184.944 84.3293 182.832C84.3293 180.984 85.4933 179.736 87.1973 179.736C88.9733 179.736 89.8973 180.864 89.8973 183.192H85.5293C85.5413 184.416 86.4773 185.232 87.5453 185.232C88.1933 185.232 89.0453 184.92 89.4293 184.62ZM85.5293 182.352H88.6973C88.6853 181.368 88.1213 180.648 87.1613 180.648C86.2613 180.648 85.6493 181.296 85.5293 182.352ZM92.6773 186H91.5493V177H92.6773V186ZM96.0172 186H94.8892V177H96.0172V186ZM106.837 186H105.745V185.028H105.721C105.421 185.664 104.641 186.144 103.717 186.144C102.181 186.144 101.425 185.208 101.425 183.528V179.88H102.553V183.18C102.553 185.064 103.381 185.232 103.897 185.232C105.025 185.232 105.709 184.32 105.709 182.724V179.88H106.837V186ZM108.245 185.808L108.305 184.8C108.689 185.052 109.325 185.232 109.709 185.232C110.309 185.232 110.861 184.968 110.861 184.356C110.861 184.02 110.645 183.72 109.757 183.324C108.497 182.76 108.209 182.232 108.209 181.608C108.209 180.336 109.181 179.736 110.369 179.736C110.897 179.736 111.329 179.844 111.773 179.976L111.677 180.96C111.449 180.816 110.777 180.648 110.489 180.648C109.877 180.648 109.409 180.912 109.409 181.392C109.409 181.896 109.829 182.148 110.597 182.484C111.641 182.94 112.061 183.42 112.061 184.236C112.061 185.4 111.197 186.144 109.913 186.144C109.265 186.144 108.713 186.06 108.245 185.808ZM118.109 178.512H116.837V177.24H118.109V178.512ZM118.037 186H116.909V179.88H118.037V186ZM121.965 186H120.837V180.792H119.397V179.88H120.837V179.28C120.837 177.672 121.353 176.856 122.889 176.856C123.129 176.856 123.357 176.88 123.645 176.928L123.597 177.84C123.465 177.792 123.237 177.768 123.057 177.768C122.241 177.768 121.965 178.188 121.965 179.124V179.88H123.585V180.792H121.965V186ZM127.58 188.58L127.652 187.656C127.832 187.716 128.012 187.752 128.18 187.752C128.912 187.752 129.368 186.996 129.524 186.252C129.524 186.132 129.404 185.856 129.356 185.724L127.232 179.88H128.468L130.112 184.944H130.136L131.816 179.88H132.956L130.532 186.6C130.16 187.62 129.656 188.664 128.348 188.664C128 188.664 127.784 188.616 127.58 188.58ZM136.808 186.144C135.008 186.144 133.7 184.716 133.7 182.94C133.7 181.068 134.948 179.736 136.82 179.736C138.608 179.736 139.928 181.008 139.928 182.94C139.928 184.656 138.692 186.144 136.808 186.144ZM136.82 185.232C138.08 185.232 138.728 184.128 138.728 182.94C138.728 181.728 137.996 180.648 136.808 180.648C135.632 180.648 134.9 181.764 134.9 182.94C134.9 184.116 135.548 185.232 136.82 185.232ZM146.856 186H145.764V185.028H145.74C145.44 185.664 144.66 186.144 143.736 186.144C142.2 186.144 141.444 185.208 141.444 183.528V179.88H142.572V183.18C142.572 185.064 143.4 185.232 143.916 185.232C145.044 185.232 145.728 184.32 145.728 182.724V179.88H146.856V186ZM156.068 184.884L156.152 185.892C155.768 186.06 155.36 186.144 154.736 186.144C152.876 186.144 151.616 184.68 151.616 182.94C151.616 181.068 152.864 179.736 154.736 179.736C155.18 179.736 155.78 179.844 156.104 179.976L156.008 180.912C155.576 180.732 155.156 180.648 154.784 180.648C153.548 180.648 152.816 181.752 152.816 182.94C152.816 184.044 153.416 185.232 154.856 185.232C155.24 185.232 155.72 185.112 156.068 184.884ZM162.264 186H161.208V185.208H161.184C160.752 185.808 160.08 186.144 159.276 186.144C157.86 186.144 157.044 185.472 157.044 184.236C157.044 182.94 158.28 182.22 159.972 182.22C160.452 182.22 160.836 182.232 161.088 182.244C161.088 181.128 160.644 180.648 159.576 180.648C158.964 180.648 158.292 180.864 157.8 181.272L157.74 180.312C158.304 179.976 158.976 179.736 159.756 179.736C161.448 179.736 162.216 180.54 162.216 182.256V184.944C162.216 185.316 162.228 185.712 162.264 186ZM161.088 183.624V183.084C161.088 183.084 160.584 183.06 160.356 183.06C159.084 183.06 158.244 183.444 158.244 184.236C158.244 184.824 158.784 185.232 159.396 185.232C160.452 185.232 161.088 184.572 161.088 183.624ZM169.532 186H168.404V182.688C168.404 181.08 167.816 180.648 167.06 180.648C165.884 180.648 165.248 181.62 165.248 183.156V186H164.12V179.88H165.212V180.852H165.236C165.608 180.132 166.388 179.736 167.24 179.736C168.776 179.736 169.532 180.672 169.532 182.34V186ZM176.868 186H175.74V182.688C175.74 181.08 175.152 180.648 174.396 180.648C173.22 180.648 172.584 181.62 172.584 183.156V186H171.456V179.88H172.548V180.852H172.572C172.944 180.132 173.724 179.736 174.576 179.736C176.112 179.736 176.868 180.672 176.868 182.34V186ZM181.492 186.144C179.692 186.144 178.384 184.716 178.384 182.94C178.384 181.068 179.632 179.736 181.504 179.736C183.292 179.736 184.612 181.008 184.612 182.94C184.612 184.656 183.376 186.144 181.492 186.144ZM181.504 185.232C182.764 185.232 183.412 184.128 183.412 182.94C183.412 181.728 182.68 180.648 181.492 180.648C180.316 180.648 179.584 181.764 179.584 182.94C179.584 184.116 180.232 185.232 181.504 185.232ZM189.476 185.016V185.976C189.176 186.06 188.864 186.144 188.504 186.144C187.244 186.144 186.632 185.484 186.632 184.38V180.792H185.252V179.88H186.632V178.464L187.76 178.104V179.88H189.38V180.792H187.76V184.164C187.76 184.728 188.096 185.232 188.708 185.232C189.08 185.232 189.32 185.112 189.476 185.016ZM202.904 186H201.776V182.328C201.776 181.296 201.428 180.648 200.684 180.648C199.604 180.648 199.076 181.656 199.076 182.928V186H197.948V182.328C197.948 181.332 197.624 180.648 196.856 180.648C195.788 180.648 195.248 181.644 195.248 182.916V186H194.12V179.88H195.176V180.768H195.2C195.644 180.048 196.244 179.736 197.144 179.736C197.912 179.736 198.584 180.156 198.884 180.924C199.232 180.192 200.048 179.736 200.792 179.736C202.172 179.736 202.904 180.564 202.904 182.076V186ZM209.608 186H208.552V185.208H208.528C208.096 185.808 207.424 186.144 206.62 186.144C205.204 186.144 204.388 185.472 204.388 184.236C204.388 182.94 205.624 182.22 207.316 182.22C207.796 182.22 208.18 182.232 208.432 182.244C208.432 181.128 207.988 180.648 206.92 180.648C206.308 180.648 205.636 180.864 205.144 181.272L205.084 180.312C205.648 179.976 206.32 179.736 207.1 179.736C208.792 179.736 209.56 180.54 209.56 182.256V184.944C209.56 185.316 209.572 185.712 209.608 186ZM208.432 183.624V183.084C208.432 183.084 207.928 183.06 207.7 183.06C206.428 183.06 205.588 183.444 205.588 184.236C205.588 184.824 206.128 185.232 206.74 185.232C207.796 185.232 208.432 184.572 208.432 183.624ZM216.948 186H215.328L212.592 182.856V186H211.464V177H212.592V182.364L215.052 179.88H216.588L213.744 182.592L216.948 186ZM222.824 184.62V185.748C221.936 186.108 221.408 186.144 220.904 186.144C218.828 186.144 217.724 184.944 217.724 182.832C217.724 180.984 218.888 179.736 220.592 179.736C222.368 179.736 223.292 180.864 223.292 183.192H218.924C218.936 184.416 219.872 185.232 220.94 185.232C221.588 185.232 222.44 184.92 222.824 184.62ZM218.924 182.352H222.092C222.08 181.368 221.516 180.648 220.556 180.648C219.656 180.648 219.044 181.296 218.924 182.352ZM229.484 178.512H228.212V177.24H229.484V178.512ZM229.412 186H228.284V179.88H229.412V186ZM234.828 185.016V185.976C234.528 186.06 234.216 186.144 233.856 186.144C232.596 186.144 231.984 185.484 231.984 184.38V180.792H230.604V179.88H231.984V178.464L233.112 178.104V179.88H234.732V180.792H233.112V184.164C233.112 184.728 233.448 185.232 234.06 185.232C234.432 185.232 234.672 185.112 234.828 185.016ZM244.295 186H243.239V185.208H243.215C242.783 185.808 242.111 186.144 241.307 186.144C239.891 186.144 239.075 185.472 239.075 184.236C239.075 182.94 240.311 182.22 242.003 182.22C242.483 182.22 242.867 182.232 243.119 182.244C243.119 181.128 242.675 180.648 241.607 180.648C240.995 180.648 240.323 180.864 239.831 181.272L239.771 180.312C240.335 179.976 241.007 179.736 241.787 179.736C243.479 179.736 244.247 180.54 244.247 182.256V184.944C244.247 185.316 244.259 185.712 244.295 186ZM243.119 183.624V183.084C243.119 183.084 242.615 183.06 242.387 183.06C241.115 183.06 240.275 183.444 240.275 184.236C240.275 184.824 240.815 185.232 241.427 185.232C242.483 185.232 243.119 184.572 243.119 183.624ZM249.499 185.016V185.976C249.199 186.06 248.887 186.144 248.527 186.144C247.267 186.144 246.655 185.484 246.655 184.38V180.792H245.275V179.88H246.655V178.464L247.783 178.104V179.88H249.403V180.792H247.783V184.164C247.783 184.728 248.119 185.232 248.731 185.232C249.103 185.232 249.343 185.112 249.499 185.016Z" fill="#212B32"/>
<path d="M84.372 206H83.244V202.784C83.244 201.5 82.956 200.648 81.912 200.648C80.364 200.648 80.088 202.22 80.088 203.132V206H78.96V197H80.088V200.756H80.112C80.532 200.096 81.228 199.736 82.08 199.736C83.628 199.736 84.372 200.684 84.372 202.364V206ZM89.6439 205.016V205.976C89.3439 206.06 89.0319 206.144 88.6719 206.144C87.4119 206.144 86.7999 205.484 86.7999 204.38V200.792H85.4199V199.88H86.7999V198.464L87.9279 198.104V199.88H89.5479V200.792H87.9279V204.164C87.9279 204.728 88.2639 205.232 88.8759 205.232C89.2479 205.232 89.4879 205.112 89.6439 205.016ZM94.308 205.016V205.976C94.008 206.06 93.696 206.144 93.336 206.144C92.076 206.144 91.464 205.484 91.464 204.38V200.792H90.084V199.88H91.464V198.464L92.592 198.104V199.88H94.212V200.792H92.592V204.164C92.592 204.728 92.928 205.232 93.54 205.232C93.912 205.232 94.152 205.112 94.308 205.016ZM96.7521 208.52H95.6241V199.88H96.7041V200.744H96.7281C97.1601 200.12 97.9281 199.736 98.8041 199.736C100.52 199.736 101.444 201.116 101.444 202.832C101.444 204.56 100.628 206.144 98.8161 206.144C97.8801 206.144 97.1961 205.832 96.7761 205.16H96.7521V208.52ZM98.5521 205.232C99.6321 205.232 100.244 204.128 100.244 202.904C100.244 201.332 99.4641 200.636 98.5521 200.648C97.3641 200.66 96.7521 201.788 96.7521 202.952C96.7521 204.032 97.3161 205.232 98.5521 205.232ZM102.444 205.808L102.504 204.8C102.888 205.052 103.524 205.232 103.908 205.232C104.508 205.232 105.06 204.968 105.06 204.356C105.06 204.02 104.844 203.72 103.956 203.324C102.696 202.76 102.408 202.232 102.408 201.608C102.408 200.336 103.38 199.736 104.568 199.736C105.096 199.736 105.528 199.844 105.972 199.976L105.876 200.96C105.648 200.816 104.976 200.648 104.688 200.648C104.076 200.648 103.608 200.912 103.608 201.392C103.608 201.896 104.028 202.148 104.796 202.484C105.84 202.94 106.26 203.42 106.26 204.236C106.26 205.4 105.396 206.144 104.112 206.144C103.464 206.144 102.912 206.06 102.444 205.808ZM109.004 201.224H107.66V199.88H109.004V201.224ZM109.004 206H107.66V204.656H109.004V206ZM110.76 206.144H109.704L112.584 197.48H113.64L110.76 206.144ZM114.1 206.144H113.044L115.924 197.48H116.98L114.1 206.144ZM124.568 206H123.26L121.676 200.864H121.652L120.104 206H118.796L116.828 199.88H118.064L119.468 204.944H119.492L121.052 199.88H122.384L123.92 204.944H123.944L125.432 199.88H126.536L124.568 206ZM134.564 206H133.256L131.672 200.864H131.648L130.1 206H128.792L126.824 199.88H128.06L129.464 204.944H129.488L131.048 199.88H132.38L133.916 204.944H133.94L135.428 199.88H136.532L134.564 206ZM144.56 206H143.252L141.668 200.864H141.644L140.096 206H138.788L136.82 199.88H138.056L139.46 204.944H139.484L141.044 199.88H142.376L143.912 204.944H143.936L145.424 199.88H146.528L144.56 206ZM148.356 206H147.012V204.656H148.356V206ZM155.727 206H154.599V202.688C154.599 201.08 154.011 200.648 153.255 200.648C152.079 200.648 151.443 201.62 151.443 203.156V206H150.315V199.88H151.407V200.852H151.431C151.803 200.132 152.583 199.736 153.435 199.736C154.971 199.736 155.727 200.672 155.727 202.34V206ZM163.063 206H161.935V202.784C161.935 201.5 161.647 200.648 160.603 200.648C159.055 200.648 158.779 202.22 158.779 203.132V206H157.651V197H158.779V200.756H158.803C159.223 200.096 159.919 199.736 160.771 199.736C162.319 199.736 163.063 200.684 163.063 202.364V206ZM164.471 205.808L164.531 204.8C164.915 205.052 165.551 205.232 165.935 205.232C166.535 205.232 167.087 204.968 167.087 204.356C167.087 204.02 166.871 203.72 165.983 203.324C164.723 202.76 164.435 202.232 164.435 201.608C164.435 200.336 165.407 199.736 166.595 199.736C167.123 199.736 167.555 199.844 167.999 199.976L167.903 200.96C167.675 200.816 167.003 200.648 166.715 200.648C166.103 200.648 165.635 200.912 165.635 201.392C165.635 201.896 166.055 202.148 166.823 202.484C167.867 202.94 168.287 203.42 168.287 204.236C168.287 205.4 167.423 206.144 166.139 206.144C165.491 206.144 164.939 206.06 164.471 205.808ZM171.031 206H169.687V204.656H171.031V206ZM178.403 206H177.311V205.028H177.287C176.987 205.664 176.207 206.144 175.283 206.144C173.747 206.144 172.991 205.208 172.991 203.528V199.88H174.119V203.18C174.119 205.064 174.947 205.232 175.463 205.232C176.591 205.232 177.275 204.32 177.275 202.724V199.88H178.403V206ZM185.811 206H184.191L181.455 202.856V206H180.327V197H181.455V202.364L183.915 199.88H185.451L182.607 202.592L185.811 206ZM186.791 206.144H185.735L188.615 197.48H189.671L186.791 206.144ZM195.027 204.62V205.748C194.139 206.108 193.611 206.144 193.107 206.144C191.031 206.144 189.927 204.944 189.927 202.832C189.927 200.984 191.091 199.736 192.795 199.736C194.571 199.736 195.495 200.864 195.495 203.192H191.127C191.139 204.416 192.075 205.232 193.143 205.232C193.791 205.232 194.643 204.92 195.027 204.62ZM191.127 202.352H194.295C194.283 201.368 193.719 200.648 192.759 200.648C191.859 200.648 191.247 201.296 191.127 202.352ZM201.923 206H200.531L199.019 203.6L197.507 206H196.163L198.371 202.796L196.379 199.88H197.783L199.115 202.064L200.471 199.88H201.731L199.763 202.796L201.923 206ZM207.815 206H206.759V205.208H206.735C206.303 205.808 205.631 206.144 204.827 206.144C203.411 206.144 202.595 205.472 202.595 204.236C202.595 202.94 203.831 202.22 205.523 202.22C206.003 202.22 206.387 202.232 206.639 202.244C206.639 201.128 206.195 200.648 205.127 200.648C204.515 200.648 203.843 200.864 203.351 201.272L203.291 200.312C203.855 199.976 204.527 199.736 205.307 199.736C206.999 199.736 207.767 200.54 207.767 202.256V204.944C207.767 205.316 207.779 205.712 207.815 206ZM206.639 203.624V203.084C206.639 203.084 206.135 203.06 205.907 203.06C204.635 203.06 203.795 203.444 203.795 204.236C203.795 204.824 204.335 205.232 204.947 205.232C206.003 205.232 206.639 204.572 206.639 203.624ZM218.443 206H217.315V202.328C217.315 201.296 216.967 200.648 216.223 200.648C215.143 200.648 214.615 201.656 214.615 202.928V206H213.487V202.328C213.487 201.332 213.163 200.648 212.395 200.648C211.327 200.648 210.787 201.644 210.787 202.916V206H209.659V199.88H210.715V200.768H210.739C211.183 200.048 211.783 199.736 212.683 199.736C213.451 199.736 214.123 200.156 214.423 200.924C214.771 200.192 215.587 199.736 216.331 199.736C217.711 199.736 218.443 200.564 218.443 202.076V206ZM221.463 208.52H220.335V199.88H221.415V200.744H221.439C221.871 200.12 222.639 199.736 223.515 199.736C225.231 199.736 226.155 201.116 226.155 202.832C226.155 204.56 225.339 206.144 223.527 206.144C222.591 206.144 221.907 205.832 221.487 205.16H221.463V208.52ZM223.263 205.232C224.343 205.232 224.955 204.128 224.955 202.904C224.955 201.332 224.175 200.636 223.263 200.648C222.075 200.66 221.463 201.788 221.463 202.952C221.463 204.032 222.027 205.232 223.263 205.232ZM228.943 206H227.815V197H228.943V206ZM235.703 204.62V205.748C234.815 206.108 234.287 206.144 233.783 206.144C231.707 206.144 230.603 204.944 230.603 202.832C230.603 200.984 231.767 199.736 233.471 199.736C235.247 199.736 236.171 200.864 236.171 203.192H231.803C231.815 204.416 232.751 205.232 233.819 205.232C234.467 205.232 235.319 204.92 235.703 204.62ZM231.803 202.352H234.971C234.959 201.368 234.395 200.648 233.435 200.648C232.535 200.648 231.923 201.296 231.803 202.352Z" fill="#005EB8"/>
<path d="M78 207.5H236.723V208.1H78V207.5Z" fill="#005EB8"/>
<defs>
<filter id="filter0_d_1761_2657" x="39" y="4" width="386" height="286" filterUnits="userSpaceOnUse" color-interpolation-filters="sRGB">
<feFlood flood-opacity="0" result="BackgroundImageFix"/>
<feColorMatrix in="SourceAlpha" type="matrix" values="0 0 0 0 0 0 0 0 0 0 0 0 0 0 0 0 0 0 127 0" result="hardAlpha"/>
<feOffset dy="4"/>
<feGaussianBlur stdDeviation="2"/>
<feComposite in2="hardAlpha" operator="out"/>
<feColorMatrix type="matrix" values="0 0 0 0 0 0 0 0 0 0 0 0 0 0 0 0 0 0 0.25 0"/>
<feBlend mode="normal" in2="BackgroundImageFix" result="effect1_dropShadow_1761_2657"/>
<feBlend mode="normal" in="SourceGraphic" in2="effect1_dropShadow_1761_2657" result="shape"/>
</filter>
<clipPath id="clip0_1761_2657">
<rect width="90.636" height="18.9045" fill="white" transform="translate(67 32.0476)"/>
</clipPath>
</defs>
</svg>
