<svg width="464" height="263" viewBox="0 0 464 263" fill="none" xmlns="http://www.w3.org/2000/svg">
<g filter="url(#filter0_d_1761_2688)">
<path d="M47 29H117V251H53C49.6863 251 47 248.314 47 245V29Z" fill="#1E1E1E"/>
<rect x="45" y="8" width="374" height="245" rx="8" stroke="#D8DDE0" stroke-width="4"/>
<path d="M43 14C43 9.58172 46.5817 6 51 6H413C417.418 6 421 9.58172 421 14V29H43V14Z" fill="#D8DDE0"/>
<circle cx="57.5" cy="17.5" r="4.5" fill="white"/>
<circle cx="73.5" cy="17.5" r="4.5" fill="white"/>
<circle cx="88.5" cy="17.5" r="4.5" fill="white"/>
<path d="M117 29H417V245C417 248.314 414.314 251 411 251H117V29Z" fill="#0B0B0B"/>
<path d="M136.527 55.1367C136.853 55.3841 137.074 55.6185 137.191 55.8398C137.341 56.1328 137.416 56.4811 137.416 56.8848V60.3906C137.416 60.7617 137.523 61.0645 137.738 61.2988C137.953 61.5397 138.22 61.6764 138.539 61.709C138.741 61.7285 138.874 61.7676 138.939 61.8262C139.024 61.9043 139.066 62.002 139.066 62.1191C139.066 62.2428 139.024 62.3405 138.939 62.4121C138.855 62.4902 138.731 62.5293 138.568 62.5293C138.054 62.5293 137.624 62.3665 137.279 62.041C136.817 61.5918 136.586 61.0449 136.586 60.4004V56.8848C136.586 56.5267 136.479 56.2272 136.264 55.9863C136.049 55.7389 135.775 55.6022 135.443 55.5762C135.261 55.5566 135.134 55.5111 135.062 55.4395C134.991 55.3678 134.955 55.2669 134.955 55.1367C134.955 55.013 134.991 54.9154 135.062 54.8438C135.134 54.7721 135.261 54.7266 135.443 54.707C135.782 54.681 136.055 54.5475 136.264 54.3066C136.479 54.0592 136.586 53.7565 136.586 53.3984V49.8828C136.586 49.2708 136.781 48.763 137.172 48.3594C137.562 47.9492 138.031 47.7441 138.578 47.7441C138.734 47.7441 138.855 47.7832 138.939 47.8613C139.024 47.9395 139.066 48.0371 139.066 48.1543C139.066 48.2715 139.024 48.3691 138.939 48.4473C138.881 48.5124 138.747 48.5547 138.539 48.5742C138.214 48.6068 137.943 48.7435 137.729 48.9844C137.52 49.2253 137.416 49.5247 137.416 49.8828V53.3984C137.416 53.8086 137.351 54.1406 137.221 54.3945C137.09 54.6419 136.859 54.8893 136.527 55.1367ZM133.598 81.9492H136.195L135.512 86.6953C135.473 86.9427 135.401 87.1185 135.297 87.2227C135.193 87.3203 135.059 87.3691 134.896 87.3691C134.734 87.3691 134.6 87.3203 134.496 87.2227C134.392 87.1185 134.32 86.9427 134.281 86.6953L133.598 81.9492ZM137.787 81.9492H140.385L139.701 86.6953C139.662 86.9427 139.59 87.1185 139.486 87.2227C139.382 87.3203 139.252 87.3691 139.096 87.3691C138.926 87.3691 138.79 87.3203 138.686 87.2227C138.581 87.1185 138.513 86.9427 138.48 86.6953L137.787 81.9492ZM145.277 85.543V86.373C145.974 85.6243 146.674 85.25 147.377 85.25C147.8 85.25 148.171 85.3639 148.49 85.5918C148.809 85.8132 149.076 86.1517 149.291 86.6074C149.656 86.1517 150.023 85.8132 150.395 85.5918C150.772 85.3639 151.15 85.25 151.527 85.25C152.12 85.25 152.592 85.4421 152.943 85.8262C153.406 86.321 153.637 86.8613 153.637 87.4473V93.1797H154.33C154.525 93.1797 154.665 93.2188 154.75 93.2969C154.835 93.3685 154.877 93.4661 154.877 93.5898C154.877 93.707 154.835 93.8047 154.75 93.8828C154.665 93.9609 154.525 94 154.33 94H152.816V87.5254C152.816 87.1087 152.689 86.7637 152.436 86.4902C152.182 86.2168 151.889 86.0801 151.557 86.0801C151.257 86.0801 150.941 86.194 150.609 86.4219C150.277 86.6432 149.9 87.0827 149.477 87.7402V93.1797H150.16C150.355 93.1797 150.495 93.2188 150.58 93.2969C150.665 93.3685 150.707 93.4661 150.707 93.5898C150.707 93.707 150.665 93.8047 150.58 93.8828C150.495 93.9609 150.355 94 150.16 94H148.646V87.584C148.646 87.1478 148.516 86.7897 148.256 86.5098C148.002 86.2233 147.715 86.0801 147.396 86.0801C147.104 86.0801 146.814 86.1745 146.527 86.3633C146.13 86.6302 145.714 87.0892 145.277 87.7402V93.1797H145.971C146.166 93.1797 146.306 93.2188 146.391 93.2969C146.475 93.3685 146.518 93.4661 146.518 93.5898C146.518 93.707 146.475 93.8047 146.391 93.8828C146.306 93.9609 146.166 94 145.971 94H143.764C143.568 94 143.428 93.9609 143.344 93.8828C143.259 93.8047 143.217 93.707 143.217 93.5898C143.217 93.4661 143.259 93.3685 143.344 93.2969C143.428 93.2188 143.568 93.1797 143.764 93.1797H144.457V86.373H143.764C143.568 86.373 143.428 86.334 143.344 86.2559C143.259 86.1777 143.217 86.0768 143.217 85.9531C143.217 85.8359 143.259 85.7383 143.344 85.6602C143.428 85.582 143.568 85.543 143.764 85.543H145.277ZM165.463 89.9668H157.104C157.247 91.028 157.689 91.8841 158.432 92.5352C159.18 93.1797 160.105 93.502 161.205 93.502C161.817 93.502 162.458 93.401 163.129 93.1992C163.799 92.9974 164.346 92.7305 164.77 92.3984C164.893 92.3008 165.001 92.252 165.092 92.252C165.196 92.252 165.287 92.2943 165.365 92.3789C165.443 92.457 165.482 92.5514 165.482 92.6621C165.482 92.7728 165.43 92.8802 165.326 92.9844C165.014 93.3099 164.457 93.6159 163.656 93.9023C162.862 94.1823 162.045 94.3223 161.205 94.3223C159.799 94.3223 158.624 93.8633 157.68 92.9453C156.742 92.0208 156.273 90.9043 156.273 89.5957C156.273 88.4043 156.713 87.3822 157.592 86.5293C158.477 85.6764 159.571 85.25 160.873 85.25C162.214 85.25 163.318 85.6895 164.184 86.5684C165.049 87.4408 165.476 88.5736 165.463 89.9668ZM164.633 89.1367C164.47 88.2318 164.04 87.4961 163.344 86.9297C162.654 86.3633 161.83 86.0801 160.873 86.0801C159.916 86.0801 159.092 86.36 158.402 86.9199C157.712 87.4798 157.283 88.2188 157.113 89.1367H164.633ZM175.746 86.0801C175.746 85.8913 175.785 85.7546 175.863 85.6699C175.941 85.5853 176.039 85.543 176.156 85.543C176.28 85.543 176.381 85.5853 176.459 85.6699C176.537 85.7546 176.576 85.8978 176.576 86.0996V87.5059C176.576 87.7012 176.537 87.8411 176.459 87.9258C176.381 88.0104 176.28 88.0527 176.156 88.0527C176.046 88.0527 175.951 88.0169 175.873 87.9453C175.801 87.8737 175.759 87.7565 175.746 87.5938C175.707 87.2031 175.505 86.8809 175.141 86.627C174.607 86.2624 173.9 86.0801 173.021 86.0801C172.104 86.0801 171.391 86.2656 170.883 86.6367C170.499 86.9167 170.307 87.2292 170.307 87.5742C170.307 87.9648 170.535 88.2904 170.99 88.5508C171.303 88.7331 171.895 88.873 172.768 88.9707C173.907 89.0944 174.698 89.2344 175.141 89.3906C175.772 89.6185 176.241 89.9342 176.547 90.3379C176.859 90.7415 177.016 91.1777 177.016 91.6465C177.016 92.3431 176.68 92.9648 176.01 93.5117C175.339 94.0521 174.356 94.3223 173.061 94.3223C171.765 94.3223 170.704 93.9935 169.877 93.3359C169.877 93.5573 169.864 93.7005 169.838 93.7656C169.812 93.8307 169.763 93.8861 169.691 93.9316C169.626 93.9772 169.551 94 169.467 94C169.35 94 169.252 93.9577 169.174 93.873C169.096 93.7884 169.057 93.6484 169.057 93.4531V91.7637C169.057 91.5684 169.092 91.4284 169.164 91.3438C169.242 91.2591 169.343 91.2168 169.467 91.2168C169.584 91.2168 169.682 91.2591 169.76 91.3438C169.844 91.4219 169.887 91.5293 169.887 91.666C169.887 91.9655 169.962 92.2161 170.111 92.418C170.339 92.7305 170.701 92.9909 171.195 93.1992C171.697 93.401 172.309 93.502 173.031 93.502C174.099 93.502 174.893 93.3034 175.414 92.9062C175.935 92.5091 176.195 92.0892 176.195 91.6465C176.195 91.1387 175.932 90.7318 175.404 90.4258C174.87 90.1198 174.092 89.9147 173.07 89.8105C172.055 89.7064 171.326 89.5697 170.883 89.4004C170.44 89.2311 170.095 88.9772 169.848 88.6387C169.6 88.3001 169.477 87.9355 169.477 87.5449C169.477 86.8418 169.822 86.2852 170.512 85.875C171.202 85.4583 172.025 85.25 172.982 85.25C174.115 85.25 175.036 85.5267 175.746 86.0801ZM187.758 86.0801C187.758 85.8913 187.797 85.7546 187.875 85.6699C187.953 85.5853 188.051 85.543 188.168 85.543C188.292 85.543 188.393 85.5853 188.471 85.6699C188.549 85.7546 188.588 85.8978 188.588 86.0996V87.5059C188.588 87.7012 188.549 87.8411 188.471 87.9258C188.393 88.0104 188.292 88.0527 188.168 88.0527C188.057 88.0527 187.963 88.0169 187.885 87.9453C187.813 87.8737 187.771 87.7565 187.758 87.5938C187.719 87.2031 187.517 86.8809 187.152 86.627C186.618 86.2624 185.912 86.0801 185.033 86.0801C184.115 86.0801 183.402 86.2656 182.895 86.6367C182.51 86.9167 182.318 87.2292 182.318 87.5742C182.318 87.9648 182.546 88.2904 183.002 88.5508C183.314 88.7331 183.907 88.873 184.779 88.9707C185.919 89.0944 186.71 89.2344 187.152 89.3906C187.784 89.6185 188.253 89.9342 188.559 90.3379C188.871 90.7415 189.027 91.1777 189.027 91.6465C189.027 92.3431 188.692 92.9648 188.021 93.5117C187.351 94.0521 186.368 94.3223 185.072 94.3223C183.777 94.3223 182.715 93.9935 181.889 93.3359C181.889 93.5573 181.876 93.7005 181.85 93.7656C181.824 93.8307 181.775 93.8861 181.703 93.9316C181.638 93.9772 181.563 94 181.479 94C181.361 94 181.264 93.9577 181.186 93.873C181.107 93.7884 181.068 93.6484 181.068 93.4531V91.7637C181.068 91.5684 181.104 91.4284 181.176 91.3438C181.254 91.2591 181.355 91.2168 181.479 91.2168C181.596 91.2168 181.693 91.2591 181.771 91.3438C181.856 91.4219 181.898 91.5293 181.898 91.666C181.898 91.9655 181.973 92.2161 182.123 92.418C182.351 92.7305 182.712 92.9909 183.207 93.1992C183.708 93.401 184.32 93.502 185.043 93.502C186.111 93.502 186.905 93.3034 187.426 92.9062C187.947 92.5091 188.207 92.0892 188.207 91.6465C188.207 91.1387 187.943 90.7318 187.416 90.4258C186.882 90.1198 186.104 89.9147 185.082 89.8105C184.066 89.7064 183.337 89.5697 182.895 89.4004C182.452 89.2311 182.107 88.9772 181.859 88.6387C181.612 88.3001 181.488 87.9355 181.488 87.5449C181.488 86.8418 181.833 86.2852 182.523 85.875C183.214 85.4583 184.037 85.25 184.994 85.25C186.127 85.25 187.048 85.5267 187.758 86.0801ZM199.418 94V92.8184C198.227 93.821 196.954 94.3223 195.6 94.3223C194.617 94.3223 193.848 94.0749 193.295 93.5801C192.742 93.0788 192.465 92.4668 192.465 91.7441C192.465 90.9499 192.829 90.2565 193.559 89.6641C194.288 89.0716 195.352 88.7754 196.752 88.7754C197.13 88.7754 197.54 88.8014 197.982 88.8535C198.425 88.8991 198.904 88.974 199.418 89.0781V87.75C199.418 87.3008 199.21 86.9102 198.793 86.5781C198.376 86.2461 197.751 86.0801 196.918 86.0801C196.28 86.0801 195.385 86.2656 194.232 86.6367C194.024 86.7018 193.891 86.7344 193.832 86.7344C193.728 86.7344 193.637 86.6953 193.559 86.6172C193.487 86.5391 193.451 86.4414 193.451 86.3242C193.451 86.2135 193.484 86.1257 193.549 86.0605C193.64 85.9629 194.008 85.8294 194.652 85.6602C195.668 85.3867 196.436 85.25 196.957 85.25C197.992 85.25 198.799 85.5072 199.379 86.0215C199.958 86.5293 200.248 87.1055 200.248 87.75V93.1797H201.342C201.544 93.1797 201.687 93.2188 201.771 93.2969C201.856 93.3685 201.898 93.4661 201.898 93.5898C201.898 93.707 201.856 93.8047 201.771 93.8828C201.687 93.9609 201.544 94 201.342 94H199.418ZM199.418 89.918C199.034 89.8073 198.627 89.7259 198.197 89.6738C197.768 89.6217 197.315 89.5957 196.84 89.5957C195.648 89.5957 194.717 89.8529 194.047 90.3672C193.539 90.7513 193.285 91.2103 193.285 91.7441C193.285 92.2389 193.477 92.6556 193.861 92.9941C194.252 93.3327 194.818 93.502 195.561 93.502C196.27 93.502 196.928 93.362 197.533 93.082C198.145 92.7956 198.773 92.3431 199.418 91.7246V89.918ZM211.83 87.0469V85.543H213.754C213.949 85.543 214.089 85.582 214.174 85.6602C214.258 85.7383 214.301 85.8392 214.301 85.9629C214.301 86.0801 214.258 86.1777 214.174 86.2559C214.089 86.334 213.949 86.373 213.754 86.373H212.65V94.5664C212.65 95.1133 212.533 95.6016 212.299 96.0312C212.143 96.3177 211.882 96.6139 211.518 96.9199C211.153 97.2259 210.821 97.444 210.521 97.5742C210.222 97.7044 209.822 97.7695 209.32 97.7695H206.996C206.801 97.7695 206.661 97.7305 206.576 97.6523C206.492 97.5807 206.449 97.4831 206.449 97.3594C206.449 97.2357 206.492 97.1348 206.576 97.0566C206.661 96.9785 206.801 96.9395 206.996 96.9395L209.35 96.9492C209.831 96.9492 210.264 96.8255 210.648 96.5781C211.039 96.3307 211.361 95.9694 211.615 95.4941C211.758 95.2207 211.83 94.8724 211.83 94.4492V91.9883C210.951 93.1927 209.818 93.7949 208.432 93.7949C207.305 93.7949 206.332 93.3783 205.512 92.5449C204.698 91.7051 204.291 90.696 204.291 89.5176C204.291 88.3392 204.698 87.3333 205.512 86.5C206.332 85.6667 207.305 85.25 208.432 85.25C209.818 85.25 210.951 85.849 211.83 87.0469ZM211.83 89.5176C211.83 88.554 211.498 87.7402 210.834 87.0762C210.176 86.4121 209.389 86.0801 208.471 86.0801C207.553 86.0801 206.765 86.4154 206.107 87.0859C205.45 87.75 205.121 88.5605 205.121 89.5176C205.121 90.4811 205.45 91.2982 206.107 91.9688C206.765 92.6328 207.553 92.9648 208.471 92.9648C209.389 92.9648 210.176 92.6328 210.834 91.9688C211.498 91.2982 211.83 90.4811 211.83 89.5176ZM225.521 89.9668H217.162C217.305 91.028 217.748 91.8841 218.49 92.5352C219.239 93.1797 220.163 93.502 221.264 93.502C221.876 93.502 222.517 93.401 223.188 93.1992C223.858 92.9974 224.405 92.7305 224.828 92.3984C224.952 92.3008 225.059 92.252 225.15 92.252C225.255 92.252 225.346 92.2943 225.424 92.3789C225.502 92.457 225.541 92.5514 225.541 92.6621C225.541 92.7728 225.489 92.8802 225.385 92.9844C225.072 93.3099 224.516 93.6159 223.715 93.9023C222.921 94.1823 222.104 94.3223 221.264 94.3223C219.857 94.3223 218.682 93.8633 217.738 92.9453C216.801 92.0208 216.332 90.9043 216.332 89.5957C216.332 88.4043 216.771 87.3822 217.65 86.5293C218.536 85.6764 219.63 85.25 220.932 85.25C222.273 85.25 223.376 85.6895 224.242 86.5684C225.108 87.4408 225.535 88.5736 225.521 89.9668ZM224.691 89.1367C224.529 88.2318 224.099 87.4961 223.402 86.9297C222.712 86.3633 221.889 86.0801 220.932 86.0801C219.975 86.0801 219.151 86.36 218.461 86.9199C217.771 87.4798 217.341 88.2188 217.172 89.1367H224.691ZM230.424 88.9023V93.1797H231.938C232.139 93.1797 232.283 93.2188 232.367 93.2969C232.452 93.3685 232.494 93.4661 232.494 93.5898C232.494 93.707 232.452 93.8047 232.367 93.8828C232.283 93.9609 232.139 94 231.938 94H228.5C228.305 94 228.165 93.9609 228.08 93.8828C227.995 93.8047 227.953 93.707 227.953 93.5898C227.953 93.4661 227.995 93.3685 228.08 93.2969C228.165 93.2188 228.305 93.1797 228.5 93.1797H229.604V83.3945H228.5C228.305 83.3945 228.165 83.3587 228.08 83.2871C227.995 83.209 227.953 83.1081 227.953 82.9844C227.953 82.8607 227.995 82.763 228.08 82.6914C228.165 82.6133 228.305 82.5742 228.5 82.5742H233.461C234.483 82.5742 235.342 82.8997 236.039 83.5508C236.742 84.1953 237.094 84.9245 237.094 85.7383C237.094 86.3242 236.876 86.8776 236.439 87.3984C236.01 87.9128 235.287 88.3424 234.271 88.6875C234.857 89.0911 235.359 89.5469 235.775 90.0547C236.192 90.5625 236.859 91.6042 237.777 93.1797H238.402C238.598 93.1797 238.738 93.2188 238.822 93.2969C238.907 93.3685 238.949 93.4661 238.949 93.5898C238.949 93.707 238.907 93.8047 238.822 93.8828C238.738 93.9609 238.598 94 238.402 94H237.309C236.293 92.1836 235.505 90.9661 234.945 90.3477C234.392 89.7292 233.754 89.2474 233.031 88.9023H230.424ZM230.424 88.082H232.66C233.376 88.082 234.024 87.9518 234.604 87.6914C235.189 87.431 235.613 87.125 235.873 86.7734C236.14 86.4219 236.273 86.0638 236.273 85.6992C236.273 85.1523 235.997 84.6315 235.443 84.1367C234.896 83.6419 234.229 83.3945 233.441 83.3945H230.424V88.082ZM249.545 89.9668H241.186C241.329 91.028 241.771 91.8841 242.514 92.5352C243.262 93.1797 244.187 93.502 245.287 93.502C245.899 93.502 246.54 93.401 247.211 93.1992C247.882 92.9974 248.428 92.7305 248.852 92.3984C248.975 92.3008 249.083 92.252 249.174 92.252C249.278 92.252 249.369 92.2943 249.447 92.3789C249.525 92.457 249.564 92.5514 249.564 92.6621C249.564 92.7728 249.512 92.8802 249.408 92.9844C249.096 93.3099 248.539 93.6159 247.738 93.9023C246.944 94.1823 246.127 94.3223 245.287 94.3223C243.881 94.3223 242.706 93.8633 241.762 92.9453C240.824 92.0208 240.355 90.9043 240.355 89.5957C240.355 88.4043 240.795 87.3822 241.674 86.5293C242.559 85.6764 243.653 85.25 244.955 85.25C246.296 85.25 247.4 85.6895 248.266 86.5684C249.132 87.4408 249.558 88.5736 249.545 89.9668ZM248.715 89.1367C248.552 88.2318 248.122 87.4961 247.426 86.9297C246.736 86.3633 245.912 86.0801 244.955 86.0801C243.998 86.0801 243.174 86.36 242.484 86.9199C241.794 87.4798 241.365 88.2188 241.195 89.1367H248.715ZM256.576 86.373V93.1797H260.18C260.375 93.1797 260.515 93.2188 260.6 93.2969C260.684 93.3685 260.727 93.4661 260.727 93.5898C260.727 93.707 260.684 93.8047 260.6 93.8828C260.515 93.9609 260.375 94 260.18 94H253.764C253.568 94 253.428 93.9609 253.344 93.8828C253.259 93.8047 253.217 93.707 253.217 93.5898C253.217 93.4661 253.259 93.3685 253.344 93.2969C253.428 93.2188 253.568 93.1797 253.764 93.1797H255.746V86.373H253.969C253.773 86.373 253.633 86.334 253.549 86.2559C253.464 86.1777 253.422 86.0768 253.422 85.9531C253.422 85.8359 253.464 85.7383 253.549 85.6602C253.633 85.582 253.773 85.543 253.969 85.543H255.746V84.3027C255.746 83.6126 256.026 83.0137 256.586 82.5059C257.146 81.998 257.888 81.7441 258.812 81.7441C259.587 81.7441 260.414 81.8158 261.293 81.959C261.625 82.0111 261.824 82.0729 261.889 82.1445C261.96 82.2161 261.996 82.3105 261.996 82.4277C261.996 82.5449 261.957 82.6426 261.879 82.7207C261.801 82.7923 261.697 82.8281 261.566 82.8281C261.514 82.8281 261.426 82.8184 261.303 82.7988C260.32 82.6491 259.49 82.5742 258.812 82.5742C258.096 82.5742 257.543 82.75 257.152 83.1016C256.768 83.4531 256.576 83.8535 256.576 84.3027V85.543H260.414C260.609 85.543 260.749 85.582 260.834 85.6602C260.919 85.7383 260.961 85.8392 260.961 85.9629C260.961 86.0801 260.919 86.1777 260.834 86.2559C260.749 86.334 260.609 86.373 260.414 86.373H256.576ZM273.568 89.9668H265.209C265.352 91.028 265.795 91.8841 266.537 92.5352C267.286 93.1797 268.21 93.502 269.311 93.502C269.923 93.502 270.564 93.401 271.234 93.1992C271.905 92.9974 272.452 92.7305 272.875 92.3984C272.999 92.3008 273.106 92.252 273.197 92.252C273.301 92.252 273.393 92.2943 273.471 92.3789C273.549 92.457 273.588 92.5514 273.588 92.6621C273.588 92.7728 273.536 92.8802 273.432 92.9844C273.119 93.3099 272.562 93.6159 271.762 93.9023C270.967 94.1823 270.15 94.3223 269.311 94.3223C267.904 94.3223 266.729 93.8633 265.785 92.9453C264.848 92.0208 264.379 90.9043 264.379 89.5957C264.379 88.4043 264.818 87.3822 265.697 86.5293C266.583 85.6764 267.676 85.25 268.979 85.25C270.32 85.25 271.423 85.6895 272.289 86.5684C273.155 87.4408 273.581 88.5736 273.568 89.9668ZM272.738 89.1367C272.576 88.2318 272.146 87.4961 271.449 86.9297C270.759 86.3633 269.936 86.0801 268.979 86.0801C268.021 86.0801 267.198 86.36 266.508 86.9199C265.818 87.4798 265.388 88.2188 265.219 89.1367H272.738ZM280.16 85.543V87.6133C281.228 86.6497 282.025 86.0312 282.553 85.7578C283.087 85.4779 283.578 85.3379 284.027 85.3379C284.516 85.3379 284.968 85.5039 285.385 85.8359C285.808 86.1615 286.02 86.4089 286.02 86.5781C286.02 86.7018 285.977 86.806 285.893 86.8906C285.814 86.9688 285.714 87.0078 285.59 87.0078C285.525 87.0078 285.469 86.998 285.424 86.9785C285.378 86.9525 285.294 86.8776 285.17 86.7539C284.942 86.526 284.743 86.3698 284.574 86.2852C284.405 86.2005 284.239 86.1582 284.076 86.1582C283.718 86.1582 283.285 86.3014 282.777 86.5879C282.276 86.8743 281.404 87.5742 280.16 88.6875V93.1797H283.793C283.995 93.1797 284.138 93.2188 284.223 93.2969C284.307 93.3685 284.35 93.4661 284.35 93.5898C284.35 93.707 284.307 93.8047 284.223 93.8828C284.138 93.9609 283.995 94 283.793 94H277.357C277.162 94 277.022 93.9642 276.938 93.8926C276.853 93.8145 276.811 93.7168 276.811 93.5996C276.811 93.4889 276.85 93.3978 276.928 93.3262C277.012 93.248 277.156 93.209 277.357 93.209H279.34V86.373H277.826C277.631 86.373 277.491 86.334 277.406 86.2559C277.322 86.1777 277.279 86.0768 277.279 85.9531C277.279 85.8359 277.318 85.7383 277.396 85.6602C277.481 85.582 277.624 85.543 277.826 85.543H280.16ZM297.592 89.9668H289.232C289.376 91.028 289.818 91.8841 290.561 92.5352C291.309 93.1797 292.234 93.502 293.334 93.502C293.946 93.502 294.587 93.401 295.258 93.1992C295.928 92.9974 296.475 92.7305 296.898 92.3984C297.022 92.3008 297.13 92.252 297.221 92.252C297.325 92.252 297.416 92.2943 297.494 92.3789C297.572 92.457 297.611 92.5514 297.611 92.6621C297.611 92.7728 297.559 92.8802 297.455 92.9844C297.143 93.3099 296.586 93.6159 295.785 93.9023C294.991 94.1823 294.174 94.3223 293.334 94.3223C291.928 94.3223 290.753 93.8633 289.809 92.9453C288.871 92.0208 288.402 90.9043 288.402 89.5957C288.402 88.4043 288.842 87.3822 289.721 86.5293C290.606 85.6764 291.7 85.25 293.002 85.25C294.343 85.25 295.447 85.6895 296.312 86.5684C297.178 87.4408 297.605 88.5736 297.592 89.9668ZM296.762 89.1367C296.599 88.2318 296.169 87.4961 295.473 86.9297C294.783 86.3633 293.959 86.0801 293.002 86.0801C292.045 86.0801 291.221 86.36 290.531 86.9199C289.841 87.4798 289.411 88.2188 289.242 89.1367H296.762ZM302.514 85.543V86.7832C303.087 86.2038 303.604 85.8034 304.066 85.582C304.529 85.3607 305.049 85.25 305.629 85.25C306.254 85.25 306.824 85.3835 307.338 85.6504C307.702 85.8457 308.031 86.1712 308.324 86.627C308.624 87.0762 308.773 87.5384 308.773 88.0137V93.1797H309.467C309.662 93.1797 309.802 93.2188 309.887 93.2969C309.971 93.3685 310.014 93.4661 310.014 93.5898C310.014 93.707 309.971 93.8047 309.887 93.8828C309.802 93.9609 309.662 94 309.467 94H307.27C307.068 94 306.924 93.9609 306.84 93.8828C306.755 93.8047 306.713 93.707 306.713 93.5898C306.713 93.4661 306.755 93.3685 306.84 93.2969C306.924 93.2188 307.068 93.1797 307.27 93.1797H307.953V88.1504C307.953 87.571 307.742 87.0827 307.318 86.6855C306.895 86.2819 306.329 86.0801 305.619 86.0801C305.079 86.0801 304.61 86.1908 304.213 86.4121C303.816 86.627 303.249 87.1673 302.514 88.0332V93.1797H303.441C303.637 93.1797 303.777 93.2188 303.861 93.2969C303.946 93.3685 303.988 93.4661 303.988 93.5898C303.988 93.707 303.946 93.8047 303.861 93.8828C303.777 93.9609 303.637 94 303.441 94H300.766C300.57 94 300.43 93.9609 300.346 93.8828C300.261 93.8047 300.219 93.707 300.219 93.5898C300.219 93.4661 300.261 93.3685 300.346 93.2969C300.43 93.2188 300.57 93.1797 300.766 93.1797H301.693V86.373H301C300.805 86.373 300.665 86.334 300.58 86.2559C300.495 86.1777 300.453 86.0768 300.453 85.9531C300.453 85.8359 300.495 85.7383 300.58 85.6602C300.665 85.582 300.805 85.543 301 85.543H302.514ZM320.6 86.373V86.0996C320.6 85.8978 320.639 85.7546 320.717 85.6699C320.795 85.5853 320.893 85.543 321.01 85.543C321.133 85.543 321.234 85.5853 321.312 85.6699C321.391 85.7546 321.43 85.8978 321.43 86.0996V87.9551C321.423 88.1569 321.381 88.3001 321.303 88.3848C321.231 88.4694 321.133 88.5117 321.01 88.5117C320.899 88.5117 320.805 88.4759 320.727 88.4043C320.655 88.3262 320.613 88.1992 320.6 88.0234C320.561 87.5612 320.255 87.1217 319.682 86.7051C319.115 86.2884 318.35 86.0801 317.387 86.0801C316.169 86.0801 315.245 86.4609 314.613 87.2227C313.982 87.9844 313.666 88.8568 313.666 89.8398C313.666 90.901 314.014 91.7767 314.711 92.4668C315.408 93.1569 316.309 93.502 317.416 93.502C318.054 93.502 318.702 93.3848 319.359 93.1504C320.023 92.916 320.622 92.5384 321.156 92.0176C321.293 91.8874 321.413 91.8223 321.518 91.8223C321.628 91.8223 321.719 91.8613 321.791 91.9395C321.869 92.0111 321.908 92.1022 321.908 92.2129C321.908 92.4928 321.579 92.8477 320.922 93.2773C319.861 93.974 318.679 94.3223 317.377 94.3223C316.055 94.3223 314.968 93.9023 314.115 93.0625C313.269 92.2161 312.846 91.1452 312.846 89.8496C312.846 88.528 313.279 87.431 314.145 86.5586C315.017 85.6862 316.114 85.25 317.436 85.25C318.692 85.25 319.747 85.6243 320.6 86.373ZM333.627 89.9668H325.268C325.411 91.028 325.854 91.8841 326.596 92.5352C327.344 93.1797 328.269 93.502 329.369 93.502C329.981 93.502 330.622 93.401 331.293 93.1992C331.964 92.9974 332.51 92.7305 332.934 92.3984C333.057 92.3008 333.165 92.252 333.256 92.252C333.36 92.252 333.451 92.2943 333.529 92.3789C333.607 92.457 333.646 92.5514 333.646 92.6621C333.646 92.7728 333.594 92.8802 333.49 92.9844C333.178 93.3099 332.621 93.6159 331.82 93.9023C331.026 94.1823 330.209 94.3223 329.369 94.3223C327.963 94.3223 326.788 93.8633 325.844 92.9453C324.906 92.0208 324.438 90.9043 324.438 89.5957C324.438 88.4043 324.877 87.3822 325.756 86.5293C326.641 85.6764 327.735 85.25 329.037 85.25C330.378 85.25 331.482 85.6895 332.348 86.5684C333.214 87.4408 333.64 88.5736 333.627 89.9668ZM332.797 89.1367C332.634 88.2318 332.204 87.4961 331.508 86.9297C330.818 86.3633 329.994 86.0801 329.037 86.0801C328.08 86.0801 327.257 86.36 326.566 86.9199C325.876 87.4798 325.447 88.2188 325.277 89.1367H332.797ZM337.797 81.9492H340.395L339.711 86.6953C339.672 86.9427 339.6 87.1185 339.496 87.2227C339.392 87.3203 339.258 87.3691 339.096 87.3691C338.933 87.3691 338.799 87.3203 338.695 87.2227C338.591 87.1185 338.52 86.9427 338.48 86.6953L337.797 81.9492ZM341.986 81.9492H344.584L343.9 86.6953C343.861 86.9427 343.79 87.1185 343.686 87.2227C343.581 87.3203 343.451 87.3691 343.295 87.3691C343.126 87.3691 342.989 87.3203 342.885 87.2227C342.781 87.1185 342.712 86.9427 342.68 86.6953L341.986 81.9492ZM353.041 85.543H353.393C353.757 85.543 354.07 85.6732 354.33 85.9336C354.59 86.194 354.721 86.5033 354.721 86.8613C354.721 87.2454 354.587 87.5645 354.32 87.8184C354.06 88.0723 353.751 88.1992 353.393 88.1992H353.041C352.676 88.1992 352.364 88.069 352.104 87.8086C351.843 87.5482 351.713 87.2389 351.713 86.8809C351.713 86.4967 351.843 86.1777 352.104 85.9238C352.37 85.6699 352.683 85.543 353.041 85.543ZM353.041 91.6465H353.393C353.757 91.6465 354.07 91.7767 354.33 92.0371C354.59 92.291 354.721 92.6003 354.721 92.9648C354.721 93.3424 354.587 93.6582 354.32 93.9121C354.06 94.166 353.751 94.293 353.393 94.293H353.041C352.676 94.293 352.364 94.166 352.104 93.9121C351.843 93.6517 351.713 93.3392 351.713 92.9746C351.713 92.597 351.843 92.2812 352.104 92.0273C352.37 91.7734 352.683 91.6465 353.041 91.6465ZM217.68 115.949H220.277L219.594 120.695C219.555 120.943 219.483 121.118 219.379 121.223C219.275 121.32 219.141 121.369 218.979 121.369C218.816 121.369 218.682 121.32 218.578 121.223C218.474 121.118 218.402 120.943 218.363 120.695L217.68 115.949ZM221.869 115.949H224.467L223.783 120.695C223.744 120.943 223.673 121.118 223.568 121.223C223.464 121.32 223.334 121.369 223.178 121.369C223.008 121.369 222.872 121.32 222.768 121.223C222.663 121.118 222.595 120.943 222.562 120.695L221.869 115.949ZM232.113 119.543V121.613C233.181 120.65 233.979 120.031 234.506 119.758C235.04 119.478 235.531 119.338 235.98 119.338C236.469 119.338 236.921 119.504 237.338 119.836C237.761 120.161 237.973 120.409 237.973 120.578C237.973 120.702 237.93 120.806 237.846 120.891C237.768 120.969 237.667 121.008 237.543 121.008C237.478 121.008 237.423 120.998 237.377 120.979C237.331 120.952 237.247 120.878 237.123 120.754C236.895 120.526 236.697 120.37 236.527 120.285C236.358 120.201 236.192 120.158 236.029 120.158C235.671 120.158 235.238 120.301 234.73 120.588C234.229 120.874 233.357 121.574 232.113 122.688V127.18H235.746C235.948 127.18 236.091 127.219 236.176 127.297C236.26 127.368 236.303 127.466 236.303 127.59C236.303 127.707 236.26 127.805 236.176 127.883C236.091 127.961 235.948 128 235.746 128H229.311C229.115 128 228.975 127.964 228.891 127.893C228.806 127.814 228.764 127.717 228.764 127.6C228.764 127.489 228.803 127.398 228.881 127.326C228.965 127.248 229.109 127.209 229.311 127.209H231.293V120.373H229.779C229.584 120.373 229.444 120.334 229.359 120.256C229.275 120.178 229.232 120.077 229.232 119.953C229.232 119.836 229.271 119.738 229.35 119.66C229.434 119.582 229.577 119.543 229.779 119.543H232.113ZM249.545 123.967H241.186C241.329 125.028 241.771 125.884 242.514 126.535C243.262 127.18 244.187 127.502 245.287 127.502C245.899 127.502 246.54 127.401 247.211 127.199C247.882 126.997 248.428 126.73 248.852 126.398C248.975 126.301 249.083 126.252 249.174 126.252C249.278 126.252 249.369 126.294 249.447 126.379C249.525 126.457 249.564 126.551 249.564 126.662C249.564 126.773 249.512 126.88 249.408 126.984C249.096 127.31 248.539 127.616 247.738 127.902C246.944 128.182 246.127 128.322 245.287 128.322C243.881 128.322 242.706 127.863 241.762 126.945C240.824 126.021 240.355 124.904 240.355 123.596C240.355 122.404 240.795 121.382 241.674 120.529C242.559 119.676 243.653 119.25 244.955 119.25C246.296 119.25 247.4 119.689 248.266 120.568C249.132 121.441 249.558 122.574 249.545 123.967ZM248.715 123.137C248.552 122.232 248.122 121.496 247.426 120.93C246.736 120.363 245.912 120.08 244.955 120.08C243.998 120.08 243.174 120.36 242.484 120.92C241.794 121.48 241.365 122.219 241.195 123.137H248.715ZM260.541 120.373V120.1C260.541 119.898 260.58 119.755 260.658 119.67C260.736 119.585 260.834 119.543 260.951 119.543C261.075 119.543 261.176 119.585 261.254 119.67C261.332 119.755 261.371 119.898 261.371 120.1V121.955C261.365 122.157 261.322 122.3 261.244 122.385C261.173 122.469 261.075 122.512 260.951 122.512C260.84 122.512 260.746 122.476 260.668 122.404C260.596 122.326 260.554 122.199 260.541 122.023C260.502 121.561 260.196 121.122 259.623 120.705C259.057 120.288 258.292 120.08 257.328 120.08C256.111 120.08 255.186 120.461 254.555 121.223C253.923 121.984 253.607 122.857 253.607 123.84C253.607 124.901 253.956 125.777 254.652 126.467C255.349 127.157 256.251 127.502 257.357 127.502C257.995 127.502 258.643 127.385 259.301 127.15C259.965 126.916 260.564 126.538 261.098 126.018C261.234 125.887 261.355 125.822 261.459 125.822C261.57 125.822 261.661 125.861 261.732 125.939C261.811 126.011 261.85 126.102 261.85 126.213C261.85 126.493 261.521 126.848 260.863 127.277C259.802 127.974 258.62 128.322 257.318 128.322C255.997 128.322 254.91 127.902 254.057 127.062C253.21 126.216 252.787 125.145 252.787 123.85C252.787 122.528 253.22 121.431 254.086 120.559C254.958 119.686 256.055 119.25 257.377 119.25C258.633 119.25 259.688 119.624 260.541 120.373ZM269.535 115.334V117.453H268.324V115.334H269.535ZM269.564 119.543V127.18H272.787C272.989 127.18 273.132 127.219 273.217 127.297C273.301 127.368 273.344 127.466 273.344 127.59C273.344 127.707 273.301 127.805 273.217 127.883C273.132 127.961 272.989 128 272.787 128H265.521C265.326 128 265.186 127.961 265.102 127.883C265.017 127.805 264.975 127.707 264.975 127.59C264.975 127.466 265.017 127.368 265.102 127.297C265.186 127.219 265.326 127.18 265.521 127.18H268.744V120.373H266.352C266.156 120.373 266.013 120.334 265.922 120.256C265.837 120.178 265.795 120.08 265.795 119.963C265.795 119.839 265.837 119.738 265.922 119.66C266.007 119.582 266.15 119.543 266.352 119.543H269.564ZM278.051 119.543V121.037C278.539 120.445 279.063 119.999 279.623 119.699C280.183 119.4 280.844 119.25 281.605 119.25C282.413 119.25 283.158 119.439 283.842 119.816C284.525 120.194 285.053 120.721 285.424 121.398C285.801 122.069 285.99 122.775 285.99 123.518C285.99 124.696 285.567 125.705 284.721 126.545C283.881 127.378 282.846 127.795 281.615 127.795C280.15 127.795 278.962 127.199 278.051 126.008V130.949H280.043C280.238 130.949 280.378 130.985 280.463 131.057C280.548 131.135 280.59 131.236 280.59 131.359C280.59 131.477 280.548 131.574 280.463 131.652C280.378 131.73 280.238 131.77 280.043 131.77H276.127C275.932 131.77 275.792 131.73 275.707 131.652C275.622 131.581 275.58 131.483 275.58 131.359C275.58 131.236 275.622 131.135 275.707 131.057C275.792 130.985 275.932 130.949 276.127 130.949H277.23V120.373H276.127C275.932 120.373 275.792 120.334 275.707 120.256C275.622 120.178 275.58 120.077 275.58 119.953C275.58 119.836 275.622 119.738 275.707 119.66C275.792 119.582 275.932 119.543 276.127 119.543H278.051ZM285.16 123.518C285.16 122.574 284.815 121.766 284.125 121.096C283.441 120.419 282.605 120.08 281.615 120.08C280.619 120.08 279.776 120.419 279.086 121.096C278.396 121.773 278.051 122.58 278.051 123.518C278.051 124.462 278.396 125.272 279.086 125.949C279.776 126.626 280.619 126.965 281.615 126.965C282.598 126.965 283.435 126.63 284.125 125.959C284.815 125.282 285.16 124.468 285.16 123.518ZM293.559 115.334V117.453H292.348V115.334H293.559ZM293.588 119.543V127.18H296.811C297.012 127.18 297.156 127.219 297.24 127.297C297.325 127.368 297.367 127.466 297.367 127.59C297.367 127.707 297.325 127.805 297.24 127.883C297.156 127.961 297.012 128 296.811 128H289.545C289.35 128 289.21 127.961 289.125 127.883C289.04 127.805 288.998 127.707 288.998 127.59C288.998 127.466 289.04 127.368 289.125 127.297C289.21 127.219 289.35 127.18 289.545 127.18H292.768V120.373H290.375C290.18 120.373 290.036 120.334 289.945 120.256C289.861 120.178 289.818 120.08 289.818 119.963C289.818 119.839 289.861 119.738 289.945 119.66C290.03 119.582 290.173 119.543 290.375 119.543H293.588ZM309.604 123.967H301.244C301.387 125.028 301.83 125.884 302.572 126.535C303.321 127.18 304.245 127.502 305.346 127.502C305.958 127.502 306.599 127.401 307.27 127.199C307.94 126.997 308.487 126.73 308.91 126.398C309.034 126.301 309.141 126.252 309.232 126.252C309.337 126.252 309.428 126.294 309.506 126.379C309.584 126.457 309.623 126.551 309.623 126.662C309.623 126.773 309.571 126.88 309.467 126.984C309.154 127.31 308.598 127.616 307.797 127.902C307.003 128.182 306.186 128.322 305.346 128.322C303.939 128.322 302.764 127.863 301.82 126.945C300.883 126.021 300.414 124.904 300.414 123.596C300.414 122.404 300.854 121.382 301.732 120.529C302.618 119.676 303.712 119.25 305.014 119.25C306.355 119.25 307.458 119.689 308.324 120.568C309.19 121.441 309.617 122.574 309.604 123.967ZM308.773 123.137C308.611 122.232 308.181 121.496 307.484 120.93C306.794 120.363 305.971 120.08 305.014 120.08C304.057 120.08 303.233 120.36 302.543 120.92C301.853 121.48 301.423 122.219 301.254 123.137H308.773ZM314.525 119.543V120.783C315.098 120.204 315.616 119.803 316.078 119.582C316.54 119.361 317.061 119.25 317.641 119.25C318.266 119.25 318.835 119.383 319.35 119.65C319.714 119.846 320.043 120.171 320.336 120.627C320.635 121.076 320.785 121.538 320.785 122.014V127.18H321.479C321.674 127.18 321.814 127.219 321.898 127.297C321.983 127.368 322.025 127.466 322.025 127.59C322.025 127.707 321.983 127.805 321.898 127.883C321.814 127.961 321.674 128 321.479 128H319.281C319.079 128 318.936 127.961 318.852 127.883C318.767 127.805 318.725 127.707 318.725 127.59C318.725 127.466 318.767 127.368 318.852 127.297C318.936 127.219 319.079 127.18 319.281 127.18H319.965V122.15C319.965 121.571 319.753 121.083 319.33 120.686C318.907 120.282 318.34 120.08 317.631 120.08C317.09 120.08 316.622 120.191 316.225 120.412C315.827 120.627 315.261 121.167 314.525 122.033V127.18H315.453C315.648 127.18 315.788 127.219 315.873 127.297C315.958 127.368 316 127.466 316 127.59C316 127.707 315.958 127.805 315.873 127.883C315.788 127.961 315.648 128 315.453 128H312.777C312.582 128 312.442 127.961 312.357 127.883C312.273 127.805 312.23 127.707 312.23 127.59C312.23 127.466 312.273 127.368 312.357 127.297C312.442 127.219 312.582 127.18 312.777 127.18H313.705V120.373H313.012C312.816 120.373 312.676 120.334 312.592 120.256C312.507 120.178 312.465 120.077 312.465 119.953C312.465 119.836 312.507 119.738 312.592 119.66C312.676 119.582 312.816 119.543 313.012 119.543H314.525ZM327.504 119.543H331.957C332.152 119.543 332.292 119.582 332.377 119.66C332.462 119.738 332.504 119.839 332.504 119.963C332.504 120.08 332.462 120.178 332.377 120.256C332.292 120.334 332.152 120.373 331.957 120.373H327.504V125.832C327.504 126.307 327.693 126.704 328.07 127.023C328.454 127.342 329.014 127.502 329.75 127.502C330.303 127.502 330.902 127.421 331.547 127.258C332.191 127.089 332.693 126.9 333.051 126.691C333.181 126.607 333.288 126.564 333.373 126.564C333.477 126.564 333.568 126.607 333.646 126.691C333.725 126.77 333.764 126.864 333.764 126.975C333.764 127.072 333.721 127.163 333.637 127.248C333.428 127.463 332.921 127.697 332.113 127.951C331.312 128.199 330.544 128.322 329.809 128.322C328.852 128.322 328.09 128.098 327.523 127.648C326.957 127.199 326.674 126.594 326.674 125.832V120.373H325.16C324.965 120.373 324.825 120.334 324.74 120.256C324.656 120.178 324.613 120.077 324.613 119.953C324.613 119.836 324.656 119.738 324.74 119.66C324.825 119.582 324.965 119.543 325.16 119.543H326.674V117.121C326.674 116.926 326.713 116.786 326.791 116.701C326.869 116.617 326.967 116.574 327.084 116.574C327.208 116.574 327.309 116.617 327.387 116.701C327.465 116.786 327.504 116.926 327.504 117.121V119.543ZM337.797 115.949H340.395L339.711 120.695C339.672 120.943 339.6 121.118 339.496 121.223C339.392 121.32 339.258 121.369 339.096 121.369C338.933 121.369 338.799 121.32 338.695 121.223C338.591 121.118 338.52 120.943 338.48 120.695L337.797 115.949ZM341.986 115.949H344.584L343.9 120.695C343.861 120.943 343.79 121.118 343.686 121.223C343.581 121.32 343.451 121.369 343.295 121.369C343.126 121.369 342.989 121.32 342.885 121.223C342.781 121.118 342.712 120.943 342.68 120.695L341.986 115.949ZM353.041 119.543H353.393C353.757 119.543 354.07 119.673 354.33 119.934C354.59 120.194 354.721 120.503 354.721 120.861C354.721 121.245 354.587 121.564 354.32 121.818C354.06 122.072 353.751 122.199 353.393 122.199H353.041C352.676 122.199 352.364 122.069 352.104 121.809C351.843 121.548 351.713 121.239 351.713 120.881C351.713 120.497 351.843 120.178 352.104 119.924C352.37 119.67 352.683 119.543 353.041 119.543ZM353.041 125.646H353.393C353.757 125.646 354.07 125.777 354.33 126.037C354.59 126.291 354.721 126.6 354.721 126.965C354.721 127.342 354.587 127.658 354.32 127.912C354.06 128.166 353.751 128.293 353.393 128.293H353.041C352.676 128.293 352.364 128.166 352.104 127.912C351.843 127.652 351.713 127.339 351.713 126.975C351.713 126.597 351.843 126.281 352.104 126.027C352.37 125.773 352.683 125.646 353.041 125.646ZM376.762 123.137C377.087 123.384 377.309 123.618 377.426 123.84C377.576 124.133 377.65 124.481 377.65 124.885V128.391C377.65 128.762 377.758 129.064 377.973 129.299C378.188 129.54 378.454 129.676 378.773 129.709C378.975 129.729 379.109 129.768 379.174 129.826C379.258 129.904 379.301 130.002 379.301 130.119C379.301 130.243 379.258 130.34 379.174 130.412C379.089 130.49 378.965 130.529 378.803 130.529C378.288 130.529 377.859 130.367 377.514 130.041C377.051 129.592 376.82 129.045 376.82 128.4V124.885C376.82 124.527 376.713 124.227 376.498 123.986C376.283 123.739 376.01 123.602 375.678 123.576C375.495 123.557 375.368 123.511 375.297 123.439C375.225 123.368 375.189 123.267 375.189 123.137C375.189 123.013 375.225 122.915 375.297 122.844C375.368 122.772 375.495 122.727 375.678 122.707C376.016 122.681 376.29 122.548 376.498 122.307C376.713 122.059 376.82 121.757 376.82 121.398V117.883C376.82 117.271 377.016 116.763 377.406 116.359C377.797 115.949 378.266 115.744 378.812 115.744C378.969 115.744 379.089 115.783 379.174 115.861C379.258 115.939 379.301 116.037 379.301 116.154C379.301 116.271 379.258 116.369 379.174 116.447C379.115 116.512 378.982 116.555 378.773 116.574C378.448 116.607 378.178 116.743 377.963 116.984C377.755 117.225 377.65 117.525 377.65 117.883V121.398C377.65 121.809 377.585 122.141 377.455 122.395C377.325 122.642 377.094 122.889 376.762 123.137ZM241.703 149.949H244.301L243.617 154.695C243.578 154.943 243.507 155.118 243.402 155.223C243.298 155.32 243.165 155.369 243.002 155.369C242.839 155.369 242.706 155.32 242.602 155.223C242.497 155.118 242.426 154.943 242.387 154.695L241.703 149.949ZM245.893 149.949H248.49L247.807 154.695C247.768 154.943 247.696 155.118 247.592 155.223C247.488 155.32 247.357 155.369 247.201 155.369C247.032 155.369 246.895 155.32 246.791 155.223C246.687 155.118 246.618 154.943 246.586 154.695L245.893 149.949ZM254.467 153.543V154.783C255.04 154.204 255.557 153.803 256.02 153.582C256.482 153.361 257.003 153.25 257.582 153.25C258.207 153.25 258.777 153.383 259.291 153.65C259.656 153.846 259.984 154.171 260.277 154.627C260.577 155.076 260.727 155.538 260.727 156.014V161.18H261.42C261.615 161.18 261.755 161.219 261.84 161.297C261.924 161.368 261.967 161.466 261.967 161.59C261.967 161.707 261.924 161.805 261.84 161.883C261.755 161.961 261.615 162 261.42 162H259.223C259.021 162 258.878 161.961 258.793 161.883C258.708 161.805 258.666 161.707 258.666 161.59C258.666 161.466 258.708 161.368 258.793 161.297C258.878 161.219 259.021 161.18 259.223 161.18H259.906V156.15C259.906 155.571 259.695 155.083 259.271 154.686C258.848 154.282 258.282 154.08 257.572 154.08C257.032 154.08 256.563 154.191 256.166 154.412C255.769 154.627 255.202 155.167 254.467 156.033V161.18H255.395C255.59 161.18 255.73 161.219 255.814 161.297C255.899 161.368 255.941 161.466 255.941 161.59C255.941 161.707 255.899 161.805 255.814 161.883C255.73 161.961 255.59 162 255.395 162H252.719C252.523 162 252.383 161.961 252.299 161.883C252.214 161.805 252.172 161.707 252.172 161.59C252.172 161.466 252.214 161.368 252.299 161.297C252.383 161.219 252.523 161.18 252.719 161.18H253.646V154.373H252.953C252.758 154.373 252.618 154.334 252.533 154.256C252.449 154.178 252.406 154.077 252.406 153.953C252.406 153.836 252.449 153.738 252.533 153.66C252.618 153.582 252.758 153.543 252.953 153.543H254.467ZM266.43 149.744V154.793C266.951 154.227 267.449 153.829 267.924 153.602C268.406 153.367 268.943 153.25 269.535 153.25C270.173 153.25 270.714 153.364 271.156 153.592C271.605 153.813 271.98 154.158 272.279 154.627C272.579 155.089 272.729 155.577 272.729 156.092V161.18H273.646C273.848 161.18 273.988 161.219 274.066 161.297C274.151 161.368 274.193 161.466 274.193 161.59C274.193 161.707 274.151 161.805 274.066 161.883C273.988 161.961 273.848 162 273.646 162H270.98C270.779 162 270.635 161.961 270.551 161.883C270.466 161.805 270.424 161.707 270.424 161.59C270.424 161.466 270.466 161.368 270.551 161.297C270.635 161.219 270.779 161.18 270.98 161.18H271.898V156.15C271.898 155.558 271.684 155.063 271.254 154.666C270.831 154.269 270.238 154.07 269.477 154.07C268.878 154.07 268.367 154.217 267.943 154.51C267.637 154.718 267.133 155.21 266.43 155.984V161.18H267.357C267.553 161.18 267.693 161.219 267.777 161.297C267.862 161.368 267.904 161.466 267.904 161.59C267.904 161.707 267.862 161.805 267.777 161.883C267.693 161.961 267.553 162 267.357 162H264.682C264.486 162 264.346 161.961 264.262 161.883C264.177 161.805 264.135 161.707 264.135 161.59C264.135 161.466 264.177 161.368 264.262 161.297C264.346 161.219 264.486 161.18 264.682 161.18H265.609V150.574H264.506C264.311 150.574 264.171 150.535 264.086 150.457C264.001 150.379 263.959 150.278 263.959 150.154C263.959 150.037 264.001 149.939 264.086 149.861C264.171 149.783 264.311 149.744 264.506 149.744H266.43ZM283.852 154.08C283.852 153.891 283.891 153.755 283.969 153.67C284.047 153.585 284.145 153.543 284.262 153.543C284.385 153.543 284.486 153.585 284.564 153.67C284.643 153.755 284.682 153.898 284.682 154.1V155.506C284.682 155.701 284.643 155.841 284.564 155.926C284.486 156.01 284.385 156.053 284.262 156.053C284.151 156.053 284.057 156.017 283.979 155.945C283.907 155.874 283.865 155.757 283.852 155.594C283.812 155.203 283.611 154.881 283.246 154.627C282.712 154.262 282.006 154.08 281.127 154.08C280.209 154.08 279.496 154.266 278.988 154.637C278.604 154.917 278.412 155.229 278.412 155.574C278.412 155.965 278.64 156.29 279.096 156.551C279.408 156.733 280.001 156.873 280.873 156.971C282.012 157.094 282.803 157.234 283.246 157.391C283.878 157.618 284.346 157.934 284.652 158.338C284.965 158.742 285.121 159.178 285.121 159.646C285.121 160.343 284.786 160.965 284.115 161.512C283.445 162.052 282.462 162.322 281.166 162.322C279.87 162.322 278.809 161.993 277.982 161.336C277.982 161.557 277.969 161.701 277.943 161.766C277.917 161.831 277.868 161.886 277.797 161.932C277.732 161.977 277.657 162 277.572 162C277.455 162 277.357 161.958 277.279 161.873C277.201 161.788 277.162 161.648 277.162 161.453V159.764C277.162 159.568 277.198 159.428 277.27 159.344C277.348 159.259 277.449 159.217 277.572 159.217C277.689 159.217 277.787 159.259 277.865 159.344C277.95 159.422 277.992 159.529 277.992 159.666C277.992 159.965 278.067 160.216 278.217 160.418C278.445 160.73 278.806 160.991 279.301 161.199C279.802 161.401 280.414 161.502 281.137 161.502C282.204 161.502 282.999 161.303 283.52 160.906C284.04 160.509 284.301 160.089 284.301 159.646C284.301 159.139 284.037 158.732 283.51 158.426C282.976 158.12 282.198 157.915 281.176 157.811C280.16 157.706 279.431 157.57 278.988 157.4C278.546 157.231 278.201 156.977 277.953 156.639C277.706 156.3 277.582 155.936 277.582 155.545C277.582 154.842 277.927 154.285 278.617 153.875C279.307 153.458 280.131 153.25 281.088 153.25C282.221 153.25 283.142 153.527 283.852 154.08ZM297.172 162H296.117L290.072 151.775V161.18H291.586C291.788 161.18 291.931 161.219 292.016 161.297C292.1 161.368 292.143 161.466 292.143 161.59C292.143 161.707 292.1 161.805 292.016 161.883C291.931 161.961 291.788 162 291.586 162H288.568C288.367 162 288.223 161.961 288.139 161.883C288.054 161.805 288.012 161.707 288.012 161.59C288.012 161.466 288.054 161.368 288.139 161.297C288.223 161.219 288.367 161.18 288.568 161.18H289.252V151.395H288.148C287.953 151.395 287.813 151.359 287.729 151.287C287.644 151.209 287.602 151.108 287.602 150.984C287.602 150.861 287.644 150.763 287.729 150.691C287.813 150.613 287.953 150.574 288.148 150.574H290.297L296.352 160.818V151.395H294.838C294.643 151.395 294.503 151.359 294.418 151.287C294.333 151.209 294.291 151.108 294.291 150.984C294.291 150.861 294.33 150.763 294.408 150.691C294.493 150.613 294.636 150.574 294.838 150.574H297.865C298.061 150.574 298.201 150.613 298.285 150.691C298.37 150.763 298.412 150.861 298.412 150.984C298.412 151.108 298.37 151.209 298.285 151.287C298.201 151.359 298.061 151.395 297.865 151.395H297.172V162ZM307.973 162V160.799C306.853 161.814 305.642 162.322 304.34 162.322C303.539 162.322 302.93 162.104 302.514 161.668C301.973 161.095 301.703 160.428 301.703 159.666V154.373H300.6C300.404 154.373 300.264 154.334 300.18 154.256C300.095 154.178 300.053 154.077 300.053 153.953C300.053 153.836 300.095 153.738 300.18 153.66C300.264 153.582 300.404 153.543 300.6 153.543H302.523V159.666C302.523 160.2 302.693 160.639 303.031 160.984C303.37 161.329 303.793 161.502 304.301 161.502C305.635 161.502 306.859 160.89 307.973 159.666V154.373H306.459C306.264 154.373 306.124 154.334 306.039 154.256C305.954 154.178 305.912 154.077 305.912 153.953C305.912 153.836 305.954 153.738 306.039 153.66C306.124 153.582 306.264 153.543 306.459 153.543H308.793V161.18H309.486C309.682 161.18 309.822 161.219 309.906 161.297C309.991 161.368 310.033 161.466 310.033 161.59C310.033 161.707 309.991 161.805 309.906 161.883C309.822 161.961 309.682 162 309.486 162H307.973ZM313.441 153.543V154.373C314.138 153.624 314.838 153.25 315.541 153.25C315.964 153.25 316.335 153.364 316.654 153.592C316.973 153.813 317.24 154.152 317.455 154.607C317.82 154.152 318.188 153.813 318.559 153.592C318.936 153.364 319.314 153.25 319.691 153.25C320.284 153.25 320.756 153.442 321.107 153.826C321.57 154.321 321.801 154.861 321.801 155.447V161.18H322.494C322.689 161.18 322.829 161.219 322.914 161.297C322.999 161.368 323.041 161.466 323.041 161.59C323.041 161.707 322.999 161.805 322.914 161.883C322.829 161.961 322.689 162 322.494 162H320.98V155.525C320.98 155.109 320.854 154.764 320.6 154.49C320.346 154.217 320.053 154.08 319.721 154.08C319.421 154.08 319.105 154.194 318.773 154.422C318.441 154.643 318.064 155.083 317.641 155.74V161.18H318.324C318.52 161.18 318.66 161.219 318.744 161.297C318.829 161.368 318.871 161.466 318.871 161.59C318.871 161.707 318.829 161.805 318.744 161.883C318.66 161.961 318.52 162 318.324 162H316.811V155.584C316.811 155.148 316.68 154.79 316.42 154.51C316.166 154.223 315.88 154.08 315.561 154.08C315.268 154.08 314.978 154.174 314.691 154.363C314.294 154.63 313.878 155.089 313.441 155.74V161.18H314.135C314.33 161.18 314.47 161.219 314.555 161.297C314.639 161.368 314.682 161.466 314.682 161.59C314.682 161.707 314.639 161.805 314.555 161.883C314.47 161.961 314.33 162 314.135 162H311.928C311.732 162 311.592 161.961 311.508 161.883C311.423 161.805 311.381 161.707 311.381 161.59C311.381 161.466 311.423 161.368 311.508 161.297C311.592 161.219 311.732 161.18 311.928 161.18H312.621V154.373H311.928C311.732 154.373 311.592 154.334 311.508 154.256C311.423 154.178 311.381 154.077 311.381 153.953C311.381 153.836 311.423 153.738 311.508 153.66C311.592 153.582 311.732 153.543 311.928 153.543H313.441ZM326.098 149.744V155.184C327.087 153.895 328.282 153.25 329.682 153.25C330.88 153.25 331.905 153.686 332.758 154.559C333.611 155.424 334.037 156.489 334.037 157.752C334.037 159.028 333.604 160.109 332.738 160.994C331.879 161.88 330.86 162.322 329.682 162.322C328.249 162.322 327.055 161.678 326.098 160.389V162H324.174C323.979 162 323.839 161.961 323.754 161.883C323.669 161.805 323.627 161.707 323.627 161.59C323.627 161.466 323.669 161.368 323.754 161.297C323.839 161.219 323.979 161.18 324.174 161.18H325.277V150.574H324.174C323.979 150.574 323.839 150.535 323.754 150.457C323.669 150.379 323.627 150.278 323.627 150.154C323.627 150.037 323.669 149.939 323.754 149.861C323.839 149.783 323.979 149.744 324.174 149.744H326.098ZM333.217 157.791C333.217 156.756 332.862 155.88 332.152 155.164C331.443 154.441 330.613 154.08 329.662 154.08C328.712 154.08 327.882 154.441 327.172 155.164C326.462 155.88 326.107 156.756 326.107 157.791C326.107 158.826 326.462 159.705 327.172 160.428C327.882 161.144 328.712 161.502 329.662 161.502C330.613 161.502 331.443 161.144 332.152 160.428C332.862 159.705 333.217 158.826 333.217 157.791ZM345.639 157.967H337.279C337.423 159.028 337.865 159.884 338.607 160.535C339.356 161.18 340.281 161.502 341.381 161.502C341.993 161.502 342.634 161.401 343.305 161.199C343.975 160.997 344.522 160.73 344.945 160.398C345.069 160.301 345.176 160.252 345.268 160.252C345.372 160.252 345.463 160.294 345.541 160.379C345.619 160.457 345.658 160.551 345.658 160.662C345.658 160.773 345.606 160.88 345.502 160.984C345.189 161.31 344.633 161.616 343.832 161.902C343.038 162.182 342.221 162.322 341.381 162.322C339.975 162.322 338.799 161.863 337.855 160.945C336.918 160.021 336.449 158.904 336.449 157.596C336.449 156.404 336.889 155.382 337.768 154.529C338.653 153.676 339.747 153.25 341.049 153.25C342.39 153.25 343.493 153.689 344.359 154.568C345.225 155.441 345.652 156.574 345.639 157.967ZM344.809 157.137C344.646 156.232 344.216 155.496 343.52 154.93C342.829 154.363 342.006 154.08 341.049 154.08C340.092 154.08 339.268 154.36 338.578 154.92C337.888 155.48 337.458 156.219 337.289 157.137H344.809ZM352.23 153.543V155.613C353.298 154.65 354.096 154.031 354.623 153.758C355.157 153.478 355.648 153.338 356.098 153.338C356.586 153.338 357.038 153.504 357.455 153.836C357.878 154.161 358.09 154.409 358.09 154.578C358.09 154.702 358.048 154.806 357.963 154.891C357.885 154.969 357.784 155.008 357.66 155.008C357.595 155.008 357.54 154.998 357.494 154.979C357.449 154.952 357.364 154.878 357.24 154.754C357.012 154.526 356.814 154.37 356.645 154.285C356.475 154.201 356.309 154.158 356.146 154.158C355.788 154.158 355.355 154.301 354.848 154.588C354.346 154.874 353.474 155.574 352.23 156.688V161.18H355.863C356.065 161.18 356.208 161.219 356.293 161.297C356.378 161.368 356.42 161.466 356.42 161.59C356.42 161.707 356.378 161.805 356.293 161.883C356.208 161.961 356.065 162 355.863 162H349.428C349.232 162 349.092 161.964 349.008 161.893C348.923 161.814 348.881 161.717 348.881 161.6C348.881 161.489 348.92 161.398 348.998 161.326C349.083 161.248 349.226 161.209 349.428 161.209H351.41V154.373H349.896C349.701 154.373 349.561 154.334 349.477 154.256C349.392 154.178 349.35 154.077 349.35 153.953C349.35 153.836 349.389 153.738 349.467 153.66C349.551 153.582 349.695 153.543 349.896 153.543H352.23ZM361.82 149.949H364.418L363.734 154.695C363.695 154.943 363.624 155.118 363.52 155.223C363.415 155.32 363.282 155.369 363.119 155.369C362.956 155.369 362.823 155.32 362.719 155.223C362.615 155.118 362.543 154.943 362.504 154.695L361.82 149.949ZM366.01 149.949H368.607L367.924 154.695C367.885 154.943 367.813 155.118 367.709 155.223C367.605 155.32 367.475 155.369 367.318 155.369C367.149 155.369 367.012 155.32 366.908 155.223C366.804 155.118 366.736 154.943 366.703 154.695L366.01 149.949ZM377.064 153.543H377.416C377.781 153.543 378.093 153.673 378.354 153.934C378.614 154.194 378.744 154.503 378.744 154.861C378.744 155.245 378.611 155.564 378.344 155.818C378.083 156.072 377.774 156.199 377.416 156.199H377.064C376.7 156.199 376.387 156.069 376.127 155.809C375.867 155.548 375.736 155.239 375.736 154.881C375.736 154.497 375.867 154.178 376.127 153.924C376.394 153.67 376.706 153.543 377.064 153.543ZM377.064 159.646H377.416C377.781 159.646 378.093 159.777 378.354 160.037C378.614 160.291 378.744 160.6 378.744 160.965C378.744 161.342 378.611 161.658 378.344 161.912C378.083 162.166 377.774 162.293 377.416 162.293H377.064C376.7 162.293 376.387 162.166 376.127 161.912C375.867 161.652 375.736 161.339 375.736 160.975C375.736 160.597 375.867 160.281 376.127 160.027C376.394 159.773 376.706 159.646 377.064 159.646ZM241.703 183.949H244.301L243.617 188.695C243.578 188.943 243.507 189.118 243.402 189.223C243.298 189.32 243.165 189.369 243.002 189.369C242.839 189.369 242.706 189.32 242.602 189.223C242.497 189.118 242.426 188.943 242.387 188.695L241.703 183.949ZM245.893 183.949H248.49L247.807 188.695C247.768 188.943 247.696 189.118 247.592 189.223C247.488 189.32 247.357 189.369 247.201 189.369C247.032 189.369 246.895 189.32 246.791 189.223C246.687 189.118 246.618 188.943 246.586 188.695L245.893 183.949ZM261.137 183.744V195.18H262.23C262.432 195.18 262.576 195.219 262.66 195.297C262.745 195.368 262.787 195.466 262.787 195.59C262.787 195.707 262.745 195.805 262.66 195.883C262.576 195.961 262.432 196 262.23 196H260.307V194.369C259.356 195.671 258.148 196.322 256.684 196.322C255.941 196.322 255.229 196.127 254.545 195.736C253.868 195.339 253.331 194.776 252.934 194.047C252.543 193.318 252.348 192.566 252.348 191.791C252.348 191.01 252.543 190.258 252.934 189.535C253.331 188.806 253.868 188.243 254.545 187.846C255.229 187.449 255.945 187.25 256.693 187.25C258.126 187.25 259.33 187.901 260.307 189.203V184.574H259.213C259.011 184.574 258.868 184.535 258.783 184.457C258.699 184.379 258.656 184.278 258.656 184.154C258.656 184.037 258.699 183.939 258.783 183.861C258.868 183.783 259.011 183.744 259.213 183.744H261.137ZM260.307 191.791C260.307 190.749 259.955 189.87 259.252 189.154C258.549 188.438 257.712 188.08 256.742 188.08C255.766 188.08 254.926 188.438 254.223 189.154C253.52 189.87 253.168 190.749 253.168 191.791C253.168 192.826 253.52 193.705 254.223 194.428C254.926 195.144 255.766 195.502 256.742 195.502C257.712 195.502 258.549 195.144 259.252 194.428C259.955 193.705 260.307 192.826 260.307 191.791ZM271.488 196V194.818C270.297 195.821 269.024 196.322 267.67 196.322C266.687 196.322 265.919 196.075 265.365 195.58C264.812 195.079 264.535 194.467 264.535 193.744C264.535 192.95 264.9 192.257 265.629 191.664C266.358 191.072 267.423 190.775 268.822 190.775C269.2 190.775 269.61 190.801 270.053 190.854C270.495 190.899 270.974 190.974 271.488 191.078V189.75C271.488 189.301 271.28 188.91 270.863 188.578C270.447 188.246 269.822 188.08 268.988 188.08C268.35 188.08 267.455 188.266 266.303 188.637C266.094 188.702 265.961 188.734 265.902 188.734C265.798 188.734 265.707 188.695 265.629 188.617C265.557 188.539 265.521 188.441 265.521 188.324C265.521 188.214 265.554 188.126 265.619 188.061C265.71 187.963 266.078 187.829 266.723 187.66C267.738 187.387 268.507 187.25 269.027 187.25C270.062 187.25 270.87 187.507 271.449 188.021C272.029 188.529 272.318 189.105 272.318 189.75V195.18H273.412C273.614 195.18 273.757 195.219 273.842 195.297C273.926 195.368 273.969 195.466 273.969 195.59C273.969 195.707 273.926 195.805 273.842 195.883C273.757 195.961 273.614 196 273.412 196H271.488ZM271.488 191.918C271.104 191.807 270.697 191.726 270.268 191.674C269.838 191.622 269.385 191.596 268.91 191.596C267.719 191.596 266.788 191.853 266.117 192.367C265.609 192.751 265.355 193.21 265.355 193.744C265.355 194.239 265.548 194.656 265.932 194.994C266.322 195.333 266.889 195.502 267.631 195.502C268.34 195.502 268.998 195.362 269.604 195.082C270.215 194.796 270.844 194.343 271.488 193.725V191.918ZM279.457 187.543H283.91C284.105 187.543 284.245 187.582 284.33 187.66C284.415 187.738 284.457 187.839 284.457 187.963C284.457 188.08 284.415 188.178 284.33 188.256C284.245 188.334 284.105 188.373 283.91 188.373H279.457V193.832C279.457 194.307 279.646 194.704 280.023 195.023C280.408 195.342 280.967 195.502 281.703 195.502C282.257 195.502 282.855 195.421 283.5 195.258C284.145 195.089 284.646 194.9 285.004 194.691C285.134 194.607 285.242 194.564 285.326 194.564C285.43 194.564 285.521 194.607 285.6 194.691C285.678 194.77 285.717 194.864 285.717 194.975C285.717 195.072 285.674 195.163 285.59 195.248C285.382 195.463 284.874 195.697 284.066 195.951C283.266 196.199 282.497 196.322 281.762 196.322C280.805 196.322 280.043 196.098 279.477 195.648C278.91 195.199 278.627 194.594 278.627 193.832V188.373H277.113C276.918 188.373 276.778 188.334 276.693 188.256C276.609 188.178 276.566 188.077 276.566 187.953C276.566 187.836 276.609 187.738 276.693 187.66C276.778 187.582 276.918 187.543 277.113 187.543H278.627V185.121C278.627 184.926 278.666 184.786 278.744 184.701C278.822 184.617 278.92 184.574 279.037 184.574C279.161 184.574 279.262 184.617 279.34 184.701C279.418 184.786 279.457 184.926 279.457 185.121V187.543ZM297.592 191.967H289.232C289.376 193.028 289.818 193.884 290.561 194.535C291.309 195.18 292.234 195.502 293.334 195.502C293.946 195.502 294.587 195.401 295.258 195.199C295.928 194.997 296.475 194.73 296.898 194.398C297.022 194.301 297.13 194.252 297.221 194.252C297.325 194.252 297.416 194.294 297.494 194.379C297.572 194.457 297.611 194.551 297.611 194.662C297.611 194.773 297.559 194.88 297.455 194.984C297.143 195.31 296.586 195.616 295.785 195.902C294.991 196.182 294.174 196.322 293.334 196.322C291.928 196.322 290.753 195.863 289.809 194.945C288.871 194.021 288.402 192.904 288.402 191.596C288.402 190.404 288.842 189.382 289.721 188.529C290.606 187.676 291.7 187.25 293.002 187.25C294.343 187.25 295.447 187.689 296.312 188.568C297.178 189.441 297.605 190.574 297.592 191.967ZM296.762 191.137C296.599 190.232 296.169 189.496 295.473 188.93C294.783 188.363 293.959 188.08 293.002 188.08C292.045 188.08 291.221 188.36 290.531 188.92C289.841 189.48 289.411 190.219 289.242 191.137H296.762ZM310.18 190.316C310.18 191.41 309.958 192.426 309.516 193.363C309.073 194.294 308.461 195.02 307.68 195.541C306.905 196.062 306.072 196.322 305.18 196.322C303.858 196.322 302.693 195.762 301.684 194.643C300.681 193.516 300.18 192.074 300.18 190.316C300.18 188.552 300.681 187.11 301.684 185.99C302.693 184.87 303.858 184.311 305.18 184.311C306.072 184.311 306.905 184.571 307.68 185.092C308.454 185.613 309.063 186.339 309.506 187.27C309.955 188.201 310.18 189.216 310.18 190.316ZM309.35 190.316C309.35 188.982 308.962 187.784 308.188 186.723C307.413 185.661 306.41 185.131 305.18 185.131C304.027 185.131 303.041 185.639 302.221 186.654C301.407 187.663 301 188.884 301 190.316C301 191.84 301.426 193.087 302.279 194.057C303.139 195.02 304.105 195.502 305.18 195.502C306.41 195.502 307.413 194.975 308.188 193.92C308.962 192.859 309.35 191.658 309.35 190.316ZM316.635 188.373V195.18H320.238C320.434 195.18 320.574 195.219 320.658 195.297C320.743 195.368 320.785 195.466 320.785 195.59C320.785 195.707 320.743 195.805 320.658 195.883C320.574 195.961 320.434 196 320.238 196H313.822C313.627 196 313.487 195.961 313.402 195.883C313.318 195.805 313.275 195.707 313.275 195.59C313.275 195.466 313.318 195.368 313.402 195.297C313.487 195.219 313.627 195.18 313.822 195.18H315.805V188.373H314.027C313.832 188.373 313.692 188.334 313.607 188.256C313.523 188.178 313.48 188.077 313.48 187.953C313.48 187.836 313.523 187.738 313.607 187.66C313.692 187.582 313.832 187.543 314.027 187.543H315.805V186.303C315.805 185.613 316.085 185.014 316.645 184.506C317.204 183.998 317.947 183.744 318.871 183.744C319.646 183.744 320.473 183.816 321.352 183.959C321.684 184.011 321.882 184.073 321.947 184.145C322.019 184.216 322.055 184.311 322.055 184.428C322.055 184.545 322.016 184.643 321.938 184.721C321.859 184.792 321.755 184.828 321.625 184.828C321.573 184.828 321.485 184.818 321.361 184.799C320.378 184.649 319.548 184.574 318.871 184.574C318.155 184.574 317.602 184.75 317.211 185.102C316.827 185.453 316.635 185.854 316.635 186.303V187.543H320.473C320.668 187.543 320.808 187.582 320.893 187.66C320.977 187.738 321.02 187.839 321.02 187.963C321.02 188.08 320.977 188.178 320.893 188.256C320.808 188.334 320.668 188.373 320.473 188.373H316.635ZM325.688 195.18V185.395H324.584C324.389 185.395 324.249 185.359 324.164 185.287C324.079 185.209 324.037 185.108 324.037 184.984C324.037 184.861 324.079 184.763 324.164 184.691C324.249 184.613 324.389 184.574 324.584 184.574H329.74C330.762 184.574 331.592 184.87 332.23 185.463C332.875 186.049 333.197 186.739 333.197 187.533C333.197 188.536 332.66 189.346 331.586 189.965C332.439 190.271 333.064 190.678 333.461 191.186C333.858 191.693 334.057 192.253 334.057 192.865C334.057 193.412 333.926 193.913 333.666 194.369C333.406 194.818 333.005 195.202 332.465 195.521C331.931 195.84 331.348 196 330.717 196H324.584C324.389 196 324.249 195.961 324.164 195.883C324.079 195.805 324.037 195.707 324.037 195.59C324.037 195.466 324.079 195.368 324.164 195.297C324.249 195.219 324.389 195.18 324.584 195.18H325.688ZM326.508 189.652H329.408C330.027 189.652 330.593 189.538 331.107 189.311C331.505 189.128 331.814 188.865 332.035 188.52C332.257 188.174 332.367 187.823 332.367 187.465C332.367 186.951 332.126 186.479 331.645 186.049C331.163 185.613 330.535 185.395 329.76 185.395H326.508V189.652ZM326.508 195.18H330.658C331.186 195.18 331.645 195.062 332.035 194.828C332.426 194.594 332.722 194.304 332.924 193.959C333.126 193.614 333.227 193.256 333.227 192.885C333.227 192.468 333.08 192.064 332.787 191.674C332.501 191.283 332.1 190.987 331.586 190.785C331.072 190.583 330.362 190.482 329.457 190.482H326.508V195.18ZM341.605 183.334V185.453H340.395V183.334H341.605ZM341.635 187.543V195.18H344.857C345.059 195.18 345.202 195.219 345.287 195.297C345.372 195.368 345.414 195.466 345.414 195.59C345.414 195.707 345.372 195.805 345.287 195.883C345.202 195.961 345.059 196 344.857 196H337.592C337.396 196 337.257 195.961 337.172 195.883C337.087 195.805 337.045 195.707 337.045 195.59C337.045 195.466 337.087 195.368 337.172 195.297C337.257 195.219 337.396 195.18 337.592 195.18H340.814V188.373H338.422C338.227 188.373 338.083 188.334 337.992 188.256C337.908 188.178 337.865 188.08 337.865 187.963C337.865 187.839 337.908 187.738 337.992 187.66C338.077 187.582 338.22 187.543 338.422 187.543H341.635ZM352.23 187.543V189.613C353.298 188.65 354.096 188.031 354.623 187.758C355.157 187.478 355.648 187.338 356.098 187.338C356.586 187.338 357.038 187.504 357.455 187.836C357.878 188.161 358.09 188.409 358.09 188.578C358.09 188.702 358.048 188.806 357.963 188.891C357.885 188.969 357.784 189.008 357.66 189.008C357.595 189.008 357.54 188.998 357.494 188.979C357.449 188.952 357.364 188.878 357.24 188.754C357.012 188.526 356.814 188.37 356.645 188.285C356.475 188.201 356.309 188.158 356.146 188.158C355.788 188.158 355.355 188.301 354.848 188.588C354.346 188.874 353.474 189.574 352.23 190.688V195.18H355.863C356.065 195.18 356.208 195.219 356.293 195.297C356.378 195.368 356.42 195.466 356.42 195.59C356.42 195.707 356.378 195.805 356.293 195.883C356.208 195.961 356.065 196 355.863 196H349.428C349.232 196 349.092 195.964 349.008 195.893C348.923 195.814 348.881 195.717 348.881 195.6C348.881 195.489 348.92 195.398 348.998 195.326C349.083 195.248 349.226 195.209 349.428 195.209H351.41V188.373H349.896C349.701 188.373 349.561 188.334 349.477 188.256C349.392 188.178 349.35 188.077 349.35 187.953C349.35 187.836 349.389 187.738 349.467 187.66C349.551 187.582 349.695 187.543 349.896 187.543H352.23ZM363.539 187.543H367.992C368.188 187.543 368.327 187.582 368.412 187.66C368.497 187.738 368.539 187.839 368.539 187.963C368.539 188.08 368.497 188.178 368.412 188.256C368.327 188.334 368.188 188.373 367.992 188.373H363.539V193.832C363.539 194.307 363.728 194.704 364.105 195.023C364.49 195.342 365.049 195.502 365.785 195.502C366.339 195.502 366.938 195.421 367.582 195.258C368.227 195.089 368.728 194.9 369.086 194.691C369.216 194.607 369.324 194.564 369.408 194.564C369.512 194.564 369.604 194.607 369.682 194.691C369.76 194.77 369.799 194.864 369.799 194.975C369.799 195.072 369.757 195.163 369.672 195.248C369.464 195.463 368.956 195.697 368.148 195.951C367.348 196.199 366.579 196.322 365.844 196.322C364.887 196.322 364.125 196.098 363.559 195.648C362.992 195.199 362.709 194.594 362.709 193.832V188.373H361.195C361 188.373 360.86 188.334 360.775 188.256C360.691 188.178 360.648 188.077 360.648 187.953C360.648 187.836 360.691 187.738 360.775 187.66C360.86 187.582 361 187.543 361.195 187.543H362.709V185.121C362.709 184.926 362.748 184.786 362.826 184.701C362.904 184.617 363.002 184.574 363.119 184.574C363.243 184.574 363.344 184.617 363.422 184.701C363.5 184.786 363.539 184.926 363.539 185.121V187.543ZM374.535 183.744V188.793C375.056 188.227 375.554 187.829 376.029 187.602C376.511 187.367 377.048 187.25 377.641 187.25C378.279 187.25 378.819 187.364 379.262 187.592C379.711 187.813 380.085 188.158 380.385 188.627C380.684 189.089 380.834 189.577 380.834 190.092V195.18H381.752C381.954 195.18 382.094 195.219 382.172 195.297C382.257 195.368 382.299 195.466 382.299 195.59C382.299 195.707 382.257 195.805 382.172 195.883C382.094 195.961 381.954 196 381.752 196H379.086C378.884 196 378.741 195.961 378.656 195.883C378.572 195.805 378.529 195.707 378.529 195.59C378.529 195.466 378.572 195.368 378.656 195.297C378.741 195.219 378.884 195.18 379.086 195.18H380.004V190.15C380.004 189.558 379.789 189.063 379.359 188.666C378.936 188.269 378.344 188.07 377.582 188.07C376.983 188.07 376.472 188.217 376.049 188.51C375.743 188.718 375.238 189.21 374.535 189.984V195.18H375.463C375.658 195.18 375.798 195.219 375.883 195.297C375.967 195.368 376.01 195.466 376.01 195.59C376.01 195.707 375.967 195.805 375.883 195.883C375.798 195.961 375.658 196 375.463 196H372.787C372.592 196 372.452 195.961 372.367 195.883C372.283 195.805 372.24 195.707 372.24 195.59C372.24 195.466 372.283 195.368 372.367 195.297C372.452 195.219 372.592 195.18 372.787 195.18H373.715V184.574H372.611C372.416 184.574 372.276 184.535 372.191 184.457C372.107 184.379 372.064 184.278 372.064 184.154C372.064 184.037 372.107 183.939 372.191 183.861C372.276 183.783 372.416 183.744 372.611 183.744H374.535ZM385.844 183.949H388.441L387.758 188.695C387.719 188.943 387.647 189.118 387.543 189.223C387.439 189.32 387.305 189.369 387.143 189.369C386.98 189.369 386.846 189.32 386.742 189.223C386.638 189.118 386.566 188.943 386.527 188.695L385.844 183.949ZM390.033 183.949H392.631L391.947 188.695C391.908 188.943 391.837 189.118 391.732 189.223C391.628 189.32 391.498 189.369 391.342 189.369C391.173 189.369 391.036 189.32 390.932 189.223C390.827 189.118 390.759 188.943 390.727 188.695L390.033 183.949ZM401.088 187.543H401.439C401.804 187.543 402.117 187.673 402.377 187.934C402.637 188.194 402.768 188.503 402.768 188.861C402.768 189.245 402.634 189.564 402.367 189.818C402.107 190.072 401.798 190.199 401.439 190.199H401.088C400.723 190.199 400.411 190.069 400.15 189.809C399.89 189.548 399.76 189.239 399.76 188.881C399.76 188.497 399.89 188.178 400.15 187.924C400.417 187.67 400.73 187.543 401.088 187.543ZM401.088 193.646H401.439C401.804 193.646 402.117 193.777 402.377 194.037C402.637 194.291 402.768 194.6 402.768 194.965C402.768 195.342 402.634 195.658 402.367 195.912C402.107 196.166 401.798 196.293 401.439 196.293H401.088C400.723 196.293 400.411 196.166 400.15 195.912C399.89 195.652 399.76 195.339 399.76 194.975C399.76 194.597 399.89 194.281 400.15 194.027C400.417 193.773 400.73 193.646 401.088 193.646ZM221.566 225.137C221.234 224.889 221.013 224.655 220.902 224.434C220.753 224.147 220.678 223.802 220.678 223.398V219.883C220.678 219.518 220.57 219.215 220.355 218.975C220.141 218.734 219.874 218.6 219.555 218.574C219.346 218.555 219.213 218.516 219.154 218.457C219.07 218.372 219.027 218.271 219.027 218.154C219.027 218.037 219.066 217.939 219.145 217.861C219.229 217.783 219.353 217.744 219.516 217.744C220.036 217.744 220.466 217.91 220.805 218.242C221.267 218.685 221.498 219.232 221.498 219.883V223.398C221.498 223.757 221.605 224.059 221.82 224.307C222.042 224.548 222.318 224.681 222.65 224.707C222.826 224.727 222.95 224.772 223.021 224.844C223.1 224.915 223.139 225.013 223.139 225.137C223.139 225.267 223.1 225.368 223.021 225.439C222.95 225.511 222.826 225.557 222.65 225.576C222.312 225.602 222.035 225.739 221.82 225.986C221.605 226.227 221.498 226.527 221.498 226.885V230.4C221.498 231.012 221.303 231.52 220.912 231.924C220.521 232.334 220.056 232.539 219.516 232.539C219.353 232.539 219.229 232.5 219.145 232.422C219.066 232.344 219.027 232.243 219.027 232.119C219.027 232.002 219.066 231.904 219.145 231.826C219.21 231.768 219.346 231.729 219.555 231.709C219.88 231.676 220.147 231.536 220.355 231.289C220.57 231.048 220.678 230.749 220.678 230.391V226.885C220.678 226.475 220.743 226.143 220.873 225.889C221.003 225.635 221.234 225.384 221.566 225.137ZM231.469 227.051H234.135L231.234 232.441C231.059 232.767 230.847 232.93 230.6 232.93C230.437 232.93 230.297 232.871 230.18 232.754C230.069 232.643 230.014 232.507 230.014 232.344C230.014 232.279 230.023 232.207 230.043 232.129L231.469 227.051Z" fill="white"/>
<path d="M70.4707 59.1797H76.7695V58.8574C76.7695 58.6621 76.8086 58.5221 76.8867 58.4375C76.9648 58.3529 77.0658 58.3105 77.1895 58.3105C77.3066 58.3105 77.4043 58.3529 77.4824 58.4375C77.5605 58.5221 77.5996 58.6621 77.5996 58.8574V60H69.6699V58.7891C71.3366 57.2917 72.9577 55.7682 74.5332 54.2188C75.2689 53.4961 75.7734 52.9655 76.0469 52.627C76.3203 52.2884 76.5059 51.9922 76.6035 51.7383C76.7077 51.4779 76.7598 51.2174 76.7598 50.957C76.7598 50.2539 76.4766 49.6322 75.9102 49.0918C75.3438 48.5514 74.6602 48.2812 73.8594 48.2812C73.1432 48.2812 72.5085 48.4863 71.9551 48.8965C71.4017 49.3066 71.0436 49.8145 70.8809 50.4199C70.8418 50.5762 70.793 50.6771 70.7344 50.7227C70.6562 50.7878 70.5651 50.8203 70.4609 50.8203C70.3503 50.8203 70.2559 50.7845 70.1777 50.7129C70.1061 50.6348 70.0703 50.5436 70.0703 50.4395C70.0703 50.127 70.2396 49.7038 70.5781 49.1699C70.9232 48.6361 71.3952 48.2161 71.9941 47.9102C72.5996 47.6042 73.2181 47.4512 73.8496 47.4512C74.8717 47.4512 75.7507 47.806 76.4863 48.5156C77.222 49.2253 77.5898 50.0293 77.5898 50.9277C77.5898 51.3053 77.528 51.6536 77.4043 51.9727C77.2806 52.2852 77.069 52.6302 76.7695 53.0078C76.4766 53.3789 75.946 53.9421 75.1777 54.6973C73.2507 56.5983 71.6816 58.0729 70.4707 59.1211V59.1797ZM89.7773 52.8613V54.8926C89.7773 56.6569 89.3574 58.0534 88.5176 59.082C87.86 59.8893 87.0299 60.293 86.0273 60.293C85.5456 60.293 85.0898 60.1953 84.6602 60C84.237 59.8112 83.8757 59.5443 83.5762 59.1992C83.3874 58.9844 83.179 58.6393 82.9512 58.1641C82.7298 57.6888 82.5703 57.2526 82.4727 56.8555C82.3229 56.2956 82.248 55.6413 82.248 54.8926V52.8613C82.248 51.0905 82.668 49.6908 83.5078 48.6621C84.1654 47.8548 84.9954 47.4512 85.998 47.4512C86.4863 47.4512 86.9421 47.5488 87.3652 47.7441C87.7884 47.9329 88.1497 48.1999 88.4492 48.5449C88.6445 48.7663 88.8529 49.1146 89.0742 49.5898C89.2956 50.0651 89.4583 50.498 89.5625 50.8887C89.7057 51.4486 89.7773 52.1061 89.7773 52.8613ZM88.957 52.9688C88.957 52.194 88.8464 51.4746 88.625 50.8105C88.4102 50.14 88.166 49.6061 87.8926 49.209C87.7298 48.9811 87.5182 48.7858 87.2578 48.623C86.8867 48.3952 86.4701 48.2812 86.0078 48.2812C85.0898 48.2812 84.3704 48.75 83.8496 49.6875C83.3288 50.625 83.0684 51.7188 83.0684 52.9688V54.7754C83.0684 55.5501 83.1758 56.2728 83.3906 56.9434C83.612 57.6139 83.8626 58.1478 84.1426 58.5449C84.2988 58.7663 84.5072 58.9583 84.7676 59.1211C85.1387 59.3555 85.5586 59.4727 86.0273 59.4727C86.9388 59.4727 87.6549 59.0039 88.1758 58.0664C88.6966 57.1224 88.957 56.0254 88.957 54.7754V52.9688ZM70.4707 93.1797H76.7695V92.8574C76.7695 92.6621 76.8086 92.5221 76.8867 92.4375C76.9648 92.3529 77.0658 92.3105 77.1895 92.3105C77.3066 92.3105 77.4043 92.3529 77.4824 92.4375C77.5605 92.5221 77.5996 92.6621 77.5996 92.8574V94H69.6699V92.7891C71.3366 91.2917 72.9577 89.7682 74.5332 88.2188C75.2689 87.4961 75.7734 86.9655 76.0469 86.627C76.3203 86.2884 76.5059 85.9922 76.6035 85.7383C76.7077 85.4779 76.7598 85.2174 76.7598 84.957C76.7598 84.2539 76.4766 83.6322 75.9102 83.0918C75.3438 82.5514 74.6602 82.2812 73.8594 82.2812C73.1432 82.2812 72.5085 82.4863 71.9551 82.8965C71.4017 83.3066 71.0436 83.8145 70.8809 84.4199C70.8418 84.5762 70.793 84.6771 70.7344 84.7227C70.6562 84.7878 70.5651 84.8203 70.4609 84.8203C70.3503 84.8203 70.2559 84.7845 70.1777 84.7129C70.1061 84.6348 70.0703 84.5436 70.0703 84.4395C70.0703 84.127 70.2396 83.7038 70.5781 83.1699C70.9232 82.6361 71.3952 82.2161 71.9941 81.9102C72.5996 81.6042 73.2181 81.4512 73.8496 81.4512C74.8717 81.4512 75.7507 81.806 76.4863 82.5156C77.222 83.2253 77.5898 84.0293 77.5898 84.9277C77.5898 85.3053 77.528 85.6536 77.4043 85.9727C77.2806 86.2852 77.069 86.6302 76.7695 87.0078C76.4766 87.3789 75.946 87.9421 75.1777 88.6973C73.2507 90.5983 71.6816 92.0729 70.4707 93.1211V93.1797ZM86.418 81.5781V93.1797H89.2305C89.4258 93.1797 89.5658 93.2188 89.6504 93.2969C89.735 93.3685 89.7773 93.4661 89.7773 93.5898C89.7773 93.707 89.735 93.8047 89.6504 93.8828C89.5658 93.9609 89.4258 94 89.2305 94H82.7852C82.5898 94 82.4499 93.9609 82.3652 93.8828C82.2806 93.8047 82.2383 93.707 82.2383 93.5898C82.2383 93.4661 82.2806 93.3685 82.3652 93.2969C82.4499 93.2188 82.5898 93.1797 82.7852 93.1797H85.5977V82.7109L82.9219 83.5508C82.7917 83.5898 82.6973 83.6094 82.6387 83.6094C82.541 83.6094 82.4499 83.5703 82.3652 83.4922C82.2871 83.4076 82.248 83.3099 82.248 83.1992C82.248 83.1016 82.2806 83.0104 82.3457 82.9258C82.3978 82.8737 82.5052 82.8184 82.668 82.7598L86.418 81.5781ZM70.4707 127.18H76.7695V126.857C76.7695 126.662 76.8086 126.522 76.8867 126.438C76.9648 126.353 77.0658 126.311 77.1895 126.311C77.3066 126.311 77.4043 126.353 77.4824 126.438C77.5605 126.522 77.5996 126.662 77.5996 126.857V128H69.6699V126.789C71.3366 125.292 72.9577 123.768 74.5332 122.219C75.2689 121.496 75.7734 120.965 76.0469 120.627C76.3203 120.288 76.5059 119.992 76.6035 119.738C76.7077 119.478 76.7598 119.217 76.7598 118.957C76.7598 118.254 76.4766 117.632 75.9102 117.092C75.3438 116.551 74.6602 116.281 73.8594 116.281C73.1432 116.281 72.5085 116.486 71.9551 116.896C71.4017 117.307 71.0436 117.814 70.8809 118.42C70.8418 118.576 70.793 118.677 70.7344 118.723C70.6562 118.788 70.5651 118.82 70.4609 118.82C70.3503 118.82 70.2559 118.785 70.1777 118.713C70.1061 118.635 70.0703 118.544 70.0703 118.439C70.0703 118.127 70.2396 117.704 70.5781 117.17C70.9232 116.636 71.3952 116.216 71.9941 115.91C72.5996 115.604 73.2181 115.451 73.8496 115.451C74.8717 115.451 75.7507 115.806 76.4863 116.516C77.222 117.225 77.5898 118.029 77.5898 118.928C77.5898 119.305 77.528 119.654 77.4043 119.973C77.2806 120.285 77.069 120.63 76.7695 121.008C76.4766 121.379 75.946 121.942 75.1777 122.697C73.2507 124.598 71.6816 126.073 70.4707 127.121V127.18ZM82.4824 127.18H88.7812V126.857C88.7812 126.662 88.8203 126.522 88.8984 126.438C88.9766 126.353 89.0775 126.311 89.2012 126.311C89.3184 126.311 89.416 126.353 89.4941 126.438C89.5723 126.522 89.6113 126.662 89.6113 126.857V128H81.6816V126.789C83.3483 125.292 84.9694 123.768 86.5449 122.219C87.2806 121.496 87.7852 120.965 88.0586 120.627C88.332 120.288 88.5176 119.992 88.6152 119.738C88.7194 119.478 88.7715 119.217 88.7715 118.957C88.7715 118.254 88.4883 117.632 87.9219 117.092C87.3555 116.551 86.6719 116.281 85.8711 116.281C85.1549 116.281 84.5202 116.486 83.9668 116.896C83.4134 117.307 83.0553 117.814 82.8926 118.42C82.8535 118.576 82.8047 118.677 82.7461 118.723C82.668 118.788 82.5768 118.82 82.4727 118.82C82.362 118.82 82.2676 118.785 82.1895 118.713C82.1178 118.635 82.082 118.544 82.082 118.439C82.082 118.127 82.2513 117.704 82.5898 117.17C82.9349 116.636 83.4069 116.216 84.0059 115.91C84.6113 115.604 85.2298 115.451 85.8613 115.451C86.8835 115.451 87.7624 115.806 88.498 116.516C89.2337 117.225 89.6016 118.029 89.6016 118.928C89.6016 119.305 89.5397 119.654 89.416 119.973C89.2923 120.285 89.0807 120.63 88.7812 121.008C88.4883 121.379 87.9577 121.942 87.1895 122.697C85.2624 124.598 83.6934 126.073 82.4824 127.121V127.18ZM70.4707 161.18H76.7695V160.857C76.7695 160.662 76.8086 160.522 76.8867 160.438C76.9648 160.353 77.0658 160.311 77.1895 160.311C77.3066 160.311 77.4043 160.353 77.4824 160.438C77.5605 160.522 77.5996 160.662 77.5996 160.857V162H69.6699V160.789C71.3366 159.292 72.9577 157.768 74.5332 156.219C75.2689 155.496 75.7734 154.965 76.0469 154.627C76.3203 154.288 76.5059 153.992 76.6035 153.738C76.7077 153.478 76.7598 153.217 76.7598 152.957C76.7598 152.254 76.4766 151.632 75.9102 151.092C75.3438 150.551 74.6602 150.281 73.8594 150.281C73.1432 150.281 72.5085 150.486 71.9551 150.896C71.4017 151.307 71.0436 151.814 70.8809 152.42C70.8418 152.576 70.793 152.677 70.7344 152.723C70.6562 152.788 70.5651 152.82 70.4609 152.82C70.3503 152.82 70.2559 152.785 70.1777 152.713C70.1061 152.635 70.0703 152.544 70.0703 152.439C70.0703 152.127 70.2396 151.704 70.5781 151.17C70.9232 150.636 71.3952 150.216 71.9941 149.91C72.5996 149.604 73.2181 149.451 73.8496 149.451C74.8717 149.451 75.7507 149.806 76.4863 150.516C77.222 151.225 77.5898 152.029 77.5898 152.928C77.5898 153.305 77.528 153.654 77.4043 153.973C77.2806 154.285 77.069 154.63 76.7695 155.008C76.4766 155.379 75.946 155.942 75.1777 156.697C73.2507 158.598 71.6816 160.073 70.4707 161.121V161.18ZM87.6973 155.33C88.4525 155.669 89.0286 156.134 89.4258 156.727C89.8229 157.312 90.0215 157.924 90.0215 158.562C90.0215 159.546 89.6211 160.415 88.8203 161.17C88.026 161.919 87.0299 162.293 85.832 162.293C85.1289 162.293 84.3997 162.143 83.6445 161.844C82.8893 161.544 82.362 161.238 82.0625 160.926C81.9648 160.822 81.916 160.711 81.916 160.594C81.916 160.49 81.9518 160.398 82.0234 160.32C82.1016 160.242 82.1927 160.203 82.2969 160.203C82.401 160.203 82.5182 160.252 82.6484 160.35C83.6576 161.098 84.7253 161.473 85.8516 161.473C86.8021 161.473 87.5964 161.176 88.2344 160.584C88.8789 159.985 89.2012 159.321 89.2012 158.592C89.2012 158.104 89.0417 157.625 88.7227 157.156C88.4102 156.688 87.9577 156.32 87.3652 156.053C86.7728 155.779 86.1738 155.643 85.5684 155.643C85.373 155.643 85.2331 155.607 85.1484 155.535C85.0638 155.457 85.0215 155.356 85.0215 155.232C85.0215 155.115 85.0605 155.018 85.1387 154.939C85.2233 154.861 85.347 154.822 85.5098 154.822L86.2129 154.832C86.9486 154.832 87.554 154.607 88.0293 154.158C88.5111 153.709 88.752 153.188 88.752 152.596C88.752 151.984 88.5013 151.443 88 150.975C87.4987 150.506 86.8444 150.271 86.0371 150.271C85.4707 150.271 84.9499 150.369 84.4746 150.564C83.9993 150.76 83.6185 151.027 83.332 151.365C83.2279 151.495 83.1465 151.577 83.0879 151.609C83.0358 151.635 82.974 151.648 82.9023 151.648C82.7917 151.648 82.6973 151.613 82.6191 151.541C82.541 151.463 82.502 151.372 82.502 151.268C82.502 151.007 82.7852 150.678 83.3516 150.281C84.1393 149.728 85.0345 149.451 86.0371 149.451C87.0723 149.451 87.9219 149.764 88.5859 150.389C89.25 151.007 89.582 151.746 89.582 152.605C89.582 153.152 89.4225 153.67 89.1035 154.158C88.7845 154.646 88.3158 155.037 87.6973 155.33ZM70.4707 195.18H76.7695V194.857C76.7695 194.662 76.8086 194.522 76.8867 194.438C76.9648 194.353 77.0658 194.311 77.1895 194.311C77.3066 194.311 77.4043 194.353 77.4824 194.438C77.5605 194.522 77.5996 194.662 77.5996 194.857V196H69.6699V194.789C71.3366 193.292 72.9577 191.768 74.5332 190.219C75.2689 189.496 75.7734 188.965 76.0469 188.627C76.3203 188.288 76.5059 187.992 76.6035 187.738C76.7077 187.478 76.7598 187.217 76.7598 186.957C76.7598 186.254 76.4766 185.632 75.9102 185.092C75.3438 184.551 74.6602 184.281 73.8594 184.281C73.1432 184.281 72.5085 184.486 71.9551 184.896C71.4017 185.307 71.0436 185.814 70.8809 186.42C70.8418 186.576 70.793 186.677 70.7344 186.723C70.6562 186.788 70.5651 186.82 70.4609 186.82C70.3503 186.82 70.2559 186.785 70.1777 186.713C70.1061 186.635 70.0703 186.544 70.0703 186.439C70.0703 186.127 70.2396 185.704 70.5781 185.17C70.9232 184.636 71.3952 184.216 71.9941 183.91C72.5996 183.604 73.2181 183.451 73.8496 183.451C74.8717 183.451 75.7507 183.806 76.4863 184.516C77.222 185.225 77.5898 186.029 77.5898 186.928C77.5898 187.305 77.528 187.654 77.4043 187.973C77.2806 188.285 77.069 188.63 76.7695 189.008C76.4766 189.379 75.946 189.942 75.1777 190.697C73.2507 192.598 71.6816 194.073 70.4707 195.121V195.18ZM87.541 192.572H82.1016V191.625L86.6621 183.744H88.3711V191.752H89.0547C89.2565 191.752 89.3997 191.791 89.4844 191.869C89.569 191.941 89.6113 192.038 89.6113 192.162C89.6113 192.279 89.569 192.377 89.4844 192.455C89.3997 192.533 89.2565 192.572 89.0547 192.572H88.3711V195.18H89.0547C89.2565 195.18 89.3997 195.219 89.4844 195.297C89.569 195.368 89.6113 195.466 89.6113 195.59C89.6113 195.707 89.569 195.805 89.4844 195.883C89.3997 195.961 89.2565 196 89.0547 196H86.0078C85.806 196 85.6628 195.961 85.5781 195.883C85.4935 195.805 85.4512 195.707 85.4512 195.59C85.4512 195.466 85.4935 195.368 85.5781 195.297C85.6628 195.219 85.806 195.18 86.0078 195.18H87.541V192.572ZM87.541 191.752V184.574H87.1113L82.9609 191.752H87.541ZM70.4707 229.18H76.7695V228.857C76.7695 228.662 76.8086 228.522 76.8867 228.438C76.9648 228.353 77.0658 228.311 77.1895 228.311C77.3066 228.311 77.4043 228.353 77.4824 228.438C77.5605 228.522 77.5996 228.662 77.5996 228.857V230H69.6699V228.789C71.3366 227.292 72.9577 225.768 74.5332 224.219C75.2689 223.496 75.7734 222.965 76.0469 222.627C76.3203 222.288 76.5059 221.992 76.6035 221.738C76.7077 221.478 76.7598 221.217 76.7598 220.957C76.7598 220.254 76.4766 219.632 75.9102 219.092C75.3438 218.551 74.6602 218.281 73.8594 218.281C73.1432 218.281 72.5085 218.486 71.9551 218.896C71.4017 219.307 71.0436 219.814 70.8809 220.42C70.8418 220.576 70.793 220.677 70.7344 220.723C70.6562 220.788 70.5651 220.82 70.4609 220.82C70.3503 220.82 70.2559 220.785 70.1777 220.713C70.1061 220.635 70.0703 220.544 70.0703 220.439C70.0703 220.127 70.2396 219.704 70.5781 219.17C70.9232 218.636 71.3952 218.216 71.9941 217.91C72.5996 217.604 73.2181 217.451 73.8496 217.451C74.8717 217.451 75.7507 217.806 76.4863 218.516C77.222 219.225 77.5898 220.029 77.5898 220.928C77.5898 221.305 77.528 221.654 77.4043 221.973C77.2806 222.285 77.069 222.63 76.7695 223.008C76.4766 223.379 75.946 223.942 75.1777 224.697C73.2507 226.598 71.6816 228.073 70.4707 229.121V229.18ZM83.752 218.574V222.588C84.2337 222.386 84.696 222.236 85.1387 222.139C85.5814 222.035 86.0013 221.982 86.3984 221.982C87.4271 221.982 88.2865 222.344 88.9766 223.066C89.6732 223.789 90.0215 224.74 90.0215 225.918C90.0215 227.22 89.6309 228.275 88.8496 229.082C88.0684 229.889 87.0918 230.293 85.9199 230.293C85.1452 230.293 84.3997 230.12 83.6836 229.775C83.1758 229.535 82.7135 229.235 82.2969 228.877C82.0495 228.662 81.9258 228.483 81.9258 228.34C81.9258 228.223 81.9648 228.125 82.043 228.047C82.1211 227.962 82.2122 227.92 82.3164 227.92C82.4271 227.92 82.5443 227.979 82.668 228.096C83.651 229.014 84.722 229.473 85.8809 229.473C86.8379 229.473 87.6289 229.147 88.2539 228.496C88.8789 227.839 89.1914 226.966 89.1914 225.879C89.1914 224.954 88.9212 224.212 88.3809 223.652C87.8405 223.086 87.1536 222.803 86.3203 222.803C85.4674 222.803 84.6146 223.027 83.7617 223.477C83.5534 223.581 83.4069 223.633 83.3223 223.633C83.2051 223.633 83.1107 223.594 83.0391 223.516C82.9674 223.438 82.9316 223.327 82.9316 223.184V217.744H88.6543C88.8496 217.744 88.9896 217.783 89.0742 217.861C89.1589 217.939 89.2012 218.04 89.2012 218.164C89.2012 218.281 89.1589 218.379 89.0742 218.457C88.9896 218.535 88.8496 218.574 88.6543 218.574H83.752Z" fill="#F0F4F5"/>
</g>
<defs>
<filter id="filter0_d_1761_2688" x="39" y="6" width="386" height="257" filterUnits="userSpaceOnUse" color-interpolation-filters="sRGB">
<feFlood flood-opacity="0" result="BackgroundImageFix"/>
<feColorMatrix in="SourceAlpha" type="matrix" values="0 0 0 0 0 0 0 0 0 0 0 0 0 0 0 0 0 0 127 0" result="hardAlpha"/>
<feOffset dy="4"/>
<feGaussianBlur stdDeviation="2"/>
<feComposite in2="hardAlpha" operator="out"/>
<feColorMatrix type="matrix" values="0 0 0 0 0 0 0 0 0 0 0 0 0 0 0 0 0 0 0.25 0"/>
<feBlend mode="normal" in2="BackgroundImageFix" result="effect1_dropShadow_1761_2688"/>
<feBlend mode="normal" in="SourceGraphic" in2="effect1_dropShadow_1761_2688" result="shape"/>
</filter>
</defs>
</svg>
