<svg width="464" height="201" viewBox="0 0 464 201" fill="none" xmlns="http://www.w3.org/2000/svg">
<g filter="url(#filter0_d_1761_2708)">
<mask id="path-1-inside-1_1761_2708" fill="white">
<path fill-rule="evenodd" clip-rule="evenodd" d="M403.671 31.991L374.68 31.991V3L278.594 3L278.594 186.887H403.671L403.671 31.991Z"/>
</mask>
<path fill-rule="evenodd" clip-rule="evenodd" d="M403.671 31.991L374.68 31.991V3L278.594 3L278.594 186.887H403.671L403.671 31.991Z" fill="white"/>
<path d="M374.68 31.991H371.68V34.991H374.68V31.991ZM403.671 31.991H406.671V28.991H403.671V31.991ZM374.68 3H377.68V-2.38419e-07L374.68 0V3ZM278.594 3L278.594 4.29153e-06H275.594L275.594 3L278.594 3ZM278.594 186.887H275.594V189.887H278.594V186.887ZM403.671 186.887V189.887H406.671V186.887H403.671ZM374.68 34.991L403.671 34.991V28.991L374.68 28.991V34.991ZM371.68 3V31.991H377.68V3H371.68ZM278.594 6L374.68 6V0L278.594 4.29153e-06L278.594 6ZM281.594 186.887L281.594 3L275.594 3L275.594 186.887H281.594ZM403.671 183.887H278.594V189.887H403.671V183.887ZM400.671 31.991L400.671 186.887H406.671V31.991H400.671Z" fill="#005EB8" mask="url(#path-1-inside-1_1761_2708)"/>
<rect x="117.327" y="63.025" width="180.327" height="122.074" rx="3.5" fill="white" stroke="#005EB8" stroke-width="3"/>
<rect x="100.193" y="169.252" width="211.167" height="15.8467" rx="1.5" fill="white" stroke="#005EB8" stroke-width="3"/>
<path d="M193.5 175.318C191.844 175.318 190.5 173.975 190.5 172.318L190.5 168.752L224.481 168.752L224.481 172.318C224.481 173.975 223.137 175.318 221.481 175.318L193.5 175.318Z" fill="#005EB8" stroke="#005EB8" stroke-width="2"/>
<path d="M336.037 100.202L336.224 97.4478C337.443 97.9868 338.646 98.2563 339.833 98.2563C340.732 98.2563 341.509 98.0688 342.166 97.6938C342.83 97.3188 343.162 96.7173 343.162 95.8892C343.162 94.9595 342.767 94.3345 341.978 94.0142C341.189 93.6938 340.24 93.5337 339.13 93.5337C338.88 93.5337 338.529 93.5493 338.076 93.5806V90.9673C338.302 90.9829 338.638 90.9907 339.083 90.9907C340.138 90.9907 341.068 90.8306 341.873 90.5103C342.685 90.1899 343.091 89.5806 343.091 88.6821C343.091 88.229 342.951 87.8618 342.669 87.5806C342.388 87.2993 342.033 87.1001 341.603 86.9829C341.181 86.8579 340.751 86.7954 340.314 86.7954C338.939 86.7954 337.72 87.0728 336.658 87.6274L336.47 84.9907C337.97 84.5142 339.435 84.2759 340.865 84.2759C342.474 84.2759 343.798 84.6079 344.837 85.272C345.884 85.936 346.408 87.0181 346.408 88.5181C346.408 89.0884 346.279 89.6353 346.021 90.1587C345.771 90.6743 345.416 91.104 344.955 91.4478C344.494 91.7915 343.986 92.0142 343.431 92.1157C344.236 92.3813 344.748 92.5884 344.966 92.7368C345.49 93.0884 345.884 93.5845 346.15 94.2251C346.416 94.8579 346.548 95.522 346.548 96.2173C346.548 97.2642 346.24 98.1313 345.623 98.8188C345.005 99.5063 344.216 100.006 343.255 100.319C342.294 100.631 341.294 100.788 340.255 100.788C339.544 100.788 338.845 100.741 338.158 100.647C337.478 100.561 336.771 100.413 336.037 100.202Z" fill="#245EB2"/>
<path d="M373.855 33.5026L402.982 33.5026L373.855 4.37579L373.855 33.5026Z" fill="white" stroke="#005EB8" stroke-width="3" stroke-linejoin="round"/>
<rect x="122.472" y="67.6479" width="170.027" height="100.708" rx="1" fill="#005EB8" fill-opacity="0.65"/>
<path d="M211.86 127.079V129.645H201.138V126.962C202.231 125.969 203.04 125.223 203.563 124.723C204.095 124.223 204.72 123.579 205.438 122.79C206.165 121.993 206.77 121.2 207.255 120.411C207.739 119.614 207.981 118.907 207.981 118.29C207.981 117.579 207.747 117.02 207.278 116.614C206.817 116.2 206.235 115.993 205.532 115.993C204.298 115.993 203.024 116.438 201.712 117.329L201.442 114.505C203.114 113.77 204.739 113.403 206.317 113.403C207.27 113.403 208.13 113.575 208.895 113.919C209.661 114.262 210.27 114.778 210.724 115.465C211.177 116.153 211.403 116.977 211.403 117.938C211.403 118.93 211.075 119.993 210.419 121.126C209.763 122.258 208.97 123.337 208.04 124.36C207.11 125.383 206.185 126.305 205.263 127.126L211.86 127.079Z" fill="white"/>
<rect x="62.5" y="185.098" width="142.634" height="70.6736" rx="9.5" transform="rotate(-90 62.5 185.098)" fill="#95BEE5" stroke="#005EB8" stroke-width="3"/>
<path d="M102.997 129.645H99.7856V117.165L97.0669 119.473L95.4145 117.352L100.184 113.637H102.997V129.645Z" fill="white"/>
<path d="M83.8467 49.5315C81.6375 49.5315 79.8467 47.7406 79.8467 45.5315L79.8467 40.9648L115.827 40.9648L115.827 45.5315C115.827 47.7406 114.036 49.5315 111.827 49.5315L83.8467 49.5315Z" fill="#005EB8"/>
</g>
<defs>
<filter id="filter0_d_1761_2708" x="57" y="2.87573" width="351.482" height="192.011" filterUnits="userSpaceOnUse" color-interpolation-filters="sRGB">
<feFlood flood-opacity="0" result="BackgroundImageFix"/>
<feColorMatrix in="SourceAlpha" type="matrix" values="0 0 0 0 0 0 0 0 0 0 0 0 0 0 0 0 0 0 127 0" result="hardAlpha"/>
<feOffset dy="4"/>
<feGaussianBlur stdDeviation="2"/>
<feComposite in2="hardAlpha" operator="out"/>
<feColorMatrix type="matrix" values="0 0 0 0 0 0 0 0 0 0 0 0 0 0 0 0 0 0 0.25 0"/>
<feBlend mode="normal" in2="BackgroundImageFix" result="effect1_dropShadow_1761_2708"/>
<feBlend mode="normal" in="SourceGraphic" in2="effect1_dropShadow_1761_2708" result="shape"/>
</filter>
</defs>
</svg>
