<svg width="464" height="263" viewBox="0 0 464 263" fill="none" xmlns="http://www.w3.org/2000/svg">
<g filter="url(#filter0_d_1761_2724)">
<rect x="45" y="8" width="374" height="245" rx="8" fill="white" stroke="#D8DDE0" stroke-width="4"/>
<path d="M43 14C43 9.58172 46.5817 6 51 6H413C417.418 6 421 9.58172 421 14V29H43V14Z" fill="#D8DDE0"/>
<circle cx="57.5" cy="17.5" r="4.5" fill="white"/>
<circle cx="73.5" cy="17.5" r="4.5" fill="white"/>
<circle cx="88.5" cy="17.5" r="4.5" fill="white"/>
<rect x="47.5" y="29.5001" width="369" height="28" fill="#005EB8"/>
<rect x="47.5" y="29.5001" width="369" height="28" stroke="#D8DDE0"/>
<g clip-path="url(#clip0_1761_2724)">
<path d="M67 34.0479H114.261V52.9524H67V34.0479Z" fill="white"/>
<path d="M71.6081 35.8201H76.8069L79.8788 46.454H79.997L82.1238 35.8201H86.0228L82.7145 51.1801H77.6339L74.4438 40.5463H74.3256L72.1989 51.1801H68.2998L71.6081 35.8201ZM87.4407 35.8201H91.6942L90.5126 41.6097H95.2388L96.5385 35.8201H100.674L97.4837 51.1801H93.3483L94.648 44.5635H89.8037L88.3859 51.1801H84.3687L87.4407 35.8201ZM111.544 39.2466C110.717 38.8921 109.653 38.5377 108.118 38.5377C106.463 38.5377 105.164 38.774 105.164 40.0737C105.164 42.2004 111.189 41.4915 111.189 46.0995C111.189 50.353 107.29 51.4164 103.628 51.4164C102.092 51.4164 100.201 51.0619 98.9015 50.5893L99.8468 47.3992C100.674 47.8718 102.328 48.2263 103.628 48.2263C104.927 48.2263 106.936 47.9899 106.936 46.454C106.936 43.9727 100.91 44.918 100.91 40.5463C100.91 36.5291 104.337 35.3475 107.763 35.3475C109.653 35.3475 111.426 35.5838 112.489 36.0565" fill="#005EB8"/>
<path d="M151.945 49.661L152.021 48.6829C152.211 48.7464 152.402 48.7845 152.58 48.7845C153.355 48.7845 153.837 47.9842 154.002 47.1966C154.002 47.0696 153.875 46.7774 153.825 46.6377L151.576 40.4512H152.885L154.625 45.8119H154.65L156.429 40.4512H157.636L155.07 47.565C154.676 48.6448 154.142 49.7499 152.758 49.7499C152.389 49.7499 152.161 49.6991 151.945 49.661Z" fill="white"/>
<path d="M149.535 46.9301H148.341V41.4169H146.816V40.4515H148.341V39.8163C148.341 38.1141 148.887 37.2502 150.513 37.2502C150.767 37.2502 151.008 37.2757 151.313 37.3265L151.263 38.2919C151.123 38.2411 150.881 38.2157 150.691 38.2157C149.827 38.2157 149.535 38.6603 149.535 39.6512V40.4515H151.25V41.4169H149.535V46.9301Z" fill="white"/>
<path d="M145.453 39.0033H144.107V37.6567H145.453V39.0033ZM145.377 46.9301H144.183V40.4515H145.377V46.9301Z" fill="white"/>
<path d="M142.638 45.8887V46.905C142.32 46.9939 141.99 47.0828 141.609 47.0828C140.275 47.0828 139.627 46.3842 139.627 45.2155V41.4172H138.166V40.4517H139.627V38.9528L140.821 38.5717V40.4517H142.536V41.4172H140.821V44.9868C140.821 45.5838 141.177 46.1174 141.825 46.1174C142.218 46.1174 142.472 45.9904 142.638 45.8887Z" fill="white"/>
<path d="M134.186 47.0826C132.28 47.0826 130.896 45.5709 130.896 43.6908C130.896 41.7091 132.217 40.2991 134.198 40.2991C136.091 40.2991 137.488 41.6456 137.488 43.6908C137.488 45.5074 136.18 47.0826 134.186 47.0826ZM134.198 46.1172C135.532 46.1172 136.218 44.9485 136.218 43.6908C136.218 42.4078 135.443 41.2645 134.186 41.2645C132.941 41.2645 132.166 42.4459 132.166 43.6908C132.166 44.9358 132.852 46.1172 134.198 46.1172Z" fill="white"/>
<path d="M129.197 46.9302H127.571L123.557 39.6386H123.532V46.9302H122.261V38.0634H123.989L127.901 45.2026H127.927V38.0634H129.197V46.9302Z" fill="white"/>
</g>
<path d="M73.5904 88.1051H67.4254V77.6351H69.5254V86.4551H73.5904V88.1051ZM81.2254 88.1051H79.4554C79.3954 87.8201 79.3804 87.2951 79.3654 86.9501H79.3354C78.8854 87.7751 77.9104 88.2851 76.9504 88.2851C75.5554 88.2851 74.2504 87.4451 74.2504 85.9751C74.2504 84.6401 75.0154 83.3351 78.0304 83.3351H79.2754V83.3051C79.2754 82.0151 78.6154 81.6701 77.5354 81.6701C76.6804 81.6701 75.8254 82.0001 75.1504 82.5101L75.0904 80.7851C75.8104 80.4551 76.8454 80.2001 77.7754 80.2001C80.0854 80.2001 81.1054 81.1301 81.1054 83.4551V85.0451C81.1054 85.4501 81.1354 87.0701 81.2254 88.1051ZM79.2754 84.6251V84.5351H78.3904C76.9654 84.5351 76.1704 84.9551 76.1704 85.8701C76.1704 86.4701 76.6354 86.8151 77.4454 86.8151C78.3454 86.8151 79.2754 86.2001 79.2754 84.6251ZM82.6604 87.9551L82.7804 86.3051C83.4104 86.6201 84.0704 86.8151 84.7604 86.8151C85.3004 86.8151 86.0804 86.6051 86.0804 85.8701C86.0804 85.2251 85.4504 85.0301 84.6404 84.8051C83.2904 84.4451 82.5854 83.8901 82.5854 82.6001C82.5854 81.0401 83.8904 80.2001 85.6304 80.2001C86.2454 80.2001 86.8454 80.2601 87.8054 80.4851L87.6704 82.0001C86.9804 81.7601 86.5154 81.6701 85.8854 81.6701C85.1804 81.6701 84.6854 81.9551 84.6854 82.5251C84.6854 82.9601 85.1054 83.1701 86.0204 83.4251C87.4604 83.8301 88.1804 84.4751 88.1804 85.7651C88.1804 87.4601 86.7254 88.2851 84.9254 88.2851C84.1904 88.2851 83.3954 88.1501 82.6604 87.9551ZM94.2754 86.5151L94.3354 88.1051C93.9154 88.2251 93.4504 88.2851 92.8654 88.2851C91.2304 88.2851 90.4054 87.2651 90.4054 85.7801V81.8501H88.9204V80.3801H90.4054V78.8351L92.4154 78.1901V80.3801H94.2004V81.8501H92.4154V85.4351C92.4154 86.2451 92.6704 86.7251 93.3754 86.7251C93.7204 86.7251 94.0654 86.6501 94.2754 86.5151ZM111.06 88.1051H109.05V83.2901C109.05 82.1351 108.615 81.7601 107.895 81.7601C106.875 81.7601 106.395 82.7051 106.395 84.3251V88.1051H104.385V83.2901C104.385 82.1651 103.98 81.7601 103.23 81.7601C102.18 81.7601 101.73 82.7501 101.73 84.3101V88.1051H99.7203V80.3801H101.595V81.4601H101.625C102.15 80.6801 102.96 80.2001 103.935 80.2001C105 80.2001 105.765 80.6051 106.2 81.5651C106.62 80.7101 107.565 80.2001 108.63 80.2001C110.265 80.2001 111.06 81.1901 111.06 83.2001V88.1051ZM120.67 84.2951C120.67 86.5901 119.11 88.2851 116.62 88.2851C114.13 88.2851 112.585 86.5751 112.585 84.2951C112.585 81.8201 114.265 80.2001 116.62 80.2001C118.975 80.2001 120.67 81.8051 120.67 84.2951ZM116.62 86.7251C117.925 86.7251 118.57 85.7201 118.57 84.0551C118.57 82.8251 117.91 81.7601 116.62 81.7601C115.36 81.7601 114.685 82.8401 114.685 84.0551C114.685 85.6901 115.315 86.7251 116.62 86.7251ZM129.345 88.1051H127.335V83.7701C127.335 82.6151 127.095 81.7601 126.03 81.7601C124.755 81.7601 124.26 82.9901 124.26 84.3551V88.1051H122.25V80.3801H124.155V81.4301H124.185C124.8 80.5601 125.655 80.2001 126.72 80.2001C128.49 80.2001 129.345 81.4151 129.345 83.2301V88.1051ZM135.95 86.5151L136.01 88.1051C135.59 88.2251 135.125 88.2851 134.54 88.2851C132.905 88.2851 132.08 87.2651 132.08 85.7801V81.8501H130.595V80.3801H132.08V78.8351L134.09 78.1901V80.3801H135.875V81.8501H134.09V85.4351C134.09 86.2451 134.345 86.7251 135.05 86.7251C135.395 86.7251 135.74 86.6501 135.95 86.5151ZM144.345 88.1051H142.335V83.7401C142.335 82.3301 141.915 81.7601 141.03 81.7601C139.845 81.7601 139.26 82.8401 139.26 84.3701V88.1051H137.25V76.8551H139.26V81.4301H139.29C139.785 80.6951 140.655 80.2001 141.72 80.2001C143.505 80.2001 144.345 81.4451 144.345 83.2151V88.1051Z" fill="black"/>
<rect width="134" height="72" transform="translate(66 109)" fill="#005EB8"/>
<path d="M86.824 139H83.608V135.52H76.384V132.808L82.648 122.248H86.824V133.024H88.96V135.52H86.824V139ZM83.608 133.024V125.752H83.56L79.408 133.024H83.608ZM90.4159 138.736L90.6079 135.88C91.8319 136.36 93.0559 136.648 94.3039 136.648C95.9119 136.648 97.8559 135.88 97.8559 134.272C97.8559 132.52 96.6079 131.656 94.1839 131.656H92.5279V129.016H94.1599C96.2959 129.016 97.7839 128.248 97.7839 126.808C97.7839 125.368 96.7759 124.6 94.8799 124.6C93.6079 124.6 92.3119 124.912 91.1359 125.488L90.9439 122.8C92.2879 122.272 93.8959 121.96 95.5999 121.96C98.3359 121.96 101.144 123.064 101.144 126.256C101.144 128.176 100.16 129.448 98.0239 130.264V130.312C100.04 130.576 101.216 132.112 101.216 134.296C101.216 137.656 98.5759 139.288 94.7599 139.288C93.3199 139.288 91.6879 139.096 90.4159 138.736ZM112.44 139H109.08V126.064L106.248 128.368L104.568 126.184L109.464 122.248H112.44V139ZM119.392 141.64H116.56L118.096 135.64H121.576L119.392 141.64ZM131.928 131.464L131.88 131.416C131.088 132.592 130.056 133.096 128.64 133.096C125.424 133.096 123.744 131.032 123.744 127.984C123.744 124.144 125.712 121.96 129.312 121.96C133.032 121.96 135 124.408 135 129.76C135 134.968 133.128 139.288 128.112 139.288C126.888 139.288 125.736 139.096 124.584 138.688L125.016 135.976C125.952 136.384 126.864 136.648 127.944 136.648C130.368 136.648 131.784 134.728 131.928 131.464ZM129.384 130.6C131.04 130.6 131.64 129.064 131.64 127.432C131.64 125.872 130.992 124.456 129.288 124.456C127.872 124.456 127.104 125.8 127.104 127.456C127.104 129.16 127.824 130.6 129.384 130.6ZM142.071 139H138.423L144.639 124.888H137.223V122.248H148.023V125.032L142.071 139ZM150.439 138.736L150.631 135.88C151.855 136.36 153.079 136.648 154.327 136.648C155.935 136.648 157.879 135.88 157.879 134.272C157.879 132.52 156.631 131.656 154.207 131.656H152.551V129.016H154.183C156.319 129.016 157.807 128.248 157.807 126.808C157.807 125.368 156.799 124.6 154.903 124.6C153.631 124.6 152.335 124.912 151.159 125.488L150.967 122.8C152.311 122.272 153.919 121.96 155.623 121.96C158.359 121.96 161.167 123.064 161.167 126.256C161.167 128.176 160.183 129.448 158.047 130.264V130.312C160.063 130.576 161.239 132.112 161.239 134.296C161.239 137.656 158.599 139.288 154.783 139.288C153.343 139.288 151.711 139.096 150.439 138.736Z" fill="white"/>
<path d="M83.608 167H82.072L78.28 160.112H78.256V167H77.056V158.624H78.688L82.384 165.368H82.408V158.624H83.608V167ZM92.1962 167H90.9962V163.184H86.9882V167H85.7882V158.624H86.9882V162.128H90.9962V158.624H92.1962V167ZM93.9803 166.796L94.1003 165.68C94.6763 165.92 95.3483 166.088 95.8403 166.088C96.6323 166.088 97.4843 165.632 97.4843 164.72C97.4843 164.108 97.1843 163.7 95.8643 163.1C94.7843 162.608 93.8843 162.068 93.8843 160.76C93.8843 159.368 94.9403 158.48 96.5723 158.48C97.1363 158.48 97.7843 158.576 98.3603 158.78L98.1923 159.884C97.5443 159.62 97.1843 159.536 96.6323 159.536C95.6963 159.536 95.1563 159.944 95.1563 160.652C95.1563 161.432 96.0203 161.744 96.7283 162.104C97.6403 162.56 98.7563 163.112 98.7563 164.648C98.7563 166.268 97.5923 167.144 95.7083 167.144C95.0963 167.144 94.5803 166.988 93.9803 166.796ZM111.18 167H109.872L109.02 164.888H104.916L104.064 167H102.804L106.38 158.624H107.64L111.18 167ZM108.636 163.904L106.968 159.752L105.3 163.904H108.636ZM113.408 169.52H112.28V160.88H113.36V161.744H113.384C113.816 161.12 114.584 160.736 115.46 160.736C117.176 160.736 118.1 162.116 118.1 163.832C118.1 165.56 117.284 167.144 115.472 167.144C114.536 167.144 113.852 166.832 113.432 166.16H113.408V169.52ZM115.208 166.232C116.288 166.232 116.9 165.128 116.9 163.904C116.9 162.332 116.12 161.636 115.208 161.648C114.02 161.66 113.408 162.788 113.408 163.952C113.408 165.032 113.972 166.232 115.208 166.232ZM120.744 169.52H119.616V160.88H120.696V161.744H120.72C121.152 161.12 121.92 160.736 122.796 160.736C124.512 160.736 125.436 162.116 125.436 163.832C125.436 165.56 124.62 167.144 122.808 167.144C121.872 167.144 121.188 166.832 120.768 166.16H120.744V169.52ZM122.544 166.232C123.624 166.232 124.236 165.128 124.236 163.904C124.236 162.332 123.456 161.636 122.544 161.648C121.356 161.66 120.744 162.788 120.744 163.952C120.744 165.032 121.308 166.232 122.544 166.232ZM139.064 167H137.936V163.328C137.936 162.296 137.588 161.648 136.844 161.648C135.764 161.648 135.236 162.656 135.236 163.928V167H134.108V163.328C134.108 162.332 133.784 161.648 133.016 161.648C131.948 161.648 131.408 162.644 131.408 163.916V167H130.28V160.88H131.336V161.768H131.36C131.804 161.048 132.404 160.736 133.304 160.736C134.072 160.736 134.744 161.156 135.044 161.924C135.392 161.192 136.208 160.736 136.952 160.736C138.332 160.736 139.064 161.564 139.064 163.076V167ZM145.648 165.62V166.748C144.76 167.108 144.232 167.144 143.728 167.144C141.652 167.144 140.548 165.944 140.548 163.832C140.548 161.984 141.712 160.736 143.416 160.736C145.192 160.736 146.116 161.864 146.116 164.192H141.748C141.76 165.416 142.696 166.232 143.764 166.232C144.412 166.232 145.264 165.92 145.648 165.62ZM141.748 163.352H144.916C144.904 162.368 144.34 161.648 143.38 161.648C142.48 161.648 141.868 162.296 141.748 163.352ZM147.108 166.808L147.168 165.8C147.552 166.052 148.188 166.232 148.572 166.232C149.172 166.232 149.724 165.968 149.724 165.356C149.724 165.02 149.508 164.72 148.62 164.324C147.36 163.76 147.072 163.232 147.072 162.608C147.072 161.336 148.044 160.736 149.232 160.736C149.76 160.736 150.192 160.844 150.636 160.976L150.54 161.96C150.312 161.816 149.64 161.648 149.352 161.648C148.74 161.648 148.272 161.912 148.272 162.392C148.272 162.896 148.692 163.148 149.46 163.484C150.504 163.94 150.924 164.42 150.924 165.236C150.924 166.4 150.06 167.144 148.776 167.144C148.128 167.144 147.576 167.06 147.108 166.808ZM151.772 166.808L151.832 165.8C152.216 166.052 152.852 166.232 153.236 166.232C153.836 166.232 154.388 165.968 154.388 165.356C154.388 165.02 154.172 164.72 153.284 164.324C152.024 163.76 151.736 163.232 151.736 162.608C151.736 161.336 152.708 160.736 153.896 160.736C154.424 160.736 154.856 160.844 155.3 160.976L155.204 161.96C154.976 161.816 154.304 161.648 154.016 161.648C153.404 161.648 152.936 161.912 152.936 162.392C152.936 162.896 153.356 163.148 154.124 163.484C155.168 163.94 155.588 164.42 155.588 165.236C155.588 166.4 154.724 167.144 153.44 167.144C152.792 167.144 152.24 167.06 151.772 166.808ZM161.764 167H160.708V166.208H160.684C160.252 166.808 159.58 167.144 158.776 167.144C157.36 167.144 156.544 166.472 156.544 165.236C156.544 163.94 157.78 163.22 159.472 163.22C159.952 163.22 160.336 163.232 160.588 163.244C160.588 162.128 160.144 161.648 159.076 161.648C158.464 161.648 157.792 161.864 157.3 162.272L157.24 161.312C157.804 160.976 158.476 160.736 159.256 160.736C160.948 160.736 161.716 161.54 161.716 163.256V165.944C161.716 166.316 161.728 166.712 161.764 167ZM160.588 164.624V164.084C160.588 164.084 160.084 164.06 159.856 164.06C158.584 164.06 157.744 164.444 157.744 165.236C157.744 165.824 158.284 166.232 158.896 166.232C159.952 166.232 160.588 165.572 160.588 164.624ZM167.904 166.652V166.052H167.88C167.4 166.676 166.632 167 165.828 167C164.076 167 163.212 165.572 163.212 163.988C163.212 162.32 164.172 160.736 165.948 160.736C166.908 160.736 167.592 161.048 167.964 161.792H167.988V160.88H169.032V166.748C169.032 168.62 168.036 169.664 165.876 169.664C165.096 169.664 164.544 169.532 163.68 169.244L163.8 168.2C164.724 168.632 165.252 168.752 165.996 168.752C167.196 168.752 167.904 167.948 167.904 166.652ZM166.116 166.088C167.112 166.088 167.904 165.224 167.904 164C167.904 162.728 167.304 161.648 166.116 161.648C165.012 161.648 164.412 162.812 164.412 163.928C164.412 165.128 165.096 166.088 166.116 166.088ZM175.648 165.62V166.748C174.76 167.108 174.232 167.144 173.728 167.144C171.652 167.144 170.548 165.944 170.548 163.832C170.548 161.984 171.712 160.736 173.416 160.736C175.192 160.736 176.116 161.864 176.116 164.192H171.748C171.76 165.416 172.696 166.232 173.764 166.232C174.412 166.232 175.264 165.92 175.648 165.62ZM171.748 163.352H174.916C174.904 162.368 174.34 161.648 173.38 161.648C172.48 161.648 171.868 162.296 171.748 163.352ZM177.108 166.808L177.168 165.8C177.552 166.052 178.188 166.232 178.572 166.232C179.172 166.232 179.724 165.968 179.724 165.356C179.724 165.02 179.508 164.72 178.62 164.324C177.36 163.76 177.072 163.232 177.072 162.608C177.072 161.336 178.044 160.736 179.232 160.736C179.76 160.736 180.192 160.844 180.636 160.976L180.54 161.96C180.312 161.816 179.64 161.648 179.352 161.648C178.74 161.648 178.272 161.912 178.272 162.392C178.272 162.896 178.692 163.148 179.46 163.484C180.504 163.94 180.924 164.42 180.924 165.236C180.924 166.4 180.06 167.144 178.776 167.144C178.128 167.144 177.576 167.06 177.108 166.808Z" fill="white"/>
<rect width="144.789" height="72" transform="translate(212 109)" fill="#005EB8"/>
<path d="M231.768 139H228.408V126.064L225.576 128.368L223.896 126.184L228.792 122.248H231.768V139ZM238.72 141.64H235.888L237.424 135.64H240.904L238.72 141.64ZM253.488 122.56L253.056 125.272C252.216 124.912 251.304 124.6 250.128 124.6C247.464 124.6 246.264 126.88 246.144 129.784L246.192 129.832C246.984 128.68 248.016 128.152 249.456 128.152C252.528 128.152 254.328 130.096 254.328 133.264C254.328 137.104 252.36 139.288 248.76 139.288C245.016 139.288 243.072 136.816 243.072 131.488C243.072 126.352 244.896 121.96 249.96 121.96C251.184 121.96 252.336 122.152 253.488 122.56ZM248.76 136.792C250.368 136.792 250.968 135.208 250.968 133.792C250.968 132.256 250.368 130.648 248.664 130.648C247.272 130.648 246.432 131.824 246.432 133.816C246.432 135.376 247.08 136.792 248.76 136.792ZM267.472 139H256.336V136.192L258.352 134.32C261.568 131.32 263.584 128.68 263.584 126.856C263.584 125.416 262.336 124.6 260.848 124.6C259.696 124.6 258.424 125.008 256.984 125.944L256.72 123.16C258.256 122.392 259.96 121.96 261.688 121.96C265.024 121.96 266.944 123.712 266.944 126.856C266.944 129.184 265.6 131.728 260.632 136.36H267.472V139ZM275.336 139.288C271.52 139.288 269.528 136.552 269.528 130.672C269.528 125.392 271.424 121.96 275.336 121.96C279.176 121.96 281.192 124.984 281.192 130.672C281.192 136.24 279.176 139.288 275.336 139.288ZM275.336 136.792C277.76 136.792 277.832 133.168 277.832 130.672C277.832 128.152 277.76 124.456 275.312 124.456C273.032 124.456 272.888 128.008 272.888 130.6C272.888 133.288 272.984 136.792 275.336 136.792ZM285.407 141.64H282.575L284.111 135.64H287.591L285.407 141.64ZM289.783 138.736L289.975 135.88C291.199 136.36 292.423 136.648 293.671 136.648C295.279 136.648 297.223 135.88 297.223 134.272C297.223 132.52 295.975 131.656 293.551 131.656H291.895V129.016H293.527C295.663 129.016 297.151 128.248 297.151 126.808C297.151 125.368 296.143 124.6 294.247 124.6C292.975 124.6 291.679 124.912 290.503 125.488L290.311 122.8C291.655 122.272 293.263 121.96 294.967 121.96C297.703 121.96 300.511 123.064 300.511 126.256C300.511 128.176 299.527 129.448 297.391 130.264V130.312C299.407 130.576 300.583 132.112 300.583 134.296C300.583 137.656 297.943 139.288 294.127 139.288C292.687 139.288 291.055 139.096 289.783 138.736ZM311.279 131.464L311.231 131.416C310.439 132.592 309.407 133.096 307.991 133.096C304.775 133.096 303.095 131.032 303.095 127.984C303.095 124.144 305.063 121.96 308.663 121.96C312.383 121.96 314.351 124.408 314.351 129.76C314.351 134.968 312.479 139.288 307.463 139.288C306.239 139.288 305.087 139.096 303.935 138.688L304.367 135.976C305.303 136.384 306.215 136.648 307.295 136.648C309.719 136.648 311.135 134.728 311.279 131.464ZM308.735 130.6C310.391 130.6 310.991 129.064 310.991 127.432C310.991 125.872 310.343 124.456 308.639 124.456C307.223 124.456 306.455 125.8 306.455 127.456C306.455 129.16 307.175 130.6 308.735 130.6ZM325.143 139H321.783V126.064L318.951 128.368L317.271 126.184L322.167 122.248H325.143V139Z" fill="white"/>
<path d="M226.308 166.016V166.976C226.008 167.06 225.696 167.144 225.336 167.144C224.076 167.144 223.464 166.484 223.464 165.38V161.792H222.084V160.88H223.464V159.464L224.592 159.104V160.88H226.212V161.792H224.592V165.164C224.592 165.728 224.928 166.232 225.54 166.232C225.912 166.232 226.152 166.112 226.308 166.016ZM232.316 165.62V166.748C231.428 167.108 230.9 167.144 230.396 167.144C228.32 167.144 227.216 165.944 227.216 163.832C227.216 161.984 228.38 160.736 230.084 160.736C231.86 160.736 232.784 161.864 232.784 164.192H228.416C228.428 165.416 229.364 166.232 230.432 166.232C231.08 166.232 231.932 165.92 232.316 165.62ZM228.416 163.352H231.584C231.572 162.368 231.008 161.648 230.048 161.648C229.148 161.648 228.536 162.296 228.416 163.352ZM239.212 167H237.82L236.308 164.6L234.796 167H233.452L235.66 163.796L233.668 160.88H235.072L236.404 163.064L237.76 160.88H239.02L237.052 163.796L239.212 167ZM243.64 166.016V166.976C243.34 167.06 243.028 167.144 242.668 167.144C241.408 167.144 240.796 166.484 240.796 165.38V161.792H239.416V160.88H240.796V159.464L241.924 159.104V160.88H243.544V161.792H241.924V165.164C241.924 165.728 242.26 166.232 242.872 166.232C243.244 166.232 243.484 166.112 243.64 166.016ZM257.068 167H255.94V163.328C255.94 162.296 255.592 161.648 254.848 161.648C253.768 161.648 253.24 162.656 253.24 163.928V167H252.112V163.328C252.112 162.332 251.788 161.648 251.02 161.648C249.952 161.648 249.412 162.644 249.412 163.916V167H248.284V160.88H249.34V161.768H249.364C249.808 161.048 250.408 160.736 251.308 160.736C252.076 160.736 252.748 161.156 253.048 161.924C253.396 161.192 254.212 160.736 254.956 160.736C256.336 160.736 257.068 161.564 257.068 163.076V167ZM263.652 165.62V166.748C262.764 167.108 262.236 167.144 261.732 167.144C259.656 167.144 258.552 165.944 258.552 163.832C258.552 161.984 259.716 160.736 261.42 160.736C263.196 160.736 264.12 161.864 264.12 164.192H259.752C259.764 165.416 260.7 166.232 261.768 166.232C262.416 166.232 263.268 165.92 263.652 165.62ZM259.752 163.352H262.92C262.908 162.368 262.344 161.648 261.384 161.648C260.484 161.648 259.872 162.296 259.752 163.352ZM265.112 166.808L265.172 165.8C265.556 166.052 266.192 166.232 266.576 166.232C267.176 166.232 267.728 165.968 267.728 165.356C267.728 165.02 267.512 164.72 266.624 164.324C265.364 163.76 265.076 163.232 265.076 162.608C265.076 161.336 266.048 160.736 267.236 160.736C267.764 160.736 268.196 160.844 268.64 160.976L268.544 161.96C268.316 161.816 267.644 161.648 267.356 161.648C266.744 161.648 266.276 161.912 266.276 162.392C266.276 162.896 266.696 163.148 267.464 163.484C268.508 163.94 268.928 164.42 268.928 165.236C268.928 166.4 268.064 167.144 266.78 167.144C266.132 167.144 265.58 167.06 265.112 166.808ZM269.776 166.808L269.836 165.8C270.22 166.052 270.856 166.232 271.24 166.232C271.84 166.232 272.392 165.968 272.392 165.356C272.392 165.02 272.176 164.72 271.288 164.324C270.028 163.76 269.74 163.232 269.74 162.608C269.74 161.336 270.712 160.736 271.9 160.736C272.428 160.736 272.86 160.844 273.304 160.976L273.208 161.96C272.98 161.816 272.308 161.648 272.02 161.648C271.408 161.648 270.94 161.912 270.94 162.392C270.94 162.896 271.36 163.148 272.128 163.484C273.172 163.94 273.592 164.42 273.592 165.236C273.592 166.4 272.728 167.144 271.444 167.144C270.796 167.144 270.244 167.06 269.776 166.808ZM279.768 167H278.712V166.208H278.688C278.256 166.808 277.584 167.144 276.78 167.144C275.364 167.144 274.548 166.472 274.548 165.236C274.548 163.94 275.784 163.22 277.476 163.22C277.956 163.22 278.34 163.232 278.592 163.244C278.592 162.128 278.148 161.648 277.08 161.648C276.468 161.648 275.796 161.864 275.304 162.272L275.244 161.312C275.808 160.976 276.48 160.736 277.26 160.736C278.952 160.736 279.72 161.54 279.72 163.256V165.944C279.72 166.316 279.732 166.712 279.768 167ZM278.592 164.624V164.084C278.592 164.084 278.088 164.06 277.86 164.06C276.588 164.06 275.748 164.444 275.748 165.236C275.748 165.824 276.288 166.232 276.9 166.232C277.956 166.232 278.592 165.572 278.592 164.624ZM285.908 166.652V166.052H285.884C285.404 166.676 284.636 167 283.832 167C282.08 167 281.216 165.572 281.216 163.988C281.216 162.32 282.176 160.736 283.952 160.736C284.912 160.736 285.596 161.048 285.968 161.792H285.992V160.88H287.036V166.748C287.036 168.62 286.04 169.664 283.88 169.664C283.1 169.664 282.548 169.532 281.684 169.244L281.804 168.2C282.728 168.632 283.256 168.752 284 168.752C285.2 168.752 285.908 167.948 285.908 166.652ZM284.12 166.088C285.116 166.088 285.908 165.224 285.908 164C285.908 162.728 285.308 161.648 284.12 161.648C283.016 161.648 282.416 162.812 282.416 163.928C282.416 165.128 283.1 166.088 284.12 166.088ZM293.652 165.62V166.748C292.764 167.108 292.236 167.144 291.732 167.144C289.656 167.144 288.552 165.944 288.552 163.832C288.552 161.984 289.716 160.736 291.42 160.736C293.196 160.736 294.12 161.864 294.12 164.192H289.752C289.764 165.416 290.7 166.232 291.768 166.232C292.416 166.232 293.268 165.92 293.652 165.62ZM289.752 163.352H292.92C292.908 162.368 292.344 161.648 291.384 161.648C290.484 161.648 289.872 162.296 289.752 163.352ZM295.112 166.808L295.172 165.8C295.556 166.052 296.192 166.232 296.576 166.232C297.176 166.232 297.728 165.968 297.728 165.356C297.728 165.02 297.512 164.72 296.624 164.324C295.364 163.76 295.076 163.232 295.076 162.608C295.076 161.336 296.048 160.736 297.236 160.736C297.764 160.736 298.196 160.844 298.64 160.976L298.544 161.96C298.316 161.816 297.644 161.648 297.356 161.648C296.744 161.648 296.276 161.912 296.276 162.392C296.276 162.896 296.696 163.148 297.464 163.484C298.508 163.94 298.928 164.42 298.928 165.236C298.928 166.4 298.064 167.144 296.78 167.144C296.132 167.144 295.58 167.06 295.112 166.808Z" fill="white"/>
<rect width="144.789" height="26.5263" transform="translate(212.105 195)" fill="#377C42"/>
<path d="M222.717 210.82L222.789 209.704C223.377 210.004 224.085 210.16 224.625 210.16C225.633 210.16 226.665 209.74 226.665 208.732C226.665 207.676 225.921 207.136 224.601 207.136H223.845V206.152H224.481C225.597 206.152 226.593 205.744 226.593 204.784C226.593 203.944 225.993 203.464 224.937 203.464C224.037 203.464 223.413 203.764 223.089 203.92L223.017 202.852C223.641 202.624 224.481 202.48 225.117 202.48C226.737 202.48 227.865 203.296 227.865 204.748C227.865 205.72 227.181 206.44 226.065 206.668V206.692C227.289 206.944 227.937 207.676 227.937 208.768C227.937 210.316 226.869 211.144 224.637 211.144C223.953 211.144 223.257 210.976 222.717 210.82ZM230.093 212.596H229.013L229.769 209.656H231.113L230.093 212.596ZM238.017 211H232.713V209.716C233.217 209.272 233.925 208.648 234.549 208.06C235.749 206.932 236.625 205.84 236.625 204.796C236.625 204.028 235.941 203.464 235.017 203.464C234.369 203.464 233.721 203.668 233.097 204.004L232.977 202.972C233.433 202.78 234.213 202.48 235.173 202.48C236.769 202.48 237.897 203.368 237.897 204.856C237.897 205.84 237.249 207.22 233.997 210.016H238.017V211ZM243.701 207.112L243.677 207.124C243.125 207.664 242.549 207.892 241.841 207.892C240.257 207.892 239.321 206.788 239.321 205.252C239.321 203.596 240.413 202.48 242.021 202.48C243.809 202.48 244.829 203.74 244.829 206.5C244.829 209.08 243.893 211.144 241.433 211.144C240.845 211.144 240.017 211.012 239.705 210.88L239.873 209.812C240.329 210.052 240.845 210.16 241.361 210.16C242.885 210.16 243.677 208.768 243.701 207.112ZM242.009 206.908C242.933 206.908 243.557 206.224 243.557 205.228C243.557 204.448 243.077 203.464 242.069 203.464C241.169 203.464 240.593 204.208 240.593 205.228C240.593 205.996 241.037 206.908 242.009 206.908ZM248.245 211H246.925L250.117 203.608H246.037V202.624H251.341V203.608L248.245 211ZM258.277 211H257.149V205.792H255.709V204.88H257.149V204.28C257.149 202.672 257.665 201.856 259.201 201.856C259.441 201.856 259.669 201.88 259.957 201.928L259.909 202.84C259.777 202.792 259.549 202.768 259.369 202.768C258.553 202.768 258.277 203.188 258.277 204.124V204.88H259.897V205.792H258.277V211ZM265.893 211H264.837V210.208H264.813C264.381 210.808 263.709 211.144 262.905 211.144C261.489 211.144 260.673 210.472 260.673 209.236C260.673 207.94 261.909 207.22 263.601 207.22C264.081 207.22 264.465 207.232 264.717 207.244C264.717 206.128 264.273 205.648 263.205 205.648C262.593 205.648 261.921 205.864 261.429 206.272L261.369 205.312C261.933 204.976 262.605 204.736 263.385 204.736C265.077 204.736 265.845 205.54 265.845 207.256V209.944C265.845 210.316 265.857 210.712 265.893 211ZM264.717 208.624V208.084C264.717 208.084 264.213 208.06 263.985 208.06C262.713 208.06 261.873 208.444 261.873 209.236C261.873 209.824 262.413 210.232 263.025 210.232C264.081 210.232 264.717 209.572 264.717 208.624ZM269.093 203.512H267.821V202.24H269.093V203.512ZM269.021 211H267.893V204.88H269.021V211ZM272.36 211H271.232V202H272.36V211ZM279.12 209.62V210.748C278.232 211.108 277.704 211.144 277.2 211.144C275.124 211.144 274.02 209.944 274.02 207.832C274.02 205.984 275.184 204.736 276.888 204.736C278.664 204.736 279.588 205.864 279.588 208.192H275.22C275.232 209.416 276.168 210.232 277.236 210.232C277.884 210.232 278.736 209.92 279.12 209.62ZM275.22 207.352H278.388C278.376 206.368 277.812 205.648 276.852 205.648C275.952 205.648 275.34 206.296 275.22 207.352ZM286.508 211H285.428V210.136H285.404C284.984 210.76 284.216 211.144 283.316 211.144C281.504 211.144 280.688 209.56 280.688 207.832C280.688 206.188 281.552 204.736 283.328 204.736C284.24 204.736 284.948 205.048 285.356 205.72H285.38V202H286.508V211ZM283.58 210.232C284.828 210.232 285.38 209.008 285.38 207.952C285.38 206.872 284.84 205.648 283.556 205.648C282.428 205.648 281.888 206.656 281.888 207.856C281.888 209.2 282.536 210.232 283.58 210.232Z" fill="white"/>
<rect width="134" height="26" transform="translate(66 195)" fill="#377C42"/>
<path d="M80.428 211H79.228V204.004L77.944 205.108L77.308 204.304L79.36 202.624H80.428V211ZM84.9 206.596V206.572C83.892 206.224 83.328 205.492 83.328 204.496C83.328 203.392 84.36 202.48 86.04 202.48C87.684 202.48 88.632 203.428 88.632 204.364C88.632 205.312 88.236 205.936 87.12 206.524C88.188 206.896 88.884 207.664 88.884 208.756C88.884 210.316 87.684 211.144 85.98 211.144C84.552 211.144 83.124 210.34 83.124 208.804C83.124 207.784 83.772 206.992 84.9 206.596ZM86.256 206.176C87.312 205.384 87.36 205 87.36 204.52C87.36 203.788 86.64 203.464 85.932 203.464C85.428 203.464 84.528 203.836 84.528 204.652C84.528 205.168 84.972 205.552 86.256 206.176ZM85.788 207.04L85.248 207.388C84.648 207.772 84.396 208.12 84.396 208.732C84.396 209.644 85.224 210.16 86.088 210.16C86.844 210.16 87.612 209.716 87.612 208.78C87.612 207.964 87.12 207.664 86.64 207.424C86.376 207.292 86.004 207.148 85.788 207.04ZM94.6639 211H93.4639V209.092H89.5639V208.108L92.9479 202.624H94.6639V208.108H95.7199V209.092H94.6639V211ZM93.4639 208.108V203.608H93.4399L90.8239 208.108H93.4639ZM102.164 211H101.036V205.792H99.5958V204.88H101.036V204.28C101.036 202.672 101.552 201.856 103.088 201.856C103.328 201.856 103.556 201.88 103.844 201.928L103.796 202.84C103.664 202.792 103.436 202.768 103.256 202.768C102.44 202.768 102.164 203.188 102.164 204.124V204.88H103.784V205.792H102.164V211ZM109.78 211H108.724V210.208H108.7C108.268 210.808 107.596 211.144 106.792 211.144C105.376 211.144 104.56 210.472 104.56 209.236C104.56 207.94 105.796 207.22 107.488 207.22C107.968 207.22 108.352 207.232 108.604 207.244C108.604 206.128 108.16 205.648 107.092 205.648C106.48 205.648 105.808 205.864 105.316 206.272L105.256 205.312C105.82 204.976 106.492 204.736 107.272 204.736C108.964 204.736 109.732 205.54 109.732 207.256V209.944C109.732 210.316 109.744 210.712 109.78 211ZM108.604 208.624V208.084C108.604 208.084 108.1 208.06 107.872 208.06C106.6 208.06 105.76 208.444 105.76 209.236C105.76 209.824 106.3 210.232 106.912 210.232C107.968 210.232 108.604 209.572 108.604 208.624ZM112.98 203.512H111.708V202.24H112.98V203.512ZM112.908 211H111.78V204.88H112.908V211ZM116.248 211H115.12V202H116.248V211ZM123.007 209.62V210.748C122.119 211.108 121.591 211.144 121.087 211.144C119.011 211.144 117.907 209.944 117.907 207.832C117.907 205.984 119.071 204.736 120.775 204.736C122.551 204.736 123.475 205.864 123.475 208.192H119.107C119.119 209.416 120.055 210.232 121.123 210.232C121.771 210.232 122.623 209.92 123.007 209.62ZM119.107 207.352H122.275C122.263 206.368 121.699 205.648 120.739 205.648C119.839 205.648 119.227 206.296 119.107 207.352ZM130.395 211H129.315V210.136H129.291C128.871 210.76 128.103 211.144 127.203 211.144C125.391 211.144 124.575 209.56 124.575 207.832C124.575 206.188 125.439 204.736 127.215 204.736C128.127 204.736 128.835 205.048 129.243 205.72H129.267V202H130.395V211ZM127.467 210.232C128.715 210.232 129.267 209.008 129.267 207.952C129.267 206.872 128.727 205.648 127.443 205.648C126.315 205.648 125.775 206.656 125.775 207.856C125.775 209.2 126.423 210.232 127.467 210.232Z" fill="white"/>
<rect x="66.2104" y="234.789" width="290.684" height="1.10526" fill="#D8DDE0"/>
</g>
<defs>
<filter id="filter0_d_1761_2724" x="39" y="6" width="386" height="257" filterUnits="userSpaceOnUse" color-interpolation-filters="sRGB">
<feFlood flood-opacity="0" result="BackgroundImageFix"/>
<feColorMatrix in="SourceAlpha" type="matrix" values="0 0 0 0 0 0 0 0 0 0 0 0 0 0 0 0 0 0 127 0" result="hardAlpha"/>
<feOffset dy="4"/>
<feGaussianBlur stdDeviation="2"/>
<feComposite in2="hardAlpha" operator="out"/>
<feColorMatrix type="matrix" values="0 0 0 0 0 0 0 0 0 0 0 0 0 0 0 0 0 0 0.25 0"/>
<feBlend mode="normal" in2="BackgroundImageFix" result="effect1_dropShadow_1761_2724"/>
<feBlend mode="normal" in="SourceGraphic" in2="effect1_dropShadow_1761_2724" result="shape"/>
</filter>
<clipPath id="clip0_1761_2724">
<rect width="90.6357" height="18.9045" fill="white" transform="translate(67 34.0479)"/>
</clipPath>
</defs>
</svg>
