<svg width="464" height="263" viewBox="0 0 390 263" fill="none" xmlns="http://www.w3.org/2000/svg">
  <g filter="url(#filter0_d_1760_2412)">
    <path d="M10 29H80V251H16C12.6863 251 10 248.314 10 245V29Z" fill="#1E1E1E" />
    <rect x="8" y="8" width="374" height="245" rx="8" stroke="#D8DDE0" stroke-width="4" />
    <path d="M6 14C6 9.58172 9.58172 6 14 6H376C380.418 6 384 9.58172 384 14V29H6V14Z"
      fill="#D8DDE0" />
    <circle cx="20.5" cy="17.5" r="4.5" fill="white" />
    <circle cx="36.5" cy="17.5" r="4.5" fill="white" />
    <circle cx="51.5" cy="17.5" r="4.5" fill="white" />
    <path d="M80 29H380V245C380 248.314 377.314 251 374 251H80V29Z" fill="#0B0B0B" />
    <path
      d="M99.5273 55.1367C99.8529 55.3841 100.074 55.6185 100.191 55.8398C100.341 56.1328 100.416 56.4811 100.416 56.8848V60.3906C100.416 60.7617 100.523 61.0645 100.738 61.2988C100.953 61.5397 101.22 61.6764 101.539 61.709C101.741 61.7285 101.874 61.7676 101.939 61.8262C102.024 61.9043 102.066 62.002 102.066 62.1191C102.066 62.2428 102.024 62.3405 101.939 62.4121C101.855 62.4902 101.731 62.5293 101.568 62.5293C101.054 62.5293 100.624 62.3665 100.279 62.041C99.8171 61.5918 99.5859 61.0449 99.5859 60.4004V56.8848C99.5859 56.5267 99.4785 56.2272 99.2637 55.9863C99.0488 55.7389 98.7754 55.6022 98.4434 55.5762C98.2611 55.5566 98.1341 55.5111 98.0625 55.4395C97.9909 55.3678 97.9551 55.2669 97.9551 55.1367C97.9551 55.013 97.9909 54.9154 98.0625 54.8438C98.1341 54.7721 98.2611 54.7266 98.4434 54.707C98.7819 54.681 99.0553 54.5475 99.2637 54.3066C99.4785 54.0592 99.5859 53.7565 99.5859 53.3984V49.8828C99.5859 49.2708 99.7812 48.763 100.172 48.3594C100.562 47.9492 101.031 47.7441 101.578 47.7441C101.734 47.7441 101.855 47.7832 101.939 47.8613C102.024 47.9395 102.066 48.0371 102.066 48.1543C102.066 48.2715 102.024 48.3691 101.939 48.4473C101.881 48.5124 101.747 48.5547 101.539 48.5742C101.214 48.6068 100.943 48.7435 100.729 48.9844C100.52 49.2253 100.416 49.5247 100.416 49.8828V53.3984C100.416 53.8086 100.351 54.1406 100.221 54.3945C100.09 54.6419 99.8594 54.8893 99.5273 55.1367ZM96.5977 81.9492H99.1953L98.5117 86.6953C98.4727 86.9427 98.401 87.1185 98.2969 87.2227C98.1927 87.3203 98.0592 87.3691 97.8965 87.3691C97.7337 87.3691 97.6003 87.3203 97.4961 87.2227C97.3919 87.1185 97.3203 86.9427 97.2812 86.6953L96.5977 81.9492ZM100.787 81.9492H103.385L102.701 86.6953C102.662 86.9427 102.59 87.1185 102.486 87.2227C102.382 87.3203 102.252 87.3691 102.096 87.3691C101.926 87.3691 101.79 87.3203 101.686 87.2227C101.581 87.1185 101.513 86.9427 101.48 86.6953L100.787 81.9492ZM108.277 85.543V86.373C108.974 85.6243 109.674 85.25 110.377 85.25C110.8 85.25 111.171 85.3639 111.49 85.5918C111.809 85.8132 112.076 86.1517 112.291 86.6074C112.656 86.1517 113.023 85.8132 113.395 85.5918C113.772 85.3639 114.15 85.25 114.527 85.25C115.12 85.25 115.592 85.4421 115.943 85.8262C116.406 86.321 116.637 86.8613 116.637 87.4473V93.1797H117.33C117.525 93.1797 117.665 93.2188 117.75 93.2969C117.835 93.3685 117.877 93.4661 117.877 93.5898C117.877 93.707 117.835 93.8047 117.75 93.8828C117.665 93.9609 117.525 94 117.33 94H115.816V87.5254C115.816 87.1087 115.689 86.7637 115.436 86.4902C115.182 86.2168 114.889 86.0801 114.557 86.0801C114.257 86.0801 113.941 86.194 113.609 86.4219C113.277 86.6432 112.9 87.0827 112.477 87.7402V93.1797H113.16C113.355 93.1797 113.495 93.2188 113.58 93.2969C113.665 93.3685 113.707 93.4661 113.707 93.5898C113.707 93.707 113.665 93.8047 113.58 93.8828C113.495 93.9609 113.355 94 113.16 94H111.646V87.584C111.646 87.1478 111.516 86.7897 111.256 86.5098C111.002 86.2233 110.715 86.0801 110.396 86.0801C110.104 86.0801 109.814 86.1745 109.527 86.3633C109.13 86.6302 108.714 87.0892 108.277 87.7402V93.1797H108.971C109.166 93.1797 109.306 93.2188 109.391 93.2969C109.475 93.3685 109.518 93.4661 109.518 93.5898C109.518 93.707 109.475 93.8047 109.391 93.8828C109.306 93.9609 109.166 94 108.971 94H106.764C106.568 94 106.428 93.9609 106.344 93.8828C106.259 93.8047 106.217 93.707 106.217 93.5898C106.217 93.4661 106.259 93.3685 106.344 93.2969C106.428 93.2188 106.568 93.1797 106.764 93.1797H107.457V86.373H106.764C106.568 86.373 106.428 86.334 106.344 86.2559C106.259 86.1777 106.217 86.0768 106.217 85.9531C106.217 85.8359 106.259 85.7383 106.344 85.6602C106.428 85.582 106.568 85.543 106.764 85.543H108.277ZM128.463 89.9668H120.104C120.247 91.028 120.689 91.8841 121.432 92.5352C122.18 93.1797 123.105 93.502 124.205 93.502C124.817 93.502 125.458 93.401 126.129 93.1992C126.799 92.9974 127.346 92.7305 127.77 92.3984C127.893 92.3008 128.001 92.252 128.092 92.252C128.196 92.252 128.287 92.2943 128.365 92.3789C128.443 92.457 128.482 92.5514 128.482 92.6621C128.482 92.7728 128.43 92.8802 128.326 92.9844C128.014 93.3099 127.457 93.6159 126.656 93.9023C125.862 94.1823 125.045 94.3223 124.205 94.3223C122.799 94.3223 121.624 93.8633 120.68 92.9453C119.742 92.0208 119.273 90.9043 119.273 89.5957C119.273 88.4043 119.713 87.3822 120.592 86.5293C121.477 85.6764 122.571 85.25 123.873 85.25C125.214 85.25 126.318 85.6895 127.184 86.5684C128.049 87.4408 128.476 88.5736 128.463 89.9668ZM127.633 89.1367C127.47 88.2318 127.04 87.4961 126.344 86.9297C125.654 86.3633 124.83 86.0801 123.873 86.0801C122.916 86.0801 122.092 86.36 121.402 86.9199C120.712 87.4798 120.283 88.2188 120.113 89.1367H127.633ZM138.746 86.0801C138.746 85.8913 138.785 85.7546 138.863 85.6699C138.941 85.5853 139.039 85.543 139.156 85.543C139.28 85.543 139.381 85.5853 139.459 85.6699C139.537 85.7546 139.576 85.8978 139.576 86.0996V87.5059C139.576 87.7012 139.537 87.8411 139.459 87.9258C139.381 88.0104 139.28 88.0527 139.156 88.0527C139.046 88.0527 138.951 88.0169 138.873 87.9453C138.801 87.8737 138.759 87.7565 138.746 87.5938C138.707 87.2031 138.505 86.8809 138.141 86.627C137.607 86.2624 136.9 86.0801 136.021 86.0801C135.104 86.0801 134.391 86.2656 133.883 86.6367C133.499 86.9167 133.307 87.2292 133.307 87.5742C133.307 87.9648 133.535 88.2904 133.99 88.5508C134.303 88.7331 134.895 88.873 135.768 88.9707C136.907 89.0944 137.698 89.2344 138.141 89.3906C138.772 89.6185 139.241 89.9342 139.547 90.3379C139.859 90.7415 140.016 91.1777 140.016 91.6465C140.016 92.3431 139.68 92.9648 139.01 93.5117C138.339 94.0521 137.356 94.3223 136.061 94.3223C134.765 94.3223 133.704 93.9935 132.877 93.3359C132.877 93.5573 132.864 93.7005 132.838 93.7656C132.812 93.8307 132.763 93.8861 132.691 93.9316C132.626 93.9772 132.551 94 132.467 94C132.35 94 132.252 93.9577 132.174 93.873C132.096 93.7884 132.057 93.6484 132.057 93.4531V91.7637C132.057 91.5684 132.092 91.4284 132.164 91.3438C132.242 91.2591 132.343 91.2168 132.467 91.2168C132.584 91.2168 132.682 91.2591 132.76 91.3438C132.844 91.4219 132.887 91.5293 132.887 91.666C132.887 91.9655 132.962 92.2161 133.111 92.418C133.339 92.7305 133.701 92.9909 134.195 93.1992C134.697 93.401 135.309 93.502 136.031 93.502C137.099 93.502 137.893 93.3034 138.414 92.9062C138.935 92.5091 139.195 92.0892 139.195 91.6465C139.195 91.1387 138.932 90.7318 138.404 90.4258C137.87 90.1198 137.092 89.9147 136.07 89.8105C135.055 89.7064 134.326 89.5697 133.883 89.4004C133.44 89.2311 133.095 88.9772 132.848 88.6387C132.6 88.3001 132.477 87.9355 132.477 87.5449C132.477 86.8418 132.822 86.2852 133.512 85.875C134.202 85.4583 135.025 85.25 135.982 85.25C137.115 85.25 138.036 85.5267 138.746 86.0801ZM150.758 86.0801C150.758 85.8913 150.797 85.7546 150.875 85.6699C150.953 85.5853 151.051 85.543 151.168 85.543C151.292 85.543 151.393 85.5853 151.471 85.6699C151.549 85.7546 151.588 85.8978 151.588 86.0996V87.5059C151.588 87.7012 151.549 87.8411 151.471 87.9258C151.393 88.0104 151.292 88.0527 151.168 88.0527C151.057 88.0527 150.963 88.0169 150.885 87.9453C150.813 87.8737 150.771 87.7565 150.758 87.5938C150.719 87.2031 150.517 86.8809 150.152 86.627C149.618 86.2624 148.912 86.0801 148.033 86.0801C147.115 86.0801 146.402 86.2656 145.895 86.6367C145.51 86.9167 145.318 87.2292 145.318 87.5742C145.318 87.9648 145.546 88.2904 146.002 88.5508C146.314 88.7331 146.907 88.873 147.779 88.9707C148.919 89.0944 149.71 89.2344 150.152 89.3906C150.784 89.6185 151.253 89.9342 151.559 90.3379C151.871 90.7415 152.027 91.1777 152.027 91.6465C152.027 92.3431 151.692 92.9648 151.021 93.5117C150.351 94.0521 149.368 94.3223 148.072 94.3223C146.777 94.3223 145.715 93.9935 144.889 93.3359C144.889 93.5573 144.876 93.7005 144.85 93.7656C144.824 93.8307 144.775 93.8861 144.703 93.9316C144.638 93.9772 144.563 94 144.479 94C144.361 94 144.264 93.9577 144.186 93.873C144.107 93.7884 144.068 93.6484 144.068 93.4531V91.7637C144.068 91.5684 144.104 91.4284 144.176 91.3438C144.254 91.2591 144.355 91.2168 144.479 91.2168C144.596 91.2168 144.693 91.2591 144.771 91.3438C144.856 91.4219 144.898 91.5293 144.898 91.666C144.898 91.9655 144.973 92.2161 145.123 92.418C145.351 92.7305 145.712 92.9909 146.207 93.1992C146.708 93.401 147.32 93.502 148.043 93.502C149.111 93.502 149.905 93.3034 150.426 92.9062C150.947 92.5091 151.207 92.0892 151.207 91.6465C151.207 91.1387 150.943 90.7318 150.416 90.4258C149.882 90.1198 149.104 89.9147 148.082 89.8105C147.066 89.7064 146.337 89.5697 145.895 89.4004C145.452 89.2311 145.107 88.9772 144.859 88.6387C144.612 88.3001 144.488 87.9355 144.488 87.5449C144.488 86.8418 144.833 86.2852 145.523 85.875C146.214 85.4583 147.037 85.25 147.994 85.25C149.127 85.25 150.048 85.5267 150.758 86.0801ZM162.418 94V92.8184C161.227 93.821 159.954 94.3223 158.6 94.3223C157.617 94.3223 156.848 94.0749 156.295 93.5801C155.742 93.0788 155.465 92.4668 155.465 91.7441C155.465 90.9499 155.829 90.2565 156.559 89.6641C157.288 89.0716 158.352 88.7754 159.752 88.7754C160.13 88.7754 160.54 88.8014 160.982 88.8535C161.425 88.8991 161.904 88.974 162.418 89.0781V87.75C162.418 87.3008 162.21 86.9102 161.793 86.5781C161.376 86.2461 160.751 86.0801 159.918 86.0801C159.28 86.0801 158.385 86.2656 157.232 86.6367C157.024 86.7018 156.891 86.7344 156.832 86.7344C156.728 86.7344 156.637 86.6953 156.559 86.6172C156.487 86.5391 156.451 86.4414 156.451 86.3242C156.451 86.2135 156.484 86.1257 156.549 86.0605C156.64 85.9629 157.008 85.8294 157.652 85.6602C158.668 85.3867 159.436 85.25 159.957 85.25C160.992 85.25 161.799 85.5072 162.379 86.0215C162.958 86.5293 163.248 87.1055 163.248 87.75V93.1797H164.342C164.544 93.1797 164.687 93.2188 164.771 93.2969C164.856 93.3685 164.898 93.4661 164.898 93.5898C164.898 93.707 164.856 93.8047 164.771 93.8828C164.687 93.9609 164.544 94 164.342 94H162.418ZM162.418 89.918C162.034 89.8073 161.627 89.7259 161.197 89.6738C160.768 89.6217 160.315 89.5957 159.84 89.5957C158.648 89.5957 157.717 89.8529 157.047 90.3672C156.539 90.7513 156.285 91.2103 156.285 91.7441C156.285 92.2389 156.477 92.6556 156.861 92.9941C157.252 93.3327 157.818 93.502 158.561 93.502C159.27 93.502 159.928 93.362 160.533 93.082C161.145 92.7956 161.773 92.3431 162.418 91.7246V89.918ZM174.83 87.0469V85.543H176.754C176.949 85.543 177.089 85.582 177.174 85.6602C177.258 85.7383 177.301 85.8392 177.301 85.9629C177.301 86.0801 177.258 86.1777 177.174 86.2559C177.089 86.334 176.949 86.373 176.754 86.373H175.65V94.5664C175.65 95.1133 175.533 95.6016 175.299 96.0312C175.143 96.3177 174.882 96.6139 174.518 96.9199C174.153 97.2259 173.821 97.444 173.521 97.5742C173.222 97.7044 172.822 97.7695 172.32 97.7695H169.996C169.801 97.7695 169.661 97.7305 169.576 97.6523C169.492 97.5807 169.449 97.4831 169.449 97.3594C169.449 97.2357 169.492 97.1348 169.576 97.0566C169.661 96.9785 169.801 96.9395 169.996 96.9395L172.35 96.9492C172.831 96.9492 173.264 96.8255 173.648 96.5781C174.039 96.3307 174.361 95.9694 174.615 95.4941C174.758 95.2207 174.83 94.8724 174.83 94.4492V91.9883C173.951 93.1927 172.818 93.7949 171.432 93.7949C170.305 93.7949 169.332 93.3783 168.512 92.5449C167.698 91.7051 167.291 90.696 167.291 89.5176C167.291 88.3392 167.698 87.3333 168.512 86.5C169.332 85.6667 170.305 85.25 171.432 85.25C172.818 85.25 173.951 85.849 174.83 87.0469ZM174.83 89.5176C174.83 88.554 174.498 87.7402 173.834 87.0762C173.176 86.4121 172.389 86.0801 171.471 86.0801C170.553 86.0801 169.765 86.4154 169.107 87.0859C168.45 87.75 168.121 88.5605 168.121 89.5176C168.121 90.4811 168.45 91.2982 169.107 91.9688C169.765 92.6328 170.553 92.9648 171.471 92.9648C172.389 92.9648 173.176 92.6328 173.834 91.9688C174.498 91.2982 174.83 90.4811 174.83 89.5176ZM188.521 89.9668H180.162C180.305 91.028 180.748 91.8841 181.49 92.5352C182.239 93.1797 183.163 93.502 184.264 93.502C184.876 93.502 185.517 93.401 186.188 93.1992C186.858 92.9974 187.405 92.7305 187.828 92.3984C187.952 92.3008 188.059 92.252 188.15 92.252C188.255 92.252 188.346 92.2943 188.424 92.3789C188.502 92.457 188.541 92.5514 188.541 92.6621C188.541 92.7728 188.489 92.8802 188.385 92.9844C188.072 93.3099 187.516 93.6159 186.715 93.9023C185.921 94.1823 185.104 94.3223 184.264 94.3223C182.857 94.3223 181.682 93.8633 180.738 92.9453C179.801 92.0208 179.332 90.9043 179.332 89.5957C179.332 88.4043 179.771 87.3822 180.65 86.5293C181.536 85.6764 182.63 85.25 183.932 85.25C185.273 85.25 186.376 85.6895 187.242 86.5684C188.108 87.4408 188.535 88.5736 188.521 89.9668ZM187.691 89.1367C187.529 88.2318 187.099 87.4961 186.402 86.9297C185.712 86.3633 184.889 86.0801 183.932 86.0801C182.975 86.0801 182.151 86.36 181.461 86.9199C180.771 87.4798 180.341 88.2188 180.172 89.1367H187.691ZM193.424 88.9023V93.1797H194.938C195.139 93.1797 195.283 93.2188 195.367 93.2969C195.452 93.3685 195.494 93.4661 195.494 93.5898C195.494 93.707 195.452 93.8047 195.367 93.8828C195.283 93.9609 195.139 94 194.938 94H191.5C191.305 94 191.165 93.9609 191.08 93.8828C190.995 93.8047 190.953 93.707 190.953 93.5898C190.953 93.4661 190.995 93.3685 191.08 93.2969C191.165 93.2188 191.305 93.1797 191.5 93.1797H192.604V83.3945H191.5C191.305 83.3945 191.165 83.3587 191.08 83.2871C190.995 83.209 190.953 83.1081 190.953 82.9844C190.953 82.8607 190.995 82.763 191.08 82.6914C191.165 82.6133 191.305 82.5742 191.5 82.5742H196.461C197.483 82.5742 198.342 82.8997 199.039 83.5508C199.742 84.1953 200.094 84.9245 200.094 85.7383C200.094 86.3242 199.876 86.8776 199.439 87.3984C199.01 87.9128 198.287 88.3424 197.271 88.6875C197.857 89.0911 198.359 89.5469 198.775 90.0547C199.192 90.5625 199.859 91.6042 200.777 93.1797H201.402C201.598 93.1797 201.738 93.2188 201.822 93.2969C201.907 93.3685 201.949 93.4661 201.949 93.5898C201.949 93.707 201.907 93.8047 201.822 93.8828C201.738 93.9609 201.598 94 201.402 94H200.309C199.293 92.1836 198.505 90.9661 197.945 90.3477C197.392 89.7292 196.754 89.2474 196.031 88.9023H193.424ZM193.424 88.082H195.66C196.376 88.082 197.024 87.9518 197.604 87.6914C198.189 87.431 198.613 87.125 198.873 86.7734C199.14 86.4219 199.273 86.0638 199.273 85.6992C199.273 85.1523 198.997 84.6315 198.443 84.1367C197.896 83.6419 197.229 83.3945 196.441 83.3945H193.424V88.082ZM212.545 89.9668H204.186C204.329 91.028 204.771 91.8841 205.514 92.5352C206.262 93.1797 207.187 93.502 208.287 93.502C208.899 93.502 209.54 93.401 210.211 93.1992C210.882 92.9974 211.428 92.7305 211.852 92.3984C211.975 92.3008 212.083 92.252 212.174 92.252C212.278 92.252 212.369 92.2943 212.447 92.3789C212.525 92.457 212.564 92.5514 212.564 92.6621C212.564 92.7728 212.512 92.8802 212.408 92.9844C212.096 93.3099 211.539 93.6159 210.738 93.9023C209.944 94.1823 209.127 94.3223 208.287 94.3223C206.881 94.3223 205.706 93.8633 204.762 92.9453C203.824 92.0208 203.355 90.9043 203.355 89.5957C203.355 88.4043 203.795 87.3822 204.674 86.5293C205.559 85.6764 206.653 85.25 207.955 85.25C209.296 85.25 210.4 85.6895 211.266 86.5684C212.132 87.4408 212.558 88.5736 212.545 89.9668ZM211.715 89.1367C211.552 88.2318 211.122 87.4961 210.426 86.9297C209.736 86.3633 208.912 86.0801 207.955 86.0801C206.998 86.0801 206.174 86.36 205.484 86.9199C204.794 87.4798 204.365 88.2188 204.195 89.1367H211.715ZM219.576 86.373V93.1797H223.18C223.375 93.1797 223.515 93.2188 223.6 93.2969C223.684 93.3685 223.727 93.4661 223.727 93.5898C223.727 93.707 223.684 93.8047 223.6 93.8828C223.515 93.9609 223.375 94 223.18 94H216.764C216.568 94 216.428 93.9609 216.344 93.8828C216.259 93.8047 216.217 93.707 216.217 93.5898C216.217 93.4661 216.259 93.3685 216.344 93.2969C216.428 93.2188 216.568 93.1797 216.764 93.1797H218.746V86.373H216.969C216.773 86.373 216.633 86.334 216.549 86.2559C216.464 86.1777 216.422 86.0768 216.422 85.9531C216.422 85.8359 216.464 85.7383 216.549 85.6602C216.633 85.582 216.773 85.543 216.969 85.543H218.746V84.3027C218.746 83.6126 219.026 83.0137 219.586 82.5059C220.146 81.998 220.888 81.7441 221.812 81.7441C222.587 81.7441 223.414 81.8158 224.293 81.959C224.625 82.0111 224.824 82.0729 224.889 82.1445C224.96 82.2161 224.996 82.3105 224.996 82.4277C224.996 82.5449 224.957 82.6426 224.879 82.7207C224.801 82.7923 224.697 82.8281 224.566 82.8281C224.514 82.8281 224.426 82.8184 224.303 82.7988C223.32 82.6491 222.49 82.5742 221.812 82.5742C221.096 82.5742 220.543 82.75 220.152 83.1016C219.768 83.4531 219.576 83.8535 219.576 84.3027V85.543H223.414C223.609 85.543 223.749 85.582 223.834 85.6602C223.919 85.7383 223.961 85.8392 223.961 85.9629C223.961 86.0801 223.919 86.1777 223.834 86.2559C223.749 86.334 223.609 86.373 223.414 86.373H219.576ZM236.568 89.9668H228.209C228.352 91.028 228.795 91.8841 229.537 92.5352C230.286 93.1797 231.21 93.502 232.311 93.502C232.923 93.502 233.564 93.401 234.234 93.1992C234.905 92.9974 235.452 92.7305 235.875 92.3984C235.999 92.3008 236.106 92.252 236.197 92.252C236.301 92.252 236.393 92.2943 236.471 92.3789C236.549 92.457 236.588 92.5514 236.588 92.6621C236.588 92.7728 236.536 92.8802 236.432 92.9844C236.119 93.3099 235.562 93.6159 234.762 93.9023C233.967 94.1823 233.15 94.3223 232.311 94.3223C230.904 94.3223 229.729 93.8633 228.785 92.9453C227.848 92.0208 227.379 90.9043 227.379 89.5957C227.379 88.4043 227.818 87.3822 228.697 86.5293C229.583 85.6764 230.676 85.25 231.979 85.25C233.32 85.25 234.423 85.6895 235.289 86.5684C236.155 87.4408 236.581 88.5736 236.568 89.9668ZM235.738 89.1367C235.576 88.2318 235.146 87.4961 234.449 86.9297C233.759 86.3633 232.936 86.0801 231.979 86.0801C231.021 86.0801 230.198 86.36 229.508 86.9199C228.818 87.4798 228.388 88.2188 228.219 89.1367H235.738ZM243.16 85.543V87.6133C244.228 86.6497 245.025 86.0312 245.553 85.7578C246.087 85.4779 246.578 85.3379 247.027 85.3379C247.516 85.3379 247.968 85.5039 248.385 85.8359C248.808 86.1615 249.02 86.4089 249.02 86.5781C249.02 86.7018 248.977 86.806 248.893 86.8906C248.814 86.9688 248.714 87.0078 248.59 87.0078C248.525 87.0078 248.469 86.998 248.424 86.9785C248.378 86.9525 248.294 86.8776 248.17 86.7539C247.942 86.526 247.743 86.3698 247.574 86.2852C247.405 86.2005 247.239 86.1582 247.076 86.1582C246.718 86.1582 246.285 86.3014 245.777 86.5879C245.276 86.8743 244.404 87.5742 243.16 88.6875V93.1797H246.793C246.995 93.1797 247.138 93.2188 247.223 93.2969C247.307 93.3685 247.35 93.4661 247.35 93.5898C247.35 93.707 247.307 93.8047 247.223 93.8828C247.138 93.9609 246.995 94 246.793 94H240.357C240.162 94 240.022 93.9642 239.938 93.8926C239.853 93.8145 239.811 93.7168 239.811 93.5996C239.811 93.4889 239.85 93.3978 239.928 93.3262C240.012 93.248 240.156 93.209 240.357 93.209H242.34V86.373H240.826C240.631 86.373 240.491 86.334 240.406 86.2559C240.322 86.1777 240.279 86.0768 240.279 85.9531C240.279 85.8359 240.318 85.7383 240.396 85.6602C240.481 85.582 240.624 85.543 240.826 85.543H243.16ZM260.592 89.9668H252.232C252.376 91.028 252.818 91.8841 253.561 92.5352C254.309 93.1797 255.234 93.502 256.334 93.502C256.946 93.502 257.587 93.401 258.258 93.1992C258.928 92.9974 259.475 92.7305 259.898 92.3984C260.022 92.3008 260.13 92.252 260.221 92.252C260.325 92.252 260.416 92.2943 260.494 92.3789C260.572 92.457 260.611 92.5514 260.611 92.6621C260.611 92.7728 260.559 92.8802 260.455 92.9844C260.143 93.3099 259.586 93.6159 258.785 93.9023C257.991 94.1823 257.174 94.3223 256.334 94.3223C254.928 94.3223 253.753 93.8633 252.809 92.9453C251.871 92.0208 251.402 90.9043 251.402 89.5957C251.402 88.4043 251.842 87.3822 252.721 86.5293C253.606 85.6764 254.7 85.25 256.002 85.25C257.343 85.25 258.447 85.6895 259.312 86.5684C260.178 87.4408 260.605 88.5736 260.592 89.9668ZM259.762 89.1367C259.599 88.2318 259.169 87.4961 258.473 86.9297C257.783 86.3633 256.959 86.0801 256.002 86.0801C255.045 86.0801 254.221 86.36 253.531 86.9199C252.841 87.4798 252.411 88.2188 252.242 89.1367H259.762ZM265.514 85.543V86.7832C266.087 86.2038 266.604 85.8034 267.066 85.582C267.529 85.3607 268.049 85.25 268.629 85.25C269.254 85.25 269.824 85.3835 270.338 85.6504C270.702 85.8457 271.031 86.1712 271.324 86.627C271.624 87.0762 271.773 87.5384 271.773 88.0137V93.1797H272.467C272.662 93.1797 272.802 93.2188 272.887 93.2969C272.971 93.3685 273.014 93.4661 273.014 93.5898C273.014 93.707 272.971 93.8047 272.887 93.8828C272.802 93.9609 272.662 94 272.467 94H270.27C270.068 94 269.924 93.9609 269.84 93.8828C269.755 93.8047 269.713 93.707 269.713 93.5898C269.713 93.4661 269.755 93.3685 269.84 93.2969C269.924 93.2188 270.068 93.1797 270.27 93.1797H270.953V88.1504C270.953 87.571 270.742 87.0827 270.318 86.6855C269.895 86.2819 269.329 86.0801 268.619 86.0801C268.079 86.0801 267.61 86.1908 267.213 86.4121C266.816 86.627 266.249 87.1673 265.514 88.0332V93.1797H266.441C266.637 93.1797 266.777 93.2188 266.861 93.2969C266.946 93.3685 266.988 93.4661 266.988 93.5898C266.988 93.707 266.946 93.8047 266.861 93.8828C266.777 93.9609 266.637 94 266.441 94H263.766C263.57 94 263.43 93.9609 263.346 93.8828C263.261 93.8047 263.219 93.707 263.219 93.5898C263.219 93.4661 263.261 93.3685 263.346 93.2969C263.43 93.2188 263.57 93.1797 263.766 93.1797H264.693V86.373H264C263.805 86.373 263.665 86.334 263.58 86.2559C263.495 86.1777 263.453 86.0768 263.453 85.9531C263.453 85.8359 263.495 85.7383 263.58 85.6602C263.665 85.582 263.805 85.543 264 85.543H265.514ZM283.6 86.373V86.0996C283.6 85.8978 283.639 85.7546 283.717 85.6699C283.795 85.5853 283.893 85.543 284.01 85.543C284.133 85.543 284.234 85.5853 284.312 85.6699C284.391 85.7546 284.43 85.8978 284.43 86.0996V87.9551C284.423 88.1569 284.381 88.3001 284.303 88.3848C284.231 88.4694 284.133 88.5117 284.01 88.5117C283.899 88.5117 283.805 88.4759 283.727 88.4043C283.655 88.3262 283.613 88.1992 283.6 88.0234C283.561 87.5612 283.255 87.1217 282.682 86.7051C282.115 86.2884 281.35 86.0801 280.387 86.0801C279.169 86.0801 278.245 86.4609 277.613 87.2227C276.982 87.9844 276.666 88.8568 276.666 89.8398C276.666 90.901 277.014 91.7767 277.711 92.4668C278.408 93.1569 279.309 93.502 280.416 93.502C281.054 93.502 281.702 93.3848 282.359 93.1504C283.023 92.916 283.622 92.5384 284.156 92.0176C284.293 91.8874 284.413 91.8223 284.518 91.8223C284.628 91.8223 284.719 91.8613 284.791 91.9395C284.869 92.0111 284.908 92.1022 284.908 92.2129C284.908 92.4928 284.579 92.8477 283.922 93.2773C282.861 93.974 281.679 94.3223 280.377 94.3223C279.055 94.3223 277.968 93.9023 277.115 93.0625C276.269 92.2161 275.846 91.1452 275.846 89.8496C275.846 88.528 276.279 87.431 277.145 86.5586C278.017 85.6862 279.114 85.25 280.436 85.25C281.692 85.25 282.747 85.6243 283.6 86.373ZM296.627 89.9668H288.268C288.411 91.028 288.854 91.8841 289.596 92.5352C290.344 93.1797 291.269 93.502 292.369 93.502C292.981 93.502 293.622 93.401 294.293 93.1992C294.964 92.9974 295.51 92.7305 295.934 92.3984C296.057 92.3008 296.165 92.252 296.256 92.252C296.36 92.252 296.451 92.2943 296.529 92.3789C296.607 92.457 296.646 92.5514 296.646 92.6621C296.646 92.7728 296.594 92.8802 296.49 92.9844C296.178 93.3099 295.621 93.6159 294.82 93.9023C294.026 94.1823 293.209 94.3223 292.369 94.3223C290.963 94.3223 289.788 93.8633 288.844 92.9453C287.906 92.0208 287.438 90.9043 287.438 89.5957C287.438 88.4043 287.877 87.3822 288.756 86.5293C289.641 85.6764 290.735 85.25 292.037 85.25C293.378 85.25 294.482 85.6895 295.348 86.5684C296.214 87.4408 296.64 88.5736 296.627 89.9668ZM295.797 89.1367C295.634 88.2318 295.204 87.4961 294.508 86.9297C293.818 86.3633 292.994 86.0801 292.037 86.0801C291.08 86.0801 290.257 86.36 289.566 86.9199C288.876 87.4798 288.447 88.2188 288.277 89.1367H295.797ZM300.797 81.9492H303.395L302.711 86.6953C302.672 86.9427 302.6 87.1185 302.496 87.2227C302.392 87.3203 302.258 87.3691 302.096 87.3691C301.933 87.3691 301.799 87.3203 301.695 87.2227C301.591 87.1185 301.52 86.9427 301.48 86.6953L300.797 81.9492ZM304.986 81.9492H307.584L306.9 86.6953C306.861 86.9427 306.79 87.1185 306.686 87.2227C306.581 87.3203 306.451 87.3691 306.295 87.3691C306.126 87.3691 305.989 87.3203 305.885 87.2227C305.781 87.1185 305.712 86.9427 305.68 86.6953L304.986 81.9492ZM316.041 85.543H316.393C316.757 85.543 317.07 85.6732 317.33 85.9336C317.59 86.194 317.721 86.5033 317.721 86.8613C317.721 87.2454 317.587 87.5645 317.32 87.8184C317.06 88.0723 316.751 88.1992 316.393 88.1992H316.041C315.676 88.1992 315.364 88.069 315.104 87.8086C314.843 87.5482 314.713 87.2389 314.713 86.8809C314.713 86.4967 314.843 86.1777 315.104 85.9238C315.37 85.6699 315.683 85.543 316.041 85.543ZM316.041 91.6465H316.393C316.757 91.6465 317.07 91.7767 317.33 92.0371C317.59 92.291 317.721 92.6003 317.721 92.9648C317.721 93.3424 317.587 93.6582 317.32 93.9121C317.06 94.166 316.751 94.293 316.393 94.293H316.041C315.676 94.293 315.364 94.166 315.104 93.9121C314.843 93.6517 314.713 93.3392 314.713 92.9746C314.713 92.597 314.843 92.2812 315.104 92.0273C315.37 91.7734 315.683 91.6465 316.041 91.6465ZM180.68 115.949H183.277L182.594 120.695C182.555 120.943 182.483 121.118 182.379 121.223C182.275 121.32 182.141 121.369 181.979 121.369C181.816 121.369 181.682 121.32 181.578 121.223C181.474 121.118 181.402 120.943 181.363 120.695L180.68 115.949ZM184.869 115.949H187.467L186.783 120.695C186.744 120.943 186.673 121.118 186.568 121.223C186.464 121.32 186.334 121.369 186.178 121.369C186.008 121.369 185.872 121.32 185.768 121.223C185.663 121.118 185.595 120.943 185.562 120.695L184.869 115.949ZM195.113 119.543V121.613C196.181 120.65 196.979 120.031 197.506 119.758C198.04 119.478 198.531 119.338 198.98 119.338C199.469 119.338 199.921 119.504 200.338 119.836C200.761 120.161 200.973 120.409 200.973 120.578C200.973 120.702 200.93 120.806 200.846 120.891C200.768 120.969 200.667 121.008 200.543 121.008C200.478 121.008 200.423 120.998 200.377 120.979C200.331 120.952 200.247 120.878 200.123 120.754C199.895 120.526 199.697 120.37 199.527 120.285C199.358 120.201 199.192 120.158 199.029 120.158C198.671 120.158 198.238 120.301 197.73 120.588C197.229 120.874 196.357 121.574 195.113 122.688V127.18H198.746C198.948 127.18 199.091 127.219 199.176 127.297C199.26 127.368 199.303 127.466 199.303 127.59C199.303 127.707 199.26 127.805 199.176 127.883C199.091 127.961 198.948 128 198.746 128H192.311C192.115 128 191.975 127.964 191.891 127.893C191.806 127.814 191.764 127.717 191.764 127.6C191.764 127.489 191.803 127.398 191.881 127.326C191.965 127.248 192.109 127.209 192.311 127.209H194.293V120.373H192.779C192.584 120.373 192.444 120.334 192.359 120.256C192.275 120.178 192.232 120.077 192.232 119.953C192.232 119.836 192.271 119.738 192.35 119.66C192.434 119.582 192.577 119.543 192.779 119.543H195.113ZM212.545 123.967H204.186C204.329 125.028 204.771 125.884 205.514 126.535C206.262 127.18 207.187 127.502 208.287 127.502C208.899 127.502 209.54 127.401 210.211 127.199C210.882 126.997 211.428 126.73 211.852 126.398C211.975 126.301 212.083 126.252 212.174 126.252C212.278 126.252 212.369 126.294 212.447 126.379C212.525 126.457 212.564 126.551 212.564 126.662C212.564 126.773 212.512 126.88 212.408 126.984C212.096 127.31 211.539 127.616 210.738 127.902C209.944 128.182 209.127 128.322 208.287 128.322C206.881 128.322 205.706 127.863 204.762 126.945C203.824 126.021 203.355 124.904 203.355 123.596C203.355 122.404 203.795 121.382 204.674 120.529C205.559 119.676 206.653 119.25 207.955 119.25C209.296 119.25 210.4 119.689 211.266 120.568C212.132 121.441 212.558 122.574 212.545 123.967ZM211.715 123.137C211.552 122.232 211.122 121.496 210.426 120.93C209.736 120.363 208.912 120.08 207.955 120.08C206.998 120.08 206.174 120.36 205.484 120.92C204.794 121.48 204.365 122.219 204.195 123.137H211.715ZM223.541 120.373V120.1C223.541 119.898 223.58 119.755 223.658 119.67C223.736 119.585 223.834 119.543 223.951 119.543C224.075 119.543 224.176 119.585 224.254 119.67C224.332 119.755 224.371 119.898 224.371 120.1V121.955C224.365 122.157 224.322 122.3 224.244 122.385C224.173 122.469 224.075 122.512 223.951 122.512C223.84 122.512 223.746 122.476 223.668 122.404C223.596 122.326 223.554 122.199 223.541 122.023C223.502 121.561 223.196 121.122 222.623 120.705C222.057 120.288 221.292 120.08 220.328 120.08C219.111 120.08 218.186 120.461 217.555 121.223C216.923 121.984 216.607 122.857 216.607 123.84C216.607 124.901 216.956 125.777 217.652 126.467C218.349 127.157 219.251 127.502 220.357 127.502C220.995 127.502 221.643 127.385 222.301 127.15C222.965 126.916 223.564 126.538 224.098 126.018C224.234 125.887 224.355 125.822 224.459 125.822C224.57 125.822 224.661 125.861 224.732 125.939C224.811 126.011 224.85 126.102 224.85 126.213C224.85 126.493 224.521 126.848 223.863 127.277C222.802 127.974 221.62 128.322 220.318 128.322C218.997 128.322 217.91 127.902 217.057 127.062C216.21 126.216 215.787 125.145 215.787 123.85C215.787 122.528 216.22 121.431 217.086 120.559C217.958 119.686 219.055 119.25 220.377 119.25C221.633 119.25 222.688 119.624 223.541 120.373ZM232.535 115.334V117.453H231.324V115.334H232.535ZM232.564 119.543V127.18H235.787C235.989 127.18 236.132 127.219 236.217 127.297C236.301 127.368 236.344 127.466 236.344 127.59C236.344 127.707 236.301 127.805 236.217 127.883C236.132 127.961 235.989 128 235.787 128H228.521C228.326 128 228.186 127.961 228.102 127.883C228.017 127.805 227.975 127.707 227.975 127.59C227.975 127.466 228.017 127.368 228.102 127.297C228.186 127.219 228.326 127.18 228.521 127.18H231.744V120.373H229.352C229.156 120.373 229.013 120.334 228.922 120.256C228.837 120.178 228.795 120.08 228.795 119.963C228.795 119.839 228.837 119.738 228.922 119.66C229.007 119.582 229.15 119.543 229.352 119.543H232.564ZM241.051 119.543V121.037C241.539 120.445 242.063 119.999 242.623 119.699C243.183 119.4 243.844 119.25 244.605 119.25C245.413 119.25 246.158 119.439 246.842 119.816C247.525 120.194 248.053 120.721 248.424 121.398C248.801 122.069 248.99 122.775 248.99 123.518C248.99 124.696 248.567 125.705 247.721 126.545C246.881 127.378 245.846 127.795 244.615 127.795C243.15 127.795 241.962 127.199 241.051 126.008V130.949H243.043C243.238 130.949 243.378 130.985 243.463 131.057C243.548 131.135 243.59 131.236 243.59 131.359C243.59 131.477 243.548 131.574 243.463 131.652C243.378 131.73 243.238 131.77 243.043 131.77H239.127C238.932 131.77 238.792 131.73 238.707 131.652C238.622 131.581 238.58 131.483 238.58 131.359C238.58 131.236 238.622 131.135 238.707 131.057C238.792 130.985 238.932 130.949 239.127 130.949H240.23V120.373H239.127C238.932 120.373 238.792 120.334 238.707 120.256C238.622 120.178 238.58 120.077 238.58 119.953C238.58 119.836 238.622 119.738 238.707 119.66C238.792 119.582 238.932 119.543 239.127 119.543H241.051ZM248.16 123.518C248.16 122.574 247.815 121.766 247.125 121.096C246.441 120.419 245.605 120.08 244.615 120.08C243.619 120.08 242.776 120.419 242.086 121.096C241.396 121.773 241.051 122.58 241.051 123.518C241.051 124.462 241.396 125.272 242.086 125.949C242.776 126.626 243.619 126.965 244.615 126.965C245.598 126.965 246.435 126.63 247.125 125.959C247.815 125.282 248.16 124.468 248.16 123.518ZM256.559 115.334V117.453H255.348V115.334H256.559ZM256.588 119.543V127.18H259.811C260.012 127.18 260.156 127.219 260.24 127.297C260.325 127.368 260.367 127.466 260.367 127.59C260.367 127.707 260.325 127.805 260.24 127.883C260.156 127.961 260.012 128 259.811 128H252.545C252.35 128 252.21 127.961 252.125 127.883C252.04 127.805 251.998 127.707 251.998 127.59C251.998 127.466 252.04 127.368 252.125 127.297C252.21 127.219 252.35 127.18 252.545 127.18H255.768V120.373H253.375C253.18 120.373 253.036 120.334 252.945 120.256C252.861 120.178 252.818 120.08 252.818 119.963C252.818 119.839 252.861 119.738 252.945 119.66C253.03 119.582 253.173 119.543 253.375 119.543H256.588ZM272.604 123.967H264.244C264.387 125.028 264.83 125.884 265.572 126.535C266.321 127.18 267.245 127.502 268.346 127.502C268.958 127.502 269.599 127.401 270.27 127.199C270.94 126.997 271.487 126.73 271.91 126.398C272.034 126.301 272.141 126.252 272.232 126.252C272.337 126.252 272.428 126.294 272.506 126.379C272.584 126.457 272.623 126.551 272.623 126.662C272.623 126.773 272.571 126.88 272.467 126.984C272.154 127.31 271.598 127.616 270.797 127.902C270.003 128.182 269.186 128.322 268.346 128.322C266.939 128.322 265.764 127.863 264.82 126.945C263.883 126.021 263.414 124.904 263.414 123.596C263.414 122.404 263.854 121.382 264.732 120.529C265.618 119.676 266.712 119.25 268.014 119.25C269.355 119.25 270.458 119.689 271.324 120.568C272.19 121.441 272.617 122.574 272.604 123.967ZM271.773 123.137C271.611 122.232 271.181 121.496 270.484 120.93C269.794 120.363 268.971 120.08 268.014 120.08C267.057 120.08 266.233 120.36 265.543 120.92C264.853 121.48 264.423 122.219 264.254 123.137H271.773ZM277.525 119.543V120.783C278.098 120.204 278.616 119.803 279.078 119.582C279.54 119.361 280.061 119.25 280.641 119.25C281.266 119.25 281.835 119.383 282.35 119.65C282.714 119.846 283.043 120.171 283.336 120.627C283.635 121.076 283.785 121.538 283.785 122.014V127.18H284.479C284.674 127.18 284.814 127.219 284.898 127.297C284.983 127.368 285.025 127.466 285.025 127.59C285.025 127.707 284.983 127.805 284.898 127.883C284.814 127.961 284.674 128 284.479 128H282.281C282.079 128 281.936 127.961 281.852 127.883C281.767 127.805 281.725 127.707 281.725 127.59C281.725 127.466 281.767 127.368 281.852 127.297C281.936 127.219 282.079 127.18 282.281 127.18H282.965V122.15C282.965 121.571 282.753 121.083 282.33 120.686C281.907 120.282 281.34 120.08 280.631 120.08C280.09 120.08 279.622 120.191 279.225 120.412C278.827 120.627 278.261 121.167 277.525 122.033V127.18H278.453C278.648 127.18 278.788 127.219 278.873 127.297C278.958 127.368 279 127.466 279 127.59C279 127.707 278.958 127.805 278.873 127.883C278.788 127.961 278.648 128 278.453 128H275.777C275.582 128 275.442 127.961 275.357 127.883C275.273 127.805 275.23 127.707 275.23 127.59C275.23 127.466 275.273 127.368 275.357 127.297C275.442 127.219 275.582 127.18 275.777 127.18H276.705V120.373H276.012C275.816 120.373 275.676 120.334 275.592 120.256C275.507 120.178 275.465 120.077 275.465 119.953C275.465 119.836 275.507 119.738 275.592 119.66C275.676 119.582 275.816 119.543 276.012 119.543H277.525ZM290.504 119.543H294.957C295.152 119.543 295.292 119.582 295.377 119.66C295.462 119.738 295.504 119.839 295.504 119.963C295.504 120.08 295.462 120.178 295.377 120.256C295.292 120.334 295.152 120.373 294.957 120.373H290.504V125.832C290.504 126.307 290.693 126.704 291.07 127.023C291.454 127.342 292.014 127.502 292.75 127.502C293.303 127.502 293.902 127.421 294.547 127.258C295.191 127.089 295.693 126.9 296.051 126.691C296.181 126.607 296.288 126.564 296.373 126.564C296.477 126.564 296.568 126.607 296.646 126.691C296.725 126.77 296.764 126.864 296.764 126.975C296.764 127.072 296.721 127.163 296.637 127.248C296.428 127.463 295.921 127.697 295.113 127.951C294.312 128.199 293.544 128.322 292.809 128.322C291.852 128.322 291.09 128.098 290.523 127.648C289.957 127.199 289.674 126.594 289.674 125.832V120.373H288.16C287.965 120.373 287.825 120.334 287.74 120.256C287.656 120.178 287.613 120.077 287.613 119.953C287.613 119.836 287.656 119.738 287.74 119.66C287.825 119.582 287.965 119.543 288.16 119.543H289.674V117.121C289.674 116.926 289.713 116.786 289.791 116.701C289.869 116.617 289.967 116.574 290.084 116.574C290.208 116.574 290.309 116.617 290.387 116.701C290.465 116.786 290.504 116.926 290.504 117.121V119.543ZM300.797 115.949H303.395L302.711 120.695C302.672 120.943 302.6 121.118 302.496 121.223C302.392 121.32 302.258 121.369 302.096 121.369C301.933 121.369 301.799 121.32 301.695 121.223C301.591 121.118 301.52 120.943 301.48 120.695L300.797 115.949ZM304.986 115.949H307.584L306.9 120.695C306.861 120.943 306.79 121.118 306.686 121.223C306.581 121.32 306.451 121.369 306.295 121.369C306.126 121.369 305.989 121.32 305.885 121.223C305.781 121.118 305.712 120.943 305.68 120.695L304.986 115.949ZM316.041 119.543H316.393C316.757 119.543 317.07 119.673 317.33 119.934C317.59 120.194 317.721 120.503 317.721 120.861C317.721 121.245 317.587 121.564 317.32 121.818C317.06 122.072 316.751 122.199 316.393 122.199H316.041C315.676 122.199 315.364 122.069 315.104 121.809C314.843 121.548 314.713 121.239 314.713 120.881C314.713 120.497 314.843 120.178 315.104 119.924C315.37 119.67 315.683 119.543 316.041 119.543ZM316.041 125.646H316.393C316.757 125.646 317.07 125.777 317.33 126.037C317.59 126.291 317.721 126.6 317.721 126.965C317.721 127.342 317.587 127.658 317.32 127.912C317.06 128.166 316.751 128.293 316.393 128.293H316.041C315.676 128.293 315.364 128.166 315.104 127.912C314.843 127.652 314.713 127.339 314.713 126.975C314.713 126.597 314.843 126.281 315.104 126.027C315.37 125.773 315.683 125.646 316.041 125.646ZM339.762 123.137C340.087 123.384 340.309 123.618 340.426 123.84C340.576 124.133 340.65 124.481 340.65 124.885V128.391C340.65 128.762 340.758 129.064 340.973 129.299C341.188 129.54 341.454 129.676 341.773 129.709C341.975 129.729 342.109 129.768 342.174 129.826C342.258 129.904 342.301 130.002 342.301 130.119C342.301 130.243 342.258 130.34 342.174 130.412C342.089 130.49 341.965 130.529 341.803 130.529C341.288 130.529 340.859 130.367 340.514 130.041C340.051 129.592 339.82 129.045 339.82 128.4V124.885C339.82 124.527 339.713 124.227 339.498 123.986C339.283 123.739 339.01 123.602 338.678 123.576C338.495 123.557 338.368 123.511 338.297 123.439C338.225 123.368 338.189 123.267 338.189 123.137C338.189 123.013 338.225 122.915 338.297 122.844C338.368 122.772 338.495 122.727 338.678 122.707C339.016 122.681 339.29 122.548 339.498 122.307C339.713 122.059 339.82 121.757 339.82 121.398V117.883C339.82 117.271 340.016 116.763 340.406 116.359C340.797 115.949 341.266 115.744 341.812 115.744C341.969 115.744 342.089 115.783 342.174 115.861C342.258 115.939 342.301 116.037 342.301 116.154C342.301 116.271 342.258 116.369 342.174 116.447C342.115 116.512 341.982 116.555 341.773 116.574C341.448 116.607 341.178 116.743 340.963 116.984C340.755 117.225 340.65 117.525 340.65 117.883V121.398C340.65 121.809 340.585 122.141 340.455 122.395C340.325 122.642 340.094 122.889 339.762 123.137ZM204.703 149.949H207.301L206.617 154.695C206.578 154.943 206.507 155.118 206.402 155.223C206.298 155.32 206.165 155.369 206.002 155.369C205.839 155.369 205.706 155.32 205.602 155.223C205.497 155.118 205.426 154.943 205.387 154.695L204.703 149.949ZM208.893 149.949H211.49L210.807 154.695C210.768 154.943 210.696 155.118 210.592 155.223C210.488 155.32 210.357 155.369 210.201 155.369C210.032 155.369 209.895 155.32 209.791 155.223C209.687 155.118 209.618 154.943 209.586 154.695L208.893 149.949ZM217.467 153.543V154.783C218.04 154.204 218.557 153.803 219.02 153.582C219.482 153.361 220.003 153.25 220.582 153.25C221.207 153.25 221.777 153.383 222.291 153.65C222.656 153.846 222.984 154.171 223.277 154.627C223.577 155.076 223.727 155.538 223.727 156.014V161.18H224.42C224.615 161.18 224.755 161.219 224.84 161.297C224.924 161.368 224.967 161.466 224.967 161.59C224.967 161.707 224.924 161.805 224.84 161.883C224.755 161.961 224.615 162 224.42 162H222.223C222.021 162 221.878 161.961 221.793 161.883C221.708 161.805 221.666 161.707 221.666 161.59C221.666 161.466 221.708 161.368 221.793 161.297C221.878 161.219 222.021 161.18 222.223 161.18H222.906V156.15C222.906 155.571 222.695 155.083 222.271 154.686C221.848 154.282 221.282 154.08 220.572 154.08C220.032 154.08 219.563 154.191 219.166 154.412C218.769 154.627 218.202 155.167 217.467 156.033V161.18H218.395C218.59 161.18 218.73 161.219 218.814 161.297C218.899 161.368 218.941 161.466 218.941 161.59C218.941 161.707 218.899 161.805 218.814 161.883C218.73 161.961 218.59 162 218.395 162H215.719C215.523 162 215.383 161.961 215.299 161.883C215.214 161.805 215.172 161.707 215.172 161.59C215.172 161.466 215.214 161.368 215.299 161.297C215.383 161.219 215.523 161.18 215.719 161.18H216.646V154.373H215.953C215.758 154.373 215.618 154.334 215.533 154.256C215.449 154.178 215.406 154.077 215.406 153.953C215.406 153.836 215.449 153.738 215.533 153.66C215.618 153.582 215.758 153.543 215.953 153.543H217.467ZM229.43 149.744V154.793C229.951 154.227 230.449 153.829 230.924 153.602C231.406 153.367 231.943 153.25 232.535 153.25C233.173 153.25 233.714 153.364 234.156 153.592C234.605 153.813 234.98 154.158 235.279 154.627C235.579 155.089 235.729 155.577 235.729 156.092V161.18H236.646C236.848 161.18 236.988 161.219 237.066 161.297C237.151 161.368 237.193 161.466 237.193 161.59C237.193 161.707 237.151 161.805 237.066 161.883C236.988 161.961 236.848 162 236.646 162H233.98C233.779 162 233.635 161.961 233.551 161.883C233.466 161.805 233.424 161.707 233.424 161.59C233.424 161.466 233.466 161.368 233.551 161.297C233.635 161.219 233.779 161.18 233.98 161.18H234.898V156.15C234.898 155.558 234.684 155.063 234.254 154.666C233.831 154.269 233.238 154.07 232.477 154.07C231.878 154.07 231.367 154.217 230.943 154.51C230.637 154.718 230.133 155.21 229.43 155.984V161.18H230.357C230.553 161.18 230.693 161.219 230.777 161.297C230.862 161.368 230.904 161.466 230.904 161.59C230.904 161.707 230.862 161.805 230.777 161.883C230.693 161.961 230.553 162 230.357 162H227.682C227.486 162 227.346 161.961 227.262 161.883C227.177 161.805 227.135 161.707 227.135 161.59C227.135 161.466 227.177 161.368 227.262 161.297C227.346 161.219 227.486 161.18 227.682 161.18H228.609V150.574H227.506C227.311 150.574 227.171 150.535 227.086 150.457C227.001 150.379 226.959 150.278 226.959 150.154C226.959 150.037 227.001 149.939 227.086 149.861C227.171 149.783 227.311 149.744 227.506 149.744H229.43ZM246.852 154.08C246.852 153.891 246.891 153.755 246.969 153.67C247.047 153.585 247.145 153.543 247.262 153.543C247.385 153.543 247.486 153.585 247.564 153.67C247.643 153.755 247.682 153.898 247.682 154.1V155.506C247.682 155.701 247.643 155.841 247.564 155.926C247.486 156.01 247.385 156.053 247.262 156.053C247.151 156.053 247.057 156.017 246.979 155.945C246.907 155.874 246.865 155.757 246.852 155.594C246.812 155.203 246.611 154.881 246.246 154.627C245.712 154.262 245.006 154.08 244.127 154.08C243.209 154.08 242.496 154.266 241.988 154.637C241.604 154.917 241.412 155.229 241.412 155.574C241.412 155.965 241.64 156.29 242.096 156.551C242.408 156.733 243.001 156.873 243.873 156.971C245.012 157.094 245.803 157.234 246.246 157.391C246.878 157.618 247.346 157.934 247.652 158.338C247.965 158.742 248.121 159.178 248.121 159.646C248.121 160.343 247.786 160.965 247.115 161.512C246.445 162.052 245.462 162.322 244.166 162.322C242.87 162.322 241.809 161.993 240.982 161.336C240.982 161.557 240.969 161.701 240.943 161.766C240.917 161.831 240.868 161.886 240.797 161.932C240.732 161.977 240.657 162 240.572 162C240.455 162 240.357 161.958 240.279 161.873C240.201 161.788 240.162 161.648 240.162 161.453V159.764C240.162 159.568 240.198 159.428 240.27 159.344C240.348 159.259 240.449 159.217 240.572 159.217C240.689 159.217 240.787 159.259 240.865 159.344C240.95 159.422 240.992 159.529 240.992 159.666C240.992 159.965 241.067 160.216 241.217 160.418C241.445 160.73 241.806 160.991 242.301 161.199C242.802 161.401 243.414 161.502 244.137 161.502C245.204 161.502 245.999 161.303 246.52 160.906C247.04 160.509 247.301 160.089 247.301 159.646C247.301 159.139 247.037 158.732 246.51 158.426C245.976 158.12 245.198 157.915 244.176 157.811C243.16 157.706 242.431 157.57 241.988 157.4C241.546 157.231 241.201 156.977 240.953 156.639C240.706 156.3 240.582 155.936 240.582 155.545C240.582 154.842 240.927 154.285 241.617 153.875C242.307 153.458 243.131 153.25 244.088 153.25C245.221 153.25 246.142 153.527 246.852 154.08ZM260.172 162H259.117L253.072 151.775V161.18H254.586C254.788 161.18 254.931 161.219 255.016 161.297C255.1 161.368 255.143 161.466 255.143 161.59C255.143 161.707 255.1 161.805 255.016 161.883C254.931 161.961 254.788 162 254.586 162H251.568C251.367 162 251.223 161.961 251.139 161.883C251.054 161.805 251.012 161.707 251.012 161.59C251.012 161.466 251.054 161.368 251.139 161.297C251.223 161.219 251.367 161.18 251.568 161.18H252.252V151.395H251.148C250.953 151.395 250.813 151.359 250.729 151.287C250.644 151.209 250.602 151.108 250.602 150.984C250.602 150.861 250.644 150.763 250.729 150.691C250.813 150.613 250.953 150.574 251.148 150.574H253.297L259.352 160.818V151.395H257.838C257.643 151.395 257.503 151.359 257.418 151.287C257.333 151.209 257.291 151.108 257.291 150.984C257.291 150.861 257.33 150.763 257.408 150.691C257.493 150.613 257.636 150.574 257.838 150.574H260.865C261.061 150.574 261.201 150.613 261.285 150.691C261.37 150.763 261.412 150.861 261.412 150.984C261.412 151.108 261.37 151.209 261.285 151.287C261.201 151.359 261.061 151.395 260.865 151.395H260.172V162ZM270.973 162V160.799C269.853 161.814 268.642 162.322 267.34 162.322C266.539 162.322 265.93 162.104 265.514 161.668C264.973 161.095 264.703 160.428 264.703 159.666V154.373H263.6C263.404 154.373 263.264 154.334 263.18 154.256C263.095 154.178 263.053 154.077 263.053 153.953C263.053 153.836 263.095 153.738 263.18 153.66C263.264 153.582 263.404 153.543 263.6 153.543H265.523V159.666C265.523 160.2 265.693 160.639 266.031 160.984C266.37 161.329 266.793 161.502 267.301 161.502C268.635 161.502 269.859 160.89 270.973 159.666V154.373H269.459C269.264 154.373 269.124 154.334 269.039 154.256C268.954 154.178 268.912 154.077 268.912 153.953C268.912 153.836 268.954 153.738 269.039 153.66C269.124 153.582 269.264 153.543 269.459 153.543H271.793V161.18H272.486C272.682 161.18 272.822 161.219 272.906 161.297C272.991 161.368 273.033 161.466 273.033 161.59C273.033 161.707 272.991 161.805 272.906 161.883C272.822 161.961 272.682 162 272.486 162H270.973ZM276.441 153.543V154.373C277.138 153.624 277.838 153.25 278.541 153.25C278.964 153.25 279.335 153.364 279.654 153.592C279.973 153.813 280.24 154.152 280.455 154.607C280.82 154.152 281.188 153.813 281.559 153.592C281.936 153.364 282.314 153.25 282.691 153.25C283.284 153.25 283.756 153.442 284.107 153.826C284.57 154.321 284.801 154.861 284.801 155.447V161.18H285.494C285.689 161.18 285.829 161.219 285.914 161.297C285.999 161.368 286.041 161.466 286.041 161.59C286.041 161.707 285.999 161.805 285.914 161.883C285.829 161.961 285.689 162 285.494 162H283.98V155.525C283.98 155.109 283.854 154.764 283.6 154.49C283.346 154.217 283.053 154.08 282.721 154.08C282.421 154.08 282.105 154.194 281.773 154.422C281.441 154.643 281.064 155.083 280.641 155.74V161.18H281.324C281.52 161.18 281.66 161.219 281.744 161.297C281.829 161.368 281.871 161.466 281.871 161.59C281.871 161.707 281.829 161.805 281.744 161.883C281.66 161.961 281.52 162 281.324 162H279.811V155.584C279.811 155.148 279.68 154.79 279.42 154.51C279.166 154.223 278.88 154.08 278.561 154.08C278.268 154.08 277.978 154.174 277.691 154.363C277.294 154.63 276.878 155.089 276.441 155.74V161.18H277.135C277.33 161.18 277.47 161.219 277.555 161.297C277.639 161.368 277.682 161.466 277.682 161.59C277.682 161.707 277.639 161.805 277.555 161.883C277.47 161.961 277.33 162 277.135 162H274.928C274.732 162 274.592 161.961 274.508 161.883C274.423 161.805 274.381 161.707 274.381 161.59C274.381 161.466 274.423 161.368 274.508 161.297C274.592 161.219 274.732 161.18 274.928 161.18H275.621V154.373H274.928C274.732 154.373 274.592 154.334 274.508 154.256C274.423 154.178 274.381 154.077 274.381 153.953C274.381 153.836 274.423 153.738 274.508 153.66C274.592 153.582 274.732 153.543 274.928 153.543H276.441ZM289.098 149.744V155.184C290.087 153.895 291.282 153.25 292.682 153.25C293.88 153.25 294.905 153.686 295.758 154.559C296.611 155.424 297.037 156.489 297.037 157.752C297.037 159.028 296.604 160.109 295.738 160.994C294.879 161.88 293.86 162.322 292.682 162.322C291.249 162.322 290.055 161.678 289.098 160.389V162H287.174C286.979 162 286.839 161.961 286.754 161.883C286.669 161.805 286.627 161.707 286.627 161.59C286.627 161.466 286.669 161.368 286.754 161.297C286.839 161.219 286.979 161.18 287.174 161.18H288.277V150.574H287.174C286.979 150.574 286.839 150.535 286.754 150.457C286.669 150.379 286.627 150.278 286.627 150.154C286.627 150.037 286.669 149.939 286.754 149.861C286.839 149.783 286.979 149.744 287.174 149.744H289.098ZM296.217 157.791C296.217 156.756 295.862 155.88 295.152 155.164C294.443 154.441 293.613 154.08 292.662 154.08C291.712 154.08 290.882 154.441 290.172 155.164C289.462 155.88 289.107 156.756 289.107 157.791C289.107 158.826 289.462 159.705 290.172 160.428C290.882 161.144 291.712 161.502 292.662 161.502C293.613 161.502 294.443 161.144 295.152 160.428C295.862 159.705 296.217 158.826 296.217 157.791ZM308.639 157.967H300.279C300.423 159.028 300.865 159.884 301.607 160.535C302.356 161.18 303.281 161.502 304.381 161.502C304.993 161.502 305.634 161.401 306.305 161.199C306.975 160.997 307.522 160.73 307.945 160.398C308.069 160.301 308.176 160.252 308.268 160.252C308.372 160.252 308.463 160.294 308.541 160.379C308.619 160.457 308.658 160.551 308.658 160.662C308.658 160.773 308.606 160.88 308.502 160.984C308.189 161.31 307.633 161.616 306.832 161.902C306.038 162.182 305.221 162.322 304.381 162.322C302.975 162.322 301.799 161.863 300.855 160.945C299.918 160.021 299.449 158.904 299.449 157.596C299.449 156.404 299.889 155.382 300.768 154.529C301.653 153.676 302.747 153.25 304.049 153.25C305.39 153.25 306.493 153.689 307.359 154.568C308.225 155.441 308.652 156.574 308.639 157.967ZM307.809 157.137C307.646 156.232 307.216 155.496 306.52 154.93C305.829 154.363 305.006 154.08 304.049 154.08C303.092 154.08 302.268 154.36 301.578 154.92C300.888 155.48 300.458 156.219 300.289 157.137H307.809ZM315.23 153.543V155.613C316.298 154.65 317.096 154.031 317.623 153.758C318.157 153.478 318.648 153.338 319.098 153.338C319.586 153.338 320.038 153.504 320.455 153.836C320.878 154.161 321.09 154.409 321.09 154.578C321.09 154.702 321.048 154.806 320.963 154.891C320.885 154.969 320.784 155.008 320.66 155.008C320.595 155.008 320.54 154.998 320.494 154.979C320.449 154.952 320.364 154.878 320.24 154.754C320.012 154.526 319.814 154.37 319.645 154.285C319.475 154.201 319.309 154.158 319.146 154.158C318.788 154.158 318.355 154.301 317.848 154.588C317.346 154.874 316.474 155.574 315.23 156.688V161.18H318.863C319.065 161.18 319.208 161.219 319.293 161.297C319.378 161.368 319.42 161.466 319.42 161.59C319.42 161.707 319.378 161.805 319.293 161.883C319.208 161.961 319.065 162 318.863 162H312.428C312.232 162 312.092 161.964 312.008 161.893C311.923 161.814 311.881 161.717 311.881 161.6C311.881 161.489 311.92 161.398 311.998 161.326C312.083 161.248 312.226 161.209 312.428 161.209H314.41V154.373H312.896C312.701 154.373 312.561 154.334 312.477 154.256C312.392 154.178 312.35 154.077 312.35 153.953C312.35 153.836 312.389 153.738 312.467 153.66C312.551 153.582 312.695 153.543 312.896 153.543H315.23ZM324.82 149.949H327.418L326.734 154.695C326.695 154.943 326.624 155.118 326.52 155.223C326.415 155.32 326.282 155.369 326.119 155.369C325.956 155.369 325.823 155.32 325.719 155.223C325.615 155.118 325.543 154.943 325.504 154.695L324.82 149.949ZM329.01 149.949H331.607L330.924 154.695C330.885 154.943 330.813 155.118 330.709 155.223C330.605 155.32 330.475 155.369 330.318 155.369C330.149 155.369 330.012 155.32 329.908 155.223C329.804 155.118 329.736 154.943 329.703 154.695L329.01 149.949ZM340.064 153.543H340.416C340.781 153.543 341.093 153.673 341.354 153.934C341.614 154.194 341.744 154.503 341.744 154.861C341.744 155.245 341.611 155.564 341.344 155.818C341.083 156.072 340.774 156.199 340.416 156.199H340.064C339.7 156.199 339.387 156.069 339.127 155.809C338.867 155.548 338.736 155.239 338.736 154.881C338.736 154.497 338.867 154.178 339.127 153.924C339.394 153.67 339.706 153.543 340.064 153.543ZM340.064 159.646H340.416C340.781 159.646 341.093 159.777 341.354 160.037C341.614 160.291 341.744 160.6 341.744 160.965C341.744 161.342 341.611 161.658 341.344 161.912C341.083 162.166 340.774 162.293 340.416 162.293H340.064C339.7 162.293 339.387 162.166 339.127 161.912C338.867 161.652 338.736 161.339 338.736 160.975C338.736 160.597 338.867 160.281 339.127 160.027C339.394 159.773 339.706 159.646 340.064 159.646ZM184.566 191.137C184.234 190.889 184.013 190.655 183.902 190.434C183.753 190.147 183.678 189.802 183.678 189.398V185.883C183.678 185.518 183.57 185.215 183.355 184.975C183.141 184.734 182.874 184.6 182.555 184.574C182.346 184.555 182.213 184.516 182.154 184.457C182.07 184.372 182.027 184.271 182.027 184.154C182.027 184.037 182.066 183.939 182.145 183.861C182.229 183.783 182.353 183.744 182.516 183.744C183.036 183.744 183.466 183.91 183.805 184.242C184.267 184.685 184.498 185.232 184.498 185.883V189.398C184.498 189.757 184.605 190.059 184.82 190.307C185.042 190.548 185.318 190.681 185.65 190.707C185.826 190.727 185.95 190.772 186.021 190.844C186.1 190.915 186.139 191.013 186.139 191.137C186.139 191.267 186.1 191.368 186.021 191.439C185.95 191.511 185.826 191.557 185.65 191.576C185.312 191.602 185.035 191.739 184.82 191.986C184.605 192.227 184.498 192.527 184.498 192.885V196.4C184.498 197.012 184.303 197.52 183.912 197.924C183.521 198.334 183.056 198.539 182.516 198.539C182.353 198.539 182.229 198.5 182.145 198.422C182.066 198.344 182.027 198.243 182.027 198.119C182.027 198.002 182.066 197.904 182.145 197.826C182.21 197.768 182.346 197.729 182.555 197.709C182.88 197.676 183.147 197.536 183.355 197.289C183.57 197.048 183.678 196.749 183.678 196.391V192.885C183.678 192.475 183.743 192.143 183.873 191.889C184.003 191.635 184.234 191.384 184.566 191.137ZM194.469 193.051H197.135L194.234 198.441C194.059 198.767 193.847 198.93 193.6 198.93C193.437 198.93 193.297 198.871 193.18 198.754C193.069 198.643 193.014 198.507 193.014 198.344C193.014 198.279 193.023 198.207 193.043 198.129L194.469 193.051ZM99.5273 225.137C99.8529 225.384 100.074 225.618 100.191 225.84C100.341 226.133 100.416 226.481 100.416 226.885V230.391C100.416 230.762 100.523 231.064 100.738 231.299C100.953 231.54 101.22 231.676 101.539 231.709C101.741 231.729 101.874 231.768 101.939 231.826C102.024 231.904 102.066 232.002 102.066 232.119C102.066 232.243 102.024 232.34 101.939 232.412C101.855 232.49 101.731 232.529 101.568 232.529C101.054 232.529 100.624 232.367 100.279 232.041C99.8171 231.592 99.5859 231.045 99.5859 230.4V226.885C99.5859 226.527 99.4785 226.227 99.2637 225.986C99.0488 225.739 98.7754 225.602 98.4434 225.576C98.2611 225.557 98.1341 225.511 98.0625 225.439C97.9909 225.368 97.9551 225.267 97.9551 225.137C97.9551 225.013 97.9909 224.915 98.0625 224.844C98.1341 224.772 98.2611 224.727 98.4434 224.707C98.7819 224.681 99.0553 224.548 99.2637 224.307C99.4785 224.059 99.5859 223.757 99.5859 223.398V219.883C99.5859 219.271 99.7812 218.763 100.172 218.359C100.562 217.949 101.031 217.744 101.578 217.744C101.734 217.744 101.855 217.783 101.939 217.861C102.024 217.939 102.066 218.037 102.066 218.154C102.066 218.271 102.024 218.369 101.939 218.447C101.881 218.512 101.747 218.555 101.539 218.574C101.214 218.607 100.943 218.743 100.729 218.984C100.52 219.225 100.416 219.525 100.416 219.883V223.398C100.416 223.809 100.351 224.141 100.221 224.395C100.09 224.642 99.8594 224.889 99.5273 225.137Z"
      fill="white" />
    <path
      d="M33.4707 59.1797H39.7695V58.8574C39.7695 58.6621 39.8086 58.5221 39.8867 58.4375C39.9648 58.3529 40.0658 58.3105 40.1895 58.3105C40.3066 58.3105 40.4043 58.3529 40.4824 58.4375C40.5605 58.5221 40.5996 58.6621 40.5996 58.8574V60H32.6699V58.7891C34.3366 57.2917 35.9577 55.7682 37.5332 54.2188C38.2689 53.4961 38.7734 52.9655 39.0469 52.627C39.3203 52.2884 39.5059 51.9922 39.6035 51.7383C39.7077 51.4779 39.7598 51.2174 39.7598 50.957C39.7598 50.2539 39.4766 49.6322 38.9102 49.0918C38.3438 48.5514 37.6602 48.2812 36.8594 48.2812C36.1432 48.2812 35.5085 48.4863 34.9551 48.8965C34.4017 49.3066 34.0436 49.8145 33.8809 50.4199C33.8418 50.5762 33.793 50.6771 33.7344 50.7227C33.6562 50.7878 33.5651 50.8203 33.4609 50.8203C33.3503 50.8203 33.2559 50.7845 33.1777 50.7129C33.1061 50.6348 33.0703 50.5436 33.0703 50.4395C33.0703 50.127 33.2396 49.7038 33.5781 49.1699C33.9232 48.6361 34.3952 48.2161 34.9941 47.9102C35.5996 47.6042 36.2181 47.4512 36.8496 47.4512C37.8717 47.4512 38.7507 47.806 39.4863 48.5156C40.222 49.2253 40.5898 50.0293 40.5898 50.9277C40.5898 51.3053 40.528 51.6536 40.4043 51.9727C40.2806 52.2852 40.069 52.6302 39.7695 53.0078C39.4766 53.3789 38.946 53.9421 38.1777 54.6973C36.2507 56.5983 34.6816 58.0729 33.4707 59.1211V59.1797ZM52.7773 52.8613V54.8926C52.7773 56.6569 52.3574 58.0534 51.5176 59.082C50.86 59.8893 50.0299 60.293 49.0273 60.293C48.5456 60.293 48.0898 60.1953 47.6602 60C47.237 59.8112 46.8757 59.5443 46.5762 59.1992C46.3874 58.9844 46.179 58.6393 45.9512 58.1641C45.7298 57.6888 45.5703 57.2526 45.4727 56.8555C45.3229 56.2956 45.248 55.6413 45.248 54.8926V52.8613C45.248 51.0905 45.668 49.6908 46.5078 48.6621C47.1654 47.8548 47.9954 47.4512 48.998 47.4512C49.4863 47.4512 49.9421 47.5488 50.3652 47.7441C50.7884 47.9329 51.1497 48.1999 51.4492 48.5449C51.6445 48.7663 51.8529 49.1146 52.0742 49.5898C52.2956 50.0651 52.4583 50.498 52.5625 50.8887C52.7057 51.4486 52.7773 52.1061 52.7773 52.8613ZM51.957 52.9688C51.957 52.194 51.8464 51.4746 51.625 50.8105C51.4102 50.14 51.166 49.6061 50.8926 49.209C50.7298 48.9811 50.5182 48.7858 50.2578 48.623C49.8867 48.3952 49.4701 48.2812 49.0078 48.2812C48.0898 48.2812 47.3704 48.75 46.8496 49.6875C46.3288 50.625 46.0684 51.7188 46.0684 52.9688V54.7754C46.0684 55.5501 46.1758 56.2728 46.3906 56.9434C46.612 57.6139 46.8626 58.1478 47.1426 58.5449C47.2988 58.7663 47.5072 58.9583 47.7676 59.1211C48.1387 59.3555 48.5586 59.4727 49.0273 59.4727C49.9388 59.4727 50.6549 59.0039 51.1758 58.0664C51.6966 57.1224 51.957 56.0254 51.957 54.7754V52.9688ZM33.4707 93.1797H39.7695V92.8574C39.7695 92.6621 39.8086 92.5221 39.8867 92.4375C39.9648 92.3529 40.0658 92.3105 40.1895 92.3105C40.3066 92.3105 40.4043 92.3529 40.4824 92.4375C40.5605 92.5221 40.5996 92.6621 40.5996 92.8574V94H32.6699V92.7891C34.3366 91.2917 35.9577 89.7682 37.5332 88.2188C38.2689 87.4961 38.7734 86.9655 39.0469 86.627C39.3203 86.2884 39.5059 85.9922 39.6035 85.7383C39.7077 85.4779 39.7598 85.2174 39.7598 84.957C39.7598 84.2539 39.4766 83.6322 38.9102 83.0918C38.3438 82.5514 37.6602 82.2812 36.8594 82.2812C36.1432 82.2812 35.5085 82.4863 34.9551 82.8965C34.4017 83.3066 34.0436 83.8145 33.8809 84.4199C33.8418 84.5762 33.793 84.6771 33.7344 84.7227C33.6562 84.7878 33.5651 84.8203 33.4609 84.8203C33.3503 84.8203 33.2559 84.7845 33.1777 84.7129C33.1061 84.6348 33.0703 84.5436 33.0703 84.4395C33.0703 84.127 33.2396 83.7038 33.5781 83.1699C33.9232 82.6361 34.3952 82.2161 34.9941 81.9102C35.5996 81.6042 36.2181 81.4512 36.8496 81.4512C37.8717 81.4512 38.7507 81.806 39.4863 82.5156C40.222 83.2253 40.5898 84.0293 40.5898 84.9277C40.5898 85.3053 40.528 85.6536 40.4043 85.9727C40.2806 86.2852 40.069 86.6302 39.7695 87.0078C39.4766 87.3789 38.946 87.9421 38.1777 88.6973C36.2507 90.5983 34.6816 92.0729 33.4707 93.1211V93.1797ZM49.418 81.5781V93.1797H52.2305C52.4258 93.1797 52.5658 93.2188 52.6504 93.2969C52.735 93.3685 52.7773 93.4661 52.7773 93.5898C52.7773 93.707 52.735 93.8047 52.6504 93.8828C52.5658 93.9609 52.4258 94 52.2305 94H45.7852C45.5898 94 45.4499 93.9609 45.3652 93.8828C45.2806 93.8047 45.2383 93.707 45.2383 93.5898C45.2383 93.4661 45.2806 93.3685 45.3652 93.2969C45.4499 93.2188 45.5898 93.1797 45.7852 93.1797H48.5977V82.7109L45.9219 83.5508C45.7917 83.5898 45.6973 83.6094 45.6387 83.6094C45.541 83.6094 45.4499 83.5703 45.3652 83.4922C45.2871 83.4076 45.248 83.3099 45.248 83.1992C45.248 83.1016 45.2806 83.0104 45.3457 82.9258C45.3978 82.8737 45.5052 82.8184 45.668 82.7598L49.418 81.5781ZM33.4707 127.18H39.7695V126.857C39.7695 126.662 39.8086 126.522 39.8867 126.438C39.9648 126.353 40.0658 126.311 40.1895 126.311C40.3066 126.311 40.4043 126.353 40.4824 126.438C40.5605 126.522 40.5996 126.662 40.5996 126.857V128H32.6699V126.789C34.3366 125.292 35.9577 123.768 37.5332 122.219C38.2689 121.496 38.7734 120.965 39.0469 120.627C39.3203 120.288 39.5059 119.992 39.6035 119.738C39.7077 119.478 39.7598 119.217 39.7598 118.957C39.7598 118.254 39.4766 117.632 38.9102 117.092C38.3438 116.551 37.6602 116.281 36.8594 116.281C36.1432 116.281 35.5085 116.486 34.9551 116.896C34.4017 117.307 34.0436 117.814 33.8809 118.42C33.8418 118.576 33.793 118.677 33.7344 118.723C33.6562 118.788 33.5651 118.82 33.4609 118.82C33.3503 118.82 33.2559 118.785 33.1777 118.713C33.1061 118.635 33.0703 118.544 33.0703 118.439C33.0703 118.127 33.2396 117.704 33.5781 117.17C33.9232 116.636 34.3952 116.216 34.9941 115.91C35.5996 115.604 36.2181 115.451 36.8496 115.451C37.8717 115.451 38.7507 115.806 39.4863 116.516C40.222 117.225 40.5898 118.029 40.5898 118.928C40.5898 119.305 40.528 119.654 40.4043 119.973C40.2806 120.285 40.069 120.63 39.7695 121.008C39.4766 121.379 38.946 121.942 38.1777 122.697C36.2507 124.598 34.6816 126.073 33.4707 127.121V127.18ZM45.4824 127.18H51.7812V126.857C51.7812 126.662 51.8203 126.522 51.8984 126.438C51.9766 126.353 52.0775 126.311 52.2012 126.311C52.3184 126.311 52.416 126.353 52.4941 126.438C52.5723 126.522 52.6113 126.662 52.6113 126.857V128H44.6816V126.789C46.3483 125.292 47.9694 123.768 49.5449 122.219C50.2806 121.496 50.7852 120.965 51.0586 120.627C51.332 120.288 51.5176 119.992 51.6152 119.738C51.7194 119.478 51.7715 119.217 51.7715 118.957C51.7715 118.254 51.4883 117.632 50.9219 117.092C50.3555 116.551 49.6719 116.281 48.8711 116.281C48.1549 116.281 47.5202 116.486 46.9668 116.896C46.4134 117.307 46.0553 117.814 45.8926 118.42C45.8535 118.576 45.8047 118.677 45.7461 118.723C45.668 118.788 45.5768 118.82 45.4727 118.82C45.362 118.82 45.2676 118.785 45.1895 118.713C45.1178 118.635 45.082 118.544 45.082 118.439C45.082 118.127 45.2513 117.704 45.5898 117.17C45.9349 116.636 46.4069 116.216 47.0059 115.91C47.6113 115.604 48.2298 115.451 48.8613 115.451C49.8835 115.451 50.7624 115.806 51.498 116.516C52.2337 117.225 52.6016 118.029 52.6016 118.928C52.6016 119.305 52.5397 119.654 52.416 119.973C52.2923 120.285 52.0807 120.63 51.7812 121.008C51.4883 121.379 50.9577 121.942 50.1895 122.697C48.2624 124.598 46.6934 126.073 45.4824 127.121V127.18ZM33.4707 161.18H39.7695V160.857C39.7695 160.662 39.8086 160.522 39.8867 160.438C39.9648 160.353 40.0658 160.311 40.1895 160.311C40.3066 160.311 40.4043 160.353 40.4824 160.438C40.5605 160.522 40.5996 160.662 40.5996 160.857V162H32.6699V160.789C34.3366 159.292 35.9577 157.768 37.5332 156.219C38.2689 155.496 38.7734 154.965 39.0469 154.627C39.3203 154.288 39.5059 153.992 39.6035 153.738C39.7077 153.478 39.7598 153.217 39.7598 152.957C39.7598 152.254 39.4766 151.632 38.9102 151.092C38.3438 150.551 37.6602 150.281 36.8594 150.281C36.1432 150.281 35.5085 150.486 34.9551 150.896C34.4017 151.307 34.0436 151.814 33.8809 152.42C33.8418 152.576 33.793 152.677 33.7344 152.723C33.6562 152.788 33.5651 152.82 33.4609 152.82C33.3503 152.82 33.2559 152.785 33.1777 152.713C33.1061 152.635 33.0703 152.544 33.0703 152.439C33.0703 152.127 33.2396 151.704 33.5781 151.17C33.9232 150.636 34.3952 150.216 34.9941 149.91C35.5996 149.604 36.2181 149.451 36.8496 149.451C37.8717 149.451 38.7507 149.806 39.4863 150.516C40.222 151.225 40.5898 152.029 40.5898 152.928C40.5898 153.305 40.528 153.654 40.4043 153.973C40.2806 154.285 40.069 154.63 39.7695 155.008C39.4766 155.379 38.946 155.942 38.1777 156.697C36.2507 158.598 34.6816 160.073 33.4707 161.121V161.18ZM50.6973 155.33C51.4525 155.669 52.0286 156.134 52.4258 156.727C52.8229 157.312 53.0215 157.924 53.0215 158.562C53.0215 159.546 52.6211 160.415 51.8203 161.17C51.026 161.919 50.0299 162.293 48.832 162.293C48.1289 162.293 47.3997 162.143 46.6445 161.844C45.8893 161.544 45.362 161.238 45.0625 160.926C44.9648 160.822 44.916 160.711 44.916 160.594C44.916 160.49 44.9518 160.398 45.0234 160.32C45.1016 160.242 45.1927 160.203 45.2969 160.203C45.401 160.203 45.5182 160.252 45.6484 160.35C46.6576 161.098 47.7253 161.473 48.8516 161.473C49.8021 161.473 50.5964 161.176 51.2344 160.584C51.8789 159.985 52.2012 159.321 52.2012 158.592C52.2012 158.104 52.0417 157.625 51.7227 157.156C51.4102 156.688 50.9577 156.32 50.3652 156.053C49.7728 155.779 49.1738 155.643 48.5684 155.643C48.373 155.643 48.2331 155.607 48.1484 155.535C48.0638 155.457 48.0215 155.356 48.0215 155.232C48.0215 155.115 48.0605 155.018 48.1387 154.939C48.2233 154.861 48.347 154.822 48.5098 154.822L49.2129 154.832C49.9486 154.832 50.554 154.607 51.0293 154.158C51.5111 153.709 51.752 153.188 51.752 152.596C51.752 151.984 51.5013 151.443 51 150.975C50.4987 150.506 49.8444 150.271 49.0371 150.271C48.4707 150.271 47.9499 150.369 47.4746 150.564C46.9993 150.76 46.6185 151.027 46.332 151.365C46.2279 151.495 46.1465 151.577 46.0879 151.609C46.0358 151.635 45.974 151.648 45.9023 151.648C45.7917 151.648 45.6973 151.613 45.6191 151.541C45.541 151.463 45.502 151.372 45.502 151.268C45.502 151.007 45.7852 150.678 46.3516 150.281C47.1393 149.728 48.0345 149.451 49.0371 149.451C50.0723 149.451 50.9219 149.764 51.5859 150.389C52.25 151.007 52.582 151.746 52.582 152.605C52.582 153.152 52.4225 153.67 52.1035 154.158C51.7845 154.646 51.3158 155.037 50.6973 155.33ZM33.4707 195.18H39.7695V194.857C39.7695 194.662 39.8086 194.522 39.8867 194.438C39.9648 194.353 40.0658 194.311 40.1895 194.311C40.3066 194.311 40.4043 194.353 40.4824 194.438C40.5605 194.522 40.5996 194.662 40.5996 194.857V196H32.6699V194.789C34.3366 193.292 35.9577 191.768 37.5332 190.219C38.2689 189.496 38.7734 188.965 39.0469 188.627C39.3203 188.288 39.5059 187.992 39.6035 187.738C39.7077 187.478 39.7598 187.217 39.7598 186.957C39.7598 186.254 39.4766 185.632 38.9102 185.092C38.3438 184.551 37.6602 184.281 36.8594 184.281C36.1432 184.281 35.5085 184.486 34.9551 184.896C34.4017 185.307 34.0436 185.814 33.8809 186.42C33.8418 186.576 33.793 186.677 33.7344 186.723C33.6562 186.788 33.5651 186.82 33.4609 186.82C33.3503 186.82 33.2559 186.785 33.1777 186.713C33.1061 186.635 33.0703 186.544 33.0703 186.439C33.0703 186.127 33.2396 185.704 33.5781 185.17C33.9232 184.636 34.3952 184.216 34.9941 183.91C35.5996 183.604 36.2181 183.451 36.8496 183.451C37.8717 183.451 38.7507 183.806 39.4863 184.516C40.222 185.225 40.5898 186.029 40.5898 186.928C40.5898 187.305 40.528 187.654 40.4043 187.973C40.2806 188.285 40.069 188.63 39.7695 189.008C39.4766 189.379 38.946 189.942 38.1777 190.697C36.2507 192.598 34.6816 194.073 33.4707 195.121V195.18ZM50.541 192.572H45.1016V191.625L49.6621 183.744H51.3711V191.752H52.0547C52.2565 191.752 52.3997 191.791 52.4844 191.869C52.569 191.941 52.6113 192.038 52.6113 192.162C52.6113 192.279 52.569 192.377 52.4844 192.455C52.3997 192.533 52.2565 192.572 52.0547 192.572H51.3711V195.18H52.0547C52.2565 195.18 52.3997 195.219 52.4844 195.297C52.569 195.368 52.6113 195.466 52.6113 195.59C52.6113 195.707 52.569 195.805 52.4844 195.883C52.3997 195.961 52.2565 196 52.0547 196H49.0078C48.806 196 48.6628 195.961 48.5781 195.883C48.4935 195.805 48.4512 195.707 48.4512 195.59C48.4512 195.466 48.4935 195.368 48.5781 195.297C48.6628 195.219 48.806 195.18 49.0078 195.18H50.541V192.572ZM50.541 191.752V184.574H50.1113L45.9609 191.752H50.541ZM33.4707 229.18H39.7695V228.857C39.7695 228.662 39.8086 228.522 39.8867 228.438C39.9648 228.353 40.0658 228.311 40.1895 228.311C40.3066 228.311 40.4043 228.353 40.4824 228.438C40.5605 228.522 40.5996 228.662 40.5996 228.857V230H32.6699V228.789C34.3366 227.292 35.9577 225.768 37.5332 224.219C38.2689 223.496 38.7734 222.965 39.0469 222.627C39.3203 222.288 39.5059 221.992 39.6035 221.738C39.7077 221.478 39.7598 221.217 39.7598 220.957C39.7598 220.254 39.4766 219.632 38.9102 219.092C38.3438 218.551 37.6602 218.281 36.8594 218.281C36.1432 218.281 35.5085 218.486 34.9551 218.896C34.4017 219.307 34.0436 219.814 33.8809 220.42C33.8418 220.576 33.793 220.677 33.7344 220.723C33.6562 220.788 33.5651 220.82 33.4609 220.82C33.3503 220.82 33.2559 220.785 33.1777 220.713C33.1061 220.635 33.0703 220.544 33.0703 220.439C33.0703 220.127 33.2396 219.704 33.5781 219.17C33.9232 218.636 34.3952 218.216 34.9941 217.91C35.5996 217.604 36.2181 217.451 36.8496 217.451C37.8717 217.451 38.7507 217.806 39.4863 218.516C40.222 219.225 40.5898 220.029 40.5898 220.928C40.5898 221.305 40.528 221.654 40.4043 221.973C40.2806 222.285 40.069 222.63 39.7695 223.008C39.4766 223.379 38.946 223.942 38.1777 224.697C36.2507 226.598 34.6816 228.073 33.4707 229.121V229.18ZM46.752 218.574V222.588C47.2337 222.386 47.696 222.236 48.1387 222.139C48.5814 222.035 49.0013 221.982 49.3984 221.982C50.4271 221.982 51.2865 222.344 51.9766 223.066C52.6732 223.789 53.0215 224.74 53.0215 225.918C53.0215 227.22 52.6309 228.275 51.8496 229.082C51.0684 229.889 50.0918 230.293 48.9199 230.293C48.1452 230.293 47.3997 230.12 46.6836 229.775C46.1758 229.535 45.7135 229.235 45.2969 228.877C45.0495 228.662 44.9258 228.483 44.9258 228.34C44.9258 228.223 44.9648 228.125 45.043 228.047C45.1211 227.962 45.2122 227.92 45.3164 227.92C45.4271 227.92 45.5443 227.979 45.668 228.096C46.651 229.014 47.722 229.473 48.8809 229.473C49.8379 229.473 50.6289 229.147 51.2539 228.496C51.8789 227.839 52.1914 226.966 52.1914 225.879C52.1914 224.954 51.9212 224.212 51.3809 223.652C50.8405 223.086 50.1536 222.803 49.3203 222.803C48.4674 222.803 47.6146 223.027 46.7617 223.477C46.5534 223.581 46.4069 223.633 46.3223 223.633C46.2051 223.633 46.1107 223.594 46.0391 223.516C45.9674 223.438 45.9316 223.327 45.9316 223.184V217.744H51.6543C51.8496 217.744 51.9896 217.783 52.0742 217.861C52.1589 217.939 52.2012 218.04 52.2012 218.164C52.2012 218.281 52.1589 218.379 52.0742 218.457C51.9896 218.535 51.8496 218.574 51.6543 218.574H46.752Z"
      fill="#F0F4F5" />
  </g>
  <defs>
    <filter id="filter0_d_1760_2412" x="2" y="6" width="386" height="257"
      filterUnits="userSpaceOnUse" color-interpolation-filters="sRGB">
      <feFlood flood-opacity="0" result="BackgroundImageFix" />
      <feColorMatrix in="SourceAlpha" type="matrix"
        values="0 0 0 0 0 0 0 0 0 0 0 0 0 0 0 0 0 0 127 0" result="hardAlpha" />
      <feOffset dy="4" />
      <feGaussianBlur stdDeviation="2" />
      <feComposite in2="hardAlpha" operator="out" />
      <feColorMatrix type="matrix" values="0 0 0 0 0 0 0 0 0 0 0 0 0 0 0 0 0 0 0.25 0" />
      <feBlend mode="normal" in2="BackgroundImageFix" result="effect1_dropShadow_1760_2412" />
      <feBlend mode="normal" in="SourceGraphic" in2="effect1_dropShadow_1760_2412" result="shape" />
    </filter>
  </defs>
</svg>
