<svg width="464" height="287" viewBox="0 0 464 287" fill="none" xmlns="http://www.w3.org/2000/svg">
<rect x="97.5" y="254.5" width="222" height="110" rx="13.5" transform="rotate(-90 97.5 254.5)" fill="#95BEE5" stroke="white" stroke-width="5"/>
<path d="M131 43C127.134 43 124 39.866 124 36L124 30L181 30L181 36C181 39.866 177.866 43 174 43L131 43Z" fill="white"/>
<mask id="path-3-inside-1_1761_2557" fill="white">
<path fill-rule="evenodd" clip-rule="evenodd" d="M405.894 106.34L375.555 106.34V75.9995L275 75.9995L275 268.439H405.894L405.894 106.34Z"/>
</mask>
<path fill-rule="evenodd" clip-rule="evenodd" d="M405.894 106.34L375.555 106.34V75.9995L275 75.9995L275 268.439H405.894L405.894 106.34Z" fill="white"/>
<path d="M375.555 106.34H374.555V107.34H375.555V106.34ZM405.894 106.34H406.894V105.34H405.894V106.34ZM375.555 75.9995H376.555V74.9995H375.555V75.9995ZM275 75.9995L275 74.9995H274V75.9995L275 75.9995ZM275 268.439H274L274 269.439H275V268.439ZM405.894 268.439V269.439H406.894V268.439H405.894ZM375.555 107.34L405.894 107.34V105.34L375.555 105.34V107.34ZM374.555 75.9995V106.34H376.555V75.9995H374.555ZM275 76.9995L375.555 76.9995V74.9995L275 74.9995L275 76.9995ZM276 268.439L276 75.9995L274 75.9995L274 268.439H276ZM405.894 267.439H275V269.439H405.894V267.439ZM404.894 106.34L404.894 268.439H406.894L406.894 106.34H404.894Z" fill="#005EB8" mask="url(#path-3-inside-1_1761_2557)"/>
<rect x="76.5" y="164.5" width="191" height="122" rx="4.5" fill="white" stroke="#005EB8"/>
<rect x="58.5" y="275.5" width="223" height="11" rx="2.5" fill="white" stroke="#005EB8"/>
<path d="M374.692 106.921L405.173 106.921L374.692 76.4394L374.692 106.921Z" fill="white" stroke="#005EB8" stroke-linejoin="round"/>
<path d="M83 171C83 170.448 83.4477 170 84 170H260C260.552 170 261 170.448 261 171V275H83V171Z" fill="#D8DDE0"/>
<rect width="154" height="20" transform="translate(95 180)" fill="#245EB2"/>
<path d="M106.82 193H102.128V184.624H106.82V185.68H103.328V188.128H106.508V189.184H103.328V191.944H106.82V193ZM117.4 193H116.272V189.328C116.272 188.296 115.924 187.648 115.18 187.648C114.1 187.648 113.572 188.656 113.572 189.928V193H112.444V189.328C112.444 188.332 112.12 187.648 111.352 187.648C110.284 187.648 109.744 188.644 109.744 189.916V193H108.616V186.88H109.672V187.768H109.696C110.14 187.048 110.74 186.736 111.64 186.736C112.408 186.736 113.08 187.156 113.38 187.924C113.728 187.192 114.544 186.736 115.288 186.736C116.668 186.736 117.4 187.564 117.4 189.076V193ZM124.104 193H123.048V192.208H123.024C122.592 192.808 121.92 193.144 121.116 193.144C119.7 193.144 118.884 192.472 118.884 191.236C118.884 189.94 120.12 189.22 121.812 189.22C122.292 189.22 122.676 189.232 122.928 189.244C122.928 188.128 122.484 187.648 121.416 187.648C120.804 187.648 120.132 187.864 119.64 188.272L119.58 187.312C120.144 186.976 120.816 186.736 121.596 186.736C123.288 186.736 124.056 187.54 124.056 189.256V191.944C124.056 192.316 124.068 192.712 124.104 193ZM122.928 190.624V190.084C122.928 190.084 122.424 190.06 122.196 190.06C120.924 190.06 120.084 190.444 120.084 191.236C120.084 191.824 120.624 192.232 121.236 192.232C122.292 192.232 122.928 191.572 122.928 190.624ZM127.304 185.512H126.032V184.24H127.304V185.512ZM127.232 193H126.104V186.88H127.232V193ZM130.572 193H129.444V184H130.572V193Z" fill="white"/>
<path d="M226.176 10H224.496V2.944H222.096V1.624H228.576V2.944H226.176V10ZM234.232 6.952C234.232 8.788 232.984 10.144 230.992 10.144C229 10.144 227.764 8.776 227.764 6.952C227.764 4.972 229.108 3.676 230.992 3.676C232.876 3.676 234.232 4.96 234.232 6.952ZM230.992 8.896C232.036 8.896 232.552 8.092 232.552 6.76C232.552 5.776 232.024 4.924 230.992 4.924C229.984 4.924 229.444 5.788 229.444 6.76C229.444 8.068 229.948 8.896 230.992 8.896ZM237.176 5.5H235.496V3.82H237.176V5.5ZM237.176 10H235.496V8.32H237.176V10ZM244.684 10.144C242.644 10.144 241.84 8.164 241.84 5.812C241.84 3.4 242.668 1.48 244.684 1.48C246.64 1.48 247.528 3.316 247.528 5.812C247.528 8.008 246.808 10.144 244.684 10.144ZM244.684 9.16C245.692 9.16 246.256 8.008 246.256 5.812C246.256 4.372 245.944 2.464 244.672 2.464C243.544 2.464 243.112 4.072 243.112 5.812C243.112 7.972 243.664 9.16 244.684 9.16ZM250.812 10H249.492L252.684 2.608H248.604V1.624H253.908V2.608L250.812 10ZM257.48 10H256.16L259.352 2.608H255.272V1.624H260.576V2.608L257.48 10ZM264.688 10.144C262.648 10.144 261.844 8.164 261.844 5.812C261.844 3.4 262.672 1.48 264.688 1.48C266.644 1.48 267.532 3.316 267.532 5.812C267.532 8.008 266.812 10.144 264.688 10.144ZM264.688 9.16C265.696 9.16 266.26 8.008 266.26 5.812C266.26 4.372 265.948 2.464 264.676 2.464C263.548 2.464 263.116 4.072 263.116 5.812C263.116 7.972 263.668 9.16 264.688 9.16ZM271.356 10.144C269.316 10.144 268.512 8.164 268.512 5.812C268.512 3.4 269.34 1.48 271.356 1.48C273.312 1.48 274.2 3.316 274.2 5.812C274.2 8.008 273.48 10.144 271.356 10.144ZM271.356 9.16C272.364 9.16 272.928 8.008 272.928 5.812C272.928 4.372 272.616 2.464 271.344 2.464C270.216 2.464 269.784 4.072 269.784 5.812C269.784 7.972 270.336 9.16 271.356 9.16ZM282.947 6.112L282.923 6.124C282.371 6.664 281.795 6.892 281.087 6.892C279.503 6.892 278.567 5.788 278.567 4.252C278.567 2.596 279.659 1.48 281.267 1.48C283.055 1.48 284.075 2.74 284.075 5.5C284.075 8.08 283.139 10.144 280.679 10.144C280.091 10.144 279.263 10.012 278.951 9.88L279.119 8.812C279.575 9.052 280.091 9.16 280.607 9.16C282.131 9.16 282.923 7.768 282.947 6.112ZM281.255 5.908C282.179 5.908 282.803 5.224 282.803 4.228C282.803 3.448 282.323 2.464 281.315 2.464C280.415 2.464 279.839 3.208 279.839 4.228C279.839 4.996 280.283 5.908 281.255 5.908ZM288.031 10.144C285.991 10.144 285.187 8.164 285.187 5.812C285.187 3.4 286.015 1.48 288.031 1.48C289.987 1.48 290.875 3.316 290.875 5.812C290.875 8.008 290.155 10.144 288.031 10.144ZM288.031 9.16C289.039 9.16 289.603 8.008 289.603 5.812C289.603 4.372 289.291 2.464 288.019 2.464C286.891 2.464 286.459 4.072 286.459 5.812C286.459 7.972 287.011 9.16 288.031 9.16ZM294.699 10.144C292.659 10.144 291.855 8.164 291.855 5.812C291.855 3.4 292.683 1.48 294.699 1.48C296.655 1.48 297.543 3.316 297.543 5.812C297.543 8.008 296.823 10.144 294.699 10.144ZM294.699 9.16C295.707 9.16 296.271 8.008 296.271 5.812C296.271 4.372 295.959 2.464 294.687 2.464C293.559 2.464 293.127 4.072 293.127 5.812C293.127 7.972 293.679 9.16 294.699 9.16ZM302.459 10H301.259V3.004L299.975 4.108L299.339 3.304L301.391 1.624H302.459V10ZM310.603 10H305.299V8.716C305.803 8.272 306.511 7.648 307.135 7.06C308.335 5.932 309.211 4.84 309.211 3.796C309.211 3.028 308.527 2.464 307.603 2.464C306.955 2.464 306.307 2.668 305.683 3.004L305.563 1.972C306.019 1.78 306.799 1.48 307.759 1.48C309.355 1.48 310.483 2.368 310.483 3.856C310.483 4.84 309.835 6.22 306.583 9.016H310.603V10ZM311.979 9.82L312.051 8.704C312.639 9.004 313.347 9.16 313.887 9.16C314.895 9.16 315.927 8.74 315.927 7.732C315.927 6.676 315.183 6.136 313.863 6.136H313.107V5.152H313.743C314.859 5.152 315.855 4.744 315.855 3.784C315.855 2.944 315.255 2.464 314.199 2.464C313.299 2.464 312.675 2.764 312.351 2.92L312.279 1.852C312.903 1.624 313.743 1.48 314.379 1.48C315.999 1.48 317.127 2.296 317.127 3.748C317.127 4.72 316.443 5.44 315.327 5.668V5.692C316.551 5.944 317.199 6.676 317.199 7.768C317.199 9.316 316.131 10.144 313.899 10.144C313.215 10.144 312.519 9.976 311.979 9.82Z" fill="white"/>
<rect x="96" y="199" width="152" height="68" fill="white" stroke="#005EB8" stroke-width="2"/>
<rect x="103" y="208" width="50" height="6" fill="#AEB7BD"/>
<rect x="103" y="219" width="88" height="6" fill="#AEB7BD"/>
<rect x="103" y="230" width="88" height="6" fill="#AEB7BD"/>
<rect x="103" y="241" width="79" height="6" fill="#AEB7BD"/>
<rect x="103" y="252" width="43" height="6" fill="#AEB7BD"/>
<rect x="292" y="163" width="50" height="6" fill="#AEB7BD"/>
<rect x="292" y="174" width="97" height="6" fill="#AEB7BD"/>
<rect x="292" y="185" width="97" height="6" fill="#AEB7BD"/>
<rect x="292" y="196" width="97" height="6" fill="#AEB7BD"/>
<rect x="292" y="96" width="43" height="6" fill="#AEB7BD"/>
<rect x="292" y="107" width="43" height="6" fill="#AEB7BD"/>
<rect x="292" y="118" width="33" height="6" fill="#AEB7BD"/>
<rect x="292" y="213" width="83" height="6" fill="#AEB7BD"/>
<rect x="292" y="224" width="83" height="6" fill="#AEB7BD"/>
<rect x="292" y="235" width="74" height="6" fill="#AEB7BD"/>
<rect x="292" y="249" width="43" height="6" fill="#AEB7BD"/>
<rect x="119" y="75" width="66" height="66" rx="10" fill="#005EB8"/>
<path d="M127.186 97.9453H176.814V117.797H127.186V97.9453Z" fill="white"/>
<path d="M132.025 99.8071H137.484L140.71 110.974H140.834L143.067 99.8071H147.162L143.688 115.936H138.352L135.003 104.77H134.878L132.645 115.936H128.551L132.025 99.8071ZM148.65 99.8071H153.117L151.876 105.887H156.839L158.204 99.8071H162.547L159.197 115.936H154.854L156.219 108.988H151.132L149.643 115.936H145.425L148.65 99.8071ZM173.961 103.405C173.093 103.033 171.976 102.661 170.363 102.661C168.626 102.661 167.261 102.909 167.261 104.274C167.261 106.507 173.589 105.763 173.589 110.601C173.589 115.068 169.495 116.185 165.648 116.185C164.035 116.185 162.05 115.812 160.685 115.316L161.678 111.966C162.547 112.462 164.284 112.835 165.648 112.835C167.013 112.835 169.122 112.587 169.122 110.974C169.122 108.368 162.795 109.361 162.795 104.77C162.795 100.552 166.393 99.3108 169.991 99.3108C171.976 99.3108 173.837 99.5589 174.954 100.055" fill="#005EB8"/>
<circle cx="181" cy="76" r="12" fill="#EA4F3D"/>
<path d="M181.305 82V72.2891H181.18L178.312 74.3672V72.8828L181.312 70.7266H182.711V82H181.305Z" fill="white"/>
<rect x="222" y="16" width="185" height="52" rx="14" fill="#D8DDE0"/>
<path d="M217.112 67.8621C222.312 68.6621 227.446 65.7987 229.112 63.9654C227.394 59.8689 238 49.9194 231 49.919C229.381 49.919 227.999 45.6789 222.112 48.8621C222.091 50.1489 222.112 54.6033 222.112 55.3617C222.112 65.8617 216.112 67.2588 217.112 67.8621Z" fill="#D8DDE0"/>
<path d="M158 279C156.343 279 155 277.657 155 276L188 276C188 277.657 186.657 279 185 279L158 279Z" fill="#005EB8" stroke="#005EB8" stroke-width="2"/>
</svg>
