<svg width="464" height="287" viewBox="0 0 464 287" fill="none" xmlns="http://www.w3.org/2000/svg">
<rect x="97.5" y="254.5" width="222" height="110" rx="13.5" transform="rotate(-90 97.5 254.5)" fill="#95BEE5" stroke="white" stroke-width="5"/>
<path d="M131 43C127.134 43 124 39.866 124 36L124 30L181 30L181 36C181 39.866 177.866 43 174 43L131 43Z" fill="white"/>
<mask id="path-3-inside-1_1761_2598" fill="white">
<path fill-rule="evenodd" clip-rule="evenodd" d="M405.894 106.34L375.555 106.34V75.9995L275 75.9995L275 268.439H405.894L405.894 106.34Z"/>
</mask>
<path fill-rule="evenodd" clip-rule="evenodd" d="M405.894 106.34L375.555 106.34V75.9995L275 75.9995L275 268.439H405.894L405.894 106.34Z" fill="white"/>
<path d="M375.555 106.34H374.555V107.34H375.555V106.34ZM405.894 106.34H406.894V105.34H405.894V106.34ZM375.555 75.9995H376.555V74.9995H375.555V75.9995ZM275 75.9995L275 74.9995H274V75.9995L275 75.9995ZM275 268.439H274L274 269.439H275V268.439ZM405.894 268.439V269.439H406.894V268.439H405.894ZM375.555 107.34L405.894 107.34V105.34L375.555 105.34V107.34ZM374.555 75.9995V106.34H376.555V75.9995H374.555ZM275 76.9995L375.555 76.9995V74.9995L275 74.9995L275 76.9995ZM276 268.439L276 75.9995L274 75.9995L274 268.439H276ZM405.894 267.439H275V269.439H405.894V267.439ZM404.894 106.34L404.894 268.439H406.894L406.894 106.34H404.894Z" fill="#005EB8" mask="url(#path-3-inside-1_1761_2598)"/>
<rect x="76.5" y="164.5" width="191" height="122" rx="4.5" fill="white" stroke="#005EB8"/>
<rect x="58.5" y="275.5" width="223" height="11" rx="2.5" fill="white" stroke="#005EB8"/>
<path d="M374.692 106.921L405.173 106.921L374.692 76.4394L374.692 106.921Z" fill="white" stroke="#005EB8" stroke-linejoin="round"/>
<path d="M83 171C83 170.448 83.4477 170 84 170H260C260.552 170 261 170.448 261 171V275H83V171Z" fill="#D8DDE0"/>
<rect width="154" height="20" transform="translate(95 180)" fill="#245EB2"/>
<path d="M106.82 193H102.128V184.624H106.82V185.68H103.328V188.128H106.508V189.184H103.328V191.944H106.82V193ZM117.4 193H116.272V189.328C116.272 188.296 115.924 187.648 115.18 187.648C114.1 187.648 113.572 188.656 113.572 189.928V193H112.444V189.328C112.444 188.332 112.12 187.648 111.352 187.648C110.284 187.648 109.744 188.644 109.744 189.916V193H108.616V186.88H109.672V187.768H109.696C110.14 187.048 110.74 186.736 111.64 186.736C112.408 186.736 113.08 187.156 113.38 187.924C113.728 187.192 114.544 186.736 115.288 186.736C116.668 186.736 117.4 187.564 117.4 189.076V193ZM124.104 193H123.048V192.208H123.024C122.592 192.808 121.92 193.144 121.116 193.144C119.7 193.144 118.884 192.472 118.884 191.236C118.884 189.94 120.12 189.22 121.812 189.22C122.292 189.22 122.676 189.232 122.928 189.244C122.928 188.128 122.484 187.648 121.416 187.648C120.804 187.648 120.132 187.864 119.64 188.272L119.58 187.312C120.144 186.976 120.816 186.736 121.596 186.736C123.288 186.736 124.056 187.54 124.056 189.256V191.944C124.056 192.316 124.068 192.712 124.104 193ZM122.928 190.624V190.084C122.928 190.084 122.424 190.06 122.196 190.06C120.924 190.06 120.084 190.444 120.084 191.236C120.084 191.824 120.624 192.232 121.236 192.232C122.292 192.232 122.928 191.572 122.928 190.624ZM127.304 185.512H126.032V184.24H127.304V185.512ZM127.232 193H126.104V186.88H127.232V193ZM130.572 193H129.444V184H130.572V193Z" fill="white"/>
<path d="M226.176 10H224.496V2.944H222.096V1.624H228.576V2.944H226.176V10ZM234.232 6.952C234.232 8.788 232.984 10.144 230.992 10.144C229 10.144 227.764 8.776 227.764 6.952C227.764 4.972 229.108 3.676 230.992 3.676C232.876 3.676 234.232 4.96 234.232 6.952ZM230.992 8.896C232.036 8.896 232.552 8.092 232.552 6.76C232.552 5.776 232.024 4.924 230.992 4.924C229.984 4.924 229.444 5.788 229.444 6.76C229.444 8.068 229.948 8.896 230.992 8.896ZM237.176 5.5H235.496V3.82H237.176V5.5ZM237.176 10H235.496V8.32H237.176V10ZM244.684 10.144C242.644 10.144 241.84 8.164 241.84 5.812C241.84 3.4 242.668 1.48 244.684 1.48C246.64 1.48 247.528 3.316 247.528 5.812C247.528 8.008 246.808 10.144 244.684 10.144ZM244.684 9.16C245.692 9.16 246.256 8.008 246.256 5.812C246.256 4.372 245.944 2.464 244.672 2.464C243.544 2.464 243.112 4.072 243.112 5.812C243.112 7.972 243.664 9.16 244.684 9.16ZM250.812 10H249.492L252.684 2.608H248.604V1.624H253.908V2.608L250.812 10ZM257.48 10H256.16L259.352 2.608H255.272V1.624H260.576V2.608L257.48 10ZM265.78 10H264.58V3.004L263.296 4.108L262.66 3.304L264.712 1.624H265.78V10ZM273.924 10H268.62V8.716C269.124 8.272 269.832 7.648 270.456 7.06C271.656 5.932 272.532 4.84 272.532 3.796C272.532 3.028 271.848 2.464 270.924 2.464C270.276 2.464 269.628 2.668 269.004 3.004L268.884 1.972C269.34 1.78 270.12 1.48 271.08 1.48C272.676 1.48 273.804 2.368 273.804 3.856C273.804 4.84 273.156 6.22 269.904 9.016H273.924V10ZM275.3 9.82L275.372 8.704C275.96 9.004 276.668 9.16 277.208 9.16C278.215 9.16 279.248 8.74 279.248 7.732C279.248 6.676 278.504 6.136 277.184 6.136H276.428V5.152H277.064C278.18 5.152 279.176 4.744 279.176 3.784C279.176 2.944 278.576 2.464 277.52 2.464C276.62 2.464 275.996 2.764 275.672 2.92L275.6 1.852C276.224 1.624 277.064 1.48 277.7 1.48C279.32 1.48 280.448 2.296 280.448 3.748C280.448 4.72 279.764 5.44 278.648 5.668V5.692C279.872 5.944 280.52 6.676 280.52 7.768C280.52 9.316 279.452 10.144 277.22 10.144C276.536 10.144 275.84 9.976 275.3 9.82ZM286.683 10H285.483V8.092H281.583V7.108L284.967 1.624H286.683V7.108H287.739V8.092H286.683V10ZM285.483 7.108V2.608H285.459L282.843 7.108H285.483ZM288.995 9.868L289.031 8.74C289.595 9.052 290.087 9.16 290.759 9.16C291.863 9.16 292.727 8.5 292.727 7.504C292.727 6.292 291.815 5.716 290.687 5.716C290.015 5.716 289.547 5.824 289.079 6.028L289.151 1.624H293.759V2.608H290.279L290.207 4.852C290.543 4.768 290.879 4.732 291.275 4.732C292.787 4.732 293.999 5.86 293.999 7.324C293.999 9.124 292.571 10.144 290.783 10.144C290.039 10.144 289.487 10.036 288.995 9.868ZM300.439 1.744L300.271 2.812C299.839 2.584 299.323 2.464 298.783 2.464C297.259 2.464 296.467 3.856 296.443 5.512L296.467 5.5C297.055 4.924 297.643 4.732 298.303 4.732C299.887 4.732 300.823 5.836 300.823 7.372C300.823 9.052 299.707 10.144 298.135 10.144C296.275 10.144 295.315 8.812 295.315 6.124C295.315 3.472 296.299 1.48 298.711 1.48C299.287 1.48 300.139 1.612 300.439 1.744ZM298.063 9.16C299.023 9.16 299.551 8.356 299.551 7.396C299.551 6.64 299.119 5.716 298.135 5.716C297.223 5.716 296.587 6.388 296.587 7.396C296.587 8.188 297.079 9.16 298.063 9.16ZM304.155 10H302.835L306.027 2.608H301.947V1.624H307.251V2.608L304.155 10ZM310.259 5.596V5.572C309.251 5.224 308.687 4.492 308.687 3.496C308.687 2.392 309.719 1.48 311.399 1.48C313.043 1.48 313.991 2.428 313.991 3.364C313.991 4.312 313.595 4.936 312.479 5.524C313.547 5.896 314.243 6.664 314.243 7.756C314.243 9.316 313.043 10.144 311.339 10.144C309.911 10.144 308.483 9.34 308.483 7.804C308.483 6.784 309.131 5.992 310.259 5.596ZM311.615 5.176C312.671 4.384 312.719 4 312.719 3.52C312.719 2.788 311.999 2.464 311.291 2.464C310.787 2.464 309.887 2.836 309.887 3.652C309.887 4.168 310.331 4.552 311.615 5.176ZM311.147 6.04L310.607 6.388C310.007 6.772 309.755 7.12 309.755 7.732C309.755 8.644 310.583 9.16 311.447 9.16C312.203 9.16 312.971 8.716 312.971 7.78C312.971 6.964 312.479 6.664 311.999 6.424C311.735 6.292 311.363 6.148 311.147 6.04Z" fill="white"/>
<rect x="96" y="199" width="152" height="68" fill="white" stroke="#005EB8" stroke-width="2"/>
<rect x="103" y="208" width="50" height="6" fill="#AEB7BD"/>
<rect x="103" y="219" width="88" height="6" fill="#AEB7BD"/>
<rect x="103" y="230" width="88" height="6" fill="#AEB7BD"/>
<rect x="103" y="241" width="79" height="6" fill="#AEB7BD"/>
<rect x="103" y="252" width="43" height="6" fill="#AEB7BD"/>
<rect x="292" y="163" width="50" height="6" fill="#AEB7BD"/>
<rect x="292" y="174" width="97" height="6" fill="#AEB7BD"/>
<rect x="292" y="185" width="97" height="6" fill="#AEB7BD"/>
<rect x="292" y="196" width="97" height="6" fill="#AEB7BD"/>
<rect x="292" y="96" width="43" height="6" fill="#AEB7BD"/>
<rect x="292" y="107" width="43" height="6" fill="#AEB7BD"/>
<rect x="292" y="118" width="33" height="6" fill="#AEB7BD"/>
<rect x="292" y="213" width="83" height="6" fill="#AEB7BD"/>
<rect x="292" y="224" width="83" height="6" fill="#AEB7BD"/>
<rect x="292" y="235" width="74" height="6" fill="#AEB7BD"/>
<rect x="292" y="249" width="43" height="6" fill="#AEB7BD"/>
<rect x="119" y="75" width="66" height="66" rx="10" fill="#005EB8"/>
<path d="M127.186 97.9453H176.814V117.797H127.186V97.9453Z" fill="white"/>
<path d="M132.025 99.8071H137.484L140.71 110.974H140.834L143.067 99.8071H147.161L143.687 115.936H138.352L135.002 104.77H134.878L132.645 115.936H128.551L132.025 99.8071ZM148.65 99.8071H153.117L151.876 105.887H156.839L158.204 99.8071H162.546L159.196 115.936H154.854L156.219 108.988H151.132L149.643 115.936H145.424L148.65 99.8071ZM173.961 103.405C173.092 103.033 171.976 102.661 170.363 102.661C168.626 102.661 167.261 102.909 167.261 104.274C167.261 106.507 173.589 105.763 173.589 110.601C173.589 115.068 169.494 116.185 165.648 116.185C164.035 116.185 162.05 115.812 160.685 115.316L161.678 111.966C162.546 112.462 164.283 112.835 165.648 112.835C167.013 112.835 169.122 112.587 169.122 110.974C169.122 108.368 162.794 109.361 162.794 104.77C162.794 100.552 166.393 99.3108 169.991 99.3108C171.976 99.3108 173.837 99.5589 174.954 100.055" fill="#005EB8"/>
<circle cx="181" cy="76" r="12" fill="#EA4F3D"/>
<path d="M181.305 82V72.2891H181.18L178.312 74.3672V72.8828L181.312 70.7266H182.711V82H181.305Z" fill="white"/>
<rect x="222" y="16" width="185" height="52" rx="14" fill="#D8DDE0"/>
<path d="M217.112 67.8621C222.312 68.6621 227.446 65.7987 229.112 63.9654C227.394 59.8689 238 49.9194 231 49.919C229.381 49.919 227.999 45.6789 222.112 48.8621C222.091 50.1489 222.112 54.6033 222.112 55.3617C222.112 65.8617 216.112 67.2588 217.112 67.8621Z" fill="#D8DDE0"/>
<path d="M158 279C156.343 279 155 277.657 155 276L188 276C188 277.657 186.657 279 185 279L158 279Z" fill="#005EB8" stroke="#005EB8" stroke-width="2"/>
</svg>
