<svg width="1229" height="1042" viewBox="0 0 1229 1042" fill="none" xmlns="http://www.w3.org/2000/svg">
<rect width="1229" height="1042" fill="white"/>
<path d="M203.677 79.52L204.093 75.488C205.693 76.352 207.453 76.864 209.149 76.864C210.781 76.864 213.117 76.032 213.117 73.984C213.117 72.288 211.613 71.552 209.405 70.688C206.429 69.536 203.325 68.288 203.325 64.096C203.325 59.296 206.941 57.28 211.165 57.28C213.053 57.28 214.845 57.536 216.477 58.08L216.061 61.76C214.557 61.12 213.021 60.8 211.517 60.8C209.853 60.8 207.997 61.568 207.997 63.904C207.997 65.6 209.917 66.24 211.773 66.976C214.781 68.096 217.789 69.472 217.789 73.632C217.789 77.952 214.717 80.384 209.373 80.384C207.069 80.384 205.821 80.064 203.677 79.52ZM236.594 80H232.53V77.76H232.466C231.058 79.456 229.202 80.384 227.058 80.384C223.378 80.384 221.458 77.92 221.458 73.92V63.52H225.746V72.928C225.746 76.224 226.962 77.056 228.53 77.056C231.122 77.056 232.306 74.656 232.306 71.488V63.52H236.594V80ZM245.309 86.72H241.021V63.52H245.117V65.856H245.181C246.269 64.064 247.997 63.136 250.301 63.136C255.101 63.136 257.213 66.816 257.213 71.712C257.213 76.544 255.133 80.384 250.205 80.384C247.997 80.384 246.685 79.68 245.373 78.112H245.309V86.72ZM249.117 77.056C251.901 77.056 252.733 74.048 252.733 71.712C252.733 69.44 251.933 66.464 249.181 66.464C246.397 66.464 245.341 69.44 245.341 71.712C245.341 74.144 246.333 77.056 249.117 77.056ZM264.871 86.72H260.583V63.52H264.679V65.856H264.743C265.831 64.064 267.559 63.136 269.863 63.136C274.663 63.136 276.775 66.816 276.775 71.712C276.775 76.544 274.695 80.384 269.767 80.384C267.559 80.384 266.247 79.68 264.935 78.112H264.871V86.72ZM268.679 77.056C271.463 77.056 272.295 74.048 272.295 71.712C272.295 69.44 271.495 66.464 268.743 66.464C265.959 66.464 264.903 69.44 264.903 71.712C264.903 74.144 265.895 77.056 268.679 77.056ZM284.53 80H280.242V56H284.53V80ZM293.436 60.512H289.148V56.416H293.436V60.512ZM293.436 80H289.148V63.52H293.436V80ZM311.174 75.584V79.072C309.606 79.936 307.814 80.384 305.542 80.384C300.07 80.384 296.902 77.248 296.902 71.84C296.902 67.232 299.302 63.136 304.55 63.136C310.15 63.136 312.39 66.592 312.39 73.088H300.998C301.19 75.68 302.95 77.248 305.734 77.248C307.782 77.248 309.574 76.48 311.174 75.584ZM300.998 70.144H308.294C308.134 67.776 307.014 66.272 304.774 66.272C302.63 66.272 301.222 67.68 300.998 70.144ZM320.123 80H315.835V63.52H319.643V67.264H319.707C319.963 65.536 321.755 63.136 324.251 63.136C325.147 63.136 325.403 63.232 325.531 63.264V67.584C325.147 67.36 324.379 67.232 323.611 67.232C322.011 67.232 320.123 68.096 320.123 73.216V80ZM336.187 79.68L336.443 76.16C337.787 76.832 339.195 77.248 340.667 77.248C341.819 77.248 343.483 76.8 343.483 75.232C343.483 73.856 342.139 73.44 340.411 72.96C337.531 72.192 336.027 71.008 336.027 68.256C336.027 64.928 338.811 63.136 342.523 63.136C343.835 63.136 345.115 63.264 347.163 63.744L346.875 66.976C345.403 66.464 344.411 66.272 343.067 66.272C341.563 66.272 340.507 66.88 340.507 68.096C340.507 69.024 341.403 69.472 343.355 70.016C346.427 70.88 347.963 72.256 347.963 75.008C347.963 78.624 344.859 80.384 341.019 80.384C339.451 80.384 337.755 80.096 336.187 79.68ZM360.966 76.608L361.094 80C360.198 80.256 359.206 80.384 357.958 80.384C354.47 80.384 352.71 78.208 352.71 75.04V66.656H349.542V63.52H352.71V60.224L356.998 58.848V63.52H360.806V66.656H356.998V74.304C356.998 76.032 357.542 77.056 359.046 77.056C359.782 77.056 360.518 76.896 360.966 76.608ZM377.563 80H373.787C373.659 79.392 373.627 78.272 373.595 77.536H373.531C372.571 79.296 370.491 80.384 368.443 80.384C365.467 80.384 362.683 78.592 362.683 75.456C362.683 72.608 364.315 69.824 370.747 69.824H373.403V69.76C373.403 67.008 371.995 66.272 369.691 66.272C367.867 66.272 366.043 66.976 364.603 68.064L364.475 64.384C366.011 63.68 368.219 63.136 370.203 63.136C375.131 63.136 377.307 65.12 377.307 70.08V73.472C377.307 74.336 377.371 77.792 377.563 80ZM373.403 72.576V72.384H371.515C368.475 72.384 366.779 73.28 366.779 75.232C366.779 76.512 367.771 77.248 369.499 77.248C371.419 77.248 373.403 75.936 373.403 72.576ZM391.185 76.608L391.313 80C390.417 80.256 389.425 80.384 388.177 80.384C384.689 80.384 382.929 78.208 382.929 75.04V66.656H379.761V63.52H382.929V60.224L387.217 58.848V63.52H391.025V66.656H387.217V74.304C387.217 76.032 387.76 77.056 389.265 77.056C390.001 77.056 390.737 76.896 391.185 76.608ZM409.094 80H405.03V77.76H404.966C403.558 79.456 401.702 80.384 399.558 80.384C395.878 80.384 393.958 77.92 393.958 73.92V63.52H398.246V72.928C398.246 76.224 399.462 77.056 401.03 77.056C403.622 77.056 404.806 74.656 404.806 71.488V63.52H409.094V80ZM412.625 79.68L412.881 76.16C414.225 76.832 415.633 77.248 417.105 77.248C418.257 77.248 419.921 76.8 419.921 75.232C419.921 73.856 418.577 73.44 416.849 72.96C413.969 72.192 412.465 71.008 412.465 68.256C412.465 64.928 415.249 63.136 418.961 63.136C420.273 63.136 421.553 63.264 423.601 63.744L423.313 66.976C421.841 66.464 420.849 66.272 419.505 66.272C418.001 66.272 416.945 66.88 416.945 68.096C416.945 69.024 417.841 69.472 419.793 70.016C422.865 70.88 424.401 72.256 424.401 75.008C424.401 78.624 421.297 80.384 417.457 80.384C415.889 80.384 414.193 80.096 412.625 79.68Z" fill="#4C6272"/>
<path d="M816.015 75.936L816.207 79.68C814.543 80.064 812.815 80.384 811.119 80.384C803.471 80.384 798.863 76.416 798.863 69.216C798.863 61.664 803.439 57.28 811.119 57.28C812.655 57.28 814.639 57.6 816.175 58.208L815.855 61.984C814.223 61.056 812.687 60.8 811.023 60.8C806.511 60.8 803.535 64.224 803.535 68.896C803.535 73.6 806.479 76.864 811.119 76.864C812.687 76.864 814.831 76.544 816.015 75.936ZM834.266 80H829.978V70.688C829.978 67.68 829.082 66.464 827.194 66.464C824.666 66.464 823.418 68.768 823.418 72.032V80H819.13V56H823.418V65.76H823.482C824.538 64.192 826.394 63.136 828.666 63.136C832.474 63.136 834.266 65.792 834.266 69.568V80ZM852.516 80H848.74C848.612 79.392 848.58 78.272 848.548 77.536H848.484C847.524 79.296 845.444 80.384 843.396 80.384C840.42 80.384 837.636 78.592 837.636 75.456C837.636 72.608 839.268 69.824 845.7 69.824H848.356V69.76C848.356 67.008 846.948 66.272 844.644 66.272C842.82 66.272 840.996 66.976 839.556 68.064L839.428 64.384C840.964 63.68 843.172 63.136 845.156 63.136C850.084 63.136 852.26 65.12 852.26 70.08V73.472C852.26 74.336 852.324 77.792 852.516 80ZM848.356 72.576V72.384H846.468C843.428 72.384 841.732 73.28 841.732 75.232C841.732 76.512 842.724 77.248 844.452 77.248C846.372 77.248 848.356 75.936 848.356 72.576ZM871.61 80H867.322V70.752C867.322 68.288 866.81 66.464 864.538 66.464C861.818 66.464 860.762 69.088 860.762 72V80H856.474V63.52H860.538V65.76H860.602C861.914 63.904 863.738 63.136 866.01 63.136C869.786 63.136 871.61 65.728 871.61 69.6V80ZM891.172 80H886.884V70.752C886.884 68.288 886.372 66.464 884.1 66.464C881.38 66.464 880.324 69.088 880.324 72V80H876.036V63.52H880.1V65.76H880.164C881.476 63.904 883.3 63.136 885.572 63.136C889.348 63.136 891.172 65.728 891.172 69.6V80ZM908.815 75.584V79.072C907.247 79.936 905.455 80.384 903.183 80.384C897.711 80.384 894.543 77.248 894.543 71.84C894.543 67.232 896.943 63.136 902.191 63.136C907.791 63.136 910.031 66.592 910.031 73.088H898.639C898.831 75.68 900.591 77.248 903.375 77.248C905.423 77.248 907.215 76.48 908.815 75.584ZM898.639 70.144H905.935C905.775 67.776 904.655 66.272 902.415 66.272C900.271 66.272 898.863 67.68 898.639 70.144ZM917.764 80H913.476V56H917.764V80ZM930.296 79.68L930.552 76.16C931.896 76.832 933.304 77.248 934.776 77.248C935.928 77.248 937.592 76.8 937.592 75.232C937.592 73.856 936.248 73.44 934.52 72.96C931.64 72.192 930.136 71.008 930.136 68.256C930.136 64.928 932.92 63.136 936.632 63.136C937.944 63.136 939.224 63.264 941.272 63.744L940.984 66.976C939.512 66.464 938.52 66.272 937.176 66.272C935.672 66.272 934.616 66.88 934.616 68.096C934.616 69.024 935.512 69.472 937.464 70.016C940.536 70.88 942.072 72.256 942.072 75.008C942.072 78.624 938.968 80.384 935.128 80.384C933.56 80.384 931.864 80.096 930.296 79.68ZM955.075 76.608L955.203 80C954.307 80.256 953.315 80.384 952.067 80.384C948.579 80.384 946.819 78.208 946.819 75.04V66.656H943.651V63.52H946.819V60.224L951.107 58.848V63.52H954.915V66.656H951.107V74.304C951.107 76.032 951.651 77.056 953.155 77.056C953.891 77.056 954.627 76.896 955.075 76.608ZM971.673 80H967.897C967.769 79.392 967.737 78.272 967.705 77.536H967.641C966.681 79.296 964.601 80.384 962.553 80.384C959.577 80.384 956.793 78.592 956.793 75.456C956.793 72.608 958.425 69.824 964.857 69.824H967.513V69.76C967.513 67.008 966.105 66.272 963.801 66.272C961.977 66.272 960.153 66.976 958.713 68.064L958.585 64.384C960.121 63.68 962.329 63.136 964.313 63.136C969.241 63.136 971.417 65.12 971.417 70.08V73.472C971.417 74.336 971.481 77.792 971.673 80ZM967.513 72.576V72.384H965.625C962.585 72.384 960.889 73.28 960.889 75.232C960.889 76.512 961.881 77.248 963.609 77.248C965.529 77.248 967.513 75.936 967.513 72.576ZM985.294 76.608L985.422 80C984.526 80.256 983.534 80.384 982.286 80.384C978.798 80.384 977.038 78.208 977.038 75.04V66.656H973.87V63.52H977.038V60.224L981.326 58.848V63.52H985.134V66.656H981.326V74.304C981.326 76.032 981.87 77.056 983.374 77.056C984.11 77.056 984.846 76.896 985.294 76.608ZM1003.2 80H999.139V77.76H999.075C997.667 79.456 995.811 80.384 993.667 80.384C989.987 80.384 988.067 77.92 988.067 73.92V63.52H992.355V72.928C992.355 76.224 993.571 77.056 995.139 77.056C997.731 77.056 998.915 74.656 998.915 71.488V63.52H1003.2V80ZM1006.73 79.68L1006.99 76.16C1008.33 76.832 1009.74 77.248 1011.21 77.248C1012.37 77.248 1014.03 76.8 1014.03 75.232C1014.03 73.856 1012.69 73.44 1010.96 72.96C1008.08 72.192 1006.57 71.008 1006.57 68.256C1006.57 64.928 1009.36 63.136 1013.07 63.136C1014.38 63.136 1015.66 63.264 1017.71 63.744L1017.42 66.976C1015.95 66.464 1014.96 66.272 1013.61 66.272C1012.11 66.272 1011.05 66.88 1011.05 68.096C1011.05 69.024 1011.95 69.472 1013.9 70.016C1016.97 70.88 1018.51 72.256 1018.51 75.008C1018.51 78.624 1015.41 80.384 1011.57 80.384C1010 80.384 1008.3 80.096 1006.73 79.68Z" fill="#005EB8"/>
<rect x="73" y="110" width="474" height="872" rx="16" fill="#F0F4F5"/>
<rect x="114.5" y="151.5" width="391" height="61" fill="white"/>
<rect x="114.5" y="151.5" width="391" height="61" stroke="#4C6272" stroke-width="3"/>
<path d="M253.592 190H249.304V173.52H253.112V177.264H253.176C253.432 175.536 255.224 173.136 257.72 173.136C258.616 173.136 258.872 173.232 259 173.264V177.584C258.616 177.36 257.848 177.232 257.08 177.232C255.48 177.232 253.592 178.096 253.592 183.216V190ZM274.299 185.584V189.072C272.731 189.936 270.939 190.384 268.667 190.384C263.195 190.384 260.027 187.248 260.027 181.84C260.027 177.232 262.427 173.136 267.675 173.136C273.275 173.136 275.515 176.592 275.515 183.088H264.123C264.315 185.68 266.075 187.248 268.859 187.248C270.907 187.248 272.699 186.48 274.299 185.584ZM264.123 180.144H271.419C271.259 177.776 270.139 176.272 267.899 176.272C265.755 176.272 264.347 177.68 264.123 180.144ZM290.032 186.288L290.224 189.84C288.944 190.224 287.728 190.384 285.968 190.384C280.816 190.384 277.808 187.056 277.808 181.68C277.808 176.752 280.752 173.136 285.808 173.136C287.472 173.136 288.752 173.328 289.936 173.68L289.552 177.072C288.72 176.688 287.856 176.464 286.672 176.464C283.984 176.464 282.288 178.576 282.288 181.68C282.288 184.88 283.856 187.056 286.736 187.056C287.664 187.056 288.912 186.768 290.032 186.288ZM306.299 185.584V189.072C304.731 189.936 302.939 190.384 300.667 190.384C295.195 190.384 292.027 187.248 292.027 181.84C292.027 177.232 294.427 173.136 299.675 173.136C305.275 173.136 307.515 176.592 307.515 183.088H296.123C296.315 185.68 298.075 187.248 300.859 187.248C302.907 187.248 304.699 186.48 306.299 185.584ZM296.123 180.144H303.419C303.259 177.776 302.139 176.272 299.899 176.272C297.755 176.272 296.347 177.68 296.123 180.144ZM315.248 170.512H310.96V166.416H315.248V170.512ZM315.248 190H310.96V173.52H315.248V190ZM328.891 190H324.059L317.947 173.52H322.555L326.651 185.52H326.715L330.683 173.52H334.971L328.891 190ZM350.768 185.584V189.072C349.2 189.936 347.408 190.384 345.136 190.384C339.664 190.384 336.496 187.248 336.496 181.84C336.496 177.232 338.896 173.136 344.144 173.136C349.744 173.136 351.984 176.592 351.984 183.088H340.592C340.784 185.68 342.544 187.248 345.328 187.248C347.376 187.248 349.168 186.48 350.768 185.584ZM340.592 180.144H347.888C347.728 177.776 346.608 176.272 344.368 176.272C342.224 176.272 340.816 177.68 340.592 180.144ZM370.469 190H366.309V188.144H366.245C364.965 189.744 363.205 190.384 361.189 190.384C356.165 190.384 354.277 186.288 354.277 181.712C354.277 176.72 356.453 173.136 361.189 173.136C363.333 173.136 364.837 173.872 366.117 175.44H366.181V166H370.469V190ZM362.373 187.056C365.189 187.056 366.149 184.112 366.149 181.712C366.149 179.408 365.061 176.464 362.309 176.464C359.717 176.464 358.757 179.152 358.757 181.712C358.757 184.048 359.589 187.056 362.373 187.056Z" fill="#4C6272"/>
<rect x="114.5" y="255.5" width="391" height="61" fill="white"/>
<rect x="114.5" y="255.5" width="391" height="61" stroke="#4C6272" stroke-width="3"/>
<path d="M259.032 294H255.256C255.128 293.392 255.096 292.272 255.064 291.536H255C254.04 293.296 251.96 294.384 249.912 294.384C246.936 294.384 244.152 292.592 244.152 289.456C244.152 286.608 245.784 283.824 252.216 283.824H254.872V283.76C254.872 281.008 253.464 280.272 251.16 280.272C249.336 280.272 247.512 280.976 246.072 282.064L245.944 278.384C247.48 277.68 249.688 277.136 251.672 277.136C256.6 277.136 258.776 279.12 258.776 284.08V287.472C258.776 288.336 258.84 291.792 259.032 294ZM254.872 286.576V286.384H252.984C249.944 286.384 248.248 287.28 248.248 289.232C248.248 290.512 249.24 291.248 250.968 291.248C252.888 291.248 254.872 289.936 254.872 286.576ZM274.157 290.288L274.349 293.84C273.069 294.224 271.853 294.384 270.093 294.384C264.941 294.384 261.933 291.056 261.933 285.68C261.933 280.752 264.877 277.136 269.933 277.136C271.597 277.136 272.877 277.328 274.061 277.68L273.677 281.072C272.845 280.688 271.981 280.464 270.797 280.464C268.109 280.464 266.413 282.576 266.413 285.68C266.413 288.88 267.981 291.056 270.861 291.056C271.789 291.056 273.037 290.768 274.157 290.288ZM288.376 290.288L288.568 293.84C287.288 294.224 286.072 294.384 284.312 294.384C279.16 294.384 276.152 291.056 276.152 285.68C276.152 280.752 279.096 277.136 284.152 277.136C285.816 277.136 287.096 277.328 288.28 277.68L287.896 281.072C287.064 280.688 286.2 280.464 285.016 280.464C282.328 280.464 280.632 282.576 280.632 285.68C280.632 288.88 282.2 291.056 285.08 291.056C286.008 291.056 287.256 290.768 288.376 290.288ZM304.643 289.584V293.072C303.075 293.936 301.283 294.384 299.011 294.384C293.539 294.384 290.371 291.248 290.371 285.84C290.371 281.232 292.771 277.136 298.019 277.136C303.619 277.136 305.859 280.592 305.859 287.088H294.467C294.659 289.68 296.419 291.248 299.203 291.248C301.251 291.248 303.043 290.48 304.643 289.584ZM294.467 284.144H301.763C301.603 281.776 300.483 280.272 298.243 280.272C296.099 280.272 294.691 281.68 294.467 284.144ZM313.496 300.72H309.208V277.52H313.304V279.856H313.368C314.456 278.064 316.184 277.136 318.488 277.136C323.288 277.136 325.4 280.816 325.4 285.712C325.4 290.544 323.32 294.384 318.392 294.384C316.184 294.384 314.872 293.68 313.56 292.112H313.496V300.72ZM317.304 291.056C320.088 291.056 320.92 288.048 320.92 285.712C320.92 283.44 320.12 280.464 317.368 280.464C314.584 280.464 313.528 283.44 313.528 285.712C313.528 288.144 314.52 291.056 317.304 291.056ZM338.435 290.608L338.563 294C337.667 294.256 336.675 294.384 335.427 294.384C331.939 294.384 330.179 292.208 330.179 289.04V280.656H327.011V277.52H330.179V274.224L334.467 272.848V277.52H338.275V280.656H334.467V288.304C334.467 290.032 335.01 291.056 336.515 291.056C337.251 291.056 337.987 290.896 338.435 290.608ZM354.424 289.584V293.072C352.856 293.936 351.064 294.384 348.792 294.384C343.32 294.384 340.152 291.248 340.152 285.84C340.152 281.232 342.552 277.136 347.8 277.136C353.4 277.136 355.64 280.592 355.64 287.088H344.248C344.44 289.68 346.2 291.248 348.984 291.248C351.032 291.248 352.824 290.48 354.424 289.584ZM344.248 284.144H351.544C351.384 281.776 350.264 280.272 348.024 280.272C345.88 280.272 344.472 281.68 344.248 284.144ZM374.125 294H369.965V292.144H369.901C368.621 293.744 366.861 294.384 364.845 294.384C359.821 294.384 357.933 290.288 357.933 285.712C357.933 280.72 360.109 277.136 364.845 277.136C366.989 277.136 368.493 277.872 369.773 279.44H369.837V270H374.125V294ZM366.029 291.056C368.845 291.056 369.805 288.112 369.805 285.712C369.805 283.408 368.717 280.464 365.965 280.464C363.373 280.464 362.413 283.152 362.413 285.712C362.413 288.048 363.245 291.056 366.029 291.056Z" fill="#4C6272"/>
<rect x="114.5" y="359.5" width="391" height="61" fill="white"/>
<rect x="114.5" y="359.5" width="391" height="61" stroke="#4C6272" stroke-width="3"/>
<path d="M159.996 404.72H155.708V381.52H159.804V383.856H159.868C160.956 382.064 162.684 381.136 164.988 381.136C169.788 381.136 171.9 384.816 171.9 389.712C171.9 394.544 169.82 398.384 164.892 398.384C162.684 398.384 161.372 397.68 160.06 396.112H159.996V404.72ZM163.804 395.056C166.588 395.056 167.42 392.048 167.42 389.712C167.42 387.44 166.62 384.464 163.868 384.464C161.084 384.464 160.028 387.44 160.028 389.712C160.028 392.144 161.02 395.056 163.804 395.056ZM188.487 393.584V397.072C186.919 397.936 185.127 398.384 182.855 398.384C177.383 398.384 174.215 395.248 174.215 389.84C174.215 385.232 176.615 381.136 181.863 381.136C187.463 381.136 189.703 384.592 189.703 391.088H178.311C178.503 393.68 180.263 395.248 183.047 395.248C185.095 395.248 186.887 394.48 188.487 393.584ZM178.311 388.144H185.607C185.447 385.776 184.327 384.272 182.087 384.272C179.943 384.272 178.535 385.68 178.311 388.144ZM208.188 398H203.9V388.752C203.9 386.288 203.388 384.464 201.116 384.464C198.396 384.464 197.34 387.088 197.34 390V398H193.052V381.52H197.116V383.76H197.18C198.492 381.904 200.316 381.136 202.588 381.136C206.364 381.136 208.188 383.728 208.188 387.6V398ZM227.75 398H223.59V396.144H223.526C222.246 397.744 220.486 398.384 218.47 398.384C213.446 398.384 211.558 394.288 211.558 389.712C211.558 384.72 213.734 381.136 218.47 381.136C220.614 381.136 222.118 381.872 223.398 383.44H223.462V374H227.75V398ZM219.654 395.056C222.47 395.056 223.43 392.112 223.43 389.712C223.43 387.408 222.342 384.464 219.59 384.464C216.998 384.464 216.038 387.152 216.038 389.712C216.038 392.048 216.87 395.056 219.654 395.056ZM236.561 378.512H232.273V374.416H236.561V378.512ZM236.561 398H232.273V381.52H236.561V398ZM256.219 398H251.931V388.752C251.931 386.288 251.419 384.464 249.147 384.464C246.427 384.464 245.371 387.088 245.371 390V398H241.083V381.52H245.147V383.76H245.211C246.523 381.904 248.347 381.136 250.619 381.136C254.395 381.136 256.219 383.728 256.219 387.6V398ZM271.494 395.76V395.376H271.43C270.502 396.976 268.486 398 266.31 398C261.766 398 259.59 394.544 259.59 389.68C259.59 385.712 261.638 381.136 266.566 381.136C268.742 381.136 270.438 381.872 271.622 383.76H271.686V381.52H275.782V396.464C275.782 402.032 272.902 405.104 267.142 405.104C265.478 405.104 263.494 404.88 261.382 403.984L261.734 400.336C263.238 401.136 265.286 401.776 266.566 401.776C270.598 401.776 271.494 399.184 271.494 395.76ZM267.718 394.672C270.47 394.672 271.494 392.24 271.494 389.584C271.494 387.056 270.598 384.464 267.878 384.464C265.318 384.464 264.07 386.672 264.07 389.68C264.07 391.92 265.254 394.672 267.718 394.672ZM294 402H278V400.4H294V402ZM305.328 398H300.496L294.384 381.52H298.992L303.088 393.52H303.152L307.12 381.52H311.408L305.328 398ZM318.373 378.512H314.085V374.416H318.373V378.512ZM318.373 398H314.085V381.52H318.373V398ZM327.28 398H322.992V381.52H326.8V385.264H326.864C327.12 383.536 328.911 381.136 331.408 381.136C332.304 381.136 332.56 381.232 332.688 381.264V385.584C332.304 385.36 331.536 385.232 330.768 385.232C329.168 385.232 327.28 386.096 327.28 391.216V398ZM350.469 398H346.405V395.76H346.341C344.933 397.456 343.077 398.384 340.933 398.384C337.253 398.384 335.333 395.92 335.333 391.92V381.52H339.621V390.928C339.621 394.224 340.837 395.056 342.405 395.056C344.997 395.056 346.181 392.656 346.181 389.488V381.52H350.469V398ZM354 397.68L354.256 394.16C355.6 394.832 357.008 395.248 358.48 395.248C359.632 395.248 361.296 394.8 361.296 393.232C361.296 391.856 359.952 391.44 358.224 390.96C355.344 390.192 353.84 389.008 353.84 386.256C353.84 382.928 356.624 381.136 360.336 381.136C361.648 381.136 362.928 381.264 364.976 381.744L364.688 384.976C363.216 384.464 362.224 384.272 360.88 384.272C359.376 384.272 358.32 384.88 358.32 386.096C358.32 387.024 359.216 387.472 361.168 388.016C364.24 388.88 365.776 390.256 365.776 393.008C365.776 396.624 362.672 398.384 358.832 398.384C357.264 398.384 355.568 398.096 354 397.68ZM382.906 402H366.906V400.4H382.906V402ZM396.282 394.288L396.474 397.84C395.194 398.224 393.978 398.384 392.218 398.384C387.066 398.384 384.058 395.056 384.058 389.68C384.058 384.752 387.002 381.136 392.058 381.136C393.722 381.136 395.002 381.328 396.186 381.68L395.802 385.072C394.97 384.688 394.106 384.464 392.922 384.464C390.234 384.464 388.538 386.576 388.538 389.68C388.538 392.88 390.106 395.056 392.986 395.056C393.914 395.056 395.162 394.768 396.282 394.288ZM414.469 398H410.181V388.688C410.181 385.68 409.285 384.464 407.397 384.464C404.869 384.464 403.621 386.768 403.621 390.032V398H399.333V374H403.621V383.76H403.685C404.741 382.192 406.597 381.136 408.869 381.136C412.677 381.136 414.469 383.792 414.469 387.568V398ZM432.112 393.584V397.072C430.544 397.936 428.752 398.384 426.48 398.384C421.008 398.384 417.84 395.248 417.84 389.84C417.84 385.232 420.24 381.136 425.488 381.136C431.088 381.136 433.328 384.592 433.328 391.088H421.936C422.128 393.68 423.888 395.248 426.672 395.248C428.72 395.248 430.512 394.48 432.112 393.584ZM421.936 388.144H429.232C429.072 385.776 427.952 384.272 425.712 384.272C423.568 384.272 422.16 385.68 421.936 388.144ZM447.845 394.288L448.037 397.84C446.757 398.224 445.541 398.384 443.781 398.384C438.629 398.384 435.621 395.056 435.621 389.68C435.621 384.752 438.565 381.136 443.621 381.136C445.285 381.136 446.565 381.328 447.749 381.68L447.365 385.072C446.533 384.688 445.669 384.464 444.485 384.464C441.797 384.464 440.101 386.576 440.101 389.68C440.101 392.88 441.669 395.056 444.549 395.056C445.477 395.056 446.725 394.768 447.845 394.288ZM466.288 398H460.848L455.344 390H455.28V398H450.992V374H455.28V388.112H455.344L460.464 381.52H465.52L459.376 388.88L466.288 398Z" fill="#4C6272"/>
<rect x="114.5" y="463.5" width="391" height="61" fill="white"/>
<rect x="114.5" y="463.5" width="391" height="61" stroke="#4C6272" stroke-width="3"/>
<path d="M192.828 502H187.996L181.884 485.52H186.492L190.588 497.52H190.652L194.62 485.52H198.908L192.828 502ZM205.873 482.512H201.585V478.416H205.873V482.512ZM205.873 502H201.585V485.52H205.873V502ZM214.78 502H210.492V485.52H214.3V489.264H214.364C214.62 487.536 216.411 485.136 218.908 485.136C219.804 485.136 220.06 485.232 220.188 485.264V489.584C219.804 489.36 219.036 489.232 218.268 489.232C216.668 489.232 214.78 490.096 214.78 495.216V502ZM237.969 502H233.905V499.76H233.841C232.433 501.456 230.577 502.384 228.433 502.384C224.753 502.384 222.833 499.92 222.833 495.92V485.52H227.121V494.928C227.121 498.224 228.337 499.056 229.905 499.056C232.497 499.056 233.681 496.656 233.681 493.488V485.52H237.969V502ZM241.5 501.68L241.756 498.16C243.1 498.832 244.508 499.248 245.98 499.248C247.132 499.248 248.796 498.8 248.796 497.232C248.796 495.856 247.452 495.44 245.724 494.96C242.844 494.192 241.34 493.008 241.34 490.256C241.34 486.928 244.124 485.136 247.836 485.136C249.148 485.136 250.428 485.264 252.476 485.744L252.188 488.976C250.716 488.464 249.724 488.272 248.38 488.272C246.876 488.272 245.82 488.88 245.82 490.096C245.82 491.024 246.716 491.472 248.668 492.016C251.74 492.88 253.276 494.256 253.276 497.008C253.276 500.624 250.172 502.384 246.332 502.384C244.764 502.384 243.068 502.096 241.5 501.68ZM270.406 506H254.406V504.4H270.406V506ZM271.718 501.68L271.974 498.16C273.318 498.832 274.726 499.248 276.198 499.248C277.35 499.248 279.014 498.8 279.014 497.232C279.014 495.856 277.67 495.44 275.942 494.96C273.062 494.192 271.558 493.008 271.558 490.256C271.558 486.928 274.342 485.136 278.054 485.136C279.366 485.136 280.646 485.264 282.694 485.744L282.406 488.976C280.934 488.464 279.942 488.272 278.598 488.272C277.094 488.272 276.038 488.88 276.038 490.096C276.038 491.024 276.934 491.472 278.886 492.016C281.958 492.88 283.494 494.256 283.494 497.008C283.494 500.624 280.39 502.384 276.55 502.384C274.982 502.384 273.286 502.096 271.718 501.68ZM298.001 498.288L298.193 501.84C296.913 502.224 295.697 502.384 293.937 502.384C288.785 502.384 285.777 499.056 285.777 493.68C285.777 488.752 288.721 485.136 293.777 485.136C295.441 485.136 296.721 485.328 297.905 485.68L297.521 489.072C296.689 488.688 295.825 488.464 294.641 488.464C291.953 488.464 290.257 490.576 290.257 493.68C290.257 496.88 291.825 499.056 294.705 499.056C295.633 499.056 296.881 498.768 298.001 498.288ZM314.876 502H311.1C310.972 501.392 310.94 500.272 310.908 499.536H310.844C309.884 501.296 307.804 502.384 305.756 502.384C302.78 502.384 299.996 500.592 299.996 497.456C299.996 494.608 301.628 491.824 308.06 491.824H310.716V491.76C310.716 489.008 309.308 488.272 307.004 488.272C305.18 488.272 303.356 488.976 301.916 490.064L301.788 486.384C303.324 485.68 305.532 485.136 307.516 485.136C312.444 485.136 314.62 487.12 314.62 492.08V495.472C314.62 496.336 314.684 499.792 314.876 502ZM310.716 494.576V494.384H308.828C305.788 494.384 304.092 495.28 304.092 497.232C304.092 498.512 305.084 499.248 306.812 499.248C308.732 499.248 310.716 497.936 310.716 494.576ZM333.969 502H329.681V492.752C329.681 490.288 329.169 488.464 326.897 488.464C324.177 488.464 323.121 491.088 323.121 494V502H318.833V485.52H322.897V487.76H322.961C324.273 485.904 326.097 485.136 328.369 485.136C332.145 485.136 333.969 487.728 333.969 491.6V502ZM352.188 506H336.188V504.4H352.188V506ZM360.252 502H355.964V488.656H352.796V485.52H355.964V483.184C355.964 480.4 357.404 477.616 361.276 477.616C362.268 477.616 363.516 477.776 364.348 477.968L363.996 481.52C363.324 481.104 362.812 480.944 362.14 480.944C360.892 480.944 360.252 481.904 360.252 483.472V485.52H363.996V488.656H360.252V502ZM380.657 502H376.881C376.753 501.392 376.721 500.272 376.689 499.536H376.625C375.665 501.296 373.585 502.384 371.537 502.384C368.561 502.384 365.777 500.592 365.777 497.456C365.777 494.608 367.409 491.824 373.841 491.824H376.497V491.76C376.497 489.008 375.089 488.272 372.785 488.272C370.961 488.272 369.137 488.976 367.697 490.064L367.569 486.384C369.105 485.68 371.313 485.136 373.297 485.136C378.225 485.136 380.401 487.12 380.401 492.08V495.472C380.401 496.336 380.465 499.792 380.657 502ZM376.497 494.576V494.384H374.609C371.569 494.384 369.873 495.28 369.873 497.232C369.873 498.512 370.865 499.248 372.593 499.248C374.513 499.248 376.497 497.936 376.497 494.576ZM388.998 482.512H384.71V478.416H388.998V482.512ZM388.998 502H384.71V485.52H388.998V502ZM397.905 502H393.617V478H397.905V502ZM415.643 497.584V501.072C414.075 501.936 412.283 502.384 410.011 502.384C404.539 502.384 401.371 499.248 401.371 493.84C401.371 489.232 403.771 485.136 409.019 485.136C414.619 485.136 416.859 488.592 416.859 495.088H405.467C405.659 497.68 407.419 499.248 410.203 499.248C412.251 499.248 414.043 498.48 415.643 497.584ZM405.467 492.144H412.763C412.603 489.776 411.483 488.272 409.243 488.272C407.099 488.272 405.691 489.68 405.467 492.144ZM435.344 502H431.184V500.144H431.12C429.84 501.744 428.08 502.384 426.064 502.384C421.04 502.384 419.152 498.288 419.152 493.712C419.152 488.72 421.328 485.136 426.064 485.136C428.208 485.136 429.712 485.872 430.992 487.44H431.056V478H435.344V502ZM427.248 499.056C430.064 499.056 431.024 496.112 431.024 493.712C431.024 491.408 429.936 488.464 427.184 488.464C424.592 488.464 423.632 491.152 423.632 493.712C423.632 496.048 424.464 499.056 427.248 499.056Z" fill="#4C6272"/>
<rect x="114.5" y="567.5" width="391" height="61" fill="white"/>
<rect x="114.5" y="567.5" width="391" height="61" stroke="#4C6272" stroke-width="3"/>
<path d="M194.828 606H189.996L183.884 589.52H188.492L192.588 601.52H192.652L196.62 589.52H200.908L194.828 606ZM217.313 606H213.537C213.409 605.392 213.377 604.272 213.345 603.536H213.281C212.321 605.296 210.241 606.384 208.193 606.384C205.217 606.384 202.433 604.592 202.433 601.456C202.433 598.608 204.065 595.824 210.497 595.824H213.153V595.76C213.153 593.008 211.745 592.272 209.441 592.272C207.617 592.272 205.793 592.976 204.353 594.064L204.225 590.384C205.761 589.68 207.969 589.136 209.953 589.136C214.881 589.136 217.057 591.12 217.057 596.08V599.472C217.057 600.336 217.121 603.792 217.313 606ZM213.153 598.576V598.384H211.265C208.225 598.384 206.529 599.28 206.529 601.232C206.529 602.512 207.521 603.248 209.249 603.248C211.169 603.248 213.153 601.936 213.153 598.576ZM225.655 606H221.367V582H225.655V606ZM234.561 586.512H230.273V582.416H234.561V586.512ZM234.561 606H230.273V589.52H234.561V606ZM254.219 606H250.059V604.144H249.995C248.715 605.744 246.955 606.384 244.939 606.384C239.915 606.384 238.027 602.288 238.027 597.712C238.027 592.72 240.203 589.136 244.939 589.136C247.083 589.136 248.587 589.872 249.867 591.44H249.931V582H254.219V606ZM246.123 603.056C248.939 603.056 249.899 600.112 249.899 597.712C249.899 595.408 248.811 592.464 246.059 592.464C243.467 592.464 242.507 595.152 242.507 597.712C242.507 600.048 243.339 603.056 246.123 603.056ZM272.47 606H268.694C268.566 605.392 268.534 604.272 268.502 603.536H268.438C267.478 605.296 265.398 606.384 263.35 606.384C260.374 606.384 257.59 604.592 257.59 601.456C257.59 598.608 259.222 595.824 265.654 595.824H268.31V595.76C268.31 593.008 266.902 592.272 264.598 592.272C262.774 592.272 260.95 592.976 259.51 594.064L259.382 590.384C260.918 589.68 263.126 589.136 265.11 589.136C270.038 589.136 272.214 591.12 272.214 596.08V599.472C272.214 600.336 272.278 603.792 272.47 606ZM268.31 598.576V598.384H266.422C263.382 598.384 261.686 599.28 261.686 601.232C261.686 602.512 262.678 603.248 264.406 603.248C266.326 603.248 268.31 601.936 268.31 598.576ZM286.091 602.608L286.219 606C285.323 606.256 284.331 606.384 283.083 606.384C279.595 606.384 277.835 604.208 277.835 601.04V592.656H274.667V589.52H277.835V586.224L282.123 584.848V589.52H285.931V592.656H282.123V600.304C282.123 602.032 282.667 603.056 284.171 603.056C284.907 603.056 285.643 602.896 286.091 602.608ZM293.248 586.512H288.96V582.416H293.248V586.512ZM293.248 606H288.96V589.52H293.248V606ZM313.963 597.872C313.963 602.768 310.635 606.384 305.323 606.384C300.011 606.384 296.715 602.736 296.715 597.872C296.715 592.592 300.299 589.136 305.323 589.136C310.347 589.136 313.963 592.56 313.963 597.872ZM305.323 603.056C308.107 603.056 309.483 600.912 309.483 597.36C309.483 594.736 308.075 592.464 305.323 592.464C302.635 592.464 301.195 594.768 301.195 597.36C301.195 600.848 302.539 603.056 305.323 603.056ZM332.469 606H328.181V596.752C328.181 594.288 327.669 592.464 325.397 592.464C322.677 592.464 321.621 595.088 321.621 598V606H317.333V589.52H321.397V591.76H321.461C322.773 589.904 324.597 589.136 326.869 589.136C330.645 589.136 332.469 591.728 332.469 595.6V606ZM350.688 610H334.688V608.4H350.688V610ZM358.752 606H354.464V592.656H351.296V589.52H354.464V587.184C354.464 584.4 355.904 581.616 359.776 581.616C360.768 581.616 362.016 581.776 362.848 581.968L362.496 585.52C361.824 585.104 361.312 584.944 360.64 584.944C359.392 584.944 358.752 585.904 358.752 587.472V589.52H362.496V592.656H358.752V606ZM379.157 606H375.381C375.253 605.392 375.221 604.272 375.189 603.536H375.125C374.165 605.296 372.085 606.384 370.037 606.384C367.061 606.384 364.277 604.592 364.277 601.456C364.277 598.608 365.909 595.824 372.341 595.824H374.997V595.76C374.997 593.008 373.589 592.272 371.285 592.272C369.461 592.272 367.637 592.976 366.197 594.064L366.069 590.384C367.605 589.68 369.813 589.136 371.797 589.136C376.725 589.136 378.901 591.12 378.901 596.08V599.472C378.901 600.336 378.965 603.792 379.157 606ZM374.997 598.576V598.384H373.109C370.069 598.384 368.373 599.28 368.373 601.232C368.373 602.512 369.365 603.248 371.093 603.248C373.013 603.248 374.997 601.936 374.997 598.576ZM387.498 586.512H383.21V582.416H387.498V586.512ZM387.498 606H383.21V589.52H387.498V606ZM396.405 606H392.117V582H396.405V606ZM414.143 601.584V605.072C412.575 605.936 410.783 606.384 408.511 606.384C403.039 606.384 399.871 603.248 399.871 597.84C399.871 593.232 402.271 589.136 407.519 589.136C413.119 589.136 415.359 592.592 415.359 599.088H403.967C404.159 601.68 405.919 603.248 408.703 603.248C410.751 603.248 412.543 602.48 414.143 601.584ZM403.967 596.144H411.263C411.103 593.776 409.983 592.272 407.743 592.272C405.599 592.272 404.191 593.68 403.967 596.144ZM433.844 606H429.684V604.144H429.62C428.34 605.744 426.58 606.384 424.564 606.384C419.54 606.384 417.652 602.288 417.652 597.712C417.652 592.72 419.828 589.136 424.564 589.136C426.708 589.136 428.212 589.872 429.492 591.44H429.556V582H433.844V606ZM425.748 603.056C428.564 603.056 429.524 600.112 429.524 597.712C429.524 595.408 428.436 592.464 425.684 592.464C423.092 592.464 422.132 595.152 422.132 597.712C422.132 600.048 422.964 603.056 425.748 603.056Z" fill="#4C6272"/>
<rect x="114.5" y="671.5" width="391" height="61" fill="white"/>
<rect x="114.5" y="671.5" width="391" height="61" stroke="#4C6272" stroke-width="3"/>
<path d="M198.372 706.608L198.5 710C197.604 710.256 196.612 710.384 195.364 710.384C191.876 710.384 190.116 708.208 190.116 705.04V696.656H186.948V693.52H190.116V690.224L194.404 688.848V693.52H198.212V696.656H194.404V704.304C194.404 706.032 194.948 707.056 196.452 707.056C197.188 707.056 197.924 706.896 198.372 706.608ZM214.362 705.584V709.072C212.794 709.936 211.002 710.384 208.73 710.384C203.258 710.384 200.09 707.248 200.09 701.84C200.09 697.232 202.49 693.136 207.738 693.136C213.338 693.136 215.578 696.592 215.578 703.088H204.186C204.378 705.68 206.138 707.248 208.922 707.248C210.97 707.248 212.762 706.48 214.362 705.584ZM204.186 700.144H211.482C211.322 697.776 210.202 696.272 207.962 696.272C205.818 696.272 204.41 697.68 204.186 700.144ZM230.095 706.288L230.287 709.84C229.007 710.224 227.791 710.384 226.031 710.384C220.879 710.384 217.871 707.056 217.871 701.68C217.871 696.752 220.815 693.136 225.871 693.136C227.535 693.136 228.815 693.328 229.999 693.68L229.615 697.072C228.783 696.688 227.919 696.464 226.735 696.464C224.047 696.464 222.351 698.576 222.351 701.68C222.351 704.88 223.919 707.056 226.799 707.056C227.727 707.056 228.975 706.768 230.095 706.288ZM248.282 710H243.994V700.688C243.994 697.68 243.098 696.464 241.21 696.464C238.682 696.464 237.434 698.768 237.434 702.032V710H233.146V686H237.434V695.76H237.498C238.554 694.192 240.41 693.136 242.682 693.136C246.49 693.136 248.282 695.792 248.282 699.568V710ZM267.844 710H263.556V700.752C263.556 698.288 263.044 696.464 260.772 696.464C258.052 696.464 256.996 699.088 256.996 702V710H252.708V693.52H256.772V695.76H256.836C258.148 693.904 259.972 693.136 262.244 693.136C266.02 693.136 267.844 695.728 267.844 699.6V710ZM276.655 690.512H272.367V686.416H276.655V690.512ZM276.655 710H272.367V693.52H276.655V710ZM292.345 706.288L292.537 709.84C291.257 710.224 290.041 710.384 288.281 710.384C283.129 710.384 280.121 707.056 280.121 701.68C280.121 696.752 283.065 693.136 288.121 693.136C289.785 693.136 291.065 693.328 292.249 693.68L291.865 697.072C291.033 696.688 290.169 696.464 288.985 696.464C286.297 696.464 284.601 698.576 284.601 701.68C284.601 704.88 286.169 707.056 289.049 707.056C289.977 707.056 291.225 706.768 292.345 706.288ZM309.22 710H305.444C305.316 709.392 305.284 708.272 305.252 707.536H305.188C304.228 709.296 302.148 710.384 300.1 710.384C297.124 710.384 294.34 708.592 294.34 705.456C294.34 702.608 295.972 699.824 302.404 699.824H305.06V699.76C305.06 697.008 303.652 696.272 301.348 696.272C299.524 696.272 297.7 696.976 296.26 698.064L296.132 694.384C297.668 693.68 299.876 693.136 301.86 693.136C306.788 693.136 308.964 695.12 308.964 700.08V703.472C308.964 704.336 309.028 707.792 309.22 710ZM305.06 702.576V702.384H303.172C300.132 702.384 298.436 703.28 298.436 705.232C298.436 706.512 299.428 707.248 301.156 707.248C303.076 707.248 305.06 705.936 305.06 702.576ZM317.561 710H313.273V686H317.561V710ZM335.875 714H319.875V712.4H335.875V714ZM343.939 710H339.651V696.656H336.483V693.52H339.651V691.184C339.651 688.4 341.091 685.616 344.963 685.616C345.955 685.616 347.203 685.776 348.035 685.968L347.683 689.52C347.011 689.104 346.499 688.944 345.827 688.944C344.579 688.944 343.939 689.904 343.939 691.472V693.52H347.683V696.656H343.939V710ZM364.345 710H360.569C360.441 709.392 360.409 708.272 360.377 707.536H360.313C359.353 709.296 357.273 710.384 355.225 710.384C352.249 710.384 349.465 708.592 349.465 705.456C349.465 702.608 351.097 699.824 357.529 699.824H360.185V699.76C360.185 697.008 358.777 696.272 356.473 696.272C354.649 696.272 352.825 696.976 351.385 698.064L351.257 694.384C352.793 693.68 355.001 693.136 356.985 693.136C361.913 693.136 364.089 695.12 364.089 700.08V703.472C364.089 704.336 364.153 707.792 364.345 710ZM360.185 702.576V702.384H358.297C355.257 702.384 353.561 703.28 353.561 705.232C353.561 706.512 354.553 707.248 356.281 707.248C358.201 707.248 360.185 705.936 360.185 702.576ZM372.686 690.512H368.398V686.416H372.686V690.512ZM372.686 710H368.398V693.52H372.686V710ZM381.592 710H377.304V686H381.592V710ZM401.25 710H397.186V707.76H397.122C395.714 709.456 393.858 710.384 391.714 710.384C388.034 710.384 386.114 707.92 386.114 703.92V693.52H390.402V702.928C390.402 706.224 391.618 707.056 393.186 707.056C395.778 707.056 396.962 704.656 396.962 701.488V693.52H401.25V710ZM410.061 710H405.773V693.52H409.581V697.264H409.645C409.901 695.536 411.693 693.136 414.189 693.136C415.085 693.136 415.341 693.232 415.469 693.264V697.584C415.085 697.36 414.317 697.232 413.549 697.232C411.949 697.232 410.061 698.096 410.061 703.216V710ZM430.768 705.584V709.072C429.2 709.936 427.408 710.384 425.136 710.384C419.664 710.384 416.496 707.248 416.496 701.84C416.496 697.232 418.896 693.136 424.144 693.136C429.744 693.136 431.984 696.592 431.984 703.088H420.592C420.784 705.68 422.544 707.248 425.328 707.248C427.376 707.248 429.168 706.48 430.768 705.584ZM420.592 700.144H427.888C427.728 697.776 426.608 696.272 424.368 696.272C422.224 696.272 420.816 697.68 420.592 700.144Z" fill="#4C6272"/>
<rect x="114.5" y="775.5" width="391" height="61" fill="white"/>
<rect x="114.5" y="775.5" width="391" height="61" stroke="#4C6272" stroke-width="3"/>
<path d="M176.996 820.72H172.708V797.52H176.804V799.856H176.868C177.956 798.064 179.684 797.136 181.988 797.136C186.788 797.136 188.9 800.816 188.9 805.712C188.9 810.544 186.82 814.384 181.892 814.384C179.684 814.384 178.372 813.68 177.06 812.112H176.996V820.72ZM180.804 811.056C183.588 811.056 184.42 808.048 184.42 805.712C184.42 803.44 183.62 800.464 180.868 800.464C178.084 800.464 177.028 803.44 177.028 805.712C177.028 808.144 178.02 811.056 180.804 811.056ZM205.487 809.584V813.072C203.919 813.936 202.127 814.384 199.855 814.384C194.383 814.384 191.215 811.248 191.215 805.84C191.215 801.232 193.615 797.136 198.863 797.136C204.463 797.136 206.703 800.592 206.703 807.088H195.311C195.503 809.68 197.263 811.248 200.047 811.248C202.095 811.248 203.887 810.48 205.487 809.584ZM195.311 804.144H202.607C202.447 801.776 201.327 800.272 199.087 800.272C196.943 800.272 195.535 801.68 195.311 804.144ZM214.436 814H210.148V797.52H213.956V801.264H214.02C214.276 799.536 216.068 797.136 218.564 797.136C219.46 797.136 219.716 797.232 219.844 797.264V801.584C219.46 801.36 218.692 801.232 217.924 801.232C216.324 801.232 214.436 802.096 214.436 807.216V814ZM246.617 814H242.329V803.728C242.329 801.264 241.401 800.464 239.865 800.464C237.689 800.464 236.665 802.48 236.665 805.936V814H232.377V803.728C232.377 801.328 231.513 800.464 229.913 800.464C227.673 800.464 226.713 802.576 226.713 805.904V814H222.425V797.52H226.425V799.824H226.489C227.609 798.16 229.337 797.136 231.417 797.136C233.689 797.136 235.321 798 236.249 800.048C237.145 798.224 239.161 797.136 241.433 797.136C244.921 797.136 246.617 799.248 246.617 803.536V814ZM264.751 814H260.975C260.847 813.392 260.815 812.272 260.783 811.536H260.719C259.759 813.296 257.679 814.384 255.631 814.384C252.655 814.384 249.871 812.592 249.871 809.456C249.871 806.608 251.503 803.824 257.935 803.824H260.591V803.76C260.591 801.008 259.183 800.272 256.879 800.272C255.055 800.272 253.231 800.976 251.791 802.064L251.663 798.384C253.199 797.68 255.407 797.136 257.391 797.136C262.319 797.136 264.495 799.12 264.495 804.08V807.472C264.495 808.336 264.559 811.792 264.751 814ZM260.591 806.576V806.384H258.703C255.663 806.384 253.967 807.28 253.967 809.232C253.967 810.512 254.959 811.248 256.687 811.248C258.607 811.248 260.591 809.936 260.591 806.576ZM283.844 814H279.556V804.752C279.556 802.288 279.044 800.464 276.772 800.464C274.052 800.464 272.996 803.088 272.996 806V814H268.708V797.52H272.772V799.76H272.836C274.148 797.904 275.972 797.136 278.244 797.136C282.02 797.136 283.844 799.728 283.844 803.6V814ZM301.487 809.584V813.072C299.919 813.936 298.127 814.384 295.855 814.384C290.383 814.384 287.215 811.248 287.215 805.84C287.215 801.232 289.615 797.136 294.863 797.136C300.463 797.136 302.703 800.592 302.703 807.088H291.311C291.503 809.68 293.263 811.248 296.047 811.248C298.095 811.248 299.887 810.48 301.487 809.584ZM291.311 804.144H298.607C298.447 801.776 297.327 800.272 295.087 800.272C292.943 800.272 291.535 801.68 291.311 804.144ZM321.188 814H316.9V804.752C316.9 802.288 316.388 800.464 314.116 800.464C311.396 800.464 310.34 803.088 310.34 806V814H306.052V797.52H310.116V799.76H310.18C311.492 797.904 313.316 797.136 315.588 797.136C319.364 797.136 321.188 799.728 321.188 803.6V814ZM335.278 810.608L335.406 814C334.51 814.256 333.518 814.384 332.27 814.384C328.782 814.384 327.022 812.208 327.022 809.04V800.656H323.854V797.52H327.022V794.224L331.31 792.848V797.52H335.118V800.656H331.31V808.304C331.31 810.032 331.854 811.056 333.358 811.056C334.094 811.056 334.83 810.896 335.278 810.608ZM351.844 818H335.844V816.4H351.844V818ZM359.908 814H355.62V800.656H352.452V797.52H355.62V795.184C355.62 792.4 357.06 789.616 360.932 789.616C361.924 789.616 363.172 789.776 364.004 789.968L363.652 793.52C362.98 793.104 362.468 792.944 361.796 792.944C360.548 792.944 359.908 793.904 359.908 795.472V797.52H363.652V800.656H359.908V814ZM380.313 814H376.537C376.409 813.392 376.377 812.272 376.345 811.536H376.281C375.321 813.296 373.241 814.384 371.193 814.384C368.217 814.384 365.433 812.592 365.433 809.456C365.433 806.608 367.065 803.824 373.497 803.824H376.153V803.76C376.153 801.008 374.745 800.272 372.441 800.272C370.617 800.272 368.793 800.976 367.353 802.064L367.225 798.384C368.761 797.68 370.969 797.136 372.953 797.136C377.881 797.136 380.057 799.12 380.057 804.08V807.472C380.057 808.336 380.121 811.792 380.313 814ZM376.153 806.576V806.384H374.265C371.225 806.384 369.529 807.28 369.529 809.232C369.529 810.512 370.521 811.248 372.249 811.248C374.169 811.248 376.153 809.936 376.153 806.576ZM388.655 794.512H384.367V790.416H388.655V794.512ZM388.655 814H384.367V797.52H388.655V814ZM397.561 814H393.273V790H397.561V814ZM417.219 814H413.155V811.76H413.091C411.683 813.456 409.827 814.384 407.683 814.384C404.003 814.384 402.083 811.92 402.083 807.92V797.52H406.371V806.928C406.371 810.224 407.587 811.056 409.155 811.056C411.747 811.056 412.931 808.656 412.931 805.488V797.52H417.219V814ZM426.03 814H421.742V797.52H425.55V801.264H425.614C425.87 799.536 427.661 797.136 430.158 797.136C431.054 797.136 431.31 797.232 431.438 797.264V801.584C431.054 801.36 430.286 801.232 429.518 801.232C427.918 801.232 426.03 802.096 426.03 807.216V814ZM446.737 809.584V813.072C445.169 813.936 443.377 814.384 441.105 814.384C435.633 814.384 432.465 811.248 432.465 805.84C432.465 801.232 434.865 797.136 440.113 797.136C445.713 797.136 447.953 800.592 447.953 807.088H436.561C436.753 809.68 438.513 811.248 441.297 811.248C443.345 811.248 445.137 810.48 446.737 809.584ZM436.561 804.144H443.857C443.697 801.776 442.577 800.272 440.337 800.272C438.193 800.272 436.785 801.68 436.561 804.144Z" fill="#4C6272"/>
<rect x="114.5" y="879.5" width="391" height="61" fill="white"/>
<rect x="114.5" y="879.5" width="391" height="61" stroke="#4C6272" stroke-width="3"/>
<path d="M253.876 914.288L254.068 917.84C252.788 918.224 251.572 918.384 249.812 918.384C244.66 918.384 241.652 915.056 241.652 909.68C241.652 904.752 244.596 901.136 249.652 901.136C251.316 901.136 252.596 901.328 253.78 901.68L253.396 905.072C252.564 904.688 251.7 904.464 250.516 904.464C247.828 904.464 246.132 906.576 246.132 909.68C246.132 912.88 247.7 915.056 250.58 915.056C251.508 915.056 252.756 914.768 253.876 914.288ZM270.751 918H266.975C266.847 917.392 266.815 916.272 266.783 915.536H266.719C265.759 917.296 263.679 918.384 261.631 918.384C258.655 918.384 255.871 916.592 255.871 913.456C255.871 910.608 257.503 907.824 263.935 907.824H266.591V907.76C266.591 905.008 265.183 904.272 262.879 904.272C261.055 904.272 259.231 904.976 257.791 906.064L257.663 902.384C259.199 901.68 261.407 901.136 263.391 901.136C268.319 901.136 270.495 903.12 270.495 908.08V911.472C270.495 912.336 270.559 915.792 270.751 918ZM266.591 910.576V910.384H264.703C261.663 910.384 259.967 911.28 259.967 913.232C259.967 914.512 260.959 915.248 262.687 915.248C264.607 915.248 266.591 913.936 266.591 910.576ZM289.844 918H285.556V908.752C285.556 906.288 285.044 904.464 282.772 904.464C280.052 904.464 278.996 907.088 278.996 910V918H274.708V901.52H278.772V903.76H278.836C280.148 901.904 281.972 901.136 284.244 901.136C288.02 901.136 289.844 903.728 289.844 907.6V918ZM305.439 914.288L305.631 917.84C304.351 918.224 303.135 918.384 301.375 918.384C296.223 918.384 293.215 915.056 293.215 909.68C293.215 904.752 296.159 901.136 301.215 901.136C302.879 901.136 304.159 901.328 305.343 901.68L304.959 905.072C304.127 904.688 303.263 904.464 302.079 904.464C299.391 904.464 297.695 906.576 297.695 909.68C297.695 912.88 299.263 915.056 302.143 915.056C303.071 915.056 304.319 914.768 305.439 914.288ZM321.705 913.584V917.072C320.137 917.936 318.345 918.384 316.073 918.384C310.601 918.384 307.433 915.248 307.433 909.84C307.433 905.232 309.833 901.136 315.081 901.136C320.681 901.136 322.921 904.592 322.921 911.088H311.529C311.721 913.68 313.481 915.248 316.265 915.248C318.313 915.248 320.105 914.48 321.705 913.584ZM311.529 908.144H318.825C318.665 905.776 317.545 904.272 315.305 904.272C313.161 904.272 311.753 905.68 311.529 908.144ZM330.655 918H326.367V894H330.655V918ZM339.561 918H335.273V894H339.561V918ZM357.299 913.584V917.072C355.731 917.936 353.939 918.384 351.667 918.384C346.195 918.384 343.027 915.248 343.027 909.84C343.027 905.232 345.427 901.136 350.675 901.136C356.275 901.136 358.515 904.592 358.515 911.088H347.123C347.315 913.68 349.075 915.248 351.859 915.248C353.907 915.248 355.699 914.48 357.299 913.584ZM347.123 908.144H354.419C354.259 905.776 353.139 904.272 350.899 904.272C348.755 904.272 347.347 905.68 347.123 908.144ZM377 918H372.84V916.144H372.776C371.496 917.744 369.736 918.384 367.72 918.384C362.696 918.384 360.808 914.288 360.808 909.712C360.808 904.72 362.984 901.136 367.72 901.136C369.864 901.136 371.368 901.872 372.648 903.44H372.712V894H377V918ZM368.904 915.056C371.72 915.056 372.68 912.112 372.68 909.712C372.68 907.408 371.592 904.464 368.84 904.464C366.248 904.464 365.288 907.152 365.288 909.712C365.288 912.048 366.12 915.056 368.904 915.056Z" fill="#4C6272"/>
<rect x="671" y="110" width="474" height="352" rx="16" fill="#97BDFB" fill-opacity="0.5"/>
<rect x="712.5" y="151.5" width="391" height="61" fill="white"/>
<rect x="712.5" y="151.5" width="391" height="61" stroke="#005EB8" stroke-width="3"/>
<path d="M855.344 190H851.184V188.144H851.12C849.84 189.744 848.08 190.384 846.064 190.384C841.04 190.384 839.152 186.288 839.152 181.712C839.152 176.72 841.328 173.136 846.064 173.136C848.208 173.136 849.712 173.872 850.992 175.44H851.056V166H855.344V190ZM847.248 187.056C850.064 187.056 851.024 184.112 851.024 181.712C851.024 179.408 849.936 176.464 847.184 176.464C844.592 176.464 843.632 179.152 843.632 181.712C843.632 184.048 844.464 187.056 847.248 187.056ZM872.987 185.584V189.072C871.419 189.936 869.627 190.384 867.355 190.384C861.883 190.384 858.715 187.248 858.715 181.84C858.715 177.232 861.115 173.136 866.363 173.136C871.963 173.136 874.203 176.592 874.203 183.088H862.811C863.003 185.68 864.763 187.248 867.547 187.248C869.595 187.248 871.387 186.48 872.987 185.584ZM862.811 180.144H870.107C869.947 177.776 868.827 176.272 866.587 176.272C864.443 176.272 863.035 177.68 862.811 180.144ZM881.936 190H877.648V166H881.936V190ZM890.842 170.512H886.554V166.416H890.842V170.512ZM890.842 190H886.554V173.52H890.842V190ZM904.484 190H899.652L893.54 173.52H898.148L902.244 185.52H902.308L906.276 173.52H910.564L904.484 190ZM926.362 185.584V189.072C924.794 189.936 923.002 190.384 920.73 190.384C915.258 190.384 912.09 187.248 912.09 181.84C912.09 177.232 914.49 173.136 919.738 173.136C925.338 173.136 927.578 176.592 927.578 183.088H916.186C916.378 185.68 918.138 187.248 920.922 187.248C922.97 187.248 924.762 186.48 926.362 185.584ZM916.186 180.144H923.482C923.322 177.776 922.202 176.272 919.962 176.272C917.818 176.272 916.41 177.68 916.186 180.144ZM935.311 190H931.023V173.52H934.831V177.264H934.895C935.151 175.536 936.943 173.136 939.439 173.136C940.335 173.136 940.591 173.232 940.719 173.264V177.584C940.335 177.36 939.567 177.232 938.799 177.232C937.199 177.232 935.311 178.096 935.311 183.216V190ZM956.018 185.584V189.072C954.45 189.936 952.658 190.384 950.386 190.384C944.914 190.384 941.746 187.248 941.746 181.84C941.746 177.232 944.146 173.136 949.394 173.136C954.994 173.136 957.234 176.592 957.234 183.088H945.842C946.034 185.68 947.794 187.248 950.578 187.248C952.626 187.248 954.418 186.48 956.018 185.584ZM945.842 180.144H953.138C952.978 177.776 951.858 176.272 949.618 176.272C947.474 176.272 946.066 177.68 945.842 180.144ZM975.719 190H971.559V188.144H971.495C970.215 189.744 968.455 190.384 966.439 190.384C961.415 190.384 959.527 186.288 959.527 181.712C959.527 176.72 961.703 173.136 966.439 173.136C968.583 173.136 970.087 173.872 971.367 175.44H971.431V166H975.719V190ZM967.623 187.056C970.439 187.056 971.399 184.112 971.399 181.712C971.399 179.408 970.311 176.464 967.559 176.464C964.967 176.464 964.007 179.152 964.007 181.712C964.007 184.048 964.839 187.056 967.623 187.056Z" fill="#005EB8"/>
<rect x="712.5" y="255.5" width="391" height="61" fill="white"/>
<rect x="712.5" y="255.5" width="391" height="61" stroke="#005EB8" stroke-width="3"/>
<path d="M849.312 293.68L849.568 290.16C850.912 290.832 852.32 291.248 853.792 291.248C854.944 291.248 856.608 290.8 856.608 289.232C856.608 287.856 855.264 287.44 853.536 286.96C850.656 286.192 849.152 285.008 849.152 282.256C849.152 278.928 851.936 277.136 855.648 277.136C856.96 277.136 858.24 277.264 860.288 277.744L860 280.976C858.528 280.464 857.536 280.272 856.192 280.272C854.688 280.272 853.632 280.88 853.632 282.096C853.632 283.024 854.528 283.472 856.48 284.016C859.552 284.88 861.088 286.256 861.088 289.008C861.088 292.624 857.984 294.384 854.144 294.384C852.576 294.384 850.88 294.096 849.312 293.68ZM877.643 289.584V293.072C876.075 293.936 874.283 294.384 872.011 294.384C866.539 294.384 863.371 291.248 863.371 285.84C863.371 281.232 865.771 277.136 871.019 277.136C876.619 277.136 878.859 280.592 878.859 287.088H867.467C867.659 289.68 869.419 291.248 872.203 291.248C874.251 291.248 876.043 290.48 877.643 289.584ZM867.467 284.144H874.763C874.603 281.776 873.483 280.272 871.243 280.272C869.099 280.272 867.691 281.68 867.467 284.144ZM897.344 294H893.056V284.752C893.056 282.288 892.544 280.464 890.272 280.464C887.552 280.464 886.496 283.088 886.496 286V294H882.208V277.52H886.272V279.76H886.336C887.648 277.904 889.472 277.136 891.744 277.136C895.52 277.136 897.344 279.728 897.344 283.6V294ZM916.907 294H912.747V292.144H912.683C911.403 293.744 909.643 294.384 907.627 294.384C902.603 294.384 900.715 290.288 900.715 285.712C900.715 280.72 902.891 277.136 907.627 277.136C909.771 277.136 911.275 277.872 912.555 279.44H912.619V270H916.907V294ZM908.811 291.056C911.627 291.056 912.587 288.112 912.587 285.712C912.587 283.408 911.499 280.464 908.747 280.464C906.155 280.464 905.195 283.152 905.195 285.712C905.195 288.048 906.027 291.056 908.811 291.056ZM925.717 274.512H921.429V270.416H925.717V274.512ZM925.717 294H921.429V277.52H925.717V294ZM945.375 294H941.087V284.752C941.087 282.288 940.575 280.464 938.303 280.464C935.583 280.464 934.527 283.088 934.527 286V294H930.239V277.52H934.303V279.76H934.367C935.679 277.904 937.503 277.136 939.775 277.136C943.551 277.136 945.375 279.728 945.375 283.6V294ZM960.65 291.76V291.376H960.586C959.658 292.976 957.642 294 955.466 294C950.922 294 948.746 290.544 948.746 285.68C948.746 281.712 950.794 277.136 955.722 277.136C957.898 277.136 959.594 277.872 960.778 279.76H960.842V277.52H964.938V292.464C964.938 298.032 962.058 301.104 956.298 301.104C954.634 301.104 952.65 300.88 950.538 299.984L950.89 296.336C952.394 297.136 954.442 297.776 955.722 297.776C959.754 297.776 960.65 295.184 960.65 291.76ZM956.874 290.672C959.626 290.672 960.65 288.24 960.65 285.584C960.65 283.056 959.754 280.464 957.034 280.464C954.474 280.464 953.226 282.672 953.226 285.68C953.226 287.92 954.41 290.672 956.874 290.672Z" fill="#005EB8"/>
<rect x="712.5" y="359.5" width="391" height="61" fill="white"/>
<rect x="712.5" y="359.5" width="391" height="61" stroke="#005EB8" stroke-width="3"/>
<path d="M873.064 398H868.776V384.656H865.608V381.52H868.776V379.184C868.776 376.4 870.216 373.616 874.088 373.616C875.08 373.616 876.328 373.776 877.16 373.968L876.808 377.52C876.136 377.104 875.624 376.944 874.952 376.944C873.704 376.944 873.064 377.904 873.064 379.472V381.52H876.808V384.656H873.064V398ZM893.47 398H889.694C889.566 397.392 889.534 396.272 889.502 395.536H889.438C888.478 397.296 886.398 398.384 884.35 398.384C881.374 398.384 878.59 396.592 878.59 393.456C878.59 390.608 880.222 387.824 886.654 387.824H889.31V387.76C889.31 385.008 887.902 384.272 885.598 384.272C883.774 384.272 881.95 384.976 880.51 386.064L880.382 382.384C881.918 381.68 884.126 381.136 886.11 381.136C891.038 381.136 893.214 383.12 893.214 388.08V391.472C893.214 392.336 893.278 395.792 893.47 398ZM889.31 390.576V390.384H887.422C884.382 390.384 882.686 391.28 882.686 393.232C882.686 394.512 883.678 395.248 885.406 395.248C887.326 395.248 889.31 393.936 889.31 390.576ZM901.811 378.512H897.523V374.416H901.811V378.512ZM901.811 398H897.523V381.52H901.811V398ZM910.717 398H906.429V374H910.717V398ZM928.455 393.584V397.072C926.887 397.936 925.095 398.384 922.823 398.384C917.351 398.384 914.183 395.248 914.183 389.84C914.183 385.232 916.583 381.136 921.831 381.136C927.431 381.136 929.671 384.592 929.671 391.088H918.279C918.471 393.68 920.231 395.248 923.015 395.248C925.063 395.248 926.855 394.48 928.455 393.584ZM918.279 388.144H925.575C925.415 385.776 924.295 384.272 922.055 384.272C919.911 384.272 918.503 385.68 918.279 388.144ZM948.157 398H943.997V396.144H943.933C942.653 397.744 940.893 398.384 938.877 398.384C933.853 398.384 931.965 394.288 931.965 389.712C931.965 384.72 934.141 381.136 938.877 381.136C941.021 381.136 942.525 381.872 943.805 383.44H943.869V374H948.157V398ZM940.061 395.056C942.877 395.056 943.837 392.112 943.837 389.712C943.837 387.408 942.749 384.464 939.997 384.464C937.405 384.464 936.445 387.152 936.445 389.712C936.445 392.048 937.277 395.056 940.061 395.056Z" fill="#005EB8"/>
<path d="M701 184L686 175.34L686 192.66L701 184ZM521 185.5L687.5 185.5L687.5 182.5L521 182.5L521 185.5Z" fill="#005EB8"/>
<path d="M701 286L686 277.34L686 294.66L701 286ZM521 287.5L687.5 287.5L687.5 284.5L521 284.5L521 287.5Z" fill="#005EB8"/>
<path d="M522 705H571V600" stroke="#005EB8" stroke-width="3"/>
<path d="M522 600H571V491" stroke="#005EB8" stroke-width="3"/>
<path d="M522 806H571V705" stroke="#005EB8" stroke-width="3"/>
<path d="M522 911H571V806" stroke="#005EB8" stroke-width="3"/>
<path d="M570.765 390V391.5H571.469L571.919 390.958L570.765 390ZM657.059 286V284.5H656.354L655.904 285.042L657.059 286ZM701 286L686 277.34V294.66L701 286ZM521 391.5H570.765V388.5H521V391.5ZM571.919 390.958L658.213 286.958L655.904 285.042L569.61 389.042L571.919 390.958ZM657.059 287.5H687.5V284.5H657.059V287.5Z" fill="#005EB8"/>
<path d="M570.765 492V493.5H571.469L571.919 492.958L570.765 492ZM657.059 388V386.5H656.354L655.904 387.042L657.059 388ZM701 388L686 379.34V396.66L701 388ZM521 493.5H570.765V490.5H521V493.5ZM571.919 492.958L658.213 388.958L655.904 387.042L569.61 491.042L571.919 492.958ZM657.059 389.5H687.5V386.5H657.059V389.5Z" fill="#005EB8"/>
</svg>
