<svg width="1229" height="837" viewBox="0 0 1229 837" fill="none" xmlns="http://www.w3.org/2000/svg">
<rect width="1229" height="837" fill="white"/>
<path d="M203.677 79.52L204.093 75.488C205.693 76.352 207.453 76.864 209.149 76.864C210.781 76.864 213.117 76.032 213.117 73.984C213.117 72.288 211.613 71.552 209.405 70.688C206.429 69.536 203.325 68.288 203.325 64.096C203.325 59.296 206.941 57.28 211.165 57.28C213.053 57.28 214.845 57.536 216.477 58.08L216.061 61.76C214.557 61.12 213.021 60.8 211.517 60.8C209.853 60.8 207.997 61.568 207.997 63.904C207.997 65.6 209.917 66.24 211.773 66.976C214.781 68.096 217.789 69.472 217.789 73.632C217.789 77.952 214.717 80.384 209.373 80.384C207.069 80.384 205.821 80.064 203.677 79.52ZM236.594 80H232.53V77.76H232.466C231.058 79.456 229.202 80.384 227.058 80.384C223.378 80.384 221.458 77.92 221.458 73.92V63.52H225.746V72.928C225.746 76.224 226.962 77.056 228.53 77.056C231.122 77.056 232.306 74.656 232.306 71.488V63.52H236.594V80ZM245.309 86.72H241.021V63.52H245.117V65.856H245.181C246.269 64.064 247.997 63.136 250.301 63.136C255.101 63.136 257.213 66.816 257.213 71.712C257.213 76.544 255.133 80.384 250.205 80.384C247.997 80.384 246.685 79.68 245.373 78.112H245.309V86.72ZM249.117 77.056C251.901 77.056 252.733 74.048 252.733 71.712C252.733 69.44 251.933 66.464 249.181 66.464C246.397 66.464 245.341 69.44 245.341 71.712C245.341 74.144 246.333 77.056 249.117 77.056ZM264.871 86.72H260.583V63.52H264.679V65.856H264.743C265.831 64.064 267.559 63.136 269.863 63.136C274.663 63.136 276.775 66.816 276.775 71.712C276.775 76.544 274.695 80.384 269.767 80.384C267.559 80.384 266.247 79.68 264.935 78.112H264.871V86.72ZM268.679 77.056C271.463 77.056 272.295 74.048 272.295 71.712C272.295 69.44 271.495 66.464 268.743 66.464C265.959 66.464 264.903 69.44 264.903 71.712C264.903 74.144 265.895 77.056 268.679 77.056ZM284.53 80H280.242V56H284.53V80ZM293.436 60.512H289.148V56.416H293.436V60.512ZM293.436 80H289.148V63.52H293.436V80ZM311.174 75.584V79.072C309.606 79.936 307.814 80.384 305.542 80.384C300.07 80.384 296.902 77.248 296.902 71.84C296.902 67.232 299.302 63.136 304.55 63.136C310.15 63.136 312.39 66.592 312.39 73.088H300.998C301.19 75.68 302.95 77.248 305.734 77.248C307.782 77.248 309.574 76.48 311.174 75.584ZM300.998 70.144H308.294C308.134 67.776 307.014 66.272 304.774 66.272C302.63 66.272 301.222 67.68 300.998 70.144ZM320.123 80H315.835V63.52H319.643V67.264H319.707C319.963 65.536 321.755 63.136 324.251 63.136C325.147 63.136 325.403 63.232 325.531 63.264V67.584C325.147 67.36 324.379 67.232 323.611 67.232C322.011 67.232 320.123 68.096 320.123 73.216V80ZM336.187 79.68L336.443 76.16C337.787 76.832 339.195 77.248 340.667 77.248C341.819 77.248 343.483 76.8 343.483 75.232C343.483 73.856 342.139 73.44 340.411 72.96C337.531 72.192 336.027 71.008 336.027 68.256C336.027 64.928 338.811 63.136 342.523 63.136C343.835 63.136 345.115 63.264 347.163 63.744L346.875 66.976C345.403 66.464 344.411 66.272 343.067 66.272C341.563 66.272 340.507 66.88 340.507 68.096C340.507 69.024 341.403 69.472 343.355 70.016C346.427 70.88 347.963 72.256 347.963 75.008C347.963 78.624 344.859 80.384 341.019 80.384C339.451 80.384 337.755 80.096 336.187 79.68ZM360.966 76.608L361.094 80C360.198 80.256 359.206 80.384 357.958 80.384C354.47 80.384 352.71 78.208 352.71 75.04V66.656H349.542V63.52H352.71V60.224L356.998 58.848V63.52H360.806V66.656H356.998V74.304C356.998 76.032 357.542 77.056 359.046 77.056C359.782 77.056 360.518 76.896 360.966 76.608ZM377.563 80H373.787C373.659 79.392 373.627 78.272 373.595 77.536H373.531C372.571 79.296 370.491 80.384 368.443 80.384C365.467 80.384 362.683 78.592 362.683 75.456C362.683 72.608 364.315 69.824 370.747 69.824H373.403V69.76C373.403 67.008 371.995 66.272 369.691 66.272C367.867 66.272 366.043 66.976 364.603 68.064L364.475 64.384C366.011 63.68 368.219 63.136 370.203 63.136C375.131 63.136 377.307 65.12 377.307 70.08V73.472C377.307 74.336 377.371 77.792 377.563 80ZM373.403 72.576V72.384H371.515C368.475 72.384 366.779 73.28 366.779 75.232C366.779 76.512 367.771 77.248 369.499 77.248C371.419 77.248 373.403 75.936 373.403 72.576ZM391.185 76.608L391.313 80C390.417 80.256 389.425 80.384 388.177 80.384C384.689 80.384 382.929 78.208 382.929 75.04V66.656H379.761V63.52H382.929V60.224L387.217 58.848V63.52H391.025V66.656H387.217V74.304C387.217 76.032 387.76 77.056 389.265 77.056C390.001 77.056 390.737 76.896 391.185 76.608ZM409.094 80H405.03V77.76H404.966C403.558 79.456 401.702 80.384 399.558 80.384C395.878 80.384 393.958 77.92 393.958 73.92V63.52H398.246V72.928C398.246 76.224 399.462 77.056 401.03 77.056C403.622 77.056 404.806 74.656 404.806 71.488V63.52H409.094V80ZM412.625 79.68L412.881 76.16C414.225 76.832 415.633 77.248 417.105 77.248C418.257 77.248 419.921 76.8 419.921 75.232C419.921 73.856 418.577 73.44 416.849 72.96C413.969 72.192 412.465 71.008 412.465 68.256C412.465 64.928 415.249 63.136 418.961 63.136C420.273 63.136 421.553 63.264 423.601 63.744L423.313 66.976C421.841 66.464 420.849 66.272 419.505 66.272C418.001 66.272 416.945 66.88 416.945 68.096C416.945 69.024 417.841 69.472 419.793 70.016C422.865 70.88 424.401 72.256 424.401 75.008C424.401 78.624 421.297 80.384 417.457 80.384C415.889 80.384 414.193 80.096 412.625 79.68Z" fill="#4C6272"/>
<path d="M816.015 75.936L816.207 79.68C814.543 80.064 812.815 80.384 811.119 80.384C803.471 80.384 798.863 76.416 798.863 69.216C798.863 61.664 803.439 57.28 811.119 57.28C812.655 57.28 814.639 57.6 816.175 58.208L815.855 61.984C814.223 61.056 812.687 60.8 811.023 60.8C806.511 60.8 803.535 64.224 803.535 68.896C803.535 73.6 806.479 76.864 811.119 76.864C812.687 76.864 814.831 76.544 816.015 75.936ZM834.266 80H829.978V70.688C829.978 67.68 829.082 66.464 827.194 66.464C824.666 66.464 823.418 68.768 823.418 72.032V80H819.13V56H823.418V65.76H823.482C824.538 64.192 826.394 63.136 828.666 63.136C832.474 63.136 834.266 65.792 834.266 69.568V80ZM852.516 80H848.74C848.612 79.392 848.58 78.272 848.548 77.536H848.484C847.524 79.296 845.444 80.384 843.396 80.384C840.42 80.384 837.636 78.592 837.636 75.456C837.636 72.608 839.268 69.824 845.7 69.824H848.356V69.76C848.356 67.008 846.948 66.272 844.644 66.272C842.82 66.272 840.996 66.976 839.556 68.064L839.428 64.384C840.964 63.68 843.172 63.136 845.156 63.136C850.084 63.136 852.26 65.12 852.26 70.08V73.472C852.26 74.336 852.324 77.792 852.516 80ZM848.356 72.576V72.384H846.468C843.428 72.384 841.732 73.28 841.732 75.232C841.732 76.512 842.724 77.248 844.452 77.248C846.372 77.248 848.356 75.936 848.356 72.576ZM871.61 80H867.322V70.752C867.322 68.288 866.81 66.464 864.538 66.464C861.818 66.464 860.762 69.088 860.762 72V80H856.474V63.52H860.538V65.76H860.602C861.914 63.904 863.738 63.136 866.01 63.136C869.786 63.136 871.61 65.728 871.61 69.6V80ZM891.172 80H886.884V70.752C886.884 68.288 886.372 66.464 884.1 66.464C881.38 66.464 880.324 69.088 880.324 72V80H876.036V63.52H880.1V65.76H880.164C881.476 63.904 883.3 63.136 885.572 63.136C889.348 63.136 891.172 65.728 891.172 69.6V80ZM908.815 75.584V79.072C907.247 79.936 905.455 80.384 903.183 80.384C897.711 80.384 894.543 77.248 894.543 71.84C894.543 67.232 896.943 63.136 902.191 63.136C907.791 63.136 910.031 66.592 910.031 73.088H898.639C898.831 75.68 900.591 77.248 903.375 77.248C905.423 77.248 907.215 76.48 908.815 75.584ZM898.639 70.144H905.935C905.775 67.776 904.655 66.272 902.415 66.272C900.271 66.272 898.863 67.68 898.639 70.144ZM917.764 80H913.476V56H917.764V80ZM930.296 79.68L930.552 76.16C931.896 76.832 933.304 77.248 934.776 77.248C935.928 77.248 937.592 76.8 937.592 75.232C937.592 73.856 936.248 73.44 934.52 72.96C931.64 72.192 930.136 71.008 930.136 68.256C930.136 64.928 932.92 63.136 936.632 63.136C937.944 63.136 939.224 63.264 941.272 63.744L940.984 66.976C939.512 66.464 938.52 66.272 937.176 66.272C935.672 66.272 934.616 66.88 934.616 68.096C934.616 69.024 935.512 69.472 937.464 70.016C940.536 70.88 942.072 72.256 942.072 75.008C942.072 78.624 938.968 80.384 935.128 80.384C933.56 80.384 931.864 80.096 930.296 79.68ZM955.075 76.608L955.203 80C954.307 80.256 953.315 80.384 952.067 80.384C948.579 80.384 946.819 78.208 946.819 75.04V66.656H943.651V63.52H946.819V60.224L951.107 58.848V63.52H954.915V66.656H951.107V74.304C951.107 76.032 951.651 77.056 953.155 77.056C953.891 77.056 954.627 76.896 955.075 76.608ZM971.673 80H967.897C967.769 79.392 967.737 78.272 967.705 77.536H967.641C966.681 79.296 964.601 80.384 962.553 80.384C959.577 80.384 956.793 78.592 956.793 75.456C956.793 72.608 958.425 69.824 964.857 69.824H967.513V69.76C967.513 67.008 966.105 66.272 963.801 66.272C961.977 66.272 960.153 66.976 958.713 68.064L958.585 64.384C960.121 63.68 962.329 63.136 964.313 63.136C969.241 63.136 971.417 65.12 971.417 70.08V73.472C971.417 74.336 971.481 77.792 971.673 80ZM967.513 72.576V72.384H965.625C962.585 72.384 960.889 73.28 960.889 75.232C960.889 76.512 961.881 77.248 963.609 77.248C965.529 77.248 967.513 75.936 967.513 72.576ZM985.294 76.608L985.422 80C984.526 80.256 983.534 80.384 982.286 80.384C978.798 80.384 977.038 78.208 977.038 75.04V66.656H973.87V63.52H977.038V60.224L981.326 58.848V63.52H985.134V66.656H981.326V74.304C981.326 76.032 981.87 77.056 983.374 77.056C984.11 77.056 984.846 76.896 985.294 76.608ZM1003.2 80H999.139V77.76H999.075C997.667 79.456 995.811 80.384 993.667 80.384C989.987 80.384 988.067 77.92 988.067 73.92V63.52H992.355V72.928C992.355 76.224 993.571 77.056 995.139 77.056C997.731 77.056 998.915 74.656 998.915 71.488V63.52H1003.2V80ZM1006.73 79.68L1006.99 76.16C1008.33 76.832 1009.74 77.248 1011.21 77.248C1012.37 77.248 1014.03 76.8 1014.03 75.232C1014.03 73.856 1012.69 73.44 1010.96 72.96C1008.08 72.192 1006.57 71.008 1006.57 68.256C1006.57 64.928 1009.36 63.136 1013.07 63.136C1014.38 63.136 1015.66 63.264 1017.71 63.744L1017.42 66.976C1015.95 66.464 1014.96 66.272 1013.61 66.272C1012.11 66.272 1011.05 66.88 1011.05 68.096C1011.05 69.024 1011.95 69.472 1013.9 70.016C1016.97 70.88 1018.51 72.256 1018.51 75.008C1018.51 78.624 1015.41 80.384 1011.57 80.384C1010 80.384 1008.3 80.096 1006.73 79.68Z" fill="#005EB8"/>
<rect x="73" y="110" width="474" height="664" rx="16" fill="#F0F4F5"/>
<rect x="114.5" y="151.5" width="391" height="61" fill="white"/>
<rect x="114.5" y="151.5" width="391" height="61" stroke="#4C6272" stroke-width="3"/>
<path d="M283.092 190H278.804V173.52H282.612V177.264H282.676C282.932 175.536 284.724 173.136 287.22 173.136C288.116 173.136 288.372 173.232 288.5 173.264V177.584C288.116 177.36 287.348 177.232 286.58 177.232C284.98 177.232 283.092 178.096 283.092 183.216V190ZM303.799 185.584V189.072C302.231 189.936 300.439 190.384 298.167 190.384C292.695 190.384 289.527 187.248 289.527 181.84C289.527 177.232 291.927 173.136 297.175 173.136C302.775 173.136 305.015 176.592 305.015 183.088H293.623C293.815 185.68 295.575 187.248 298.359 187.248C300.407 187.248 302.199 186.48 303.799 185.584ZM293.623 180.144H300.919C300.759 177.776 299.639 176.272 297.399 176.272C295.255 176.272 293.847 177.68 293.623 180.144ZM322.188 190H318.412C318.284 189.392 318.252 188.272 318.22 187.536H318.156C317.196 189.296 315.116 190.384 313.068 190.384C310.092 190.384 307.308 188.592 307.308 185.456C307.308 182.608 308.94 179.824 315.372 179.824H318.028V179.76C318.028 177.008 316.62 176.272 314.316 176.272C312.492 176.272 310.668 176.976 309.228 178.064L309.1 174.384C310.636 173.68 312.844 173.136 314.828 173.136C319.756 173.136 321.932 175.12 321.932 180.08V183.472C321.932 184.336 321.996 187.792 322.188 190ZM318.028 182.576V182.384H316.14C313.1 182.384 311.404 183.28 311.404 185.232C311.404 186.512 312.396 187.248 314.124 187.248C316.044 187.248 318.028 185.936 318.028 182.576ZM341.282 190H337.122V188.144H337.058C335.778 189.744 334.018 190.384 332.002 190.384C326.978 190.384 325.09 186.288 325.09 181.712C325.09 176.72 327.266 173.136 332.002 173.136C334.146 173.136 335.65 173.872 336.93 175.44H336.994V166H341.282V190ZM333.186 187.056C336.002 187.056 336.962 184.112 336.962 181.712C336.962 179.408 335.874 176.464 333.122 176.464C330.53 176.464 329.57 179.152 329.57 181.712C329.57 184.048 330.402 187.056 333.186 187.056Z" fill="#4C6272"/>
<rect x="114.5" y="255.5" width="391" height="61" fill="white"/>
<rect x="114.5" y="255.5" width="391" height="61" stroke="#4C6272" stroke-width="3"/>
<path d="M257.344 294H253.184V292.144H253.12C251.84 293.744 250.08 294.384 248.064 294.384C243.04 294.384 241.152 290.288 241.152 285.712C241.152 280.72 243.328 277.136 248.064 277.136C250.208 277.136 251.712 277.872 252.992 279.44H253.056V270H257.344V294ZM249.248 291.056C252.064 291.056 253.024 288.112 253.024 285.712C253.024 283.408 251.936 280.464 249.184 280.464C246.592 280.464 245.632 283.152 245.632 285.712C245.632 288.048 246.464 291.056 249.248 291.056ZM274.987 289.584V293.072C273.419 293.936 271.627 294.384 269.355 294.384C263.883 294.384 260.715 291.248 260.715 285.84C260.715 281.232 263.115 277.136 268.363 277.136C273.963 277.136 276.203 280.592 276.203 287.088H264.811C265.003 289.68 266.763 291.248 269.547 291.248C271.595 291.248 273.387 290.48 274.987 289.584ZM264.811 284.144H272.107C271.947 281.776 270.827 280.272 268.587 280.272C266.443 280.272 265.035 281.68 264.811 284.144ZM283.936 294H279.648V270H283.936V294ZM292.842 274.512H288.554V270.416H292.842V274.512ZM292.842 294H288.554V277.52H292.842V294ZM306.484 294H301.652L295.54 277.52H300.148L304.244 289.52H304.308L308.276 277.52H312.564L306.484 294ZM328.362 289.584V293.072C326.794 293.936 325.002 294.384 322.73 294.384C317.258 294.384 314.09 291.248 314.09 285.84C314.09 281.232 316.49 277.136 321.738 277.136C327.338 277.136 329.578 280.592 329.578 287.088H318.186C318.378 289.68 320.138 291.248 322.922 291.248C324.97 291.248 326.762 290.48 328.362 289.584ZM318.186 284.144H325.482C325.322 281.776 324.202 280.272 321.962 280.272C319.818 280.272 318.41 281.68 318.186 284.144ZM337.311 294H333.023V277.52H336.831V281.264H336.895C337.151 279.536 338.943 277.136 341.439 277.136C342.335 277.136 342.591 277.232 342.719 277.264V281.584C342.335 281.36 341.567 281.232 340.799 281.232C339.199 281.232 337.311 282.096 337.311 287.216V294ZM358.018 289.584V293.072C356.45 293.936 354.658 294.384 352.386 294.384C346.914 294.384 343.746 291.248 343.746 285.84C343.746 281.232 346.146 277.136 351.394 277.136C356.994 277.136 359.234 280.592 359.234 287.088H347.842C348.034 289.68 349.794 291.248 352.578 291.248C354.626 291.248 356.418 290.48 358.018 289.584ZM347.842 284.144H355.138C354.978 281.776 353.858 280.272 351.618 280.272C349.474 280.272 348.066 281.68 347.842 284.144ZM377.719 294H373.559V292.144H373.495C372.215 293.744 370.455 294.384 368.439 294.384C363.415 294.384 361.527 290.288 361.527 285.712C361.527 280.72 363.703 277.136 368.439 277.136C370.583 277.136 372.087 277.872 373.367 279.44H373.431V270H377.719V294ZM369.623 291.056C372.439 291.056 373.399 288.112 373.399 285.712C373.399 283.408 372.311 280.464 369.559 280.464C366.967 280.464 366.007 283.152 366.007 285.712C366.007 288.048 366.839 291.056 369.623 291.056Z" fill="#4C6272"/>
<rect x="114.5" y="359.5" width="391" height="61" fill="white"/>
<rect x="114.5" y="359.5" width="391" height="61" stroke="#4C6272" stroke-width="3"/>
<path d="M267.344 398H263.056V388.752C263.056 386.288 262.544 384.464 260.272 384.464C257.552 384.464 256.496 387.088 256.496 390V398H252.208V381.52H256.272V383.76H256.336C257.648 381.904 259.472 381.136 261.744 381.136C265.52 381.136 267.344 383.728 267.344 387.6V398ZM287.963 389.872C287.963 394.768 284.635 398.384 279.323 398.384C274.011 398.384 270.715 394.736 270.715 389.872C270.715 384.592 274.299 381.136 279.323 381.136C284.347 381.136 287.963 384.56 287.963 389.872ZM279.323 395.056C282.107 395.056 283.483 392.912 283.483 389.36C283.483 386.736 282.075 384.464 279.323 384.464C276.635 384.464 275.195 386.768 275.195 389.36C275.195 392.848 276.539 395.056 279.323 395.056ZM300.997 394.608L301.125 398C300.229 398.256 299.237 398.384 297.989 398.384C294.501 398.384 292.741 396.208 292.741 393.04V384.656H289.573V381.52H292.741V378.224L297.029 376.848V381.52H300.837V384.656H297.029V392.304C297.029 394.032 297.573 395.056 299.077 395.056C299.813 395.056 300.549 394.896 300.997 394.608ZM308.155 378.512H303.867V374.416H308.155V378.512ZM308.155 398H303.867V381.52H308.155V398ZM318.533 398H314.245V384.656H311.077V381.52H314.245V379.184C314.245 376.4 315.685 373.616 319.557 373.616C320.549 373.616 321.797 373.776 322.629 373.968L322.277 377.52C321.605 377.104 321.093 376.944 320.421 376.944C319.173 376.944 318.533 377.904 318.533 379.472V381.52H322.277V384.656H318.533V398ZM329.498 378.512H325.21V374.416H329.498V378.512ZM329.498 398H325.21V381.52H329.498V398ZM347.237 393.584V397.072C345.669 397.936 343.877 398.384 341.605 398.384C336.133 398.384 332.965 395.248 332.965 389.84C332.965 385.232 335.365 381.136 340.613 381.136C346.213 381.136 348.453 384.592 348.453 391.088H337.061C337.253 393.68 339.013 395.248 341.797 395.248C343.845 395.248 345.637 394.48 347.237 393.584ZM337.061 388.144H344.357C344.197 385.776 343.077 384.272 340.837 384.272C338.693 384.272 337.285 385.68 337.061 388.144ZM366.938 398H362.778V396.144H362.714C361.434 397.744 359.674 398.384 357.658 398.384C352.634 398.384 350.746 394.288 350.746 389.712C350.746 384.72 352.922 381.136 357.658 381.136C359.802 381.136 361.306 381.872 362.586 383.44H362.65V374H366.938V398ZM358.842 395.056C361.658 395.056 362.618 392.112 362.618 389.712C362.618 387.408 361.53 384.464 358.778 384.464C356.186 384.464 355.226 387.152 355.226 389.712C355.226 392.048 356.058 395.056 358.842 395.056Z" fill="#4C6272"/>
<rect x="114.5" y="463.5" width="391" height="61" fill="white"/>
<rect x="114.5" y="463.5" width="391" height="61" stroke="#4C6272" stroke-width="3"/>
<path d="M152.844 502H148.556V492.752C148.556 490.288 148.044 488.464 145.772 488.464C143.052 488.464 141.996 491.088 141.996 494V502H137.708V485.52H141.772V487.76H141.836C143.148 485.904 144.972 485.136 147.244 485.136C151.02 485.136 152.844 487.728 152.844 491.6V502ZM173.463 493.872C173.463 498.768 170.135 502.384 164.823 502.384C159.511 502.384 156.215 498.736 156.215 493.872C156.215 488.592 159.799 485.136 164.823 485.136C169.847 485.136 173.463 488.56 173.463 493.872ZM164.823 499.056C167.607 499.056 168.983 496.912 168.983 493.36C168.983 490.736 167.575 488.464 164.823 488.464C162.135 488.464 160.695 490.768 160.695 493.36C160.695 496.848 162.039 499.056 164.823 499.056ZM186.497 498.608L186.625 502C185.729 502.256 184.737 502.384 183.489 502.384C180.001 502.384 178.241 500.208 178.241 497.04V488.656H175.073V485.52H178.241V482.224L182.529 480.848V485.52H186.337V488.656H182.529V496.304C182.529 498.032 183.073 499.056 184.577 499.056C185.313 499.056 186.049 498.896 186.497 498.608ZM193.655 482.512H189.367V478.416H193.655V482.512ZM193.655 502H189.367V485.52H193.655V502ZM204.033 502H199.745V488.656H196.577V485.52H199.745V483.184C199.745 480.4 201.185 477.616 205.057 477.616C206.049 477.616 207.297 477.776 208.129 477.968L207.777 481.52C207.105 481.104 206.593 480.944 205.921 480.944C204.673 480.944 204.033 481.904 204.033 483.472V485.52H207.777V488.656H204.033V502ZM214.998 482.512H210.71V478.416H214.998V482.512ZM214.998 502H210.71V485.52H214.998V502ZM230.689 498.288L230.881 501.84C229.601 502.224 228.385 502.384 226.625 502.384C221.473 502.384 218.465 499.056 218.465 493.68C218.465 488.752 221.409 485.136 226.465 485.136C228.129 485.136 229.409 485.328 230.593 485.68L230.209 489.072C229.377 488.688 228.513 488.464 227.329 488.464C224.641 488.464 222.945 490.576 222.945 493.68C222.945 496.88 224.513 499.056 227.393 499.056C228.321 499.056 229.569 498.768 230.689 498.288ZM247.563 502H243.787C243.659 501.392 243.627 500.272 243.595 499.536H243.531C242.571 501.296 240.491 502.384 238.443 502.384C235.467 502.384 232.683 500.592 232.683 497.456C232.683 494.608 234.315 491.824 240.747 491.824H243.403V491.76C243.403 489.008 241.995 488.272 239.691 488.272C237.867 488.272 236.043 488.976 234.603 490.064L234.475 486.384C236.011 485.68 238.219 485.136 240.203 485.136C245.131 485.136 247.307 487.12 247.307 492.08V495.472C247.307 496.336 247.371 499.792 247.563 502ZM243.403 494.576V494.384H241.515C238.475 494.384 236.779 495.28 236.779 497.232C236.779 498.512 237.771 499.248 239.499 499.248C241.419 499.248 243.403 497.936 243.403 494.576ZM261.185 498.608L261.313 502C260.417 502.256 259.425 502.384 258.177 502.384C254.689 502.384 252.929 500.208 252.929 497.04V488.656H249.761V485.52H252.929V482.224L257.217 480.848V485.52H261.025V488.656H257.217V496.304C257.217 498.032 257.76 499.056 259.265 499.056C260.001 499.056 260.737 498.896 261.185 498.608ZM268.342 482.512H264.054V478.416H268.342V482.512ZM268.342 502H264.054V485.52H268.342V502ZM289.056 493.872C289.056 498.768 285.728 502.384 280.416 502.384C275.104 502.384 271.808 498.736 271.808 493.872C271.808 488.592 275.392 485.136 280.416 485.136C285.44 485.136 289.056 488.56 289.056 493.872ZM280.416 499.056C283.2 499.056 284.576 496.912 284.576 493.36C284.576 490.736 283.168 488.464 280.416 488.464C277.728 488.464 276.288 490.768 276.288 493.36C276.288 496.848 277.632 499.056 280.416 499.056ZM307.563 502H303.275V492.752C303.275 490.288 302.763 488.464 300.491 488.464C297.771 488.464 296.715 491.088 296.715 494V502H292.427V485.52H296.491V487.76H296.555C297.867 485.904 299.691 485.136 301.963 485.136C305.739 485.136 307.563 487.728 307.563 491.6V502ZM325.781 506H309.781V504.4H325.781V506ZM341.813 502H338.037C337.909 501.392 337.877 500.272 337.845 499.536H337.781C336.821 501.296 334.741 502.384 332.693 502.384C329.717 502.384 326.933 500.592 326.933 497.456C326.933 494.608 328.565 491.824 334.997 491.824H337.653V491.76C337.653 489.008 336.245 488.272 333.941 488.272C332.117 488.272 330.293 488.976 328.853 490.064L328.725 486.384C330.261 485.68 332.469 485.136 334.453 485.136C339.381 485.136 341.557 487.12 341.557 492.08V495.472C341.557 496.336 341.621 499.792 341.813 502ZM337.653 494.576V494.384H335.765C332.725 494.384 331.029 495.28 331.029 497.232C331.029 498.512 332.021 499.248 333.749 499.248C335.669 499.248 337.653 497.936 337.653 494.576ZM355.435 498.608L355.563 502C354.667 502.256 353.675 502.384 352.427 502.384C348.939 502.384 347.179 500.208 347.179 497.04V488.656H344.011V485.52H347.179V482.224L351.467 480.848V485.52H355.275V488.656H351.467V496.304C351.467 498.032 352.01 499.056 353.515 499.056C354.251 499.056 354.987 498.896 355.435 498.608ZM367.872 498.608L368 502C367.104 502.256 366.112 502.384 364.864 502.384C361.376 502.384 359.616 500.208 359.616 497.04V488.656H356.448V485.52H359.616V482.224L363.904 480.848V485.52H367.712V488.656H363.904V496.304C363.904 498.032 364.448 499.056 365.952 499.056C366.688 499.056 367.424 498.896 367.872 498.608ZM383.862 497.584V501.072C382.294 501.936 380.502 502.384 378.23 502.384C372.758 502.384 369.59 499.248 369.59 493.84C369.59 489.232 371.99 485.136 377.238 485.136C382.838 485.136 385.078 488.592 385.078 495.088H373.686C373.878 497.68 375.638 499.248 378.422 499.248C380.47 499.248 382.262 498.48 383.862 497.584ZM373.686 492.144H380.982C380.822 489.776 379.702 488.272 377.462 488.272C375.318 488.272 373.91 489.68 373.686 492.144ZM412.555 502H408.267V491.728C408.267 489.264 407.339 488.464 405.803 488.464C403.627 488.464 402.603 490.48 402.603 493.936V502H398.315V491.728C398.315 489.328 397.451 488.464 395.851 488.464C393.611 488.464 392.651 490.576 392.651 493.904V502H388.363V485.52H392.363V487.824H392.427C393.547 486.16 395.275 485.136 397.355 485.136C399.627 485.136 401.259 486 402.187 488.048C403.083 486.224 405.099 485.136 407.371 485.136C410.859 485.136 412.555 487.248 412.555 491.536V502ZM421.152 508.72H416.864V485.52H420.96V487.856H421.024C422.112 486.064 423.84 485.136 426.144 485.136C430.944 485.136 433.056 488.816 433.056 493.712C433.056 498.544 430.976 502.384 426.048 502.384C423.84 502.384 422.528 501.68 421.216 500.112H421.152V508.72ZM424.96 499.056C427.744 499.056 428.576 496.048 428.576 493.712C428.576 491.44 427.776 488.464 425.024 488.464C422.24 488.464 421.184 491.44 421.184 493.712C421.184 496.144 422.176 499.056 424.96 499.056ZM446.091 498.608L446.219 502C445.323 502.256 444.331 502.384 443.083 502.384C439.595 502.384 437.835 500.208 437.835 497.04V488.656H434.667V485.52H437.835V482.224L442.123 480.848V485.52H445.931V488.656H442.123V496.304C442.123 498.032 442.667 499.056 444.171 499.056C444.907 499.056 445.643 498.896 446.091 498.608ZM462.08 497.584V501.072C460.512 501.936 458.72 502.384 456.448 502.384C450.976 502.384 447.808 499.248 447.808 493.84C447.808 489.232 450.208 485.136 455.456 485.136C461.056 485.136 463.296 488.592 463.296 495.088H451.904C452.096 497.68 453.856 499.248 456.64 499.248C458.688 499.248 460.48 498.48 462.08 497.584ZM451.904 492.144H459.2C459.04 489.776 457.92 488.272 455.68 488.272C453.536 488.272 452.128 489.68 451.904 492.144ZM481.782 502H477.622V500.144H477.558C476.278 501.744 474.518 502.384 472.502 502.384C467.478 502.384 465.59 498.288 465.59 493.712C465.59 488.72 467.766 485.136 472.502 485.136C474.646 485.136 476.15 485.872 477.43 487.44H477.494V478H481.782V502ZM473.686 499.056C476.502 499.056 477.462 496.112 477.462 493.712C477.462 491.408 476.374 488.464 473.622 488.464C471.03 488.464 470.07 491.152 470.07 493.712C470.07 496.048 470.902 499.056 473.686 499.056Z" fill="#4C6272"/>
<rect x="114.5" y="567.5" width="391" height="61" fill="white"/>
<rect x="114.5" y="567.5" width="391" height="61" stroke="#4C6272" stroke-width="3"/>
<path d="M247.844 606H243.78V603.76H243.716C242.308 605.456 240.452 606.384 238.308 606.384C234.628 606.384 232.708 603.92 232.708 599.92V589.52H236.996V598.928C236.996 602.224 238.212 603.056 239.78 603.056C242.372 603.056 243.556 600.656 243.556 597.488V589.52H247.844V606ZM267.407 606H263.119V596.752C263.119 594.288 262.607 592.464 260.335 592.464C257.615 592.464 256.559 595.088 256.559 598V606H252.271V589.52H256.335V591.76H256.399C257.711 589.904 259.535 589.136 261.807 589.136C265.583 589.136 267.407 591.728 267.407 595.6V606ZM286.969 606H282.681V596.752C282.681 594.288 282.169 592.464 279.897 592.464C277.177 592.464 276.121 595.088 276.121 598V606H271.833V589.52H275.897V591.76H275.961C277.273 589.904 279.097 589.136 281.369 589.136C285.145 589.136 286.969 591.728 286.969 595.6V606ZM307.588 597.872C307.588 602.768 304.26 606.384 298.948 606.384C293.636 606.384 290.34 602.736 290.34 597.872C290.34 592.592 293.924 589.136 298.948 589.136C303.972 589.136 307.588 592.56 307.588 597.872ZM298.948 603.056C301.732 603.056 303.108 600.912 303.108 597.36C303.108 594.736 301.7 592.464 298.948 592.464C296.26 592.464 294.82 594.768 294.82 597.36C294.82 600.848 296.164 603.056 298.948 603.056ZM320.622 602.608L320.75 606C319.854 606.256 318.862 606.384 317.614 606.384C314.126 606.384 312.366 604.208 312.366 601.04V592.656H309.198V589.52H312.366V586.224L316.654 584.848V589.52H320.462V592.656H316.654V600.304C316.654 602.032 317.198 603.056 318.702 603.056C319.438 603.056 320.174 602.896 320.622 602.608ZM327.78 586.512H323.492V582.416H327.78V586.512ZM327.78 606H323.492V589.52H327.78V606ZM338.158 606H333.87V592.656H330.702V589.52H333.87V587.184C333.87 584.4 335.31 581.616 339.182 581.616C340.174 581.616 341.422 581.776 342.254 581.968L341.902 585.52C341.23 585.104 340.718 584.944 340.046 584.944C338.798 584.944 338.158 585.904 338.158 587.472V589.52H341.902V592.656H338.158V606ZM349.123 586.512H344.835V582.416H349.123V586.512ZM349.123 606H344.835V589.52H349.123V606ZM366.862 601.584V605.072C365.294 605.936 363.502 606.384 361.23 606.384C355.758 606.384 352.59 603.248 352.59 597.84C352.59 593.232 354.99 589.136 360.238 589.136C365.838 589.136 368.078 592.592 368.078 599.088H356.686C356.878 601.68 358.638 603.248 361.422 603.248C363.47 603.248 365.262 602.48 366.862 601.584ZM356.686 596.144H363.982C363.822 593.776 362.702 592.272 360.462 592.272C358.318 592.272 356.91 593.68 356.686 596.144ZM386.563 606H382.403V604.144H382.339C381.059 605.744 379.299 606.384 377.283 606.384C372.259 606.384 370.371 602.288 370.371 597.712C370.371 592.72 372.547 589.136 377.283 589.136C379.427 589.136 380.931 589.872 382.211 591.44H382.275V582H386.563V606ZM378.467 603.056C381.283 603.056 382.243 600.112 382.243 597.712C382.243 595.408 381.155 592.464 378.403 592.464C375.811 592.464 374.851 595.152 374.851 597.712C374.851 600.048 375.683 603.056 378.467 603.056Z" fill="#4C6272"/>
<rect x="114.5" y="671.5" width="391" height="61" fill="white"/>
<rect x="114.5" y="671.5" width="391" height="61" stroke="#4C6272" stroke-width="3"/>
<path d="M256.092 710H251.804V693.52H255.612V697.264H255.676C255.932 695.536 257.724 693.136 260.22 693.136C261.116 693.136 261.372 693.232 261.5 693.264V697.584C261.116 697.36 260.348 697.232 259.58 697.232C257.98 697.232 256.092 698.096 256.092 703.216V710ZM276.799 705.584V709.072C275.231 709.936 273.439 710.384 271.167 710.384C265.695 710.384 262.527 707.248 262.527 701.84C262.527 697.232 264.927 693.136 270.175 693.136C275.775 693.136 278.015 696.592 278.015 703.088H266.623C266.815 705.68 268.575 707.248 271.359 707.248C273.407 707.248 275.199 706.48 276.799 705.584ZM266.623 700.144H273.919C273.759 697.776 272.639 696.272 270.399 696.272C268.255 696.272 266.847 697.68 266.623 700.144ZM278.132 716.848L278.26 713.648C278.644 713.744 279.028 713.776 279.412 713.776C280.692 713.776 281.46 713.168 281.46 710.768V693.52H285.748V711.152C285.748 715.216 284.18 717.104 280.756 717.104C279.764 717.104 278.964 717.04 278.132 716.848ZM285.748 690.512H281.46V686.416H285.748V690.512ZM303.487 705.584V709.072C301.919 709.936 300.127 710.384 297.855 710.384C292.383 710.384 289.215 707.248 289.215 701.84C289.215 697.232 291.615 693.136 296.863 693.136C302.463 693.136 304.703 696.592 304.703 703.088H293.311C293.503 705.68 295.263 707.248 298.047 707.248C300.095 707.248 301.887 706.48 303.487 705.584ZM293.311 700.144H300.607C300.447 697.776 299.327 696.272 297.087 696.272C294.943 696.272 293.535 697.68 293.311 700.144ZM319.22 706.288L319.412 709.84C318.132 710.224 316.916 710.384 315.156 710.384C310.004 710.384 306.996 707.056 306.996 701.68C306.996 696.752 309.94 693.136 314.996 693.136C316.66 693.136 317.94 693.328 319.124 693.68L318.74 697.072C317.908 696.688 317.044 696.464 315.86 696.464C313.172 696.464 311.476 698.576 311.476 701.68C311.476 704.88 313.044 707.056 315.924 707.056C316.852 707.056 318.1 706.768 319.22 706.288ZM331.935 706.608L332.063 710C331.167 710.256 330.175 710.384 328.927 710.384C325.439 710.384 323.679 708.208 323.679 705.04V696.656H320.511V693.52H323.679V690.224L327.967 688.848V693.52H331.775V696.656H327.967V704.304C327.967 706.032 328.51 707.056 330.015 707.056C330.751 707.056 331.487 706.896 331.935 706.608ZM347.924 705.584V709.072C346.356 709.936 344.564 710.384 342.292 710.384C336.82 710.384 333.652 707.248 333.652 701.84C333.652 697.232 336.052 693.136 341.3 693.136C346.9 693.136 349.14 696.592 349.14 703.088H337.748C337.94 705.68 339.7 707.248 342.484 707.248C344.532 707.248 346.324 706.48 347.924 705.584ZM337.748 700.144H345.044C344.884 697.776 343.764 696.272 341.524 696.272C339.38 696.272 337.972 697.68 337.748 700.144ZM367.625 710H363.465V708.144H363.401C362.121 709.744 360.361 710.384 358.345 710.384C353.321 710.384 351.433 706.288 351.433 701.712C351.433 696.72 353.609 693.136 358.345 693.136C360.489 693.136 361.993 693.872 363.273 695.44H363.337V686H367.625V710ZM359.529 707.056C362.345 707.056 363.305 704.112 363.305 701.712C363.305 699.408 362.217 696.464 359.465 696.464C356.873 696.464 355.913 699.152 355.913 701.712C355.913 704.048 356.745 707.056 359.529 707.056Z" fill="#4C6272"/>
<rect x="671" y="110" width="474" height="352" rx="16" fill="#97BDFB" fill-opacity="0.5"/>
<rect x="712.5" y="151.5" width="391" height="61" fill="white"/>
<rect x="712.5" y="151.5" width="391" height="61" stroke="#005EB8" stroke-width="3"/>
<path d="M855.344 190H851.184V188.144H851.12C849.84 189.744 848.08 190.384 846.064 190.384C841.04 190.384 839.152 186.288 839.152 181.712C839.152 176.72 841.328 173.136 846.064 173.136C848.208 173.136 849.712 173.872 850.992 175.44H851.056V166H855.344V190ZM847.248 187.056C850.064 187.056 851.024 184.112 851.024 181.712C851.024 179.408 849.936 176.464 847.184 176.464C844.592 176.464 843.632 179.152 843.632 181.712C843.632 184.048 844.464 187.056 847.248 187.056ZM872.987 185.584V189.072C871.419 189.936 869.627 190.384 867.355 190.384C861.883 190.384 858.715 187.248 858.715 181.84C858.715 177.232 861.115 173.136 866.363 173.136C871.963 173.136 874.203 176.592 874.203 183.088H862.811C863.003 185.68 864.763 187.248 867.547 187.248C869.595 187.248 871.387 186.48 872.987 185.584ZM862.811 180.144H870.107C869.947 177.776 868.827 176.272 866.587 176.272C864.443 176.272 863.035 177.68 862.811 180.144ZM881.936 190H877.648V166H881.936V190ZM890.842 170.512H886.554V166.416H890.842V170.512ZM890.842 190H886.554V173.52H890.842V190ZM904.484 190H899.652L893.54 173.52H898.148L902.244 185.52H902.308L906.276 173.52H910.564L904.484 190ZM926.362 185.584V189.072C924.794 189.936 923.002 190.384 920.73 190.384C915.258 190.384 912.09 187.248 912.09 181.84C912.09 177.232 914.49 173.136 919.738 173.136C925.338 173.136 927.578 176.592 927.578 183.088H916.186C916.378 185.68 918.138 187.248 920.922 187.248C922.97 187.248 924.762 186.48 926.362 185.584ZM916.186 180.144H923.482C923.322 177.776 922.202 176.272 919.962 176.272C917.818 176.272 916.41 177.68 916.186 180.144ZM935.311 190H931.023V173.52H934.831V177.264H934.895C935.151 175.536 936.943 173.136 939.439 173.136C940.335 173.136 940.591 173.232 940.719 173.264V177.584C940.335 177.36 939.567 177.232 938.799 177.232C937.199 177.232 935.311 178.096 935.311 183.216V190ZM956.018 185.584V189.072C954.45 189.936 952.658 190.384 950.386 190.384C944.914 190.384 941.746 187.248 941.746 181.84C941.746 177.232 944.146 173.136 949.394 173.136C954.994 173.136 957.234 176.592 957.234 183.088H945.842C946.034 185.68 947.794 187.248 950.578 187.248C952.626 187.248 954.418 186.48 956.018 185.584ZM945.842 180.144H953.138C952.978 177.776 951.858 176.272 949.618 176.272C947.474 176.272 946.066 177.68 945.842 180.144ZM975.719 190H971.559V188.144H971.495C970.215 189.744 968.455 190.384 966.439 190.384C961.415 190.384 959.527 186.288 959.527 181.712C959.527 176.72 961.703 173.136 966.439 173.136C968.583 173.136 970.087 173.872 971.367 175.44H971.431V166H975.719V190ZM967.623 187.056C970.439 187.056 971.399 184.112 971.399 181.712C971.399 179.408 970.311 176.464 967.559 176.464C964.967 176.464 964.007 179.152 964.007 181.712C964.007 184.048 964.839 187.056 967.623 187.056Z" fill="#005EB8"/>
<rect x="712.5" y="255.5" width="391" height="61" fill="white"/>
<rect x="712.5" y="255.5" width="391" height="61" stroke="#005EB8" stroke-width="3"/>
<path d="M849.312 293.68L849.568 290.16C850.912 290.832 852.32 291.248 853.792 291.248C854.944 291.248 856.608 290.8 856.608 289.232C856.608 287.856 855.264 287.44 853.536 286.96C850.656 286.192 849.152 285.008 849.152 282.256C849.152 278.928 851.936 277.136 855.648 277.136C856.96 277.136 858.24 277.264 860.288 277.744L860 280.976C858.528 280.464 857.536 280.272 856.192 280.272C854.688 280.272 853.632 280.88 853.632 282.096C853.632 283.024 854.528 283.472 856.48 284.016C859.552 284.88 861.088 286.256 861.088 289.008C861.088 292.624 857.984 294.384 854.144 294.384C852.576 294.384 850.88 294.096 849.312 293.68ZM877.643 289.584V293.072C876.075 293.936 874.283 294.384 872.011 294.384C866.539 294.384 863.371 291.248 863.371 285.84C863.371 281.232 865.771 277.136 871.019 277.136C876.619 277.136 878.859 280.592 878.859 287.088H867.467C867.659 289.68 869.419 291.248 872.203 291.248C874.251 291.248 876.043 290.48 877.643 289.584ZM867.467 284.144H874.763C874.603 281.776 873.483 280.272 871.243 280.272C869.099 280.272 867.691 281.68 867.467 284.144ZM897.344 294H893.056V284.752C893.056 282.288 892.544 280.464 890.272 280.464C887.552 280.464 886.496 283.088 886.496 286V294H882.208V277.52H886.272V279.76H886.336C887.648 277.904 889.472 277.136 891.744 277.136C895.52 277.136 897.344 279.728 897.344 283.6V294ZM916.907 294H912.747V292.144H912.683C911.403 293.744 909.643 294.384 907.627 294.384C902.603 294.384 900.715 290.288 900.715 285.712C900.715 280.72 902.891 277.136 907.627 277.136C909.771 277.136 911.275 277.872 912.555 279.44H912.619V270H916.907V294ZM908.811 291.056C911.627 291.056 912.587 288.112 912.587 285.712C912.587 283.408 911.499 280.464 908.747 280.464C906.155 280.464 905.195 283.152 905.195 285.712C905.195 288.048 906.027 291.056 908.811 291.056ZM925.717 274.512H921.429V270.416H925.717V274.512ZM925.717 294H921.429V277.52H925.717V294ZM945.375 294H941.087V284.752C941.087 282.288 940.575 280.464 938.303 280.464C935.583 280.464 934.527 283.088 934.527 286V294H930.239V277.52H934.303V279.76H934.367C935.679 277.904 937.503 277.136 939.775 277.136C943.551 277.136 945.375 279.728 945.375 283.6V294ZM960.65 291.76V291.376H960.586C959.658 292.976 957.642 294 955.466 294C950.922 294 948.746 290.544 948.746 285.68C948.746 281.712 950.794 277.136 955.722 277.136C957.898 277.136 959.594 277.872 960.778 279.76H960.842V277.52H964.938V292.464C964.938 298.032 962.058 301.104 956.298 301.104C954.634 301.104 952.65 300.88 950.538 299.984L950.89 296.336C952.394 297.136 954.442 297.776 955.722 297.776C959.754 297.776 960.65 295.184 960.65 291.76ZM956.874 290.672C959.626 290.672 960.65 288.24 960.65 285.584C960.65 283.056 959.754 280.464 957.034 280.464C954.474 280.464 953.226 282.672 953.226 285.68C953.226 287.92 954.41 290.672 956.874 290.672Z" fill="#005EB8"/>
<rect x="712.5" y="359.5" width="391" height="61" fill="white"/>
<rect x="712.5" y="359.5" width="391" height="61" stroke="#005EB8" stroke-width="3"/>
<path d="M873.064 398H868.776V384.656H865.608V381.52H868.776V379.184C868.776 376.4 870.216 373.616 874.088 373.616C875.08 373.616 876.328 373.776 877.16 373.968L876.808 377.52C876.136 377.104 875.624 376.944 874.952 376.944C873.704 376.944 873.064 377.904 873.064 379.472V381.52H876.808V384.656H873.064V398ZM893.47 398H889.694C889.566 397.392 889.534 396.272 889.502 395.536H889.438C888.478 397.296 886.398 398.384 884.35 398.384C881.374 398.384 878.59 396.592 878.59 393.456C878.59 390.608 880.222 387.824 886.654 387.824H889.31V387.76C889.31 385.008 887.902 384.272 885.598 384.272C883.774 384.272 881.95 384.976 880.51 386.064L880.382 382.384C881.918 381.68 884.126 381.136 886.11 381.136C891.038 381.136 893.214 383.12 893.214 388.08V391.472C893.214 392.336 893.278 395.792 893.47 398ZM889.31 390.576V390.384H887.422C884.382 390.384 882.686 391.28 882.686 393.232C882.686 394.512 883.678 395.248 885.406 395.248C887.326 395.248 889.31 393.936 889.31 390.576ZM901.811 378.512H897.523V374.416H901.811V378.512ZM901.811 398H897.523V381.52H901.811V398ZM910.717 398H906.429V374H910.717V398ZM928.455 393.584V397.072C926.887 397.936 925.095 398.384 922.823 398.384C917.351 398.384 914.183 395.248 914.183 389.84C914.183 385.232 916.583 381.136 921.831 381.136C927.431 381.136 929.671 384.592 929.671 391.088H918.279C918.471 393.68 920.231 395.248 923.015 395.248C925.063 395.248 926.855 394.48 928.455 393.584ZM918.279 388.144H925.575C925.415 385.776 924.295 384.272 922.055 384.272C919.911 384.272 918.503 385.68 918.279 388.144ZM948.157 398H943.997V396.144H943.933C942.653 397.744 940.893 398.384 938.877 398.384C933.853 398.384 931.965 394.288 931.965 389.712C931.965 384.72 934.141 381.136 938.877 381.136C941.021 381.136 942.525 381.872 943.805 383.44H943.869V374H948.157V398ZM940.061 395.056C942.877 395.056 943.837 392.112 943.837 389.712C943.837 387.408 942.749 384.464 939.997 384.464C937.405 384.464 936.445 387.152 936.445 389.712C936.445 392.048 937.277 395.056 940.061 395.056Z" fill="#005EB8"/>
<path d="M701 184L686 175.34L686 192.66L701 184ZM521 185.5L687.5 185.5L687.5 182.5L521 182.5L521 185.5Z" fill="#005EB8"/>
<path d="M701 286L686 277.34L686 294.66L701 286ZM521 287.5L687.5 287.5L687.5 284.5L521 284.5L521 287.5Z" fill="#005EB8"/>
<path d="M570.765 392V393.5H571.478L571.928 392.947L570.765 392ZM657.059 286V284.5H656.346L655.896 285.053L657.059 286ZM701 286L686 277.34V294.66L701 286ZM521 393.5H570.765V390.5H521V393.5ZM571.928 392.947L658.222 286.947L655.896 285.053L569.601 391.053L571.928 392.947ZM657.059 287.5H687.5V284.5H657.059V287.5Z" fill="#005EB8"/>
<path d="M570.765 602V603.5H571.77L572.152 602.57L570.765 602ZM657.059 392V390.5H656.054L655.671 391.43L657.059 392ZM701 392L686 383.34V400.66L701 392ZM521 603.5H570.765V600.5H521V603.5ZM572.152 602.57L658.446 392.57L655.671 391.43L569.377 601.43L572.152 602.57ZM657.059 393.5H687.5V390.5H657.059V393.5Z" fill="#005EB8"/>
<path d="M521 497H570V392" stroke="#005EB8" stroke-width="3"/>
<path d="M521 702H571V601" stroke="#005EB8" stroke-width="3"/>
</svg>
