<svg width="1229" height="699" viewBox="0 0 1229 699" fill="none" xmlns="http://www.w3.org/2000/svg">
<rect width="1229" height="699" fill="white"/>
<path d="M203.677 79.52L204.093 75.488C205.693 76.352 207.453 76.864 209.149 76.864C210.781 76.864 213.117 76.032 213.117 73.984C213.117 72.288 211.613 71.552 209.405 70.688C206.429 69.536 203.325 68.288 203.325 64.096C203.325 59.296 206.941 57.28 211.165 57.28C213.053 57.28 214.845 57.536 216.477 58.08L216.061 61.76C214.557 61.12 213.021 60.8 211.517 60.8C209.853 60.8 207.997 61.568 207.997 63.904C207.997 65.6 209.917 66.24 211.773 66.976C214.781 68.096 217.789 69.472 217.789 73.632C217.789 77.952 214.717 80.384 209.373 80.384C207.069 80.384 205.821 80.064 203.677 79.52ZM236.594 80H232.53V77.76H232.466C231.058 79.456 229.202 80.384 227.058 80.384C223.378 80.384 221.458 77.92 221.458 73.92V63.52H225.746V72.928C225.746 76.224 226.962 77.056 228.53 77.056C231.122 77.056 232.306 74.656 232.306 71.488V63.52H236.594V80ZM245.309 86.72H241.021V63.52H245.117V65.856H245.181C246.269 64.064 247.997 63.136 250.301 63.136C255.101 63.136 257.213 66.816 257.213 71.712C257.213 76.544 255.133 80.384 250.205 80.384C247.997 80.384 246.685 79.68 245.373 78.112H245.309V86.72ZM249.117 77.056C251.901 77.056 252.733 74.048 252.733 71.712C252.733 69.44 251.933 66.464 249.181 66.464C246.397 66.464 245.341 69.44 245.341 71.712C245.341 74.144 246.333 77.056 249.117 77.056ZM264.871 86.72H260.583V63.52H264.679V65.856H264.743C265.831 64.064 267.559 63.136 269.863 63.136C274.663 63.136 276.775 66.816 276.775 71.712C276.775 76.544 274.695 80.384 269.767 80.384C267.559 80.384 266.247 79.68 264.935 78.112H264.871V86.72ZM268.679 77.056C271.463 77.056 272.295 74.048 272.295 71.712C272.295 69.44 271.495 66.464 268.743 66.464C265.959 66.464 264.903 69.44 264.903 71.712C264.903 74.144 265.895 77.056 268.679 77.056ZM284.53 80H280.242V56H284.53V80ZM293.436 60.512H289.148V56.416H293.436V60.512ZM293.436 80H289.148V63.52H293.436V80ZM311.174 75.584V79.072C309.606 79.936 307.814 80.384 305.542 80.384C300.07 80.384 296.902 77.248 296.902 71.84C296.902 67.232 299.302 63.136 304.55 63.136C310.15 63.136 312.39 66.592 312.39 73.088H300.998C301.19 75.68 302.95 77.248 305.734 77.248C307.782 77.248 309.574 76.48 311.174 75.584ZM300.998 70.144H308.294C308.134 67.776 307.014 66.272 304.774 66.272C302.63 66.272 301.222 67.68 300.998 70.144ZM320.123 80H315.835V63.52H319.643V67.264H319.707C319.963 65.536 321.755 63.136 324.251 63.136C325.147 63.136 325.403 63.232 325.531 63.264V67.584C325.147 67.36 324.379 67.232 323.611 67.232C322.011 67.232 320.123 68.096 320.123 73.216V80ZM336.187 79.68L336.443 76.16C337.787 76.832 339.195 77.248 340.667 77.248C341.819 77.248 343.483 76.8 343.483 75.232C343.483 73.856 342.139 73.44 340.411 72.96C337.531 72.192 336.027 71.008 336.027 68.256C336.027 64.928 338.811 63.136 342.523 63.136C343.835 63.136 345.115 63.264 347.163 63.744L346.875 66.976C345.403 66.464 344.411 66.272 343.067 66.272C341.563 66.272 340.507 66.88 340.507 68.096C340.507 69.024 341.403 69.472 343.355 70.016C346.427 70.88 347.963 72.256 347.963 75.008C347.963 78.624 344.859 80.384 341.019 80.384C339.451 80.384 337.755 80.096 336.187 79.68ZM360.966 76.608L361.094 80C360.198 80.256 359.206 80.384 357.958 80.384C354.47 80.384 352.71 78.208 352.71 75.04V66.656H349.542V63.52H352.71V60.224L356.998 58.848V63.52H360.806V66.656H356.998V74.304C356.998 76.032 357.542 77.056 359.046 77.056C359.782 77.056 360.518 76.896 360.966 76.608ZM377.563 80H373.787C373.659 79.392 373.627 78.272 373.595 77.536H373.531C372.571 79.296 370.491 80.384 368.443 80.384C365.467 80.384 362.683 78.592 362.683 75.456C362.683 72.608 364.315 69.824 370.747 69.824H373.403V69.76C373.403 67.008 371.995 66.272 369.691 66.272C367.867 66.272 366.043 66.976 364.603 68.064L364.475 64.384C366.011 63.68 368.219 63.136 370.203 63.136C375.131 63.136 377.307 65.12 377.307 70.08V73.472C377.307 74.336 377.371 77.792 377.563 80ZM373.403 72.576V72.384H371.515C368.475 72.384 366.779 73.28 366.779 75.232C366.779 76.512 367.771 77.248 369.499 77.248C371.419 77.248 373.403 75.936 373.403 72.576ZM391.185 76.608L391.313 80C390.417 80.256 389.425 80.384 388.177 80.384C384.689 80.384 382.929 78.208 382.929 75.04V66.656H379.761V63.52H382.929V60.224L387.217 58.848V63.52H391.025V66.656H387.217V74.304C387.217 76.032 387.76 77.056 389.265 77.056C390.001 77.056 390.737 76.896 391.185 76.608ZM409.094 80H405.03V77.76H404.966C403.558 79.456 401.702 80.384 399.558 80.384C395.878 80.384 393.958 77.92 393.958 73.92V63.52H398.246V72.928C398.246 76.224 399.462 77.056 401.03 77.056C403.622 77.056 404.806 74.656 404.806 71.488V63.52H409.094V80ZM412.625 79.68L412.881 76.16C414.225 76.832 415.633 77.248 417.105 77.248C418.257 77.248 419.921 76.8 419.921 75.232C419.921 73.856 418.577 73.44 416.849 72.96C413.969 72.192 412.465 71.008 412.465 68.256C412.465 64.928 415.249 63.136 418.961 63.136C420.273 63.136 421.553 63.264 423.601 63.744L423.313 66.976C421.841 66.464 420.849 66.272 419.505 66.272C418.001 66.272 416.945 66.88 416.945 68.096C416.945 69.024 417.841 69.472 419.793 70.016C422.865 70.88 424.401 72.256 424.401 75.008C424.401 78.624 421.297 80.384 417.457 80.384C415.889 80.384 414.193 80.096 412.625 79.68Z" fill="#4C6272"/>
<path d="M816.015 75.936L816.207 79.68C814.543 80.064 812.815 80.384 811.119 80.384C803.471 80.384 798.863 76.416 798.863 69.216C798.863 61.664 803.439 57.28 811.119 57.28C812.655 57.28 814.639 57.6 816.175 58.208L815.855 61.984C814.223 61.056 812.687 60.8 811.023 60.8C806.511 60.8 803.535 64.224 803.535 68.896C803.535 73.6 806.479 76.864 811.119 76.864C812.687 76.864 814.831 76.544 816.015 75.936ZM834.266 80H829.978V70.688C829.978 67.68 829.082 66.464 827.194 66.464C824.666 66.464 823.418 68.768 823.418 72.032V80H819.13V56H823.418V65.76H823.482C824.538 64.192 826.394 63.136 828.666 63.136C832.474 63.136 834.266 65.792 834.266 69.568V80ZM852.516 80H848.74C848.612 79.392 848.58 78.272 848.548 77.536H848.484C847.524 79.296 845.444 80.384 843.396 80.384C840.42 80.384 837.636 78.592 837.636 75.456C837.636 72.608 839.268 69.824 845.7 69.824H848.356V69.76C848.356 67.008 846.948 66.272 844.644 66.272C842.82 66.272 840.996 66.976 839.556 68.064L839.428 64.384C840.964 63.68 843.172 63.136 845.156 63.136C850.084 63.136 852.26 65.12 852.26 70.08V73.472C852.26 74.336 852.324 77.792 852.516 80ZM848.356 72.576V72.384H846.468C843.428 72.384 841.732 73.28 841.732 75.232C841.732 76.512 842.724 77.248 844.452 77.248C846.372 77.248 848.356 75.936 848.356 72.576ZM871.61 80H867.322V70.752C867.322 68.288 866.81 66.464 864.538 66.464C861.818 66.464 860.762 69.088 860.762 72V80H856.474V63.52H860.538V65.76H860.602C861.914 63.904 863.738 63.136 866.01 63.136C869.786 63.136 871.61 65.728 871.61 69.6V80ZM891.172 80H886.884V70.752C886.884 68.288 886.372 66.464 884.1 66.464C881.38 66.464 880.324 69.088 880.324 72V80H876.036V63.52H880.1V65.76H880.164C881.476 63.904 883.3 63.136 885.572 63.136C889.348 63.136 891.172 65.728 891.172 69.6V80ZM908.815 75.584V79.072C907.247 79.936 905.455 80.384 903.183 80.384C897.711 80.384 894.543 77.248 894.543 71.84C894.543 67.232 896.943 63.136 902.191 63.136C907.791 63.136 910.031 66.592 910.031 73.088H898.639C898.831 75.68 900.591 77.248 903.375 77.248C905.423 77.248 907.215 76.48 908.815 75.584ZM898.639 70.144H905.935C905.775 67.776 904.655 66.272 902.415 66.272C900.271 66.272 898.863 67.68 898.639 70.144ZM917.764 80H913.476V56H917.764V80ZM930.296 79.68L930.552 76.16C931.896 76.832 933.304 77.248 934.776 77.248C935.928 77.248 937.592 76.8 937.592 75.232C937.592 73.856 936.248 73.44 934.52 72.96C931.64 72.192 930.136 71.008 930.136 68.256C930.136 64.928 932.92 63.136 936.632 63.136C937.944 63.136 939.224 63.264 941.272 63.744L940.984 66.976C939.512 66.464 938.52 66.272 937.176 66.272C935.672 66.272 934.616 66.88 934.616 68.096C934.616 69.024 935.512 69.472 937.464 70.016C940.536 70.88 942.072 72.256 942.072 75.008C942.072 78.624 938.968 80.384 935.128 80.384C933.56 80.384 931.864 80.096 930.296 79.68ZM955.075 76.608L955.203 80C954.307 80.256 953.315 80.384 952.067 80.384C948.579 80.384 946.819 78.208 946.819 75.04V66.656H943.651V63.52H946.819V60.224L951.107 58.848V63.52H954.915V66.656H951.107V74.304C951.107 76.032 951.651 77.056 953.155 77.056C953.891 77.056 954.627 76.896 955.075 76.608ZM971.673 80H967.897C967.769 79.392 967.737 78.272 967.705 77.536H967.641C966.681 79.296 964.601 80.384 962.553 80.384C959.577 80.384 956.793 78.592 956.793 75.456C956.793 72.608 958.425 69.824 964.857 69.824H967.513V69.76C967.513 67.008 966.105 66.272 963.801 66.272C961.977 66.272 960.153 66.976 958.713 68.064L958.585 64.384C960.121 63.68 962.329 63.136 964.313 63.136C969.241 63.136 971.417 65.12 971.417 70.08V73.472C971.417 74.336 971.481 77.792 971.673 80ZM967.513 72.576V72.384H965.625C962.585 72.384 960.889 73.28 960.889 75.232C960.889 76.512 961.881 77.248 963.609 77.248C965.529 77.248 967.513 75.936 967.513 72.576ZM985.294 76.608L985.422 80C984.526 80.256 983.534 80.384 982.286 80.384C978.798 80.384 977.038 78.208 977.038 75.04V66.656H973.87V63.52H977.038V60.224L981.326 58.848V63.52H985.134V66.656H981.326V74.304C981.326 76.032 981.87 77.056 983.374 77.056C984.11 77.056 984.846 76.896 985.294 76.608ZM1003.2 80H999.139V77.76H999.075C997.667 79.456 995.811 80.384 993.667 80.384C989.987 80.384 988.067 77.92 988.067 73.92V63.52H992.355V72.928C992.355 76.224 993.571 77.056 995.139 77.056C997.731 77.056 998.915 74.656 998.915 71.488V63.52H1003.2V80ZM1006.73 79.68L1006.99 76.16C1008.33 76.832 1009.74 77.248 1011.21 77.248C1012.37 77.248 1014.03 76.8 1014.03 75.232C1014.03 73.856 1012.69 73.44 1010.96 72.96C1008.08 72.192 1006.57 71.008 1006.57 68.256C1006.57 64.928 1009.36 63.136 1013.07 63.136C1014.38 63.136 1015.66 63.264 1017.71 63.744L1017.42 66.976C1015.95 66.464 1014.96 66.272 1013.61 66.272C1012.11 66.272 1011.05 66.88 1011.05 68.096C1011.05 69.024 1011.95 69.472 1013.9 70.016C1016.97 70.88 1018.51 72.256 1018.51 75.008C1018.51 78.624 1015.41 80.384 1011.57 80.384C1010 80.384 1008.3 80.096 1006.73 79.68Z" fill="#005EB8"/>
<rect x="73" y="110" width="474" height="516" rx="16" fill="#F0F4F5"/>
<rect x="114.5" y="151.5" width="391" height="61" fill="white"/>
<rect x="114.5" y="151.5" width="391" height="61" stroke="#4C6272" stroke-width="3"/>
<path d="M257.344 190H253.184V188.144H253.12C251.84 189.744 250.08 190.384 248.064 190.384C243.04 190.384 241.152 186.288 241.152 181.712C241.152 176.72 243.328 173.136 248.064 173.136C250.208 173.136 251.712 173.872 252.992 175.44H253.056V166H257.344V190ZM249.248 187.056C252.064 187.056 253.024 184.112 253.024 181.712C253.024 179.408 251.936 176.464 249.184 176.464C246.592 176.464 245.632 179.152 245.632 181.712C245.632 184.048 246.464 187.056 249.248 187.056ZM274.987 185.584V189.072C273.419 189.936 271.627 190.384 269.355 190.384C263.883 190.384 260.715 187.248 260.715 181.84C260.715 177.232 263.115 173.136 268.363 173.136C273.963 173.136 276.203 176.592 276.203 183.088H264.811C265.003 185.68 266.763 187.248 269.547 187.248C271.595 187.248 273.387 186.48 274.987 185.584ZM264.811 180.144H272.107C271.947 177.776 270.827 176.272 268.587 176.272C266.443 176.272 265.035 177.68 264.811 180.144ZM283.936 190H279.648V166H283.936V190ZM292.842 170.512H288.554V166.416H292.842V170.512ZM292.842 190H288.554V173.52H292.842V190ZM306.484 190H301.652L295.54 173.52H300.148L304.244 185.52H304.308L308.276 173.52H312.564L306.484 190ZM328.362 185.584V189.072C326.794 189.936 325.002 190.384 322.73 190.384C317.258 190.384 314.09 187.248 314.09 181.84C314.09 177.232 316.49 173.136 321.738 173.136C327.338 173.136 329.578 176.592 329.578 183.088H318.186C318.378 185.68 320.138 187.248 322.922 187.248C324.97 187.248 326.762 186.48 328.362 185.584ZM318.186 180.144H325.482C325.322 177.776 324.202 176.272 321.962 176.272C319.818 176.272 318.41 177.68 318.186 180.144ZM337.311 190H333.023V173.52H336.831V177.264H336.895C337.151 175.536 338.943 173.136 341.439 173.136C342.335 173.136 342.591 173.232 342.719 173.264V177.584C342.335 177.36 341.567 177.232 340.799 177.232C339.199 177.232 337.311 178.096 337.311 183.216V190ZM358.018 185.584V189.072C356.45 189.936 354.658 190.384 352.386 190.384C346.914 190.384 343.746 187.248 343.746 181.84C343.746 177.232 346.146 173.136 351.394 173.136C356.994 173.136 359.234 176.592 359.234 183.088H347.842C348.034 185.68 349.794 187.248 352.578 187.248C354.626 187.248 356.418 186.48 358.018 185.584ZM347.842 180.144H355.138C354.978 177.776 353.858 176.272 351.618 176.272C349.474 176.272 348.066 177.68 347.842 180.144ZM377.719 190H373.559V188.144H373.495C372.215 189.744 370.455 190.384 368.439 190.384C363.415 190.384 361.527 186.288 361.527 181.712C361.527 176.72 363.703 173.136 368.439 173.136C370.583 173.136 372.087 173.872 373.367 175.44H373.431V166H377.719V190ZM369.623 187.056C372.439 187.056 373.399 184.112 373.399 181.712C373.399 179.408 372.311 176.464 369.559 176.464C366.967 176.464 366.007 179.152 366.007 181.712C366.007 184.048 366.839 187.056 369.623 187.056Z" fill="#4C6272"/>
<rect x="114.5" y="275.5" width="391" height="61" fill="white"/>
<rect x="114.5" y="275.5" width="391" height="61" stroke="#4C6272" stroke-width="3"/>
<path d="M185.872 310.608L186 314C185.104 314.256 184.112 314.384 182.864 314.384C179.376 314.384 177.616 312.208 177.616 309.04V300.656H174.448V297.52H177.616V294.224L181.904 292.848V297.52H185.712V300.656H181.904V308.304C181.904 310.032 182.448 311.056 183.952 311.056C184.688 311.056 185.424 310.896 185.872 310.608ZM201.862 309.584V313.072C200.294 313.936 198.502 314.384 196.23 314.384C190.758 314.384 187.59 311.248 187.59 305.84C187.59 301.232 189.99 297.136 195.238 297.136C200.838 297.136 203.078 300.592 203.078 307.088H191.686C191.878 309.68 193.638 311.248 196.422 311.248C198.47 311.248 200.262 310.48 201.862 309.584ZM191.686 304.144H198.982C198.822 301.776 197.702 300.272 195.462 300.272C193.318 300.272 191.91 301.68 191.686 304.144ZM230.555 314H226.267V303.728C226.267 301.264 225.339 300.464 223.803 300.464C221.627 300.464 220.603 302.48 220.603 305.936V314H216.315V303.728C216.315 301.328 215.451 300.464 213.851 300.464C211.611 300.464 210.651 302.576 210.651 305.904V314H206.363V297.52H210.363V299.824H210.427C211.547 298.16 213.275 297.136 215.355 297.136C217.627 297.136 219.259 298 220.187 300.048C221.083 298.224 223.099 297.136 225.371 297.136C228.859 297.136 230.555 299.248 230.555 303.536V314ZM239.152 320.72H234.864V297.52H238.96V299.856H239.024C240.112 298.064 241.84 297.136 244.144 297.136C248.944 297.136 251.056 300.816 251.056 305.712C251.056 310.544 248.976 314.384 244.048 314.384C241.84 314.384 240.528 313.68 239.216 312.112H239.152V320.72ZM242.96 311.056C245.744 311.056 246.576 308.048 246.576 305.712C246.576 303.44 245.776 300.464 243.024 300.464C240.24 300.464 239.184 303.44 239.184 305.712C239.184 308.144 240.176 311.056 242.96 311.056ZM270.619 305.872C270.619 310.768 267.291 314.384 261.979 314.384C256.667 314.384 253.371 310.736 253.371 305.872C253.371 300.592 256.955 297.136 261.979 297.136C267.003 297.136 270.619 300.56 270.619 305.872ZM261.979 311.056C264.763 311.056 266.139 308.912 266.139 305.36C266.139 302.736 264.731 300.464 261.979 300.464C259.291 300.464 257.851 302.768 257.851 305.36C257.851 308.848 259.195 311.056 261.979 311.056ZM278.373 314H274.085V297.52H277.893V301.264H277.957C278.213 299.536 280.005 297.136 282.501 297.136C283.397 297.136 283.653 297.232 283.781 297.264V301.584C283.397 301.36 282.629 301.232 281.861 301.232C280.261 301.232 278.373 302.096 278.373 307.216V314ZM300.251 314H296.475C296.347 313.392 296.315 312.272 296.283 311.536H296.219C295.259 313.296 293.179 314.384 291.131 314.384C288.155 314.384 285.371 312.592 285.371 309.456C285.371 306.608 287.003 303.824 293.435 303.824H296.091V303.76C296.091 301.008 294.683 300.272 292.379 300.272C290.555 300.272 288.731 300.976 287.291 302.064L287.163 298.384C288.699 297.68 290.907 297.136 292.891 297.136C297.819 297.136 299.995 299.12 299.995 304.08V307.472C299.995 308.336 300.059 311.792 300.251 314ZM296.091 306.576V306.384H294.203C291.163 306.384 289.467 307.28 289.467 309.232C289.467 310.512 290.459 311.248 292.187 311.248C294.107 311.248 296.091 309.936 296.091 306.576ZM308.592 314H304.304V297.52H308.112V301.264H308.176C308.432 299.536 310.224 297.136 312.72 297.136C313.616 297.136 313.872 297.232 314 297.264V301.584C313.616 301.36 312.848 301.232 312.08 301.232C310.48 301.232 308.592 302.096 308.592 307.216V314ZM315.814 320.656L316.102 317.488C316.742 317.712 317.414 317.776 318.278 317.776C320.102 317.776 321.094 316.528 321.094 314.832L314.79 297.52H319.526L323.494 309.552H323.558L327.526 297.52H331.878L324.966 315.824C323.718 319.088 322.31 321.104 318.79 321.104C317.83 321.104 316.806 320.944 315.814 320.656ZM348.219 318H332.219V316.4H348.219V318ZM356.283 314H351.995V300.656H348.827V297.52H351.995V295.184C351.995 292.4 353.435 289.616 357.307 289.616C358.299 289.616 359.547 289.776 360.379 289.968L360.027 293.52C359.355 293.104 358.843 292.944 358.171 292.944C356.923 292.944 356.283 293.904 356.283 295.472V297.52H360.027V300.656H356.283V314ZM376.688 314H372.912C372.784 313.392 372.752 312.272 372.72 311.536H372.656C371.696 313.296 369.616 314.384 367.568 314.384C364.592 314.384 361.808 312.592 361.808 309.456C361.808 306.608 363.44 303.824 369.872 303.824H372.528V303.76C372.528 301.008 371.12 300.272 368.816 300.272C366.992 300.272 365.168 300.976 363.728 302.064L363.6 298.384C365.136 297.68 367.344 297.136 369.328 297.136C374.256 297.136 376.432 299.12 376.432 304.08V307.472C376.432 308.336 376.496 311.792 376.688 314ZM372.528 306.576V306.384H370.64C367.6 306.384 365.904 307.28 365.904 309.232C365.904 310.512 366.896 311.248 368.624 311.248C370.544 311.248 372.528 309.936 372.528 306.576ZM385.03 294.512H380.742V290.416H385.03V294.512ZM385.03 314H380.742V297.52H385.03V314ZM393.936 314H389.648V290H393.936V314ZM413.594 314H409.53V311.76H409.466C408.058 313.456 406.202 314.384 404.058 314.384C400.378 314.384 398.458 311.92 398.458 307.92V297.52H402.746V306.928C402.746 310.224 403.962 311.056 405.53 311.056C408.122 311.056 409.306 308.656 409.306 305.488V297.52H413.594V314ZM422.405 314H418.117V297.52H421.925V301.264H421.989C422.245 299.536 424.036 297.136 426.533 297.136C427.429 297.136 427.685 297.232 427.813 297.264V301.584C427.429 301.36 426.661 301.232 425.893 301.232C424.293 301.232 422.405 302.096 422.405 307.216V314ZM443.112 309.584V313.072C441.544 313.936 439.752 314.384 437.48 314.384C432.008 314.384 428.84 311.248 428.84 305.84C428.84 301.232 431.24 297.136 436.488 297.136C442.088 297.136 444.328 300.592 444.328 307.088H432.936C433.128 309.68 434.888 311.248 437.672 311.248C439.72 311.248 441.512 310.48 443.112 309.584ZM432.936 304.144H440.232C440.072 301.776 438.952 300.272 436.712 300.272C434.568 300.272 433.16 301.68 432.936 304.144Z" fill="#4C6272"/>
<rect x="114.5" y="399.5" width="391" height="61" fill="white"/>
<rect x="114.5" y="399.5" width="391" height="61" stroke="#4C6272" stroke-width="3"/>
<path d="M198.372 434.608L198.5 438C197.604 438.256 196.612 438.384 195.364 438.384C191.876 438.384 190.116 436.208 190.116 433.04V424.656H186.948V421.52H190.116V418.224L194.404 416.848V421.52H198.212V424.656H194.404V432.304C194.404 434.032 194.948 435.056 196.452 435.056C197.188 435.056 197.924 434.896 198.372 434.608ZM214.362 433.584V437.072C212.794 437.936 211.002 438.384 208.73 438.384C203.258 438.384 200.09 435.248 200.09 429.84C200.09 425.232 202.49 421.136 207.738 421.136C213.338 421.136 215.578 424.592 215.578 431.088H204.186C204.378 433.68 206.138 435.248 208.922 435.248C210.97 435.248 212.762 434.48 214.362 433.584ZM204.186 428.144H211.482C211.322 425.776 210.202 424.272 207.962 424.272C205.818 424.272 204.41 425.68 204.186 428.144ZM230.095 434.288L230.287 437.84C229.007 438.224 227.791 438.384 226.031 438.384C220.879 438.384 217.871 435.056 217.871 429.68C217.871 424.752 220.815 421.136 225.871 421.136C227.535 421.136 228.815 421.328 229.999 421.68L229.615 425.072C228.783 424.688 227.919 424.464 226.735 424.464C224.047 424.464 222.351 426.576 222.351 429.68C222.351 432.88 223.919 435.056 226.799 435.056C227.727 435.056 228.975 434.768 230.095 434.288ZM248.282 438H243.994V428.688C243.994 425.68 243.098 424.464 241.21 424.464C238.682 424.464 237.434 426.768 237.434 430.032V438H233.146V414H237.434V423.76H237.498C238.554 422.192 240.41 421.136 242.682 421.136C246.49 421.136 248.282 423.792 248.282 427.568V438ZM267.844 438H263.556V428.752C263.556 426.288 263.044 424.464 260.772 424.464C258.052 424.464 256.996 427.088 256.996 430V438H252.708V421.52H256.772V423.76H256.836C258.148 421.904 259.972 421.136 262.244 421.136C266.02 421.136 267.844 423.728 267.844 427.6V438ZM276.655 418.512H272.367V414.416H276.655V418.512ZM276.655 438H272.367V421.52H276.655V438ZM292.345 434.288L292.537 437.84C291.257 438.224 290.041 438.384 288.281 438.384C283.129 438.384 280.121 435.056 280.121 429.68C280.121 424.752 283.065 421.136 288.121 421.136C289.785 421.136 291.065 421.328 292.249 421.68L291.865 425.072C291.033 424.688 290.169 424.464 288.985 424.464C286.297 424.464 284.601 426.576 284.601 429.68C284.601 432.88 286.169 435.056 289.049 435.056C289.977 435.056 291.225 434.768 292.345 434.288ZM309.22 438H305.444C305.316 437.392 305.284 436.272 305.252 435.536H305.188C304.228 437.296 302.148 438.384 300.1 438.384C297.124 438.384 294.34 436.592 294.34 433.456C294.34 430.608 295.972 427.824 302.404 427.824H305.06V427.76C305.06 425.008 303.652 424.272 301.348 424.272C299.524 424.272 297.7 424.976 296.26 426.064L296.132 422.384C297.668 421.68 299.876 421.136 301.86 421.136C306.788 421.136 308.964 423.12 308.964 428.08V431.472C308.964 432.336 309.028 435.792 309.22 438ZM305.06 430.576V430.384H303.172C300.132 430.384 298.436 431.28 298.436 433.232C298.436 434.512 299.428 435.248 301.156 435.248C303.076 435.248 305.06 433.936 305.06 430.576ZM317.561 438H313.273V414H317.561V438ZM335.875 442H319.875V440.4H335.875V442ZM343.939 438H339.651V424.656H336.483V421.52H339.651V419.184C339.651 416.4 341.091 413.616 344.963 413.616C345.955 413.616 347.203 413.776 348.035 413.968L347.683 417.52C347.011 417.104 346.499 416.944 345.827 416.944C344.579 416.944 343.939 417.904 343.939 419.472V421.52H347.683V424.656H343.939V438ZM364.345 438H360.569C360.441 437.392 360.409 436.272 360.377 435.536H360.313C359.353 437.296 357.273 438.384 355.225 438.384C352.249 438.384 349.465 436.592 349.465 433.456C349.465 430.608 351.097 427.824 357.529 427.824H360.185V427.76C360.185 425.008 358.777 424.272 356.473 424.272C354.649 424.272 352.825 424.976 351.385 426.064L351.257 422.384C352.793 421.68 355.001 421.136 356.985 421.136C361.913 421.136 364.089 423.12 364.089 428.08V431.472C364.089 432.336 364.153 435.792 364.345 438ZM360.185 430.576V430.384H358.297C355.257 430.384 353.561 431.28 353.561 433.232C353.561 434.512 354.553 435.248 356.281 435.248C358.201 435.248 360.185 433.936 360.185 430.576ZM372.686 418.512H368.398V414.416H372.686V418.512ZM372.686 438H368.398V421.52H372.686V438ZM381.592 438H377.304V414H381.592V438ZM401.25 438H397.186V435.76H397.122C395.714 437.456 393.858 438.384 391.714 438.384C388.034 438.384 386.114 435.92 386.114 431.92V421.52H390.402V430.928C390.402 434.224 391.618 435.056 393.186 435.056C395.778 435.056 396.962 432.656 396.962 429.488V421.52H401.25V438ZM410.061 438H405.773V421.52H409.581V425.264H409.645C409.901 423.536 411.693 421.136 414.189 421.136C415.085 421.136 415.341 421.232 415.469 421.264V425.584C415.085 425.36 414.317 425.232 413.549 425.232C411.949 425.232 410.061 426.096 410.061 431.216V438ZM430.768 433.584V437.072C429.2 437.936 427.408 438.384 425.136 438.384C419.664 438.384 416.496 435.248 416.496 429.84C416.496 425.232 418.896 421.136 424.144 421.136C429.744 421.136 431.984 424.592 431.984 431.088H420.592C420.784 433.68 422.544 435.248 425.328 435.248C427.376 435.248 429.168 434.48 430.768 433.584ZM420.592 428.144H427.888C427.728 425.776 426.608 424.272 424.368 424.272C422.224 424.272 420.816 425.68 420.592 428.144Z" fill="#4C6272"/>
<rect x="114.5" y="523.5" width="391" height="61" fill="white"/>
<rect x="114.5" y="523.5" width="391" height="61" stroke="#4C6272" stroke-width="3"/>
<path d="M176.996 568.72H172.708V545.52H176.804V547.856H176.868C177.956 546.064 179.684 545.136 181.988 545.136C186.788 545.136 188.9 548.816 188.9 553.712C188.9 558.544 186.82 562.384 181.892 562.384C179.684 562.384 178.372 561.68 177.06 560.112H176.996V568.72ZM180.804 559.056C183.588 559.056 184.42 556.048 184.42 553.712C184.42 551.44 183.62 548.464 180.868 548.464C178.084 548.464 177.028 551.44 177.028 553.712C177.028 556.144 178.02 559.056 180.804 559.056ZM205.487 557.584V561.072C203.919 561.936 202.127 562.384 199.855 562.384C194.383 562.384 191.215 559.248 191.215 553.84C191.215 549.232 193.615 545.136 198.863 545.136C204.463 545.136 206.703 548.592 206.703 555.088H195.311C195.503 557.68 197.263 559.248 200.047 559.248C202.095 559.248 203.887 558.48 205.487 557.584ZM195.311 552.144H202.607C202.447 549.776 201.327 548.272 199.087 548.272C196.943 548.272 195.535 549.68 195.311 552.144ZM214.436 562H210.148V545.52H213.956V549.264H214.02C214.276 547.536 216.068 545.136 218.564 545.136C219.46 545.136 219.716 545.232 219.844 545.264V549.584C219.46 549.36 218.692 549.232 217.924 549.232C216.324 549.232 214.436 550.096 214.436 555.216V562ZM246.617 562H242.329V551.728C242.329 549.264 241.401 548.464 239.865 548.464C237.689 548.464 236.665 550.48 236.665 553.936V562H232.377V551.728C232.377 549.328 231.513 548.464 229.913 548.464C227.673 548.464 226.713 550.576 226.713 553.904V562H222.425V545.52H226.425V547.824H226.489C227.609 546.16 229.337 545.136 231.417 545.136C233.689 545.136 235.321 546 236.249 548.048C237.145 546.224 239.161 545.136 241.433 545.136C244.921 545.136 246.617 547.248 246.617 551.536V562ZM264.751 562H260.975C260.847 561.392 260.815 560.272 260.783 559.536H260.719C259.759 561.296 257.679 562.384 255.631 562.384C252.655 562.384 249.871 560.592 249.871 557.456C249.871 554.608 251.503 551.824 257.935 551.824H260.591V551.76C260.591 549.008 259.183 548.272 256.879 548.272C255.055 548.272 253.231 548.976 251.791 550.064L251.663 546.384C253.199 545.68 255.407 545.136 257.391 545.136C262.319 545.136 264.495 547.12 264.495 552.08V555.472C264.495 556.336 264.559 559.792 264.751 562ZM260.591 554.576V554.384H258.703C255.663 554.384 253.967 555.28 253.967 557.232C253.967 558.512 254.959 559.248 256.687 559.248C258.607 559.248 260.591 557.936 260.591 554.576ZM283.844 562H279.556V552.752C279.556 550.288 279.044 548.464 276.772 548.464C274.052 548.464 272.996 551.088 272.996 554V562H268.708V545.52H272.772V547.76H272.836C274.148 545.904 275.972 545.136 278.244 545.136C282.02 545.136 283.844 547.728 283.844 551.6V562ZM301.487 557.584V561.072C299.919 561.936 298.127 562.384 295.855 562.384C290.383 562.384 287.215 559.248 287.215 553.84C287.215 549.232 289.615 545.136 294.863 545.136C300.463 545.136 302.703 548.592 302.703 555.088H291.311C291.503 557.68 293.263 559.248 296.047 559.248C298.095 559.248 299.887 558.48 301.487 557.584ZM291.311 552.144H298.607C298.447 549.776 297.327 548.272 295.087 548.272C292.943 548.272 291.535 549.68 291.311 552.144ZM321.188 562H316.9V552.752C316.9 550.288 316.388 548.464 314.116 548.464C311.396 548.464 310.34 551.088 310.34 554V562H306.052V545.52H310.116V547.76H310.18C311.492 545.904 313.316 545.136 315.588 545.136C319.364 545.136 321.188 547.728 321.188 551.6V562ZM335.278 558.608L335.406 562C334.51 562.256 333.518 562.384 332.27 562.384C328.782 562.384 327.022 560.208 327.022 557.04V548.656H323.854V545.52H327.022V542.224L331.31 540.848V545.52H335.118V548.656H331.31V556.304C331.31 558.032 331.854 559.056 333.358 559.056C334.094 559.056 334.83 558.896 335.278 558.608ZM351.844 566H335.844V564.4H351.844V566ZM359.908 562H355.62V548.656H352.452V545.52H355.62V543.184C355.62 540.4 357.06 537.616 360.932 537.616C361.924 537.616 363.172 537.776 364.004 537.968L363.652 541.52C362.98 541.104 362.468 540.944 361.796 540.944C360.548 540.944 359.908 541.904 359.908 543.472V545.52H363.652V548.656H359.908V562ZM380.313 562H376.537C376.409 561.392 376.377 560.272 376.345 559.536H376.281C375.321 561.296 373.241 562.384 371.193 562.384C368.217 562.384 365.433 560.592 365.433 557.456C365.433 554.608 367.065 551.824 373.497 551.824H376.153V551.76C376.153 549.008 374.745 548.272 372.441 548.272C370.617 548.272 368.793 548.976 367.353 550.064L367.225 546.384C368.761 545.68 370.969 545.136 372.953 545.136C377.881 545.136 380.057 547.12 380.057 552.08V555.472C380.057 556.336 380.121 559.792 380.313 562ZM376.153 554.576V554.384H374.265C371.225 554.384 369.529 555.28 369.529 557.232C369.529 558.512 370.521 559.248 372.249 559.248C374.169 559.248 376.153 557.936 376.153 554.576ZM388.655 542.512H384.367V538.416H388.655V542.512ZM388.655 562H384.367V545.52H388.655V562ZM397.561 562H393.273V538H397.561V562ZM417.219 562H413.155V559.76H413.091C411.683 561.456 409.827 562.384 407.683 562.384C404.003 562.384 402.083 559.92 402.083 555.92V545.52H406.371V554.928C406.371 558.224 407.587 559.056 409.155 559.056C411.747 559.056 412.931 556.656 412.931 553.488V545.52H417.219V562ZM426.03 562H421.742V545.52H425.55V549.264H425.614C425.87 547.536 427.661 545.136 430.158 545.136C431.054 545.136 431.31 545.232 431.438 545.264V549.584C431.054 549.36 430.286 549.232 429.518 549.232C427.918 549.232 426.03 550.096 426.03 555.216V562ZM446.737 557.584V561.072C445.169 561.936 443.377 562.384 441.105 562.384C435.633 562.384 432.465 559.248 432.465 553.84C432.465 549.232 434.865 545.136 440.113 545.136C445.713 545.136 447.953 548.592 447.953 555.088H436.561C436.753 557.68 438.513 559.248 441.297 559.248C443.345 559.248 445.137 558.48 446.737 557.584ZM436.561 552.144H443.857C443.697 549.776 442.577 548.272 440.337 548.272C438.193 548.272 436.785 549.68 436.561 552.144Z" fill="#4C6272"/>
<rect x="671" y="110" width="474" height="268" rx="16" fill="#97BDFB" fill-opacity="0.5"/>
<rect x="712.5" y="151.5" width="391" height="61" fill="white"/>
<rect x="712.5" y="151.5" width="391" height="61" stroke="#005EB8" stroke-width="3"/>
<path d="M855.344 190H851.184V188.144H851.12C849.84 189.744 848.08 190.384 846.064 190.384C841.04 190.384 839.152 186.288 839.152 181.712C839.152 176.72 841.328 173.136 846.064 173.136C848.208 173.136 849.712 173.872 850.992 175.44H851.056V166H855.344V190ZM847.248 187.056C850.064 187.056 851.024 184.112 851.024 181.712C851.024 179.408 849.936 176.464 847.184 176.464C844.592 176.464 843.632 179.152 843.632 181.712C843.632 184.048 844.464 187.056 847.248 187.056ZM872.987 185.584V189.072C871.419 189.936 869.627 190.384 867.355 190.384C861.883 190.384 858.715 187.248 858.715 181.84C858.715 177.232 861.115 173.136 866.363 173.136C871.963 173.136 874.203 176.592 874.203 183.088H862.811C863.003 185.68 864.763 187.248 867.547 187.248C869.595 187.248 871.387 186.48 872.987 185.584ZM862.811 180.144H870.107C869.947 177.776 868.827 176.272 866.587 176.272C864.443 176.272 863.035 177.68 862.811 180.144ZM881.936 190H877.648V166H881.936V190ZM890.842 170.512H886.554V166.416H890.842V170.512ZM890.842 190H886.554V173.52H890.842V190ZM904.484 190H899.652L893.54 173.52H898.148L902.244 185.52H902.308L906.276 173.52H910.564L904.484 190ZM926.362 185.584V189.072C924.794 189.936 923.002 190.384 920.73 190.384C915.258 190.384 912.09 187.248 912.09 181.84C912.09 177.232 914.49 173.136 919.738 173.136C925.338 173.136 927.578 176.592 927.578 183.088H916.186C916.378 185.68 918.138 187.248 920.922 187.248C922.97 187.248 924.762 186.48 926.362 185.584ZM916.186 180.144H923.482C923.322 177.776 922.202 176.272 919.962 176.272C917.818 176.272 916.41 177.68 916.186 180.144ZM935.311 190H931.023V173.52H934.831V177.264H934.895C935.151 175.536 936.943 173.136 939.439 173.136C940.335 173.136 940.591 173.232 940.719 173.264V177.584C940.335 177.36 939.567 177.232 938.799 177.232C937.199 177.232 935.311 178.096 935.311 183.216V190ZM956.018 185.584V189.072C954.45 189.936 952.658 190.384 950.386 190.384C944.914 190.384 941.746 187.248 941.746 181.84C941.746 177.232 944.146 173.136 949.394 173.136C954.994 173.136 957.234 176.592 957.234 183.088H945.842C946.034 185.68 947.794 187.248 950.578 187.248C952.626 187.248 954.418 186.48 956.018 185.584ZM945.842 180.144H953.138C952.978 177.776 951.858 176.272 949.618 176.272C947.474 176.272 946.066 177.68 945.842 180.144ZM975.719 190H971.559V188.144H971.495C970.215 189.744 968.455 190.384 966.439 190.384C961.415 190.384 959.527 186.288 959.527 181.712C959.527 176.72 961.703 173.136 966.439 173.136C968.583 173.136 970.087 173.872 971.367 175.44H971.431V166H975.719V190ZM967.623 187.056C970.439 187.056 971.399 184.112 971.399 181.712C971.399 179.408 970.311 176.464 967.559 176.464C964.967 176.464 964.007 179.152 964.007 181.712C964.007 184.048 964.839 187.056 967.623 187.056Z" fill="#005EB8"/>
<rect x="712.5" y="275.5" width="391" height="61" fill="white"/>
<rect x="712.5" y="275.5" width="391" height="61" stroke="#005EB8" stroke-width="3"/>
<path d="M873.064 314H868.776V300.656H865.608V297.52H868.776V295.184C868.776 292.4 870.216 289.616 874.088 289.616C875.08 289.616 876.328 289.776 877.16 289.968L876.808 293.52C876.136 293.104 875.624 292.944 874.952 292.944C873.704 292.944 873.064 293.904 873.064 295.472V297.52H876.808V300.656H873.064V314ZM893.47 314H889.694C889.566 313.392 889.534 312.272 889.502 311.536H889.438C888.478 313.296 886.398 314.384 884.35 314.384C881.374 314.384 878.59 312.592 878.59 309.456C878.59 306.608 880.222 303.824 886.654 303.824H889.31V303.76C889.31 301.008 887.902 300.272 885.598 300.272C883.774 300.272 881.95 300.976 880.51 302.064L880.382 298.384C881.918 297.68 884.126 297.136 886.11 297.136C891.038 297.136 893.214 299.12 893.214 304.08V307.472C893.214 308.336 893.278 311.792 893.47 314ZM889.31 306.576V306.384H887.422C884.382 306.384 882.686 307.28 882.686 309.232C882.686 310.512 883.678 311.248 885.406 311.248C887.326 311.248 889.31 309.936 889.31 306.576ZM901.811 294.512H897.523V290.416H901.811V294.512ZM901.811 314H897.523V297.52H901.811V314ZM910.717 314H906.429V290H910.717V314ZM928.455 309.584V313.072C926.887 313.936 925.095 314.384 922.823 314.384C917.351 314.384 914.183 311.248 914.183 305.84C914.183 301.232 916.583 297.136 921.831 297.136C927.431 297.136 929.671 300.592 929.671 307.088H918.279C918.471 309.68 920.231 311.248 923.015 311.248C925.063 311.248 926.855 310.48 928.455 309.584ZM918.279 304.144H925.575C925.415 301.776 924.295 300.272 922.055 300.272C919.911 300.272 918.503 301.68 918.279 304.144ZM948.157 314H943.997V312.144H943.933C942.653 313.744 940.893 314.384 938.877 314.384C933.853 314.384 931.965 310.288 931.965 305.712C931.965 300.72 934.141 297.136 938.877 297.136C941.021 297.136 942.525 297.872 943.805 299.44H943.869V290H948.157V314ZM940.061 311.056C942.877 311.056 943.837 308.112 943.837 305.712C943.837 303.408 942.749 300.464 939.997 300.464C937.405 300.464 936.445 303.152 936.445 305.712C936.445 308.048 937.277 311.056 940.061 311.056Z" fill="#005EB8"/>
<path d="M701 184L686 175.34L686 192.66L701 184ZM521 185.5L687.5 185.5L687.5 182.5L521 182.5L521 185.5Z" fill="#005EB8"/>
<path d="M701 306L686 297.34L686 314.66L701 306ZM521 307.5L687.5 307.5L687.5 304.5L521 304.5L521 307.5Z" fill="#005EB8"/>
<path d="M570.765 431V432.5H571.552L571.999 431.852L570.765 431ZM657.059 306V304.5H656.272L655.824 305.148L657.059 306ZM701 306L686 297.34V314.66L701 306ZM521 432.5H570.765V429.5H521V432.5ZM571.999 431.852L658.293 306.852L655.824 305.148L569.53 430.148L571.999 431.852ZM657.059 307.5H687.5V304.5H657.059V307.5Z" fill="#005EB8"/>
<path d="M521 554H570V431" stroke="#005EB8" stroke-width="3"/>
</svg>
